G04 #@! TF.GenerationSoftware,KiCad,Pcbnew,(6.0.10-0)*
G04 #@! TF.CreationDate,2023-01-05T22:10:35+09:00*
G04 #@! TF.ProjectId,MEZZ180,4d455a5a-3138-4302-9e6b-696361645f70,A*
G04 #@! TF.SameCoordinates,PX5f5e100PY8f0d180*
G04 #@! TF.FileFunction,Soldermask,Bot*
G04 #@! TF.FilePolarity,Negative*
%FSLAX46Y46*%
G04 Gerber Fmt 4.6, Leading zero omitted, Abs format (unit mm)*
G04 Created by KiCad (PCBNEW (6.0.10-0)) date 2023-01-05 22:10:35*
%MOMM*%
%LPD*%
G01*
G04 APERTURE LIST*
%ADD10C,1.600000*%
%ADD11O,1.600000X1.600000*%
%ADD12R,1.422400X1.422400*%
%ADD13C,1.422400*%
%ADD14R,1.700000X1.700000*%
%ADD15O,1.700000X1.700000*%
%ADD16C,0.605000*%
G04 APERTURE END LIST*
D10*
X1905000Y11430000D03*
D11*
X1905000Y21590000D03*
D12*
X32385000Y25400000D03*
D13*
X29845000Y25400000D03*
X32385000Y27940000D03*
X29845000Y27940000D03*
X32385000Y30480000D03*
X29845000Y30480000D03*
X32385000Y33020000D03*
X29845000Y33020000D03*
X32385000Y35560000D03*
X29845000Y38100000D03*
X29845000Y35560000D03*
X27305000Y38100000D03*
X27305000Y35560000D03*
X24765000Y38100000D03*
X24765000Y35560000D03*
X22225000Y38100000D03*
X22225000Y35560000D03*
X19685000Y38100000D03*
X19685000Y35560000D03*
X17145000Y38100000D03*
X17145000Y35560000D03*
X14605000Y38100000D03*
X14605000Y35560000D03*
X12065000Y38100000D03*
X12065000Y35560000D03*
X9525000Y38100000D03*
X6985000Y35560000D03*
X9525000Y35560000D03*
X6985000Y33020000D03*
X9525000Y33020000D03*
X6985000Y30480000D03*
X9525000Y30480000D03*
X6985000Y27940000D03*
X9525000Y27940000D03*
X6985000Y25400000D03*
X9525000Y25400000D03*
X6985000Y22860000D03*
X9525000Y22860000D03*
X6985000Y20320000D03*
X9525000Y20320000D03*
X6985000Y17780000D03*
X9525000Y17780000D03*
X6985000Y15240000D03*
X9525000Y12700000D03*
X9525000Y15240000D03*
X12065000Y12700000D03*
X12065000Y15240000D03*
X14605000Y12700000D03*
X14605000Y15240000D03*
X17145000Y12700000D03*
X17145000Y15240000D03*
X19685000Y12700000D03*
X19685000Y15240000D03*
X22225000Y12700000D03*
X22225000Y15240000D03*
X24765000Y12700000D03*
X24765000Y15240000D03*
X27305000Y12700000D03*
X27305000Y15240000D03*
X29845000Y12700000D03*
X32385000Y15240000D03*
X29845000Y15240000D03*
X32385000Y17780000D03*
X29845000Y17780000D03*
X32385000Y20320000D03*
X29845000Y20320000D03*
X32385000Y22860000D03*
X29845000Y22860000D03*
D10*
X1905000Y25420000D03*
X1905000Y27920000D03*
D14*
X26035000Y52070000D03*
D15*
X26035000Y49530000D03*
X26035000Y46990000D03*
X26035000Y44450000D03*
X26035000Y41910000D03*
X26035000Y39370000D03*
X26035000Y36830000D03*
X26035000Y34290000D03*
X26035000Y31750000D03*
X26035000Y29210000D03*
X26035000Y26670000D03*
X26035000Y24130000D03*
X26035000Y21590000D03*
X26035000Y19050000D03*
X26035000Y16510000D03*
X26035000Y13970000D03*
X26035000Y11430000D03*
X26035000Y8890000D03*
X26035000Y6350000D03*
X26035000Y3810000D03*
D14*
X10795000Y52070000D03*
D15*
X10795000Y49530000D03*
X10795000Y46990000D03*
X10795000Y44450000D03*
X10795000Y41910000D03*
X10795000Y39370000D03*
X10795000Y36830000D03*
X10795000Y34290000D03*
X10795000Y31750000D03*
X10795000Y29210000D03*
X10795000Y26670000D03*
X10795000Y24130000D03*
X10795000Y21590000D03*
X10795000Y19050000D03*
X10795000Y16510000D03*
X10795000Y13970000D03*
X10795000Y11430000D03*
X10795000Y8890000D03*
X10795000Y6350000D03*
X10795000Y3810000D03*
D16*
X27940000Y34290000D03*
X13335000Y13970000D03*
X8890000Y1905000D03*
X13335000Y33655000D03*
X20955000Y13970000D03*
X35560000Y41275000D03*
X22225000Y24130000D03*
X27940000Y53975000D03*
X1270000Y41275000D03*
X13335000Y17145000D03*
X27940000Y1905000D03*
X8890000Y53975000D03*
X23622000Y39751000D03*
X22225000Y33655000D03*
X8479700Y36826200D03*
X12427900Y27133200D03*
M02*
