G04 #@! TF.GenerationSoftware,KiCad,Pcbnew,(6.0.10-0)*
G04 #@! TF.CreationDate,2022-12-24T01:35:34+09:00*
G04 #@! TF.ProjectId,MEZZ180,4d455a5a-3138-4302-9e6b-696361645f70,A*
G04 #@! TF.SameCoordinates,PX5f5e100PY8f0d180*
G04 #@! TF.FileFunction,Legend,Bot*
G04 #@! TF.FilePolarity,Positive*
%FSLAX46Y46*%
G04 Gerber Fmt 4.6, Leading zero omitted, Abs format (unit mm)*
G04 Created by KiCad (PCBNEW (6.0.10-0)) date 2022-12-24 01:35:34*
%MOMM*%
%LPD*%
G01*
G04 APERTURE LIST*
%ADD10C,0.150000*%
%ADD11C,0.120000*%
G04 APERTURE END LIST*
D10*
X23034047Y6897620D02*
X23034047Y6183334D01*
X23081666Y6040477D01*
X23176904Y5945239D01*
X23319761Y5897620D01*
X23415000Y5897620D01*
X22081666Y5897620D02*
X22557857Y5897620D01*
X22557857Y6897620D01*
X21176904Y5992858D02*
X21224523Y5945239D01*
X21367380Y5897620D01*
X21462619Y5897620D01*
X21605476Y5945239D01*
X21700714Y6040477D01*
X21748333Y6135715D01*
X21795952Y6326191D01*
X21795952Y6469048D01*
X21748333Y6659524D01*
X21700714Y6754762D01*
X21605476Y6850000D01*
X21462619Y6897620D01*
X21367380Y6897620D01*
X21224523Y6850000D01*
X21176904Y6802381D01*
X20462619Y6897620D02*
X20462619Y6183334D01*
X20510238Y6040477D01*
X20605476Y5945239D01*
X20748333Y5897620D01*
X20843571Y5897620D01*
X19510238Y5897620D02*
X19986428Y5897620D01*
X19986428Y6897620D01*
X18605476Y5992858D02*
X18653095Y5945239D01*
X18795952Y5897620D01*
X18891190Y5897620D01*
X19034047Y5945239D01*
X19129285Y6040477D01*
X19176904Y6135715D01*
X19224523Y6326191D01*
X19224523Y6469048D01*
X19176904Y6659524D01*
X19129285Y6754762D01*
X19034047Y6850000D01*
X18891190Y6897620D01*
X18795952Y6897620D01*
X18653095Y6850000D01*
X18605476Y6802381D01*
X17891190Y6897620D02*
X17891190Y6183334D01*
X17938809Y6040477D01*
X18034047Y5945239D01*
X18176904Y5897620D01*
X18272142Y5897620D01*
X16938809Y5897620D02*
X17415000Y5897620D01*
X17415000Y6897620D01*
X16034047Y5992858D02*
X16081666Y5945239D01*
X16224523Y5897620D01*
X16319761Y5897620D01*
X16462619Y5945239D01*
X16557857Y6040477D01*
X16605476Y6135715D01*
X16653095Y6326191D01*
X16653095Y6469048D01*
X16605476Y6659524D01*
X16557857Y6754762D01*
X16462619Y6850000D01*
X16319761Y6897620D01*
X16224523Y6897620D01*
X16081666Y6850000D01*
X16034047Y6802381D01*
X15319761Y6897620D02*
X15319761Y6183334D01*
X15367380Y6040477D01*
X15462619Y5945239D01*
X15605476Y5897620D01*
X15700714Y5897620D01*
X14367380Y5897620D02*
X14843571Y5897620D01*
X14843571Y6897620D01*
X13462619Y5992858D02*
X13510238Y5945239D01*
X13653095Y5897620D01*
X13748333Y5897620D01*
X13891190Y5945239D01*
X13986428Y6040477D01*
X14034047Y6135715D01*
X14081666Y6326191D01*
X14081666Y6469048D01*
X14034047Y6659524D01*
X13986428Y6754762D01*
X13891190Y6850000D01*
X13748333Y6897620D01*
X13653095Y6897620D01*
X13510238Y6850000D01*
X13462619Y6802381D01*
D11*
X12125000Y52070000D02*
X12125000Y53400000D01*
X9465000Y50800000D02*
X9465000Y2480000D01*
X12125000Y2480000D02*
X9465000Y2480000D01*
X12125000Y50800000D02*
X12125000Y2480000D01*
X12125000Y53400000D02*
X10795000Y53400000D01*
X12125000Y50800000D02*
X9465000Y50800000D01*
X27365000Y52070000D02*
X27365000Y53400000D01*
X27365000Y50800000D02*
X27365000Y2480000D01*
X27365000Y50800000D02*
X24705000Y50800000D01*
X27365000Y2480000D02*
X24705000Y2480000D01*
X24705000Y50800000D02*
X24705000Y2480000D01*
X27365000Y53400000D02*
X26035000Y53400000D01*
M02*
