G04 #@! TF.GenerationSoftware,KiCad,Pcbnew,(6.0.10-0)*
G04 #@! TF.CreationDate,2022-12-24T01:35:34+09:00*
G04 #@! TF.ProjectId,MEZZ180,4d455a5a-3138-4302-9e6b-696361645f70,A*
G04 #@! TF.SameCoordinates,PX5f5e100PY8f0d180*
G04 #@! TF.FileFunction,Copper,L2,Bot*
G04 #@! TF.FilePolarity,Positive*
%FSLAX46Y46*%
G04 Gerber Fmt 4.6, Leading zero omitted, Abs format (unit mm)*
G04 Created by KiCad (PCBNEW (6.0.10-0)) date 2022-12-24 01:35:34*
%MOMM*%
%LPD*%
G01*
G04 APERTURE LIST*
G04 #@! TA.AperFunction,ComponentPad*
%ADD10C,1.600000*%
G04 #@! TD*
G04 #@! TA.AperFunction,ComponentPad*
%ADD11O,1.600000X1.600000*%
G04 #@! TD*
G04 #@! TA.AperFunction,ComponentPad*
%ADD12R,1.700000X1.700000*%
G04 #@! TD*
G04 #@! TA.AperFunction,ComponentPad*
%ADD13O,1.700000X1.700000*%
G04 #@! TD*
G04 #@! TA.AperFunction,ComponentPad*
%ADD14C,1.422400*%
G04 #@! TD*
G04 #@! TA.AperFunction,ComponentPad*
%ADD15R,1.422400X1.422400*%
G04 #@! TD*
G04 #@! TA.AperFunction,ViaPad*
%ADD16C,0.605000*%
G04 #@! TD*
G04 #@! TA.AperFunction,Conductor*
%ADD17C,0.152400*%
G04 #@! TD*
G04 #@! TA.AperFunction,Conductor*
%ADD18C,0.400000*%
G04 #@! TD*
G04 APERTURE END LIST*
D10*
X1905000Y11430000D03*
D11*
X1905000Y21590000D03*
D12*
X10795000Y52070000D03*
D13*
X10795000Y49530000D03*
X10795000Y46990000D03*
X10795000Y44450000D03*
X10795000Y41910000D03*
X10795000Y39370000D03*
X10795000Y36830000D03*
X10795000Y34290000D03*
X10795000Y31750000D03*
X10795000Y29210000D03*
X10795000Y26670000D03*
X10795000Y24130000D03*
X10795000Y21590000D03*
X10795000Y19050000D03*
X10795000Y16510000D03*
X10795000Y13970000D03*
X10795000Y11430000D03*
X10795000Y8890000D03*
X10795000Y6350000D03*
X10795000Y3810000D03*
D14*
X29845000Y22860000D03*
X32385000Y22860000D03*
X29845000Y20320000D03*
X32385000Y20320000D03*
X29845000Y17780000D03*
X32385000Y17780000D03*
X29845000Y15240000D03*
X32385000Y15240000D03*
X29845000Y12700000D03*
X27305000Y15240000D03*
X27305000Y12700000D03*
X24765000Y15240000D03*
X24765000Y12700000D03*
X22225000Y15240000D03*
X22225000Y12700000D03*
X19685000Y15240000D03*
X19685000Y12700000D03*
X17145000Y15240000D03*
X17145000Y12700000D03*
X14605000Y15240000D03*
X14605000Y12700000D03*
X12065000Y15240000D03*
X12065000Y12700000D03*
X9525000Y15240000D03*
X9525000Y12700000D03*
X6985000Y15240000D03*
X9525000Y17780000D03*
X6985000Y17780000D03*
X9525000Y20320000D03*
X6985000Y20320000D03*
X9525000Y22860000D03*
X6985000Y22860000D03*
X9525000Y25400000D03*
X6985000Y25400000D03*
X9525000Y27940000D03*
X6985000Y27940000D03*
X9525000Y30480000D03*
X6985000Y30480000D03*
X9525000Y33020000D03*
X6985000Y33020000D03*
X9525000Y35560000D03*
X6985000Y35560000D03*
X9525000Y38100000D03*
X12065000Y35560000D03*
X12065000Y38100000D03*
X14605000Y35560000D03*
X14605000Y38100000D03*
X17145000Y35560000D03*
X17145000Y38100000D03*
X19685000Y35560000D03*
X19685000Y38100000D03*
X22225000Y35560000D03*
X22225000Y38100000D03*
X24765000Y35560000D03*
X24765000Y38100000D03*
X27305000Y35560000D03*
X27305000Y38100000D03*
X29845000Y35560000D03*
X29845000Y38100000D03*
X32385000Y35560000D03*
X29845000Y33020000D03*
X32385000Y33020000D03*
X29845000Y30480000D03*
X32385000Y30480000D03*
X29845000Y27940000D03*
X32385000Y27940000D03*
X29845000Y25400000D03*
D15*
X32385000Y25400000D03*
D10*
X1905000Y27920000D03*
X1905000Y25420000D03*
D13*
X26035000Y3810000D03*
X26035000Y6350000D03*
X26035000Y8890000D03*
X26035000Y11430000D03*
X26035000Y13970000D03*
X26035000Y16510000D03*
X26035000Y19050000D03*
X26035000Y21590000D03*
X26035000Y24130000D03*
X26035000Y26670000D03*
X26035000Y29210000D03*
X26035000Y31750000D03*
X26035000Y34290000D03*
X26035000Y36830000D03*
X26035000Y39370000D03*
X26035000Y41910000D03*
X26035000Y44450000D03*
X26035000Y46990000D03*
X26035000Y49530000D03*
D12*
X26035000Y52070000D03*
D16*
X23622000Y39751000D03*
X20955000Y13970000D03*
X13335000Y13970000D03*
X27940000Y34290000D03*
X22225000Y24130000D03*
X13335000Y33655000D03*
X22225000Y33655000D03*
X13335000Y17145000D03*
X8890000Y1905000D03*
X27940000Y1905000D03*
X1270000Y41275000D03*
X35560000Y41275000D03*
X8890000Y53975000D03*
X27940000Y53975000D03*
X12427900Y27133200D03*
X8479700Y36826200D03*
D17*
X19685000Y35560000D02*
X19685000Y35890948D01*
X19685000Y35890948D02*
X21285200Y37491148D01*
X21285200Y37491148D02*
X21285200Y38489278D01*
X21285200Y38489278D02*
X21836222Y39040300D01*
X23495100Y38263400D02*
X23495100Y38034600D01*
X21836222Y39040300D02*
X22718200Y39040300D01*
X22718200Y39040300D02*
X23495100Y38263400D01*
X23495100Y38034600D02*
X24699700Y36830000D01*
X24699700Y36830000D02*
X26035000Y36830000D01*
X17145000Y37592000D02*
X18034000Y36703000D01*
X18034000Y36703000D02*
X20066000Y36703000D01*
X20066000Y36703000D02*
X20980400Y37617400D01*
X20980400Y37617400D02*
X20980400Y38615530D01*
X17145000Y38100000D02*
X17145000Y37592000D01*
X20980400Y38615530D02*
X21709970Y39345100D01*
X21709970Y39345100D02*
X22844452Y39345100D01*
X22844452Y39345100D02*
X23149752Y39039800D01*
X23149752Y39039800D02*
X25704800Y39039800D01*
X25704800Y39039800D02*
X26035000Y39370000D01*
X29845000Y15240000D02*
X29845000Y14097000D01*
X28320252Y11760200D02*
X27418400Y10858348D01*
X30234278Y11760200D02*
X28320252Y11760200D01*
X29845000Y14097000D02*
X30785900Y13156100D01*
X30785900Y13156100D02*
X30785900Y12311822D01*
X27418400Y10856977D02*
X26530323Y9968900D01*
X30785900Y12311822D02*
X30234278Y11760200D01*
X27418400Y10858348D02*
X27418400Y10856977D01*
X11873600Y7428600D02*
X11873600Y4888600D01*
X14413900Y9968900D02*
X11873600Y7428600D01*
X26530323Y9968900D02*
X14413900Y9968900D01*
X11873600Y4888600D02*
X10795000Y3810000D01*
X32385000Y17780000D02*
X31445200Y16840200D01*
X31445200Y16840200D02*
X27230171Y16840200D01*
X27230171Y16840200D02*
X26481771Y17588600D01*
X26481771Y17588600D02*
X25588229Y17588600D01*
X25588229Y17588600D02*
X24509629Y16510000D01*
X24509629Y16510000D02*
X19637600Y16510000D01*
X19637600Y16510000D02*
X19307400Y16179800D01*
X19307400Y16179800D02*
X19295722Y16179800D01*
X19295722Y16179800D02*
X18744800Y15628878D01*
X18744800Y15452000D02*
X16933100Y13640300D01*
X18744800Y15628878D02*
X18744800Y15452000D01*
X16933100Y13640300D02*
X16749900Y13640300D01*
X16749900Y13640300D02*
X15875100Y12765500D01*
X15875100Y12765500D02*
X15875100Y12639700D01*
X15875100Y12639700D02*
X13262200Y10026800D01*
X13262200Y10026800D02*
X10339000Y10026800D01*
X10339000Y10026800D02*
X9710900Y9398700D01*
X9710900Y9398700D02*
X9710900Y8448729D01*
X9710900Y8448729D02*
X10348229Y7811400D01*
X10348229Y7811400D02*
X10349600Y7811400D01*
X10349600Y7811400D02*
X10795000Y7366000D01*
X10795000Y7366000D02*
X10795000Y6350000D01*
X26035000Y19050000D02*
X31115000Y19050000D01*
X31115000Y19050000D02*
X32385000Y20320000D01*
X19685000Y15240000D02*
X20650200Y16205200D01*
X22868278Y16205200D02*
X23825200Y15248278D01*
X20650200Y16205200D02*
X22868278Y16205200D01*
X23825200Y13639800D02*
X24765000Y12700000D01*
X23825200Y15248278D02*
X23825200Y13639800D01*
X12903948Y8890000D02*
X14287648Y10273700D01*
X26404071Y10273700D02*
X27113600Y10983229D01*
X14287648Y10273700D02*
X26404071Y10273700D01*
X10795000Y8890000D02*
X12903948Y8890000D01*
X27113600Y10983229D02*
X27113600Y10984600D01*
X27113600Y10984600D02*
X28829000Y12700000D01*
X28829000Y12700000D02*
X29845000Y12700000D01*
X26035000Y6350000D02*
X26035000Y7364630D01*
X26035000Y7364630D02*
X27178000Y8507630D01*
X27178000Y8507630D02*
X27178000Y10185525D01*
X27178000Y10185525D02*
X27723200Y10730725D01*
X27723200Y10730725D02*
X27723200Y10732096D01*
X27723200Y10732096D02*
X28446504Y11455400D01*
X28446504Y11455400D02*
X30360530Y11455400D01*
X33638400Y14733270D02*
X33638400Y20864800D01*
X33638400Y20864800D02*
X32888500Y21614700D01*
X30360530Y11455400D02*
X33638400Y14733270D01*
X32888500Y21614700D02*
X31139700Y21614700D01*
X31139700Y21614700D02*
X29845000Y20320000D01*
X26035000Y3810000D02*
X26035000Y4824629D01*
X26035000Y4824629D02*
X27482800Y6272429D01*
X27482800Y6272429D02*
X27482800Y10059273D01*
X27482800Y10059273D02*
X28574127Y11150600D01*
X28574127Y11150600D02*
X30486782Y11150600D01*
X30486782Y11150600D02*
X33943500Y14607318D01*
X33943500Y14607318D02*
X33943500Y21301500D01*
X33943500Y21301500D02*
X32385000Y22860000D01*
X6985000Y33020000D02*
X7942100Y33977100D01*
X7942100Y33977100D02*
X7942100Y38521052D01*
X7942100Y38521052D02*
X9716400Y40295352D01*
X9716400Y40295352D02*
X9716400Y43371400D01*
X9716400Y43371400D02*
X10795000Y44450000D01*
X6985000Y17780000D02*
X7950200Y18745200D01*
X7373848Y21532100D02*
X6549648Y21532100D01*
X7950200Y18745200D02*
X7950200Y20955748D01*
X5704100Y22377648D02*
X5704100Y28419230D01*
X5704100Y28419230D02*
X6824670Y29539800D01*
X7950200Y20955748D02*
X7373848Y21532100D01*
X6549648Y21532100D02*
X5704100Y22377648D01*
X6824670Y29539800D02*
X7380300Y29539800D01*
X7380300Y29539800D02*
X8325300Y30484800D01*
X8325300Y30484800D02*
X8325300Y35695400D01*
X8325300Y35695400D02*
X9459900Y36830000D01*
X9459900Y36830000D02*
X10795000Y36830000D01*
X6985000Y15240000D02*
X8255000Y16510000D01*
X8255000Y16510000D02*
X8255000Y21082000D01*
X8255000Y21082000D02*
X7500100Y21836900D01*
X7500100Y21836900D02*
X6675900Y21836900D01*
X6675900Y21836900D02*
X6045200Y22467600D01*
X6045200Y22467600D02*
X6045200Y28329278D01*
X6045200Y28329278D02*
X6925922Y29210000D01*
X6925922Y29210000D02*
X10795000Y29210000D01*
X26035000Y20955000D02*
X27610200Y19379800D01*
X27610200Y19379800D02*
X30290100Y19379800D01*
X26035000Y21590000D02*
X26035000Y20955000D01*
X30290100Y19379800D02*
X31445200Y20534900D01*
X31445200Y20534900D02*
X31445200Y20709278D01*
X31445200Y20709278D02*
X32045522Y21309600D01*
X32045522Y21309600D02*
X32762000Y21309600D01*
X32762000Y21309600D02*
X33333300Y20738300D01*
X33333300Y20738300D02*
X33333300Y16188300D01*
X33333300Y16188300D02*
X32385000Y15240000D01*
X22225000Y38100000D02*
X22225000Y36957000D01*
X21285200Y35170722D02*
X21835722Y34620200D01*
X22225000Y36957000D02*
X21285200Y36017200D01*
X21285200Y36017200D02*
X21285200Y35170722D01*
X21835722Y34620200D02*
X23876748Y34620200D01*
X23876748Y34620200D02*
X26035000Y32461948D01*
X26035000Y32461948D02*
X26035000Y31750000D01*
X26035000Y34290000D02*
X24638000Y34290000D01*
X24638000Y34290000D02*
X23368000Y35560000D01*
X23368000Y35560000D02*
X22225000Y35560000D01*
X12231300Y24289700D02*
X12231300Y15406300D01*
X10795000Y25726000D02*
X12231300Y24289700D01*
X10795000Y26670000D02*
X10795000Y25726000D01*
X8479700Y36826200D02*
X8479700Y38627600D01*
X8479700Y38627600D02*
X10795000Y40942900D01*
X10795000Y40942900D02*
X10795000Y41910000D01*
X9525000Y22860000D02*
X11091800Y22860000D01*
X11892200Y18574300D02*
X10795000Y17477100D01*
X11091800Y22860000D02*
X11892200Y22059600D01*
X11892200Y22059600D02*
X11892200Y18574300D01*
X10795000Y17477100D02*
X10795000Y16510000D01*
X10795000Y31750000D02*
X10795000Y30806000D01*
X10795000Y30806000D02*
X12427900Y29173100D01*
X12427900Y29173100D02*
X12427900Y27133200D01*
D18*
X31321000Y29416000D02*
X29845000Y27940000D01*
X31321000Y38529000D02*
X31321000Y29416000D01*
X29210000Y40640000D02*
X31321000Y38529000D01*
X12065000Y40640000D02*
X29210000Y40640000D01*
X10795000Y39370000D02*
X12065000Y40640000D01*
D17*
X3003000Y10332000D02*
X1905000Y11430000D01*
X11245700Y10332000D02*
X3003000Y10332000D01*
X12065000Y11151300D02*
X11245700Y10332000D01*
X12065000Y12700000D02*
X12065000Y11151300D01*
X9459600Y19050000D02*
X10795000Y19050000D01*
X8584900Y19924700D02*
X9459600Y19050000D01*
X8584900Y21260100D02*
X8584900Y19924700D01*
X6985000Y22860000D02*
X8584900Y21260100D01*
X27305000Y12700000D02*
X24765000Y12700000D01*
X12397600Y15240000D02*
X12231300Y15406300D01*
X14605000Y15240000D02*
X12397600Y15240000D01*
X12231300Y15406300D02*
X12065000Y15240000D01*
D18*
X1905000Y27920000D02*
X1905000Y27940000D01*
G04 #@! TA.AperFunction,Conductor*
G36*
X28515931Y54979998D02*
G01*
X28536905Y54963095D01*
X28963095Y54536905D01*
X28997121Y54474593D01*
X29000000Y54447810D01*
X29000000Y42500000D01*
X29500000Y42000000D01*
X35947810Y42000000D01*
X36015931Y41979998D01*
X36036905Y41963095D01*
X36463095Y41536905D01*
X36497121Y41474593D01*
X36500000Y41447810D01*
X36500000Y9052190D01*
X36479998Y8984069D01*
X36463095Y8963095D01*
X36036905Y8536905D01*
X35974593Y8502879D01*
X35947810Y8500000D01*
X29500000Y8500000D01*
X29000000Y8000000D01*
X29000000Y1552190D01*
X28979998Y1484069D01*
X28963095Y1463095D01*
X28536905Y1036905D01*
X28474593Y1002879D01*
X28447810Y1000000D01*
X8552190Y1000000D01*
X8484069Y1020002D01*
X8463095Y1036905D01*
X8036905Y1463095D01*
X8002879Y1525407D01*
X8000000Y1552190D01*
X8000000Y7932432D01*
X7629923Y8352520D01*
X7511974Y8486408D01*
X7500000Y8500000D01*
X1052190Y8500000D01*
X984069Y8520002D01*
X963095Y8536905D01*
X536905Y8963095D01*
X502879Y9025407D01*
X500000Y9052190D01*
X500000Y11458931D01*
X800164Y11458931D01*
X813392Y11257106D01*
X863178Y11061072D01*
X947856Y10877393D01*
X973077Y10841706D01*
X1024380Y10769114D01*
X1064588Y10712220D01*
X1209466Y10571087D01*
X1377637Y10458718D01*
X1382940Y10456440D01*
X1382943Y10456438D01*
X1509433Y10402094D01*
X1563470Y10378878D01*
X1760740Y10334240D01*
X1766509Y10334013D01*
X1766512Y10334013D01*
X1842683Y10331021D01*
X1962842Y10326300D01*
X2049132Y10338811D01*
X2157286Y10354492D01*
X2157291Y10354493D01*
X2163007Y10355322D01*
X2168480Y10357180D01*
X2168485Y10357181D01*
X2300794Y10402094D01*
X2371729Y10405050D01*
X2430390Y10371876D01*
X2698708Y10103558D01*
X2713564Y10085165D01*
X2714877Y10083722D01*
X2720528Y10074970D01*
X2746676Y10054357D01*
X2751060Y10050460D01*
X2751125Y10050537D01*
X2755083Y10047183D01*
X2758762Y10043504D01*
X2762991Y10040482D01*
X2774337Y10032374D01*
X2779083Y10028810D01*
X2819014Y9997331D01*
X2827587Y9994320D01*
X2834983Y9989035D01*
X2883738Y9974454D01*
X2889344Y9972632D01*
X2929856Y9958405D01*
X2929862Y9958404D01*
X2937339Y9955778D01*
X2942858Y9955300D01*
X2945572Y9955300D01*
X2948163Y9955188D01*
X2948299Y9955147D01*
X2948292Y9954996D01*
X2948941Y9954955D01*
X2955134Y9953103D01*
X3008588Y9955203D01*
X3013534Y9955300D01*
X9430575Y9955300D01*
X9498696Y9935298D01*
X9545189Y9881642D01*
X9555293Y9811368D01*
X9525799Y9746788D01*
X9519670Y9740205D01*
X9482453Y9702988D01*
X9464063Y9688134D01*
X9462623Y9686824D01*
X9453870Y9681172D01*
X9447423Y9672994D01*
X9447421Y9672992D01*
X9433267Y9655037D01*
X9429361Y9650642D01*
X9429438Y9650577D01*
X9426085Y9646620D01*
X9422403Y9642938D01*
X9419380Y9638707D01*
X9411277Y9627367D01*
X9407708Y9622614D01*
X9382679Y9590866D01*
X9382677Y9590863D01*
X9376231Y9582686D01*
X9373220Y9574113D01*
X9367935Y9566717D01*
X9353528Y9518542D01*
X9353361Y9517985D01*
X9351526Y9512338D01*
X9337305Y9471844D01*
X9337304Y9471838D01*
X9334678Y9464361D01*
X9334200Y9458842D01*
X9334200Y9456127D01*
X9334088Y9453541D01*
X9334046Y9453402D01*
X9333895Y9453408D01*
X9333854Y9452759D01*
X9332002Y9446565D01*
X9332411Y9436159D01*
X9334103Y9393097D01*
X9334200Y9388150D01*
X9334200Y8502357D01*
X9331699Y8478857D01*
X9331607Y8476904D01*
X9329414Y8466719D01*
X9332503Y8440622D01*
X9333326Y8433672D01*
X9333672Y8427805D01*
X9333772Y8427813D01*
X9334200Y8422636D01*
X9334200Y8417433D01*
X9335581Y8409137D01*
X9337343Y8398550D01*
X9338178Y8392679D01*
X9340135Y8376146D01*
X9344156Y8342180D01*
X9348088Y8333991D01*
X9349581Y8325022D01*
X9369925Y8287320D01*
X9373739Y8280251D01*
X9376435Y8274959D01*
X9395011Y8236273D01*
X9395013Y8236269D01*
X9398442Y8229129D01*
X9402006Y8224889D01*
X9403937Y8222958D01*
X9405675Y8221064D01*
X9405742Y8220940D01*
X9405628Y8220836D01*
X9406065Y8220341D01*
X9409133Y8214654D01*
X9416776Y8207589D01*
X9448425Y8178333D01*
X9451992Y8174903D01*
X10043944Y7582950D01*
X10058786Y7564573D01*
X10060105Y7563123D01*
X10065757Y7554370D01*
X10073935Y7547923D01*
X10073937Y7547921D01*
X10091892Y7533767D01*
X10096286Y7529862D01*
X10096351Y7529939D01*
X10100307Y7526587D01*
X10103991Y7522903D01*
X10107197Y7520612D01*
X10112978Y7515288D01*
X10144037Y7484229D01*
X10178063Y7421917D01*
X10172998Y7351102D01*
X10130451Y7294266D01*
X10122699Y7289080D01*
X10120823Y7287717D01*
X10115856Y7284762D01*
X9956881Y7145345D01*
X9825976Y6979292D01*
X9823287Y6974181D01*
X9823285Y6974178D01*
X9773400Y6879362D01*
X9727523Y6792164D01*
X9664820Y6590227D01*
X9639967Y6380246D01*
X9653796Y6169251D01*
X9655217Y6163655D01*
X9655218Y6163650D01*
X9688547Y6032420D01*
X9705845Y5964310D01*
X9794369Y5772286D01*
X9916405Y5599609D01*
X10067865Y5452063D01*
X10072661Y5448858D01*
X10072664Y5448856D01*
X10215936Y5353125D01*
X10243677Y5334589D01*
X10248985Y5332308D01*
X10248986Y5332308D01*
X10432650Y5253400D01*
X10432653Y5253399D01*
X10437953Y5251122D01*
X10443582Y5249848D01*
X10443583Y5249848D01*
X10638550Y5205731D01*
X10638553Y5205731D01*
X10644186Y5204456D01*
X10649958Y5204229D01*
X10655687Y5203475D01*
X10655327Y5200743D01*
X10711604Y5181784D01*
X10755950Y5126341D01*
X10763282Y5055724D01*
X10731271Y4992353D01*
X10670081Y4956349D01*
X10660704Y4954368D01*
X10501650Y4927038D01*
X10501649Y4927038D01*
X10495953Y4926059D01*
X10297575Y4852873D01*
X10115856Y4744762D01*
X9956881Y4605345D01*
X9825976Y4439292D01*
X9823287Y4434181D01*
X9823285Y4434178D01*
X9809792Y4408531D01*
X9727523Y4252164D01*
X9664820Y4050227D01*
X9639967Y3840246D01*
X9653796Y3629251D01*
X9655217Y3623655D01*
X9655218Y3623650D01*
X9677784Y3534800D01*
X9705845Y3424310D01*
X9794369Y3232286D01*
X9916405Y3059609D01*
X10067865Y2912063D01*
X10072661Y2908858D01*
X10072664Y2908856D01*
X10215936Y2813125D01*
X10243677Y2794589D01*
X10248985Y2792308D01*
X10248986Y2792308D01*
X10432650Y2713400D01*
X10432653Y2713399D01*
X10437953Y2711122D01*
X10443582Y2709848D01*
X10443583Y2709848D01*
X10638550Y2665731D01*
X10638553Y2665731D01*
X10644186Y2664456D01*
X10649957Y2664229D01*
X10649959Y2664229D01*
X10711989Y2661792D01*
X10855470Y2656154D01*
X10861179Y2656982D01*
X10861183Y2656982D01*
X11059015Y2685667D01*
X11059019Y2685668D01*
X11064730Y2686496D01*
X11143987Y2713400D01*
X11259483Y2752605D01*
X11259488Y2752607D01*
X11264955Y2754463D01*
X11269998Y2757287D01*
X11444395Y2854954D01*
X11444399Y2854957D01*
X11449442Y2857781D01*
X11612012Y2992988D01*
X11747219Y3155558D01*
X11750043Y3160601D01*
X11750046Y3160605D01*
X11847713Y3335002D01*
X11847714Y3335004D01*
X11850537Y3340045D01*
X11852393Y3345512D01*
X11852395Y3345517D01*
X11916647Y3534800D01*
X11918504Y3540270D01*
X11948846Y3749530D01*
X11950429Y3810000D01*
X11931081Y4020560D01*
X11873686Y4224069D01*
X11870063Y4231415D01*
X11869867Y4232540D01*
X11869060Y4234643D01*
X11869473Y4234802D01*
X11857872Y4301353D01*
X11885428Y4366784D01*
X11893973Y4376239D01*
X12102042Y4584308D01*
X12120435Y4599164D01*
X12121878Y4600477D01*
X12130630Y4606128D01*
X12151243Y4632276D01*
X12155139Y4636660D01*
X12155063Y4636724D01*
X12158421Y4640687D01*
X12162097Y4644363D01*
X12173224Y4659933D01*
X12176773Y4664660D01*
X12208269Y4704614D01*
X12211280Y4713187D01*
X12216565Y4720583D01*
X12231142Y4769325D01*
X12232974Y4774962D01*
X12247195Y4815456D01*
X12247196Y4815462D01*
X12249822Y4822939D01*
X12250300Y4828458D01*
X12250300Y4831173D01*
X12250412Y4833759D01*
X12250454Y4833898D01*
X12250605Y4833892D01*
X12250646Y4834541D01*
X12252498Y4840735D01*
X12250397Y4894204D01*
X12250300Y4899150D01*
X12250300Y7220376D01*
X12270302Y7288497D01*
X12287205Y7309471D01*
X14533029Y9555295D01*
X14595341Y9589321D01*
X14622124Y9592200D01*
X24895668Y9592200D01*
X24963789Y9572198D01*
X25010282Y9518542D01*
X25020386Y9448268D01*
X25007176Y9407533D01*
X24970217Y9337285D01*
X24967523Y9332164D01*
X24904820Y9130227D01*
X24879967Y8920246D01*
X24893796Y8709251D01*
X24895217Y8703655D01*
X24895218Y8703650D01*
X24934174Y8550265D01*
X24945845Y8504310D01*
X24948262Y8499067D01*
X25020588Y8342180D01*
X25034369Y8312286D01*
X25156405Y8139609D01*
X25307865Y7992063D01*
X25312661Y7988858D01*
X25312664Y7988856D01*
X25397109Y7932432D01*
X25483677Y7874589D01*
X25488985Y7872308D01*
X25488986Y7872308D01*
X25672647Y7793401D01*
X25672653Y7793399D01*
X25677416Y7791353D01*
X25677417Y7791352D01*
X25677953Y7791122D01*
X25677908Y7791017D01*
X25734631Y7752231D01*
X25762268Y7686834D01*
X25750161Y7616877D01*
X25739608Y7599219D01*
X25735378Y7593299D01*
X25731808Y7588544D01*
X25706779Y7556796D01*
X25706777Y7556793D01*
X25700331Y7548616D01*
X25697320Y7540043D01*
X25692035Y7532647D01*
X25689051Y7522671D01*
X25689051Y7522670D01*
X25682243Y7499906D01*
X25643560Y7440373D01*
X25605137Y7417798D01*
X25583688Y7409885D01*
X25537575Y7392873D01*
X25532614Y7389921D01*
X25532613Y7389921D01*
X25498588Y7369678D01*
X25355856Y7284762D01*
X25196881Y7145345D01*
X25065976Y6979292D01*
X25063287Y6974181D01*
X25063285Y6974178D01*
X25013400Y6879362D01*
X24967523Y6792164D01*
X24904820Y6590227D01*
X24879967Y6380246D01*
X24893796Y6169251D01*
X24895217Y6163655D01*
X24895218Y6163650D01*
X24928547Y6032420D01*
X24945845Y5964310D01*
X25034369Y5772286D01*
X25156405Y5599609D01*
X25307865Y5452063D01*
X25312661Y5448858D01*
X25312664Y5448856D01*
X25455936Y5353125D01*
X25483677Y5334589D01*
X25677413Y5251354D01*
X25677953Y5251122D01*
X25677907Y5251016D01*
X25734629Y5212234D01*
X25762268Y5146838D01*
X25750164Y5076881D01*
X25739606Y5059215D01*
X25735375Y5053294D01*
X25731808Y5048543D01*
X25706779Y5016795D01*
X25706777Y5016792D01*
X25700331Y5008615D01*
X25697320Y5000042D01*
X25692035Y4992646D01*
X25689051Y4982668D01*
X25682244Y4959908D01*
X25643562Y4900375D01*
X25605139Y4877799D01*
X25537575Y4852873D01*
X25355856Y4744762D01*
X25196881Y4605345D01*
X25065976Y4439292D01*
X25063287Y4434181D01*
X25063285Y4434178D01*
X25049792Y4408531D01*
X24967523Y4252164D01*
X24904820Y4050227D01*
X24879967Y3840246D01*
X24893796Y3629251D01*
X24895217Y3623655D01*
X24895218Y3623650D01*
X24917784Y3534800D01*
X24945845Y3424310D01*
X25034369Y3232286D01*
X25156405Y3059609D01*
X25307865Y2912063D01*
X25312661Y2908858D01*
X25312664Y2908856D01*
X25455936Y2813125D01*
X25483677Y2794589D01*
X25488985Y2792308D01*
X25488986Y2792308D01*
X25672650Y2713400D01*
X25672653Y2713399D01*
X25677953Y2711122D01*
X25683582Y2709848D01*
X25683583Y2709848D01*
X25878550Y2665731D01*
X25878553Y2665731D01*
X25884186Y2664456D01*
X25889957Y2664229D01*
X25889959Y2664229D01*
X25951989Y2661792D01*
X26095470Y2656154D01*
X26101179Y2656982D01*
X26101183Y2656982D01*
X26299015Y2685667D01*
X26299019Y2685668D01*
X26304730Y2686496D01*
X26383987Y2713400D01*
X26499483Y2752605D01*
X26499488Y2752607D01*
X26504955Y2754463D01*
X26509998Y2757287D01*
X26684395Y2854954D01*
X26684399Y2854957D01*
X26689442Y2857781D01*
X26852012Y2992988D01*
X26987219Y3155558D01*
X26990043Y3160601D01*
X26990046Y3160605D01*
X27087713Y3335002D01*
X27087714Y3335004D01*
X27090537Y3340045D01*
X27092393Y3345512D01*
X27092395Y3345517D01*
X27156647Y3534800D01*
X27158504Y3540270D01*
X27188846Y3749530D01*
X27190429Y3810000D01*
X27171081Y4020560D01*
X27113686Y4224069D01*
X27110066Y4231411D01*
X27022719Y4408531D01*
X27020165Y4413710D01*
X26893651Y4583133D01*
X26771076Y4696440D01*
X26742621Y4722744D01*
X26742618Y4722746D01*
X26738381Y4726663D01*
X26707052Y4746430D01*
X26660114Y4799696D01*
X26649424Y4869884D01*
X26678378Y4934708D01*
X26685192Y4942087D01*
X27711242Y5968137D01*
X27729635Y5982993D01*
X27731078Y5984306D01*
X27739830Y5989957D01*
X27760443Y6016105D01*
X27764340Y6020489D01*
X27764263Y6020554D01*
X27767617Y6024512D01*
X27771296Y6028191D01*
X27782428Y6043768D01*
X27785991Y6048513D01*
X27811021Y6080264D01*
X27817469Y6088443D01*
X27820480Y6097016D01*
X27825765Y6104412D01*
X27840346Y6153167D01*
X27842168Y6158773D01*
X27856395Y6199285D01*
X27856396Y6199291D01*
X27859022Y6206768D01*
X27859500Y6212287D01*
X27859500Y6215001D01*
X27859612Y6217592D01*
X27859653Y6217728D01*
X27859804Y6217721D01*
X27859845Y6218370D01*
X27861697Y6224563D01*
X27859597Y6278017D01*
X27859500Y6282963D01*
X27859500Y9851049D01*
X27879502Y9919170D01*
X27896405Y9940144D01*
X28693256Y10736995D01*
X28755568Y10771021D01*
X28782351Y10773900D01*
X30433154Y10773900D01*
X30456654Y10771399D01*
X30458607Y10771307D01*
X30468792Y10769114D01*
X30501842Y10773026D01*
X30507706Y10773372D01*
X30507698Y10773472D01*
X30512875Y10773900D01*
X30518078Y10773900D01*
X30536968Y10777044D01*
X30542832Y10777878D01*
X30582991Y10782632D01*
X30593331Y10783856D01*
X30601520Y10787788D01*
X30610489Y10789281D01*
X30655261Y10813439D01*
X30660552Y10816135D01*
X30699238Y10834711D01*
X30699242Y10834713D01*
X30706382Y10838142D01*
X30710622Y10841706D01*
X30712553Y10843637D01*
X30714447Y10845375D01*
X30714571Y10845442D01*
X30714675Y10845328D01*
X30715170Y10845765D01*
X30720857Y10848833D01*
X30757192Y10888140D01*
X30760621Y10891705D01*
X34171942Y14303026D01*
X34190335Y14317882D01*
X34191778Y14319195D01*
X34200530Y14324846D01*
X34221143Y14350994D01*
X34225040Y14355378D01*
X34224963Y14355443D01*
X34228317Y14359401D01*
X34231996Y14363080D01*
X34243128Y14378657D01*
X34246691Y14383402D01*
X34271721Y14415153D01*
X34278169Y14423332D01*
X34281180Y14431905D01*
X34286465Y14439301D01*
X34301046Y14488056D01*
X34302868Y14493662D01*
X34317095Y14534174D01*
X34317096Y14534180D01*
X34319722Y14541657D01*
X34320200Y14547176D01*
X34320200Y14549890D01*
X34320312Y14552481D01*
X34320353Y14552617D01*
X34320504Y14552610D01*
X34320545Y14553259D01*
X34322397Y14559452D01*
X34320297Y14612906D01*
X34320200Y14617852D01*
X34320200Y21247872D01*
X34322701Y21271373D01*
X34322793Y21273325D01*
X34324986Y21283510D01*
X34321376Y21314009D01*
X34321073Y21316570D01*
X34320728Y21322424D01*
X34320628Y21322416D01*
X34320200Y21327593D01*
X34320200Y21332796D01*
X34317056Y21351686D01*
X34316224Y21357538D01*
X34314760Y21369908D01*
X34310245Y21408049D01*
X34306311Y21416241D01*
X34304819Y21425207D01*
X34280659Y21469982D01*
X34277978Y21475245D01*
X34259391Y21513954D01*
X34259389Y21513958D01*
X34255959Y21521100D01*
X34252394Y21525340D01*
X34250468Y21527266D01*
X34248725Y21529165D01*
X34248666Y21529275D01*
X34248782Y21529381D01*
X34248336Y21529887D01*
X34245267Y21535575D01*
X34205974Y21571897D01*
X34202407Y21575327D01*
X33373104Y22404631D01*
X33339079Y22466943D01*
X33342641Y22533497D01*
X33342642Y22533498D01*
X33376332Y22634775D01*
X33385337Y22706059D01*
X33400757Y22828112D01*
X33400758Y22828122D01*
X33401199Y22831615D01*
X33401595Y22860000D01*
X33382234Y23057458D01*
X33324889Y23247394D01*
X33285592Y23321301D01*
X33234638Y23417133D01*
X33234636Y23417136D01*
X33231744Y23422575D01*
X33227854Y23427345D01*
X33227851Y23427349D01*
X33110241Y23571553D01*
X33110238Y23571556D01*
X33106346Y23576328D01*
X32953473Y23702795D01*
X32948054Y23705725D01*
X32948051Y23705727D01*
X32784366Y23794231D01*
X32784361Y23794233D01*
X32778946Y23797161D01*
X32589415Y23855831D01*
X32583290Y23856475D01*
X32583289Y23856475D01*
X32398225Y23875926D01*
X32398224Y23875926D01*
X32392097Y23876570D01*
X32309572Y23869060D01*
X32200648Y23859147D01*
X32200645Y23859146D01*
X32194509Y23858588D01*
X32188603Y23856850D01*
X32188599Y23856849D01*
X32121465Y23837090D01*
X32004177Y23802570D01*
X31828350Y23710650D01*
X31823550Y23706790D01*
X31823549Y23706790D01*
X31765410Y23660045D01*
X31673726Y23586329D01*
X31546194Y23434343D01*
X31543227Y23428945D01*
X31543223Y23428940D01*
X31488618Y23329612D01*
X31450612Y23260479D01*
X31448751Y23254612D01*
X31448750Y23254610D01*
X31445127Y23243188D01*
X31390620Y23071362D01*
X31368504Y22874194D01*
X31369020Y22868050D01*
X31384042Y22689161D01*
X31385106Y22676485D01*
X31398713Y22629033D01*
X31429705Y22520952D01*
X31439794Y22485766D01*
X31453212Y22459657D01*
X31522649Y22324548D01*
X31530484Y22309302D01*
X31534307Y22304478D01*
X31534310Y22304474D01*
X31620552Y22195665D01*
X31647190Y22129855D01*
X31634019Y22060091D01*
X31585222Y22008522D01*
X31521807Y21991400D01*
X31193323Y21991400D01*
X31169823Y21993901D01*
X31167871Y21993993D01*
X31157690Y21996185D01*
X31147349Y21994961D01*
X31124640Y21992273D01*
X31118775Y21991927D01*
X31118783Y21991828D01*
X31113604Y21991400D01*
X31108404Y21991400D01*
X31103277Y21990547D01*
X31103270Y21990546D01*
X31089524Y21988258D01*
X31083648Y21987421D01*
X31048707Y21983285D01*
X31033151Y21981444D01*
X31024962Y21977512D01*
X31015993Y21976019D01*
X30971222Y21951861D01*
X30965930Y21949165D01*
X30947329Y21940233D01*
X30920100Y21927158D01*
X30915859Y21923594D01*
X30913932Y21921667D01*
X30912031Y21919924D01*
X30911902Y21919854D01*
X30911799Y21919965D01*
X30911312Y21919535D01*
X30905625Y21916467D01*
X30898557Y21908821D01*
X30898556Y21908820D01*
X30869303Y21877174D01*
X30865873Y21873608D01*
X30300695Y21308430D01*
X30238383Y21274404D01*
X30174341Y21277160D01*
X30055302Y21314009D01*
X30055299Y21314010D01*
X30049415Y21315831D01*
X30043290Y21316475D01*
X30043289Y21316475D01*
X29858225Y21335926D01*
X29858224Y21335926D01*
X29852097Y21336570D01*
X29769572Y21329060D01*
X29660648Y21319147D01*
X29660645Y21319146D01*
X29654509Y21318588D01*
X29648603Y21316850D01*
X29648599Y21316849D01*
X29532015Y21282536D01*
X29464177Y21262570D01*
X29288350Y21170650D01*
X29133726Y21046329D01*
X29006194Y20894343D01*
X29003227Y20888945D01*
X29003223Y20888940D01*
X28934809Y20764493D01*
X28910612Y20720479D01*
X28908751Y20714612D01*
X28908750Y20714610D01*
X28897506Y20679163D01*
X28850620Y20531362D01*
X28828504Y20334194D01*
X28829020Y20328050D01*
X28842791Y20164058D01*
X28845106Y20136485D01*
X28857039Y20094871D01*
X28889705Y19980952D01*
X28899794Y19945766D01*
X28902609Y19940289D01*
X28902610Y19940286D01*
X28902709Y19940094D01*
X28902730Y19939983D01*
X28904880Y19934553D01*
X28903848Y19934144D01*
X28916056Y19870364D01*
X28889586Y19804486D01*
X28831701Y19763378D01*
X28790642Y19756500D01*
X27818425Y19756500D01*
X27750304Y19776502D01*
X27729329Y19793405D01*
X26886861Y20635874D01*
X26852836Y20698186D01*
X26857901Y20769002D01*
X26879083Y20805538D01*
X26881543Y20808495D01*
X26987219Y20935558D01*
X26990043Y20940601D01*
X26990046Y20940605D01*
X27087713Y21115002D01*
X27087714Y21115004D01*
X27090537Y21120045D01*
X27092393Y21125512D01*
X27092395Y21125517D01*
X27156107Y21313209D01*
X27158504Y21320270D01*
X27160321Y21332796D01*
X27188314Y21525860D01*
X27188314Y21525862D01*
X27188846Y21529530D01*
X27190429Y21590000D01*
X27171081Y21800560D01*
X27167277Y21814050D01*
X27151772Y21869024D01*
X27113686Y22004069D01*
X27104737Y22022217D01*
X27022719Y22188531D01*
X27020165Y22193710D01*
X26906182Y22346352D01*
X26897104Y22358509D01*
X26897103Y22358510D01*
X26893651Y22363133D01*
X26785717Y22462906D01*
X26742622Y22502743D01*
X26742620Y22502745D01*
X26738381Y22506663D01*
X26559554Y22619495D01*
X26535643Y22629034D01*
X26479785Y22672853D01*
X26456483Y22739917D01*
X26473138Y22808932D01*
X26524461Y22857987D01*
X26536348Y22863373D01*
X26536842Y22863567D01*
X26558534Y22874194D01*
X28828504Y22874194D01*
X28829020Y22868050D01*
X28844042Y22689161D01*
X28845106Y22676485D01*
X28858713Y22629033D01*
X28889705Y22520952D01*
X28899794Y22485766D01*
X28913212Y22459657D01*
X28982649Y22324548D01*
X28990484Y22309302D01*
X28994307Y22304478D01*
X28994310Y22304474D01*
X29083502Y22191943D01*
X29113723Y22153814D01*
X29118417Y22149819D01*
X29256661Y22032164D01*
X29264815Y22025224D01*
X29438007Y21928430D01*
X29626701Y21867120D01*
X29823710Y21843628D01*
X29829845Y21844100D01*
X29829847Y21844100D01*
X30015388Y21858376D01*
X30015392Y21858377D01*
X30021530Y21858849D01*
X30027462Y21860505D01*
X30027466Y21860506D01*
X30117078Y21885526D01*
X30212626Y21912204D01*
X30389719Y22001660D01*
X30419880Y22025224D01*
X30541214Y22120022D01*
X30546064Y22123811D01*
X30568514Y22149819D01*
X30671681Y22269340D01*
X30671682Y22269341D01*
X30675705Y22274002D01*
X30702744Y22321598D01*
X30721487Y22354592D01*
X30773706Y22446514D01*
X30836332Y22634775D01*
X30845337Y22706059D01*
X30860757Y22828112D01*
X30860758Y22828122D01*
X30861199Y22831615D01*
X30861595Y22860000D01*
X30842234Y23057458D01*
X30784889Y23247394D01*
X30745592Y23321301D01*
X30694638Y23417133D01*
X30694636Y23417136D01*
X30691744Y23422575D01*
X30687854Y23427345D01*
X30687851Y23427349D01*
X30570241Y23571553D01*
X30570238Y23571556D01*
X30566346Y23576328D01*
X30413473Y23702795D01*
X30408054Y23705725D01*
X30408051Y23705727D01*
X30244366Y23794231D01*
X30244361Y23794233D01*
X30238946Y23797161D01*
X30049415Y23855831D01*
X30043290Y23856475D01*
X30043289Y23856475D01*
X29858225Y23875926D01*
X29858224Y23875926D01*
X29852097Y23876570D01*
X29769572Y23869060D01*
X29660648Y23859147D01*
X29660645Y23859146D01*
X29654509Y23858588D01*
X29648603Y23856850D01*
X29648599Y23856849D01*
X29581465Y23837090D01*
X29464177Y23802570D01*
X29288350Y23710650D01*
X29283550Y23706790D01*
X29283549Y23706790D01*
X29225410Y23660045D01*
X29133726Y23586329D01*
X29006194Y23434343D01*
X29003227Y23428945D01*
X29003223Y23428940D01*
X28948618Y23329612D01*
X28910612Y23260479D01*
X28908751Y23254612D01*
X28908750Y23254610D01*
X28905127Y23243188D01*
X28850620Y23071362D01*
X28828504Y22874194D01*
X26558534Y22874194D01*
X26728095Y22957261D01*
X26736945Y22962536D01*
X26910328Y23086208D01*
X26918200Y23092861D01*
X27069052Y23243188D01*
X27075730Y23251035D01*
X27200003Y23423980D01*
X27205313Y23432817D01*
X27299670Y23623733D01*
X27303469Y23633328D01*
X27365377Y23837090D01*
X27367555Y23847163D01*
X27368986Y23858038D01*
X27366775Y23872222D01*
X27353617Y23876000D01*
X24718225Y23876000D01*
X24704694Y23872027D01*
X24703257Y23862034D01*
X24733565Y23727554D01*
X24736645Y23717725D01*
X24816770Y23520397D01*
X24821413Y23511206D01*
X24932694Y23329612D01*
X24938777Y23321301D01*
X25078213Y23160333D01*
X25085580Y23153117D01*
X25249434Y23017084D01*
X25257881Y23011169D01*
X25441756Y22903721D01*
X25451046Y22899270D01*
X25535328Y22867086D01*
X25591832Y22824099D01*
X25616125Y22757388D01*
X25600495Y22688133D01*
X25544628Y22635652D01*
X25542990Y22634871D01*
X25537575Y22632873D01*
X25532613Y22629921D01*
X25532611Y22629920D01*
X25434710Y22571675D01*
X25355856Y22524762D01*
X25196881Y22385345D01*
X25065976Y22219292D01*
X25063287Y22214181D01*
X25063285Y22214178D01*
X25029424Y22149819D01*
X24967523Y22032164D01*
X24904820Y21830227D01*
X24879967Y21620246D01*
X24893796Y21409251D01*
X24895217Y21403655D01*
X24895218Y21403650D01*
X24944424Y21209905D01*
X24945845Y21204310D01*
X24948262Y21199067D01*
X25020855Y21041601D01*
X25034369Y21012286D01*
X25156405Y20839609D01*
X25160539Y20835582D01*
X25301580Y20698186D01*
X25307865Y20692063D01*
X25312661Y20688858D01*
X25312664Y20688856D01*
X25455936Y20593125D01*
X25483677Y20574589D01*
X25488985Y20572308D01*
X25488986Y20572308D01*
X25672650Y20493400D01*
X25672653Y20493399D01*
X25677953Y20491122D01*
X25683582Y20489848D01*
X25683583Y20489848D01*
X25878550Y20445731D01*
X25878553Y20445731D01*
X25884186Y20444456D01*
X25889958Y20444229D01*
X25895687Y20443475D01*
X25895327Y20440743D01*
X25951604Y20421784D01*
X25995950Y20366341D01*
X26003282Y20295724D01*
X25971271Y20232353D01*
X25910081Y20196349D01*
X25900704Y20194368D01*
X25741650Y20167038D01*
X25741649Y20167038D01*
X25735953Y20166059D01*
X25537575Y20092873D01*
X25532614Y20089921D01*
X25532613Y20089921D01*
X25455358Y20043959D01*
X25355856Y19984762D01*
X25196881Y19845345D01*
X25065976Y19679292D01*
X24967523Y19492164D01*
X24904820Y19290227D01*
X24879967Y19080246D01*
X24893796Y18869251D01*
X24895217Y18863655D01*
X24895218Y18863650D01*
X24943696Y18672772D01*
X24945845Y18664310D01*
X24948262Y18659067D01*
X25031951Y18477531D01*
X25034369Y18472286D01*
X25156405Y18299609D01*
X25307865Y18152063D01*
X25312665Y18148856D01*
X25370180Y18110425D01*
X25415708Y18055948D01*
X25424555Y17985504D01*
X25393914Y17921461D01*
X25371749Y17902557D01*
X25368629Y17901059D01*
X25364389Y17897494D01*
X25362462Y17895567D01*
X25360564Y17893825D01*
X25360454Y17893766D01*
X25360348Y17893882D01*
X25359842Y17893436D01*
X25354154Y17890367D01*
X25335384Y17870062D01*
X25317832Y17851074D01*
X25314402Y17847507D01*
X24390498Y16923604D01*
X24328186Y16889579D01*
X24301403Y16886700D01*
X19691223Y16886700D01*
X19667723Y16889201D01*
X19665771Y16889293D01*
X19655590Y16891485D01*
X19645249Y16890261D01*
X19622540Y16887573D01*
X19616675Y16887227D01*
X19616683Y16887128D01*
X19611504Y16886700D01*
X19606304Y16886700D01*
X19601177Y16885847D01*
X19601170Y16885846D01*
X19587424Y16883558D01*
X19581548Y16882721D01*
X19546607Y16878585D01*
X19531051Y16876744D01*
X19522862Y16872812D01*
X19513893Y16871319D01*
X19471474Y16848430D01*
X19469122Y16847161D01*
X19463830Y16844465D01*
X19445229Y16835533D01*
X19418000Y16822458D01*
X19413759Y16818894D01*
X19411832Y16816967D01*
X19409931Y16815224D01*
X19409802Y16815154D01*
X19409699Y16815265D01*
X19409212Y16814835D01*
X19403525Y16811767D01*
X19396457Y16804121D01*
X19396456Y16804120D01*
X19367203Y16772474D01*
X19363773Y16768908D01*
X19112477Y16517612D01*
X19089196Y16501111D01*
X19089922Y16499986D01*
X19083265Y16495688D01*
X19076122Y16492258D01*
X19071881Y16488694D01*
X19069952Y16486765D01*
X19068053Y16485024D01*
X19067924Y16484954D01*
X19067821Y16485065D01*
X19067334Y16484635D01*
X19061647Y16481567D01*
X19054579Y16473921D01*
X19054578Y16473920D01*
X19025325Y16442274D01*
X19021895Y16438708D01*
X18516353Y15933166D01*
X18497963Y15918312D01*
X18496523Y15917002D01*
X18487770Y15911350D01*
X18481323Y15903172D01*
X18481321Y15903170D01*
X18467167Y15885215D01*
X18463261Y15880820D01*
X18463338Y15880755D01*
X18459985Y15876798D01*
X18456303Y15873116D01*
X18453280Y15868885D01*
X18445177Y15857545D01*
X18441608Y15852792D01*
X18416579Y15821044D01*
X18416577Y15821041D01*
X18410131Y15812864D01*
X18407120Y15804291D01*
X18401835Y15796895D01*
X18398851Y15786917D01*
X18387261Y15748163D01*
X18385426Y15742516D01*
X18371205Y15702022D01*
X18371204Y15702016D01*
X18368578Y15694539D01*
X18368100Y15689020D01*
X18368100Y15686305D01*
X18367988Y15683719D01*
X18367946Y15683580D01*
X18367795Y15683586D01*
X18367754Y15682937D01*
X18365902Y15676743D01*
X18366311Y15666337D01*
X18366419Y15663588D01*
X18365504Y15659949D01*
X18365006Y15656006D01*
X18364528Y15656066D01*
X18349107Y15594734D01*
X18329611Y15569545D01*
X18303923Y15543857D01*
X18241611Y15509831D01*
X18170796Y15514896D01*
X18113960Y15557443D01*
X18094206Y15596535D01*
X18086671Y15621492D01*
X18086670Y15621495D01*
X18084889Y15627394D01*
X18079940Y15636702D01*
X17994638Y15797133D01*
X17994636Y15797136D01*
X17991744Y15802575D01*
X17987854Y15807345D01*
X17987851Y15807349D01*
X17870241Y15951553D01*
X17870238Y15951556D01*
X17866346Y15956328D01*
X17837107Y15980517D01*
X17718222Y16078866D01*
X17713473Y16082795D01*
X17708054Y16085725D01*
X17708051Y16085727D01*
X17544366Y16174231D01*
X17544361Y16174233D01*
X17538946Y16177161D01*
X17349415Y16235831D01*
X17343290Y16236475D01*
X17343289Y16236475D01*
X17158225Y16255926D01*
X17158224Y16255926D01*
X17152097Y16256570D01*
X17069572Y16249060D01*
X16960648Y16239147D01*
X16960645Y16239146D01*
X16954509Y16238588D01*
X16948603Y16236850D01*
X16948599Y16236849D01*
X16813749Y16197160D01*
X16764177Y16182570D01*
X16588350Y16090650D01*
X16433726Y15966329D01*
X16306194Y15814343D01*
X16303227Y15808945D01*
X16303223Y15808940D01*
X16237297Y15689020D01*
X16210612Y15640479D01*
X16208751Y15634612D01*
X16208750Y15634610D01*
X16206461Y15627394D01*
X16150620Y15451362D01*
X16128504Y15254194D01*
X16145106Y15056485D01*
X16199794Y14865766D01*
X16202610Y14860287D01*
X16287665Y14694788D01*
X16290484Y14689302D01*
X16294307Y14684478D01*
X16294310Y14684474D01*
X16347115Y14617852D01*
X16413723Y14533814D01*
X16418417Y14529819D01*
X16553149Y14415153D01*
X16564815Y14405224D01*
X16738007Y14308430D01*
X16762900Y14300342D01*
X16791898Y14290920D01*
X16850504Y14250847D01*
X16878141Y14185450D01*
X16866034Y14115494D01*
X16842057Y14081992D01*
X16814620Y14054555D01*
X16752308Y14020529D01*
X16740340Y14018525D01*
X16734831Y14017873D01*
X16728976Y14017527D01*
X16728984Y14017428D01*
X16723807Y14017000D01*
X16718604Y14017000D01*
X16699714Y14013856D01*
X16693850Y14013022D01*
X16653691Y14008268D01*
X16643351Y14007044D01*
X16635162Y14003112D01*
X16626193Y14001619D01*
X16581422Y13977461D01*
X16576130Y13974765D01*
X16537444Y13956189D01*
X16537440Y13956187D01*
X16530300Y13952758D01*
X16526060Y13949194D01*
X16524129Y13947263D01*
X16522235Y13945525D01*
X16522111Y13945458D01*
X16522007Y13945572D01*
X16521512Y13945135D01*
X16515825Y13942067D01*
X16508760Y13934424D01*
X16479503Y13902774D01*
X16476073Y13899207D01*
X15706731Y13129866D01*
X15644419Y13095841D01*
X15573603Y13100906D01*
X15516768Y13143453D01*
X15506393Y13159795D01*
X15451744Y13262575D01*
X15447854Y13267345D01*
X15447851Y13267349D01*
X15330241Y13411553D01*
X15330238Y13411556D01*
X15326346Y13416328D01*
X15173473Y13542795D01*
X15168052Y13545726D01*
X15168051Y13545727D01*
X15004366Y13634231D01*
X15004361Y13634233D01*
X14998946Y13637161D01*
X14809415Y13695831D01*
X14803290Y13696475D01*
X14803289Y13696475D01*
X14618225Y13715926D01*
X14618224Y13715926D01*
X14612097Y13716570D01*
X14529572Y13709060D01*
X14420648Y13699147D01*
X14420645Y13699146D01*
X14414509Y13698588D01*
X14408603Y13696850D01*
X14408599Y13696849D01*
X14317131Y13669928D01*
X14224177Y13642570D01*
X14048350Y13550650D01*
X14043550Y13546790D01*
X14043549Y13546790D01*
X13943104Y13466030D01*
X13893726Y13426329D01*
X13766194Y13274343D01*
X13763227Y13268945D01*
X13763223Y13268940D01*
X13713528Y13178544D01*
X13670612Y13100479D01*
X13668751Y13094612D01*
X13668750Y13094610D01*
X13656621Y13056374D01*
X13610620Y12911362D01*
X13588504Y12714194D01*
X13589020Y12708050D01*
X13604042Y12529161D01*
X13605106Y12516485D01*
X13659794Y12325766D01*
X13693621Y12259946D01*
X13731502Y12186238D01*
X13750484Y12149302D01*
X13754307Y12144478D01*
X13754310Y12144474D01*
X13839907Y12036479D01*
X13873723Y11993814D01*
X14024815Y11865224D01*
X14198007Y11768430D01*
X14203865Y11766527D01*
X14203871Y11766524D01*
X14208580Y11764994D01*
X14267184Y11724918D01*
X14294817Y11659520D01*
X14282707Y11589564D01*
X14258733Y11556068D01*
X13143070Y10440405D01*
X13080758Y10406379D01*
X13053975Y10403500D01*
X12154125Y10403500D01*
X12086004Y10423502D01*
X12039511Y10477158D01*
X12029407Y10547432D01*
X12058901Y10612012D01*
X12065030Y10618596D01*
X12096835Y10650400D01*
X12293450Y10847015D01*
X12311827Y10861857D01*
X12313277Y10863176D01*
X12322030Y10868828D01*
X12332916Y10882636D01*
X12342633Y10894963D01*
X12346539Y10899358D01*
X12346462Y10899423D01*
X12349815Y10903380D01*
X12353497Y10907062D01*
X12364633Y10922646D01*
X12368192Y10927386D01*
X12393221Y10959134D01*
X12393223Y10959137D01*
X12399669Y10967314D01*
X12402680Y10975887D01*
X12407965Y10983283D01*
X12422546Y11032038D01*
X12424368Y11037644D01*
X12438595Y11078156D01*
X12438596Y11078162D01*
X12441222Y11085639D01*
X12441700Y11091158D01*
X12441700Y11093872D01*
X12441812Y11096463D01*
X12441853Y11096599D01*
X12442004Y11096592D01*
X12442045Y11097241D01*
X12443897Y11103434D01*
X12441797Y11156888D01*
X12441700Y11161834D01*
X12441700Y11679272D01*
X12461702Y11747393D01*
X12510890Y11791738D01*
X12604218Y11838881D01*
X12604223Y11838884D01*
X12609719Y11841660D01*
X12766064Y11963811D01*
X12788514Y11989819D01*
X12891681Y12109340D01*
X12891682Y12109341D01*
X12895705Y12114002D01*
X12993706Y12286514D01*
X13056332Y12474775D01*
X13065989Y12551220D01*
X13080757Y12668112D01*
X13080758Y12668122D01*
X13081199Y12671615D01*
X13081595Y12700000D01*
X13062234Y12897458D01*
X13004889Y13087394D01*
X12997529Y13101237D01*
X12914638Y13257133D01*
X12914636Y13257136D01*
X12911744Y13262575D01*
X12907854Y13267345D01*
X12907851Y13267349D01*
X12790241Y13411553D01*
X12790238Y13411556D01*
X12786346Y13416328D01*
X12633473Y13542795D01*
X12628052Y13545726D01*
X12628051Y13545727D01*
X12464366Y13634231D01*
X12464361Y13634233D01*
X12458946Y13637161D01*
X12269415Y13695831D01*
X12263290Y13696475D01*
X12263289Y13696475D01*
X12078227Y13715926D01*
X12078224Y13715926D01*
X12072097Y13716570D01*
X12065953Y13716011D01*
X12065500Y13716014D01*
X11997520Y13736488D01*
X11951400Y13790465D01*
X11941678Y13860091D01*
X11948314Y13905857D01*
X11948315Y13905867D01*
X11948846Y13909530D01*
X11950429Y13970000D01*
X11939644Y14087373D01*
X11953329Y14157038D01*
X12002505Y14208245D01*
X12055449Y14224531D01*
X12235388Y14238376D01*
X12235392Y14238377D01*
X12241530Y14238849D01*
X12247462Y14240505D01*
X12247466Y14240506D01*
X12337078Y14265526D01*
X12432626Y14292204D01*
X12609719Y14381660D01*
X12627658Y14395675D01*
X12761214Y14500022D01*
X12766064Y14503811D01*
X12788514Y14529819D01*
X12891681Y14649340D01*
X12891682Y14649341D01*
X12895705Y14654002D01*
X12913014Y14684470D01*
X12978381Y14799537D01*
X13029420Y14848888D01*
X13087937Y14863300D01*
X13584151Y14863300D01*
X13652272Y14843298D01*
X13696217Y14794894D01*
X13747664Y14694788D01*
X13747667Y14694784D01*
X13750484Y14689302D01*
X13873723Y14533814D01*
X13878417Y14529819D01*
X14013149Y14415153D01*
X14024815Y14405224D01*
X14198007Y14308430D01*
X14386701Y14247120D01*
X14583710Y14223628D01*
X14589845Y14224100D01*
X14589847Y14224100D01*
X14775388Y14238376D01*
X14775392Y14238377D01*
X14781530Y14238849D01*
X14787462Y14240505D01*
X14787466Y14240506D01*
X14877078Y14265526D01*
X14972626Y14292204D01*
X15149719Y14381660D01*
X15167658Y14395675D01*
X15301214Y14500022D01*
X15306064Y14503811D01*
X15328514Y14529819D01*
X15431681Y14649340D01*
X15431682Y14649341D01*
X15435705Y14654002D01*
X15533706Y14826514D01*
X15596332Y15014775D01*
X15606119Y15092243D01*
X15620757Y15208112D01*
X15620758Y15208122D01*
X15621199Y15211615D01*
X15621595Y15240000D01*
X15602234Y15437458D01*
X15544889Y15627394D01*
X15539940Y15636702D01*
X15454638Y15797133D01*
X15454636Y15797136D01*
X15451744Y15802575D01*
X15447854Y15807345D01*
X15447851Y15807349D01*
X15330241Y15951553D01*
X15330238Y15951556D01*
X15326346Y15956328D01*
X15297107Y15980517D01*
X15178222Y16078866D01*
X15173473Y16082795D01*
X15168054Y16085725D01*
X15168051Y16085727D01*
X15004366Y16174231D01*
X15004361Y16174233D01*
X14998946Y16177161D01*
X14809415Y16235831D01*
X14803290Y16236475D01*
X14803289Y16236475D01*
X14618225Y16255926D01*
X14618224Y16255926D01*
X14612097Y16256570D01*
X14529572Y16249060D01*
X14420648Y16239147D01*
X14420645Y16239146D01*
X14414509Y16238588D01*
X14408603Y16236850D01*
X14408599Y16236849D01*
X14273749Y16197160D01*
X14224177Y16182570D01*
X14048350Y16090650D01*
X13893726Y15966329D01*
X13766194Y15814343D01*
X13763224Y15808940D01*
X13763221Y15808936D01*
X13693438Y15682000D01*
X13643093Y15631941D01*
X13583023Y15616700D01*
X13086283Y15616700D01*
X13018162Y15636702D01*
X12975033Y15683544D01*
X12911744Y15802575D01*
X12907854Y15807345D01*
X12907851Y15807349D01*
X12790241Y15951553D01*
X12790238Y15951556D01*
X12786346Y15956328D01*
X12757107Y15980517D01*
X12653685Y16066074D01*
X12613947Y16124908D01*
X12608000Y16163159D01*
X12608000Y19985389D01*
X12628002Y20053510D01*
X12681658Y20100003D01*
X12751932Y20110107D01*
X12816512Y20080613D01*
X12845560Y20043959D01*
X12983876Y19780504D01*
X12983881Y19780496D01*
X12985460Y19777488D01*
X13188391Y19475495D01*
X13422750Y19197184D01*
X13685796Y18945812D01*
X13974452Y18724319D01*
X14003557Y18706623D01*
X14282425Y18537068D01*
X14282430Y18537065D01*
X14285340Y18535296D01*
X14614824Y18380954D01*
X14959050Y18263100D01*
X14962373Y18262351D01*
X14962377Y18262350D01*
X15062779Y18239723D01*
X15313990Y18183110D01*
X15363957Y18177417D01*
X15672110Y18142307D01*
X15672118Y18142307D01*
X15675493Y18141922D01*
X15678897Y18141904D01*
X15678900Y18141904D01*
X15876645Y18140869D01*
X16039331Y18140017D01*
X16042717Y18140367D01*
X16042719Y18140367D01*
X16397853Y18177066D01*
X16397862Y18177067D01*
X16401245Y18177417D01*
X16404578Y18178132D01*
X16404581Y18178132D01*
X16681162Y18237426D01*
X16757004Y18253685D01*
X17102445Y18367929D01*
X17433527Y18518812D01*
X17554760Y18590795D01*
X17743433Y18702820D01*
X17743438Y18702823D01*
X17746378Y18704569D01*
X17758251Y18713483D01*
X18034604Y18920975D01*
X18037337Y18923027D01*
X18303001Y19171631D01*
X18540262Y19447472D01*
X18566208Y19485224D01*
X18744414Y19744515D01*
X18744419Y19744522D01*
X18746344Y19747324D01*
X18747956Y19750318D01*
X18747961Y19750326D01*
X18911208Y20053510D01*
X18918837Y20067679D01*
X18920113Y20070822D01*
X18920117Y20070830D01*
X19054446Y20401641D01*
X19054448Y20401645D01*
X19055724Y20404789D01*
X19155401Y20754711D01*
X19160777Y20786160D01*
X19216133Y21110005D01*
X19216133Y21110007D01*
X19216705Y21113352D01*
X19217115Y21120045D01*
X19238807Y21474718D01*
X19238917Y21476515D01*
X19238999Y21500000D01*
X19219323Y21863310D01*
X19160525Y22222369D01*
X19063292Y22572979D01*
X19061735Y22576893D01*
X18930022Y22907872D01*
X18928763Y22911036D01*
X18840767Y23077231D01*
X18760105Y23229576D01*
X18760103Y23229579D01*
X18758510Y23232588D01*
X18748486Y23247394D01*
X18556432Y23531057D01*
X18556425Y23531066D01*
X18554526Y23533871D01*
X18552330Y23536461D01*
X18552325Y23536467D01*
X18437372Y23672014D01*
X18319196Y23811362D01*
X18055275Y24061814D01*
X18052568Y24063876D01*
X18052560Y24063883D01*
X17875303Y24198916D01*
X17765848Y24282298D01*
X17701698Y24320996D01*
X17607703Y24377698D01*
X29187252Y24377698D01*
X29196548Y24365683D01*
X29228566Y24343263D01*
X29238056Y24337785D01*
X29421431Y24252276D01*
X29431727Y24248528D01*
X29627168Y24196159D01*
X29637957Y24194257D01*
X29839525Y24176622D01*
X29850475Y24176622D01*
X30052043Y24194257D01*
X30062832Y24196159D01*
X30258273Y24248528D01*
X30268569Y24252276D01*
X30451944Y24337785D01*
X30461434Y24343263D01*
X30494291Y24366270D01*
X30502665Y24376746D01*
X30495596Y24390194D01*
X29857812Y25027978D01*
X29843868Y25035592D01*
X29842035Y25035461D01*
X29835420Y25031210D01*
X29193682Y24389472D01*
X29187252Y24377698D01*
X17607703Y24377698D01*
X17457224Y24468473D01*
X17457215Y24468478D01*
X17454302Y24470235D01*
X17451212Y24471669D01*
X17451207Y24471672D01*
X17127377Y24621988D01*
X17127375Y24621989D01*
X17124281Y24623425D01*
X17121046Y24624520D01*
X17121041Y24624522D01*
X16782881Y24738983D01*
X16779646Y24740078D01*
X16769836Y24742253D01*
X16648348Y24769186D01*
X16424428Y24818828D01*
X16297043Y24832891D01*
X16066164Y24858381D01*
X16066159Y24858381D01*
X16062783Y24858754D01*
X16059384Y24858760D01*
X16059383Y24858760D01*
X15887663Y24859060D01*
X15698942Y24859389D01*
X15528335Y24841156D01*
X15340544Y24821087D01*
X15340538Y24821086D01*
X15337160Y24820725D01*
X15333837Y24820001D01*
X15333834Y24820000D01*
X15234662Y24798377D01*
X14981669Y24743216D01*
X14636629Y24627767D01*
X14633536Y24626344D01*
X14633535Y24626344D01*
X14513630Y24571194D01*
X14306076Y24475730D01*
X14303142Y24473974D01*
X14303140Y24473973D01*
X14276707Y24458153D01*
X13993876Y24288882D01*
X13703681Y24069409D01*
X13701199Y24067070D01*
X13701193Y24067065D01*
X13441372Y23822221D01*
X13438887Y23819879D01*
X13436675Y23817289D01*
X13436673Y23817287D01*
X13421666Y23799716D01*
X13202590Y23543212D01*
X13200671Y23540400D01*
X13200668Y23540395D01*
X13000797Y23247394D01*
X12997555Y23242642D01*
X12995948Y23239632D01*
X12995946Y23239629D01*
X12845148Y22957207D01*
X12795418Y22906537D01*
X12726189Y22890796D01*
X12659439Y22914983D01*
X12616362Y22971418D01*
X12608000Y23016554D01*
X12608000Y24236072D01*
X12610501Y24259573D01*
X12610593Y24261525D01*
X12612786Y24271710D01*
X12610997Y24286826D01*
X12608873Y24304770D01*
X12608528Y24310624D01*
X12608428Y24310616D01*
X12608000Y24315793D01*
X12608000Y24320996D01*
X12604856Y24339886D01*
X12604024Y24345738D01*
X12601663Y24365683D01*
X12598045Y24396249D01*
X12594111Y24404441D01*
X12592619Y24413407D01*
X12568459Y24458182D01*
X12565778Y24463445D01*
X12547191Y24502154D01*
X12547189Y24502158D01*
X12543759Y24509300D01*
X12540194Y24513540D01*
X12538268Y24515466D01*
X12536525Y24517365D01*
X12536466Y24517475D01*
X12536582Y24517581D01*
X12536136Y24518087D01*
X12533067Y24523775D01*
X12493760Y24560110D01*
X12490195Y24563539D01*
X11485141Y25568593D01*
X11451115Y25630905D01*
X11456180Y25701720D01*
X11493667Y25754562D01*
X11607574Y25849297D01*
X11612012Y25852988D01*
X11747219Y26015558D01*
X11750043Y26020601D01*
X11750046Y26020605D01*
X11847713Y26195002D01*
X11847714Y26195004D01*
X11850537Y26200045D01*
X11852393Y26205512D01*
X11852395Y26205517D01*
X11906480Y26364849D01*
X11918504Y26400270D01*
X11919333Y26405985D01*
X11935440Y26517070D01*
X11965010Y26581615D01*
X12024782Y26619928D01*
X12095779Y26619843D01*
X12119829Y26609526D01*
X12123798Y26606481D01*
X12270485Y26545721D01*
X12427900Y26524997D01*
X12436088Y26526075D01*
X12577127Y26544643D01*
X12585315Y26545721D01*
X12732002Y26606481D01*
X12740896Y26613305D01*
X12851414Y26698110D01*
X12857964Y26703136D01*
X12954619Y26829099D01*
X13015379Y26975785D01*
X13017323Y26990547D01*
X13035025Y27125012D01*
X13036103Y27133200D01*
X13026566Y27205644D01*
X13016457Y27282429D01*
X13016456Y27282431D01*
X13015379Y27290615D01*
X12954619Y27437301D01*
X12857964Y27563264D01*
X12851414Y27568290D01*
X12845573Y27574131D01*
X12847113Y27575671D01*
X12812025Y27623733D01*
X12804600Y27666348D01*
X12804600Y29119477D01*
X12807101Y29142977D01*
X12807193Y29144929D01*
X12809385Y29155110D01*
X12805473Y29188161D01*
X12805127Y29194025D01*
X12805028Y29194017D01*
X12804600Y29199196D01*
X12804600Y29204396D01*
X12803747Y29209523D01*
X12803746Y29209530D01*
X12801458Y29223276D01*
X12800621Y29229152D01*
X12795868Y29269307D01*
X12794644Y29279649D01*
X12790712Y29287838D01*
X12789219Y29296807D01*
X12765061Y29341579D01*
X12762365Y29346870D01*
X12743786Y29385560D01*
X12740358Y29392700D01*
X12736794Y29396941D01*
X12734867Y29398868D01*
X12733124Y29400769D01*
X12733054Y29400898D01*
X12733165Y29401001D01*
X12732735Y29401488D01*
X12729667Y29407175D01*
X12690373Y29443498D01*
X12686808Y29446927D01*
X11485141Y30648594D01*
X11451115Y30710906D01*
X11456180Y30781721D01*
X11493664Y30834560D01*
X11612012Y30932988D01*
X11747219Y31095558D01*
X11750043Y31100601D01*
X11750046Y31100605D01*
X11847713Y31275002D01*
X11847714Y31275004D01*
X11850537Y31280045D01*
X11852393Y31285512D01*
X11852395Y31285517D01*
X11906006Y31443451D01*
X11918504Y31480270D01*
X11920787Y31496011D01*
X11948314Y31685860D01*
X11948314Y31685862D01*
X11948846Y31689530D01*
X11950429Y31750000D01*
X11931081Y31960560D01*
X11873686Y32164069D01*
X11867853Y32175899D01*
X11782719Y32348531D01*
X11780165Y32353710D01*
X11653651Y32523133D01*
X11553286Y32615910D01*
X11502622Y32662743D01*
X11502620Y32662745D01*
X11498381Y32666663D01*
X11319554Y32779495D01*
X11123160Y32857848D01*
X11117503Y32858973D01*
X11117497Y32858975D01*
X10920234Y32898212D01*
X10857324Y32931119D01*
X10822192Y32992814D01*
X10825992Y33063709D01*
X10867517Y33121295D01*
X10926734Y33146487D01*
X11059015Y33165667D01*
X11059019Y33165668D01*
X11064730Y33166496D01*
X11121676Y33185827D01*
X11259483Y33232605D01*
X11259488Y33232607D01*
X11264955Y33234463D01*
X11269998Y33237287D01*
X11444395Y33334954D01*
X11444399Y33334957D01*
X11449442Y33337781D01*
X11612012Y33472988D01*
X11747219Y33635558D01*
X11750043Y33640601D01*
X11750046Y33640605D01*
X11847713Y33815002D01*
X11847714Y33815004D01*
X11850537Y33820045D01*
X11852393Y33825512D01*
X11852395Y33825517D01*
X11914485Y34008430D01*
X11918504Y34020270D01*
X11920787Y34036011D01*
X11948314Y34225860D01*
X11948314Y34225862D01*
X11948846Y34229530D01*
X11950429Y34290000D01*
X11939644Y34407373D01*
X11953329Y34477038D01*
X12002505Y34528245D01*
X12055449Y34544531D01*
X12235388Y34558376D01*
X12235392Y34558377D01*
X12241530Y34558849D01*
X12247462Y34560505D01*
X12247466Y34560506D01*
X12337078Y34585526D01*
X12432626Y34612204D01*
X12609719Y34701660D01*
X12639880Y34725224D01*
X12714987Y34783905D01*
X12766064Y34823811D01*
X12788514Y34849819D01*
X12891681Y34969340D01*
X12891682Y34969341D01*
X12895705Y34974002D01*
X12908743Y34996952D01*
X12940675Y35053163D01*
X12993706Y35146514D01*
X13056332Y35334775D01*
X13065989Y35411220D01*
X13080757Y35528112D01*
X13080758Y35528122D01*
X13081199Y35531615D01*
X13081595Y35560000D01*
X13080203Y35574194D01*
X13588504Y35574194D01*
X13605106Y35376485D01*
X13617066Y35334775D01*
X13655469Y35200850D01*
X13659794Y35185766D01*
X13686245Y35134298D01*
X13727943Y35053163D01*
X13750484Y35009302D01*
X13754307Y35004478D01*
X13754310Y35004474D01*
X13836868Y34900313D01*
X13873723Y34853814D01*
X14024815Y34725224D01*
X14198007Y34628430D01*
X14386701Y34567120D01*
X14583710Y34543628D01*
X14589845Y34544100D01*
X14589847Y34544100D01*
X14775388Y34558376D01*
X14775392Y34558377D01*
X14781530Y34558849D01*
X14787462Y34560505D01*
X14787466Y34560506D01*
X14877078Y34585526D01*
X14972626Y34612204D01*
X15149719Y34701660D01*
X15179880Y34725224D01*
X15254987Y34783905D01*
X15306064Y34823811D01*
X15328514Y34849819D01*
X15431681Y34969340D01*
X15431682Y34969341D01*
X15435705Y34974002D01*
X15448743Y34996952D01*
X15480675Y35053163D01*
X15533706Y35146514D01*
X15596332Y35334775D01*
X15605989Y35411220D01*
X15620757Y35528112D01*
X15620758Y35528122D01*
X15621199Y35531615D01*
X15621595Y35560000D01*
X15602234Y35757458D01*
X15544889Y35947394D01*
X15510752Y36011597D01*
X15454638Y36117133D01*
X15454636Y36117136D01*
X15451744Y36122575D01*
X15447854Y36127345D01*
X15447851Y36127349D01*
X15330241Y36271553D01*
X15330238Y36271556D01*
X15326346Y36276328D01*
X15290119Y36306298D01*
X15178222Y36398866D01*
X15173473Y36402795D01*
X15168054Y36405725D01*
X15168051Y36405727D01*
X15004366Y36494231D01*
X15004361Y36494233D01*
X14998946Y36497161D01*
X14809415Y36555831D01*
X14803290Y36556475D01*
X14803289Y36556475D01*
X14618225Y36575926D01*
X14618224Y36575926D01*
X14612097Y36576570D01*
X14529572Y36569060D01*
X14420648Y36559147D01*
X14420645Y36559146D01*
X14414509Y36558588D01*
X14408603Y36556850D01*
X14408599Y36556849D01*
X14312520Y36528571D01*
X14224177Y36502570D01*
X14048350Y36410650D01*
X14043550Y36406790D01*
X14043549Y36406790D01*
X13925659Y36312004D01*
X13893726Y36286329D01*
X13766194Y36134343D01*
X13763227Y36128945D01*
X13763223Y36128940D01*
X13694289Y36003547D01*
X13670612Y35960479D01*
X13668751Y35954612D01*
X13668750Y35954610D01*
X13649912Y35895225D01*
X13610620Y35771362D01*
X13588504Y35574194D01*
X13080203Y35574194D01*
X13062234Y35757458D01*
X13004889Y35947394D01*
X12970752Y36011597D01*
X12914638Y36117133D01*
X12914636Y36117136D01*
X12911744Y36122575D01*
X12907854Y36127345D01*
X12907851Y36127349D01*
X12790241Y36271553D01*
X12790238Y36271556D01*
X12786346Y36276328D01*
X12750119Y36306298D01*
X12638222Y36398866D01*
X12633473Y36402795D01*
X12628054Y36405725D01*
X12628051Y36405727D01*
X12464366Y36494231D01*
X12464361Y36494233D01*
X12458946Y36497161D01*
X12269415Y36555831D01*
X12263290Y36556475D01*
X12263289Y36556475D01*
X12078227Y36575926D01*
X12078224Y36575926D01*
X12072097Y36576570D01*
X12065953Y36576011D01*
X12065500Y36576014D01*
X11997520Y36596488D01*
X11951400Y36650465D01*
X11941678Y36720091D01*
X11948314Y36765857D01*
X11948315Y36765867D01*
X11948846Y36769530D01*
X11950429Y36830000D01*
X11939644Y36947373D01*
X11953329Y37017038D01*
X12002505Y37068245D01*
X12055449Y37084531D01*
X12235388Y37098376D01*
X12235392Y37098377D01*
X12241530Y37098849D01*
X12247462Y37100505D01*
X12247466Y37100506D01*
X12363075Y37132785D01*
X12432626Y37152204D01*
X12609719Y37241660D01*
X12620535Y37250110D01*
X12736190Y37340471D01*
X12766064Y37363811D01*
X12776119Y37375459D01*
X12891681Y37509340D01*
X12891682Y37509341D01*
X12895705Y37514002D01*
X12898751Y37519363D01*
X12987978Y37676431D01*
X12993706Y37686514D01*
X13056332Y37874775D01*
X13065989Y37951220D01*
X13080757Y38068112D01*
X13080758Y38068122D01*
X13081199Y38071615D01*
X13081595Y38100000D01*
X13080203Y38114194D01*
X13588504Y38114194D01*
X13605106Y37916485D01*
X13617066Y37874775D01*
X13649253Y37762528D01*
X13659794Y37725766D01*
X13750484Y37549302D01*
X13754307Y37544478D01*
X13754310Y37544474D01*
X13835265Y37442336D01*
X13873723Y37393814D01*
X13878417Y37389819D01*
X13936401Y37340471D01*
X14024815Y37265224D01*
X14198007Y37168430D01*
X14386701Y37107120D01*
X14583710Y37083628D01*
X14589845Y37084100D01*
X14589847Y37084100D01*
X14775388Y37098376D01*
X14775392Y37098377D01*
X14781530Y37098849D01*
X14787462Y37100505D01*
X14787466Y37100506D01*
X14903075Y37132785D01*
X14972626Y37152204D01*
X15149719Y37241660D01*
X15160535Y37250110D01*
X15276190Y37340471D01*
X15306064Y37363811D01*
X15316119Y37375459D01*
X15431681Y37509340D01*
X15431682Y37509341D01*
X15435705Y37514002D01*
X15438751Y37519363D01*
X15527978Y37676431D01*
X15533706Y37686514D01*
X15596332Y37874775D01*
X15605989Y37951220D01*
X15620757Y38068112D01*
X15620758Y38068122D01*
X15621199Y38071615D01*
X15621595Y38100000D01*
X15602234Y38297458D01*
X15544889Y38487394D01*
X15529972Y38515449D01*
X15454638Y38657133D01*
X15454636Y38657136D01*
X15451744Y38662575D01*
X15447854Y38667345D01*
X15447851Y38667349D01*
X15330241Y38811553D01*
X15330238Y38811556D01*
X15326346Y38816328D01*
X15315453Y38825340D01*
X15227619Y38898002D01*
X15173473Y38942795D01*
X15168054Y38945725D01*
X15168051Y38945727D01*
X15004366Y39034231D01*
X15004361Y39034233D01*
X14998946Y39037161D01*
X14809415Y39095831D01*
X14803290Y39096475D01*
X14803289Y39096475D01*
X14618225Y39115926D01*
X14618224Y39115926D01*
X14612097Y39116570D01*
X14529572Y39109060D01*
X14420648Y39099147D01*
X14420645Y39099146D01*
X14414509Y39098588D01*
X14408603Y39096850D01*
X14408599Y39096849D01*
X14270345Y39056158D01*
X14224177Y39042570D01*
X14048350Y38950650D01*
X14043550Y38946790D01*
X14043549Y38946790D01*
X13915949Y38844197D01*
X13893726Y38826329D01*
X13766194Y38674343D01*
X13763227Y38668945D01*
X13763223Y38668940D01*
X13705980Y38564813D01*
X13670612Y38500479D01*
X13668751Y38494612D01*
X13668750Y38494610D01*
X13640616Y38405920D01*
X13610620Y38311362D01*
X13588504Y38114194D01*
X13080203Y38114194D01*
X13062234Y38297458D01*
X13004889Y38487394D01*
X12989972Y38515449D01*
X12914638Y38657133D01*
X12914636Y38657136D01*
X12911744Y38662575D01*
X12907854Y38667345D01*
X12907851Y38667349D01*
X12790241Y38811553D01*
X12790238Y38811556D01*
X12786346Y38816328D01*
X12775453Y38825340D01*
X12687619Y38898002D01*
X12633473Y38942795D01*
X12628054Y38945725D01*
X12628051Y38945727D01*
X12464366Y39034231D01*
X12464361Y39034233D01*
X12458946Y39037161D01*
X12269415Y39095831D01*
X12263290Y39096475D01*
X12263289Y39096475D01*
X12078227Y39115926D01*
X12078224Y39115926D01*
X12072097Y39116570D01*
X12065953Y39116011D01*
X12065500Y39116014D01*
X12041468Y39123252D01*
X19027336Y39123252D01*
X19034404Y39109806D01*
X19672188Y38472022D01*
X19686132Y38464408D01*
X19687965Y38464539D01*
X19694580Y38468790D01*
X20336318Y39110528D01*
X20342748Y39122302D01*
X20333452Y39134317D01*
X20301434Y39156737D01*
X20291944Y39162215D01*
X20108569Y39247724D01*
X20098273Y39251472D01*
X19902832Y39303841D01*
X19892043Y39305743D01*
X19690475Y39323378D01*
X19679525Y39323378D01*
X19477957Y39305743D01*
X19467168Y39303841D01*
X19271727Y39251472D01*
X19261431Y39247724D01*
X19078059Y39162217D01*
X19068564Y39156734D01*
X19035712Y39133731D01*
X19027336Y39123252D01*
X12041468Y39123252D01*
X11997520Y39136488D01*
X11951400Y39190465D01*
X11941678Y39260091D01*
X11948314Y39305857D01*
X11948315Y39305867D01*
X11948846Y39309530D01*
X11950429Y39370000D01*
X11935939Y39527690D01*
X11931610Y39574807D01*
X11931609Y39574811D01*
X11931081Y39580560D01*
X11929512Y39586124D01*
X11929512Y39586126D01*
X11903235Y39679299D01*
X11903995Y39750291D01*
X11935409Y39802595D01*
X12235409Y40102595D01*
X12297721Y40136621D01*
X12324504Y40139500D01*
X24931076Y40139500D01*
X24999197Y40119498D01*
X25045690Y40065842D01*
X25055794Y39995568D01*
X25042585Y39954833D01*
X24967523Y39812164D01*
X24904820Y39610227D01*
X24904141Y39604490D01*
X24895051Y39527690D01*
X24867180Y39462393D01*
X24808432Y39422529D01*
X24769924Y39416500D01*
X23357977Y39416500D01*
X23289856Y39436502D01*
X23268882Y39453405D01*
X23148740Y39573547D01*
X23133886Y39591937D01*
X23132576Y39593377D01*
X23126924Y39602130D01*
X23118746Y39608577D01*
X23118744Y39608579D01*
X23100789Y39622733D01*
X23096394Y39626639D01*
X23096329Y39626562D01*
X23092372Y39629915D01*
X23088690Y39633597D01*
X23073106Y39644733D01*
X23068366Y39648292D01*
X23036618Y39673321D01*
X23036615Y39673323D01*
X23028438Y39679769D01*
X23019865Y39682780D01*
X23012469Y39688065D01*
X22963727Y39702642D01*
X22958090Y39704474D01*
X22917596Y39718695D01*
X22917590Y39718696D01*
X22910113Y39721322D01*
X22904594Y39721800D01*
X22901879Y39721800D01*
X22899293Y39721912D01*
X22899154Y39721954D01*
X22899160Y39722105D01*
X22898511Y39722146D01*
X22892317Y39723998D01*
X22839383Y39721918D01*
X22838849Y39721897D01*
X22833902Y39721800D01*
X21763598Y39721800D01*
X21740097Y39724301D01*
X21738145Y39724393D01*
X21727960Y39726586D01*
X21717619Y39725362D01*
X21717618Y39725362D01*
X21694900Y39722673D01*
X21689046Y39722328D01*
X21689054Y39722228D01*
X21683877Y39721800D01*
X21678674Y39721800D01*
X21659784Y39718656D01*
X21653932Y39717824D01*
X21649226Y39717267D01*
X21603421Y39711845D01*
X21595229Y39707911D01*
X21586263Y39706419D01*
X21541488Y39682259D01*
X21536225Y39679578D01*
X21497516Y39660991D01*
X21497512Y39660989D01*
X21490370Y39657559D01*
X21486130Y39653994D01*
X21484204Y39652068D01*
X21482305Y39650325D01*
X21482195Y39650266D01*
X21482089Y39650382D01*
X21481583Y39649936D01*
X21475895Y39646867D01*
X21468830Y39639224D01*
X21439574Y39607575D01*
X21436144Y39604008D01*
X20751950Y38919815D01*
X20733573Y38904973D01*
X20732123Y38903654D01*
X20723370Y38898002D01*
X20716923Y38889824D01*
X20716921Y38889822D01*
X20702767Y38871867D01*
X20698861Y38867472D01*
X20698938Y38867407D01*
X20695585Y38863450D01*
X20691903Y38859768D01*
X20688880Y38855537D01*
X20680777Y38844197D01*
X20677208Y38839444D01*
X20652179Y38807696D01*
X20652177Y38807693D01*
X20645731Y38799516D01*
X20642720Y38790943D01*
X20637435Y38783547D01*
X20634260Y38772929D01*
X20622861Y38734815D01*
X20621026Y38729168D01*
X20604177Y38681190D01*
X20602110Y38681916D01*
X20573385Y38629175D01*
X19060815Y37116605D01*
X18998503Y37082579D01*
X18971720Y37079700D01*
X18242225Y37079700D01*
X18174104Y37099702D01*
X18153129Y37116605D01*
X17956588Y37313147D01*
X17922563Y37375459D01*
X17927628Y37446275D01*
X17950302Y37484572D01*
X17956550Y37491811D01*
X17975705Y37514002D01*
X18073706Y37686514D01*
X18136332Y37874775D01*
X18145989Y37951220D01*
X18160757Y38068112D01*
X18160758Y38068122D01*
X18161199Y38071615D01*
X18161519Y38094525D01*
X18461622Y38094525D01*
X18479257Y37892957D01*
X18481159Y37882168D01*
X18533528Y37686727D01*
X18537276Y37676431D01*
X18622783Y37493059D01*
X18628266Y37483564D01*
X18651269Y37450712D01*
X18661748Y37442336D01*
X18675194Y37449404D01*
X19312978Y38087188D01*
X19320592Y38101132D01*
X19320461Y38102965D01*
X19316210Y38109580D01*
X18674473Y38751317D01*
X18662698Y38757747D01*
X18650683Y38748451D01*
X18628266Y38716436D01*
X18622783Y38706941D01*
X18537276Y38523569D01*
X18533528Y38513273D01*
X18481159Y38317832D01*
X18479257Y38307043D01*
X18461622Y38105475D01*
X18461622Y38094525D01*
X18161519Y38094525D01*
X18161595Y38100000D01*
X18142234Y38297458D01*
X18084889Y38487394D01*
X18069972Y38515449D01*
X17994638Y38657133D01*
X17994636Y38657136D01*
X17991744Y38662575D01*
X17987854Y38667345D01*
X17987851Y38667349D01*
X17870241Y38811553D01*
X17870238Y38811556D01*
X17866346Y38816328D01*
X17855453Y38825340D01*
X17767619Y38898002D01*
X17713473Y38942795D01*
X17708054Y38945725D01*
X17708051Y38945727D01*
X17544366Y39034231D01*
X17544361Y39034233D01*
X17538946Y39037161D01*
X17349415Y39095831D01*
X17343290Y39096475D01*
X17343289Y39096475D01*
X17158225Y39115926D01*
X17158224Y39115926D01*
X17152097Y39116570D01*
X17069572Y39109060D01*
X16960648Y39099147D01*
X16960645Y39099146D01*
X16954509Y39098588D01*
X16948603Y39096850D01*
X16948599Y39096849D01*
X16810345Y39056158D01*
X16764177Y39042570D01*
X16588350Y38950650D01*
X16583550Y38946790D01*
X16583549Y38946790D01*
X16455949Y38844197D01*
X16433726Y38826329D01*
X16306194Y38674343D01*
X16303227Y38668945D01*
X16303223Y38668940D01*
X16245980Y38564813D01*
X16210612Y38500479D01*
X16208751Y38494612D01*
X16208750Y38494610D01*
X16180616Y38405920D01*
X16150620Y38311362D01*
X16128504Y38114194D01*
X16145106Y37916485D01*
X16157066Y37874775D01*
X16189253Y37762528D01*
X16199794Y37725766D01*
X16290484Y37549302D01*
X16294307Y37544478D01*
X16294310Y37544474D01*
X16375265Y37442336D01*
X16413723Y37393814D01*
X16418417Y37389819D01*
X16476401Y37340471D01*
X16564815Y37265224D01*
X16738007Y37168430D01*
X16926701Y37107120D01*
X17064722Y37090662D01*
X17076899Y37089210D01*
X17142172Y37061283D01*
X17151075Y37053191D01*
X17431957Y36772309D01*
X17465983Y36709997D01*
X17460918Y36639182D01*
X17418371Y36582346D01*
X17351851Y36557535D01*
X17329692Y36557904D01*
X17186349Y36572970D01*
X17158225Y36575926D01*
X17158224Y36575926D01*
X17152097Y36576570D01*
X17069572Y36569060D01*
X16960648Y36559147D01*
X16960645Y36559146D01*
X16954509Y36558588D01*
X16948603Y36556850D01*
X16948599Y36556849D01*
X16852520Y36528571D01*
X16764177Y36502570D01*
X16588350Y36410650D01*
X16583550Y36406790D01*
X16583549Y36406790D01*
X16465659Y36312004D01*
X16433726Y36286329D01*
X16306194Y36134343D01*
X16303227Y36128945D01*
X16303223Y36128940D01*
X16234289Y36003547D01*
X16210612Y35960479D01*
X16208751Y35954612D01*
X16208750Y35954610D01*
X16189912Y35895225D01*
X16150620Y35771362D01*
X16128504Y35574194D01*
X16145106Y35376485D01*
X16157066Y35334775D01*
X16195469Y35200850D01*
X16199794Y35185766D01*
X16226245Y35134298D01*
X16267943Y35053163D01*
X16290484Y35009302D01*
X16294307Y35004478D01*
X16294310Y35004474D01*
X16376868Y34900313D01*
X16413723Y34853814D01*
X16564815Y34725224D01*
X16738007Y34628430D01*
X16926701Y34567120D01*
X17123710Y34543628D01*
X17129845Y34544100D01*
X17129847Y34544100D01*
X17315388Y34558376D01*
X17315392Y34558377D01*
X17321530Y34558849D01*
X17327462Y34560505D01*
X17327466Y34560506D01*
X17417078Y34585526D01*
X17512626Y34612204D01*
X17689719Y34701660D01*
X17719880Y34725224D01*
X17794987Y34783905D01*
X17846064Y34823811D01*
X17868514Y34849819D01*
X17971681Y34969340D01*
X17971682Y34969341D01*
X17975705Y34974002D01*
X17988743Y34996952D01*
X18020675Y35053163D01*
X18073706Y35146514D01*
X18136332Y35334775D01*
X18145989Y35411220D01*
X18160757Y35528112D01*
X18160758Y35528122D01*
X18161199Y35531615D01*
X18161595Y35560000D01*
X18142234Y35757458D01*
X18084889Y35947394D01*
X18050752Y36011597D01*
X17994639Y36117131D01*
X17994637Y36117134D01*
X17991744Y36122575D01*
X17987851Y36127348D01*
X17985706Y36130577D01*
X17964672Y36198387D01*
X17983637Y36266803D01*
X18036580Y36314106D01*
X18090657Y36326300D01*
X18739378Y36326300D01*
X18807499Y36306298D01*
X18853992Y36252642D01*
X18864096Y36182368D01*
X18845523Y36134712D01*
X18846194Y36134343D01*
X18844124Y36130577D01*
X18750612Y35960479D01*
X18748751Y35954612D01*
X18748750Y35954610D01*
X18729912Y35895225D01*
X18690620Y35771362D01*
X18668504Y35574194D01*
X18685106Y35376485D01*
X18697066Y35334775D01*
X18735469Y35200850D01*
X18739794Y35185766D01*
X18766245Y35134298D01*
X18807943Y35053163D01*
X18830484Y35009302D01*
X18834307Y35004478D01*
X18834310Y35004474D01*
X18916868Y34900313D01*
X18953723Y34853814D01*
X19104815Y34725224D01*
X19278007Y34628430D01*
X19466701Y34567120D01*
X19663710Y34543628D01*
X19669845Y34544100D01*
X19669847Y34544100D01*
X19855388Y34558376D01*
X19855392Y34558377D01*
X19861530Y34558849D01*
X19867462Y34560505D01*
X19867466Y34560506D01*
X19957078Y34585526D01*
X20052626Y34612204D01*
X20229719Y34701660D01*
X20259880Y34725224D01*
X20334987Y34783905D01*
X20386064Y34823811D01*
X20408514Y34849819D01*
X20511681Y34969340D01*
X20511682Y34969341D01*
X20515705Y34974002D01*
X20528743Y34996952D01*
X20560675Y35053163D01*
X20613706Y35146514D01*
X20662942Y35294523D01*
X20703423Y35352847D01*
X20769011Y35380027D01*
X20838882Y35367432D01*
X20890852Y35319062D01*
X20908500Y35254751D01*
X20908500Y35224350D01*
X20905999Y35200850D01*
X20905907Y35198897D01*
X20903714Y35188712D01*
X20907626Y35155665D01*
X20907972Y35149798D01*
X20908072Y35149806D01*
X20908500Y35144629D01*
X20908500Y35139426D01*
X20911643Y35120543D01*
X20912478Y35114672D01*
X20918456Y35064173D01*
X20922388Y35055984D01*
X20923881Y35047015D01*
X20928824Y35037855D01*
X20948039Y35002244D01*
X20950735Y34996952D01*
X20969311Y34958266D01*
X20969313Y34958262D01*
X20972742Y34951122D01*
X20976306Y34946882D01*
X20978237Y34944951D01*
X20979975Y34943057D01*
X20980042Y34942933D01*
X20979928Y34942829D01*
X20980365Y34942334D01*
X20983433Y34936647D01*
X20991076Y34929582D01*
X21022739Y34900313D01*
X21026305Y34896883D01*
X21531430Y34391758D01*
X21546286Y34373365D01*
X21547599Y34371922D01*
X21553250Y34363170D01*
X21579398Y34342557D01*
X21583782Y34338661D01*
X21583846Y34338737D01*
X21587809Y34335379D01*
X21591485Y34331703D01*
X21599492Y34325981D01*
X21607055Y34320576D01*
X21611782Y34317027D01*
X21651736Y34285531D01*
X21660309Y34282520D01*
X21667705Y34277235D01*
X21716447Y34262658D01*
X21722084Y34260826D01*
X21762578Y34246605D01*
X21762584Y34246604D01*
X21770061Y34243978D01*
X21775580Y34243500D01*
X21778295Y34243500D01*
X21780881Y34243388D01*
X21781020Y34243346D01*
X21781014Y34243195D01*
X21781663Y34243154D01*
X21787857Y34241302D01*
X21841326Y34243403D01*
X21846272Y34243500D01*
X23668524Y34243500D01*
X23736645Y34223498D01*
X23757619Y34206595D01*
X25220023Y32744191D01*
X25254049Y32681879D01*
X25248984Y32611064D01*
X25214008Y32560366D01*
X25201225Y32549155D01*
X25196881Y32545345D01*
X25193306Y32540810D01*
X25193305Y32540809D01*
X25175725Y32518509D01*
X25065976Y32379292D01*
X25063287Y32374181D01*
X25063285Y32374178D01*
X25040825Y32331488D01*
X24967523Y32192164D01*
X24904820Y31990227D01*
X24879967Y31780246D01*
X24893796Y31569251D01*
X24895217Y31563655D01*
X24895218Y31563650D01*
X24933957Y31411120D01*
X24945845Y31364310D01*
X24948262Y31359067D01*
X25025487Y31191553D01*
X25034369Y31172286D01*
X25156405Y30999609D01*
X25307865Y30852063D01*
X25312661Y30848858D01*
X25312664Y30848856D01*
X25402456Y30788859D01*
X25483677Y30734589D01*
X25488985Y30732308D01*
X25488986Y30732308D01*
X25672650Y30653400D01*
X25672653Y30653399D01*
X25677953Y30651122D01*
X25683582Y30649848D01*
X25683583Y30649848D01*
X25878550Y30605731D01*
X25878553Y30605731D01*
X25884186Y30604456D01*
X25889958Y30604229D01*
X25895687Y30603475D01*
X25895327Y30600743D01*
X25951604Y30581784D01*
X25995950Y30526341D01*
X26003282Y30455724D01*
X25971271Y30392353D01*
X25910081Y30356349D01*
X25900704Y30354368D01*
X25741650Y30327038D01*
X25741649Y30327038D01*
X25735953Y30326059D01*
X25537575Y30252873D01*
X25532614Y30249921D01*
X25532613Y30249921D01*
X25515089Y30239495D01*
X25355856Y30144762D01*
X25196881Y30005345D01*
X25065976Y29839292D01*
X25063287Y29834181D01*
X25063285Y29834178D01*
X25046248Y29801795D01*
X24967523Y29652164D01*
X24904820Y29450227D01*
X24879967Y29240246D01*
X24893796Y29029251D01*
X24895217Y29023655D01*
X24895218Y29023650D01*
X24943562Y28833300D01*
X24945845Y28824310D01*
X24948262Y28819067D01*
X25025487Y28651553D01*
X25034369Y28632286D01*
X25156405Y28459609D01*
X25307865Y28312063D01*
X25312661Y28308858D01*
X25312664Y28308856D01*
X25448008Y28218422D01*
X25483677Y28194589D01*
X25488985Y28192308D01*
X25488986Y28192308D01*
X25672650Y28113400D01*
X25672653Y28113399D01*
X25677953Y28111122D01*
X25683582Y28109848D01*
X25683583Y28109848D01*
X25878550Y28065731D01*
X25878553Y28065731D01*
X25884186Y28064456D01*
X25889958Y28064229D01*
X25895687Y28063475D01*
X25895327Y28060743D01*
X25951604Y28041784D01*
X25995950Y27986341D01*
X26003282Y27915724D01*
X25971271Y27852353D01*
X25910081Y27816349D01*
X25900704Y27814368D01*
X25741650Y27787038D01*
X25741649Y27787038D01*
X25735953Y27786059D01*
X25537575Y27712873D01*
X25532614Y27709921D01*
X25532613Y27709921D01*
X25387744Y27623733D01*
X25355856Y27604762D01*
X25196881Y27465345D01*
X25065976Y27299292D01*
X25063287Y27294181D01*
X25063285Y27294178D01*
X25044774Y27258994D01*
X24967523Y27112164D01*
X24904820Y26910227D01*
X24879967Y26700246D01*
X24893796Y26489251D01*
X24895217Y26483655D01*
X24895218Y26483650D01*
X24939237Y26310328D01*
X24945845Y26284310D01*
X24948262Y26279067D01*
X25025487Y26111553D01*
X25034369Y26092286D01*
X25156405Y25919609D01*
X25160539Y25915582D01*
X25262687Y25816074D01*
X25307865Y25772063D01*
X25312661Y25768858D01*
X25312664Y25768856D01*
X25450077Y25677040D01*
X25483677Y25654589D01*
X25488980Y25652310D01*
X25488985Y25652308D01*
X25508207Y25644050D01*
X25541768Y25629631D01*
X25596460Y25584364D01*
X25617998Y25516713D01*
X25599541Y25448158D01*
X25546951Y25400463D01*
X25531175Y25394099D01*
X25511868Y25387788D01*
X25502359Y25383791D01*
X25313463Y25285458D01*
X25304738Y25279964D01*
X25134433Y25152095D01*
X25126726Y25145252D01*
X24979590Y24991283D01*
X24973104Y24983273D01*
X24853098Y24807351D01*
X24848000Y24798377D01*
X24758338Y24605217D01*
X24754775Y24595530D01*
X24699389Y24395817D01*
X24700912Y24387393D01*
X24713292Y24384000D01*
X27353344Y24384000D01*
X27366875Y24387973D01*
X27368180Y24397053D01*
X27326214Y24564125D01*
X27322894Y24573876D01*
X27237972Y24769186D01*
X27233105Y24778261D01*
X27117426Y24957074D01*
X27111136Y24965243D01*
X26967806Y25122760D01*
X26960273Y25129785D01*
X26793139Y25261778D01*
X26784552Y25267483D01*
X26598117Y25370401D01*
X26588705Y25374631D01*
X26537178Y25392878D01*
X26534900Y25394525D01*
X28621622Y25394525D01*
X28639257Y25192957D01*
X28641159Y25182168D01*
X28693528Y24986727D01*
X28697276Y24976431D01*
X28782783Y24793059D01*
X28788266Y24783564D01*
X28811269Y24750712D01*
X28821748Y24742336D01*
X28835194Y24749404D01*
X29472978Y25387188D01*
X29479356Y25398868D01*
X30209408Y25398868D01*
X30209539Y25397035D01*
X30213790Y25390420D01*
X30855527Y24748683D01*
X30867302Y24742253D01*
X30879317Y24751549D01*
X30901734Y24783564D01*
X30907217Y24793059D01*
X30925606Y24832495D01*
X30972524Y24885780D01*
X31040801Y24905241D01*
X31108761Y24884699D01*
X31154826Y24830676D01*
X31165801Y24779245D01*
X31165801Y24644131D01*
X31166171Y24637310D01*
X31171695Y24586448D01*
X31175321Y24571196D01*
X31220476Y24450746D01*
X31229014Y24435151D01*
X31305515Y24333076D01*
X31318076Y24320515D01*
X31420151Y24244014D01*
X31435746Y24235476D01*
X31556194Y24190322D01*
X31571449Y24186695D01*
X31622314Y24181169D01*
X31629128Y24180800D01*
X32112885Y24180800D01*
X32128124Y24185275D01*
X32129329Y24186665D01*
X32131000Y24194348D01*
X32131000Y24198916D01*
X32639000Y24198916D01*
X32643475Y24183677D01*
X32644865Y24182472D01*
X32652548Y24180801D01*
X33140869Y24180801D01*
X33147690Y24181171D01*
X33198552Y24186695D01*
X33213804Y24190321D01*
X33334254Y24235476D01*
X33349849Y24244014D01*
X33451924Y24320515D01*
X33464485Y24333076D01*
X33540986Y24435151D01*
X33549524Y24450746D01*
X33594678Y24571194D01*
X33598305Y24586449D01*
X33603831Y24637314D01*
X33604200Y24644128D01*
X33604200Y25127885D01*
X33599725Y25143124D01*
X33598335Y25144329D01*
X33590652Y25146000D01*
X32657115Y25146000D01*
X32641876Y25141525D01*
X32640671Y25140135D01*
X32639000Y25132452D01*
X32639000Y24198916D01*
X32131000Y24198916D01*
X32131000Y25672115D01*
X32639000Y25672115D01*
X32643475Y25656876D01*
X32644865Y25655671D01*
X32652548Y25654000D01*
X33586084Y25654000D01*
X33601323Y25658475D01*
X33602528Y25659865D01*
X33604199Y25667548D01*
X33604199Y26155869D01*
X33603829Y26162690D01*
X33598305Y26213552D01*
X33594679Y26228804D01*
X33549524Y26349254D01*
X33540986Y26364849D01*
X33464485Y26466924D01*
X33451924Y26479485D01*
X33349849Y26555986D01*
X33334254Y26564524D01*
X33213806Y26609678D01*
X33198551Y26613305D01*
X33147686Y26618831D01*
X33140872Y26619200D01*
X32657115Y26619200D01*
X32641876Y26614725D01*
X32640671Y26613335D01*
X32639000Y26605652D01*
X32639000Y25672115D01*
X32131000Y25672115D01*
X32131000Y26601084D01*
X32126525Y26616323D01*
X32125135Y26617528D01*
X32117452Y26619199D01*
X31629131Y26619199D01*
X31622310Y26618829D01*
X31571448Y26613305D01*
X31556196Y26609679D01*
X31435746Y26564524D01*
X31420151Y26555986D01*
X31318076Y26479485D01*
X31305515Y26466924D01*
X31229014Y26364849D01*
X31220476Y26349254D01*
X31175322Y26228806D01*
X31171695Y26213551D01*
X31166169Y26162686D01*
X31165800Y26155872D01*
X31165800Y26020757D01*
X31145798Y25952636D01*
X31092142Y25906143D01*
X31021868Y25896039D01*
X30957288Y25925533D01*
X30925605Y25967507D01*
X30907217Y26006941D01*
X30901734Y26016436D01*
X30878731Y26049288D01*
X30868252Y26057664D01*
X30854806Y26050596D01*
X30217022Y25412812D01*
X30209408Y25398868D01*
X29479356Y25398868D01*
X29480592Y25401132D01*
X29480461Y25402965D01*
X29476210Y25409580D01*
X28834473Y26051317D01*
X28822698Y26057747D01*
X28810683Y26048451D01*
X28788266Y26016436D01*
X28782783Y26006941D01*
X28697276Y25823569D01*
X28693528Y25813273D01*
X28641159Y25617832D01*
X28639257Y25607043D01*
X28621622Y25405475D01*
X28621622Y25394525D01*
X26534900Y25394525D01*
X26479642Y25434472D01*
X26453726Y25500570D01*
X26467660Y25570186D01*
X26517672Y25621585D01*
X26568030Y25649787D01*
X26689442Y25717781D01*
X26852012Y25852988D01*
X26987219Y26015558D01*
X26990043Y26020601D01*
X26990046Y26020605D01*
X27087713Y26195002D01*
X27087714Y26195004D01*
X27090537Y26200045D01*
X27092393Y26205512D01*
X27092395Y26205517D01*
X27146480Y26364849D01*
X27158504Y26400270D01*
X27159465Y26406894D01*
X27161837Y26423252D01*
X29187336Y26423252D01*
X29194404Y26409806D01*
X29832188Y25772022D01*
X29846132Y25764408D01*
X29847965Y25764539D01*
X29854580Y25768790D01*
X30496318Y26410528D01*
X30502748Y26422302D01*
X30493452Y26434317D01*
X30461434Y26456737D01*
X30451944Y26462215D01*
X30268569Y26547724D01*
X30258273Y26551472D01*
X30062832Y26603841D01*
X30052043Y26605743D01*
X29850475Y26623378D01*
X29839525Y26623378D01*
X29637957Y26605743D01*
X29627168Y26603841D01*
X29431727Y26551472D01*
X29421431Y26547724D01*
X29238059Y26462217D01*
X29228564Y26456734D01*
X29195712Y26433731D01*
X29187336Y26423252D01*
X27161837Y26423252D01*
X27188314Y26605860D01*
X27188314Y26605862D01*
X27188846Y26609530D01*
X27190429Y26670000D01*
X27171081Y26880560D01*
X27113686Y27084069D01*
X27104737Y27102217D01*
X27022719Y27268531D01*
X27020165Y27273710D01*
X26893651Y27443133D01*
X26772135Y27555461D01*
X26742622Y27582743D01*
X26742620Y27582745D01*
X26738381Y27586663D01*
X26559554Y27699495D01*
X26363160Y27777848D01*
X26357503Y27778973D01*
X26357497Y27778975D01*
X26160234Y27818212D01*
X26097324Y27851119D01*
X26062192Y27912814D01*
X26065992Y27983709D01*
X26107517Y28041295D01*
X26166734Y28066487D01*
X26299015Y28085667D01*
X26299019Y28085668D01*
X26304730Y28086496D01*
X26383987Y28113400D01*
X26499483Y28152605D01*
X26499488Y28152607D01*
X26504955Y28154463D01*
X26509998Y28157287D01*
X26684395Y28254954D01*
X26684399Y28254957D01*
X26689442Y28257781D01*
X26852012Y28392988D01*
X26987219Y28555558D01*
X26990043Y28560601D01*
X26990046Y28560605D01*
X27087713Y28735002D01*
X27087714Y28735004D01*
X27090537Y28740045D01*
X27092393Y28745512D01*
X27092395Y28745517D01*
X27150289Y28916069D01*
X27158504Y28940270D01*
X27160787Y28956011D01*
X27188314Y29145860D01*
X27188314Y29145862D01*
X27188846Y29149530D01*
X27190429Y29210000D01*
X27171081Y29420560D01*
X27113686Y29624069D01*
X27107853Y29635899D01*
X27022719Y29808531D01*
X27020165Y29813710D01*
X26893651Y29983133D01*
X26784329Y30084189D01*
X26742622Y30122743D01*
X26742620Y30122745D01*
X26738381Y30126663D01*
X26705014Y30147716D01*
X26564434Y30236416D01*
X26564433Y30236416D01*
X26559554Y30239495D01*
X26363160Y30317848D01*
X26357503Y30318973D01*
X26357497Y30318975D01*
X26160234Y30358212D01*
X26097324Y30391119D01*
X26062192Y30452814D01*
X26065992Y30523709D01*
X26107517Y30581295D01*
X26166734Y30606487D01*
X26299015Y30625667D01*
X26299019Y30625668D01*
X26304730Y30626496D01*
X26383987Y30653400D01*
X26499483Y30692605D01*
X26499488Y30692607D01*
X26504955Y30694463D01*
X26534316Y30710906D01*
X26684395Y30794954D01*
X26684399Y30794957D01*
X26689442Y30797781D01*
X26852012Y30932988D01*
X26987219Y31095558D01*
X26990043Y31100601D01*
X26990046Y31100605D01*
X27087713Y31275002D01*
X27087714Y31275004D01*
X27090537Y31280045D01*
X27092393Y31285512D01*
X27092395Y31285517D01*
X27146006Y31443451D01*
X27158504Y31480270D01*
X27160787Y31496011D01*
X27188314Y31685860D01*
X27188314Y31685862D01*
X27188846Y31689530D01*
X27190429Y31750000D01*
X27171081Y31960560D01*
X27113686Y32164069D01*
X27107853Y32175899D01*
X27022719Y32348531D01*
X27020165Y32353710D01*
X26893651Y32523133D01*
X26793286Y32615910D01*
X26742622Y32662743D01*
X26742620Y32662745D01*
X26738381Y32666663D01*
X26559554Y32779495D01*
X26363160Y32857848D01*
X26357500Y32858974D01*
X26357496Y32858975D01*
X26161814Y32897898D01*
X26097300Y32932382D01*
X26096826Y32932856D01*
X26062800Y32995168D01*
X26067865Y33065983D01*
X26110412Y33122819D01*
X26167840Y33146647D01*
X26299015Y33165667D01*
X26299019Y33165668D01*
X26304730Y33166496D01*
X26361676Y33185827D01*
X26499483Y33232605D01*
X26499488Y33232607D01*
X26504955Y33234463D01*
X26509998Y33237287D01*
X26684395Y33334954D01*
X26684399Y33334957D01*
X26689442Y33337781D01*
X26852012Y33472988D01*
X26987219Y33635558D01*
X26990043Y33640601D01*
X26990046Y33640605D01*
X27087713Y33815002D01*
X27087714Y33815004D01*
X27090537Y33820045D01*
X27092393Y33825512D01*
X27092395Y33825517D01*
X27154485Y34008430D01*
X27158504Y34020270D01*
X27160787Y34036011D01*
X27188314Y34225860D01*
X27188314Y34225862D01*
X27188846Y34229530D01*
X27190429Y34290000D01*
X27179644Y34407373D01*
X27193329Y34477038D01*
X27242505Y34528245D01*
X27295449Y34544531D01*
X27475388Y34558376D01*
X27475392Y34558377D01*
X27481530Y34558849D01*
X27487462Y34560505D01*
X27487466Y34560506D01*
X27577078Y34585526D01*
X27672626Y34612204D01*
X27849719Y34701660D01*
X27879880Y34725224D01*
X27954987Y34783905D01*
X28006064Y34823811D01*
X28028514Y34849819D01*
X28131681Y34969340D01*
X28131682Y34969341D01*
X28135705Y34974002D01*
X28148743Y34996952D01*
X28180675Y35053163D01*
X28233706Y35146514D01*
X28296332Y35334775D01*
X28305989Y35411220D01*
X28320757Y35528112D01*
X28320758Y35528122D01*
X28321199Y35531615D01*
X28321595Y35560000D01*
X28302234Y35757458D01*
X28244889Y35947394D01*
X28210752Y36011597D01*
X28154638Y36117133D01*
X28154636Y36117136D01*
X28151744Y36122575D01*
X28147854Y36127345D01*
X28147851Y36127349D01*
X28030241Y36271553D01*
X28030238Y36271556D01*
X28026346Y36276328D01*
X27990119Y36306298D01*
X27878222Y36398866D01*
X27873473Y36402795D01*
X27868054Y36405725D01*
X27868051Y36405727D01*
X27704366Y36494231D01*
X27704361Y36494233D01*
X27698946Y36497161D01*
X27509415Y36555831D01*
X27503290Y36556475D01*
X27503289Y36556475D01*
X27318227Y36575926D01*
X27318224Y36575926D01*
X27312097Y36576570D01*
X27305953Y36576011D01*
X27305500Y36576014D01*
X27237520Y36596488D01*
X27191400Y36650465D01*
X27181678Y36720091D01*
X27188314Y36765857D01*
X27188315Y36765867D01*
X27188846Y36769530D01*
X27190429Y36830000D01*
X27179644Y36947373D01*
X27193329Y37017038D01*
X27242505Y37068245D01*
X27295449Y37084531D01*
X27475388Y37098376D01*
X27475392Y37098377D01*
X27481530Y37098849D01*
X27487462Y37100505D01*
X27487466Y37100506D01*
X27603075Y37132785D01*
X27672626Y37152204D01*
X27849719Y37241660D01*
X27860535Y37250110D01*
X27976190Y37340471D01*
X28006064Y37363811D01*
X28016119Y37375459D01*
X28131681Y37509340D01*
X28131682Y37509341D01*
X28135705Y37514002D01*
X28138751Y37519363D01*
X28227978Y37676431D01*
X28233706Y37686514D01*
X28296332Y37874775D01*
X28305989Y37951220D01*
X28320757Y38068112D01*
X28320758Y38068122D01*
X28321199Y38071615D01*
X28321595Y38100000D01*
X28302234Y38297458D01*
X28244889Y38487394D01*
X28229972Y38515449D01*
X28154638Y38657133D01*
X28154636Y38657136D01*
X28151744Y38662575D01*
X28147854Y38667345D01*
X28147851Y38667349D01*
X28030241Y38811553D01*
X28030238Y38811556D01*
X28026346Y38816328D01*
X28015453Y38825340D01*
X27927619Y38898002D01*
X27873473Y38942795D01*
X27868054Y38945725D01*
X27868051Y38945727D01*
X27704366Y39034231D01*
X27704361Y39034233D01*
X27698946Y39037161D01*
X27509415Y39095831D01*
X27503290Y39096475D01*
X27503289Y39096475D01*
X27318227Y39115926D01*
X27318224Y39115926D01*
X27312097Y39116570D01*
X27305953Y39116011D01*
X27305500Y39116014D01*
X27237520Y39136488D01*
X27191400Y39190465D01*
X27181678Y39260091D01*
X27188314Y39305857D01*
X27188315Y39305867D01*
X27188846Y39309530D01*
X27190429Y39370000D01*
X27171081Y39580560D01*
X27167873Y39591937D01*
X27151389Y39650382D01*
X27113686Y39784069D01*
X27102553Y39806646D01*
X27028025Y39957771D01*
X27015835Y40027714D01*
X27043394Y40093143D01*
X27101952Y40133287D01*
X27141031Y40139500D01*
X28950496Y40139500D01*
X29018617Y40119498D01*
X29039591Y40102595D01*
X29820944Y39321242D01*
X29854970Y39258930D01*
X29849905Y39188115D01*
X29807358Y39131279D01*
X29743269Y39106666D01*
X29660648Y39099147D01*
X29660645Y39099146D01*
X29654509Y39098588D01*
X29648603Y39096850D01*
X29648599Y39096849D01*
X29510345Y39056158D01*
X29464177Y39042570D01*
X29288350Y38950650D01*
X29283550Y38946790D01*
X29283549Y38946790D01*
X29155949Y38844197D01*
X29133726Y38826329D01*
X29006194Y38674343D01*
X29003227Y38668945D01*
X29003223Y38668940D01*
X28945980Y38564813D01*
X28910612Y38500479D01*
X28908751Y38494612D01*
X28908750Y38494610D01*
X28880616Y38405920D01*
X28850620Y38311362D01*
X28828504Y38114194D01*
X28845106Y37916485D01*
X28857066Y37874775D01*
X28889253Y37762528D01*
X28899794Y37725766D01*
X28990484Y37549302D01*
X28994307Y37544478D01*
X28994310Y37544474D01*
X29075265Y37442336D01*
X29113723Y37393814D01*
X29118417Y37389819D01*
X29176401Y37340471D01*
X29264815Y37265224D01*
X29438007Y37168430D01*
X29626701Y37107120D01*
X29823710Y37083628D01*
X29829845Y37084100D01*
X29829847Y37084100D01*
X30015388Y37098376D01*
X30015392Y37098377D01*
X30021530Y37098849D01*
X30027462Y37100505D01*
X30027466Y37100506D01*
X30143075Y37132785D01*
X30212626Y37152204D01*
X30389719Y37241660D01*
X30400535Y37250110D01*
X30516190Y37340471D01*
X30546064Y37363811D01*
X30556119Y37375459D01*
X30599118Y37425275D01*
X30658771Y37463772D01*
X30729768Y37463908D01*
X30789567Y37425638D01*
X30819183Y37361113D01*
X30820500Y37342944D01*
X30820500Y36318554D01*
X30800498Y36250433D01*
X30746842Y36203940D01*
X30676568Y36193836D01*
X30611988Y36223330D01*
X30596857Y36238918D01*
X30570241Y36271553D01*
X30570238Y36271556D01*
X30566346Y36276328D01*
X30530119Y36306298D01*
X30418222Y36398866D01*
X30413473Y36402795D01*
X30408054Y36405725D01*
X30408051Y36405727D01*
X30244366Y36494231D01*
X30244361Y36494233D01*
X30238946Y36497161D01*
X30049415Y36555831D01*
X30043290Y36556475D01*
X30043289Y36556475D01*
X29858225Y36575926D01*
X29858224Y36575926D01*
X29852097Y36576570D01*
X29769572Y36569060D01*
X29660648Y36559147D01*
X29660645Y36559146D01*
X29654509Y36558588D01*
X29648603Y36556850D01*
X29648599Y36556849D01*
X29552520Y36528571D01*
X29464177Y36502570D01*
X29288350Y36410650D01*
X29283550Y36406790D01*
X29283549Y36406790D01*
X29165659Y36312004D01*
X29133726Y36286329D01*
X29006194Y36134343D01*
X29003227Y36128945D01*
X29003223Y36128940D01*
X28934289Y36003547D01*
X28910612Y35960479D01*
X28908751Y35954612D01*
X28908750Y35954610D01*
X28889912Y35895225D01*
X28850620Y35771362D01*
X28828504Y35574194D01*
X28845106Y35376485D01*
X28857066Y35334775D01*
X28895469Y35200850D01*
X28899794Y35185766D01*
X28926245Y35134298D01*
X28967943Y35053163D01*
X28990484Y35009302D01*
X28994307Y35004478D01*
X28994310Y35004474D01*
X29076868Y34900313D01*
X29113723Y34853814D01*
X29264815Y34725224D01*
X29438007Y34628430D01*
X29626701Y34567120D01*
X29823710Y34543628D01*
X29829845Y34544100D01*
X29829847Y34544100D01*
X30015388Y34558376D01*
X30015392Y34558377D01*
X30021530Y34558849D01*
X30027462Y34560505D01*
X30027466Y34560506D01*
X30117078Y34585526D01*
X30212626Y34612204D01*
X30389719Y34701660D01*
X30419880Y34725224D01*
X30494987Y34783905D01*
X30546064Y34823811D01*
X30568514Y34849819D01*
X30599118Y34885275D01*
X30658771Y34923772D01*
X30729768Y34923908D01*
X30789567Y34885638D01*
X30819183Y34821113D01*
X30820500Y34802944D01*
X30820500Y33778554D01*
X30800498Y33710433D01*
X30746842Y33663940D01*
X30676568Y33653836D01*
X30611988Y33683330D01*
X30596857Y33698918D01*
X30570241Y33731553D01*
X30570238Y33731556D01*
X30566346Y33736328D01*
X30413473Y33862795D01*
X30408054Y33865725D01*
X30408051Y33865727D01*
X30244366Y33954231D01*
X30244361Y33954233D01*
X30238946Y33957161D01*
X30049415Y34015831D01*
X30043290Y34016475D01*
X30043289Y34016475D01*
X29858225Y34035926D01*
X29858224Y34035926D01*
X29852097Y34036570D01*
X29769572Y34029060D01*
X29660648Y34019147D01*
X29660645Y34019146D01*
X29654509Y34018588D01*
X29648603Y34016850D01*
X29648599Y34016849D01*
X29535124Y33983451D01*
X29464177Y33962570D01*
X29288350Y33870650D01*
X29133726Y33746329D01*
X29006194Y33594343D01*
X29003227Y33588945D01*
X29003223Y33588940D01*
X28941919Y33477426D01*
X28910612Y33420479D01*
X28850620Y33231362D01*
X28828504Y33034194D01*
X28829020Y33028050D01*
X28839923Y32898212D01*
X28845106Y32836485D01*
X28899794Y32645766D01*
X28990484Y32469302D01*
X28994307Y32464478D01*
X28994310Y32464474D01*
X29086206Y32348531D01*
X29113723Y32313814D01*
X29118417Y32309819D01*
X29256661Y32192164D01*
X29264815Y32185224D01*
X29438007Y32088430D01*
X29626701Y32027120D01*
X29823710Y32003628D01*
X29829845Y32004100D01*
X29829847Y32004100D01*
X30015388Y32018376D01*
X30015392Y32018377D01*
X30021530Y32018849D01*
X30027462Y32020505D01*
X30027466Y32020506D01*
X30117078Y32045526D01*
X30212626Y32072204D01*
X30389719Y32161660D01*
X30419880Y32185224D01*
X30494987Y32243905D01*
X30546064Y32283811D01*
X30568514Y32309819D01*
X30599118Y32345275D01*
X30658771Y32383772D01*
X30729768Y32383908D01*
X30789567Y32345638D01*
X30819183Y32281113D01*
X30820500Y32262944D01*
X30820500Y31238554D01*
X30800498Y31170433D01*
X30746842Y31123940D01*
X30676568Y31113836D01*
X30611988Y31143330D01*
X30596857Y31158918D01*
X30570241Y31191553D01*
X30570238Y31191556D01*
X30566346Y31196328D01*
X30413473Y31322795D01*
X30408054Y31325725D01*
X30408051Y31325727D01*
X30244366Y31414231D01*
X30244361Y31414233D01*
X30238946Y31417161D01*
X30049415Y31475831D01*
X30043290Y31476475D01*
X30043289Y31476475D01*
X29858225Y31495926D01*
X29858224Y31495926D01*
X29852097Y31496570D01*
X29769572Y31489060D01*
X29660648Y31479147D01*
X29660645Y31479146D01*
X29654509Y31478588D01*
X29648603Y31476850D01*
X29648599Y31476849D01*
X29535124Y31443451D01*
X29464177Y31422570D01*
X29288350Y31330650D01*
X29133726Y31206329D01*
X29006194Y31054343D01*
X29003227Y31048945D01*
X29003223Y31048940D01*
X28973890Y30995582D01*
X28910612Y30880479D01*
X28908751Y30874612D01*
X28908750Y30874610D01*
X28896047Y30834564D01*
X28850620Y30691362D01*
X28828504Y30494194D01*
X28829020Y30488050D01*
X28842791Y30324058D01*
X28845106Y30296485D01*
X28857039Y30254871D01*
X28889705Y30140952D01*
X28899794Y30105766D01*
X28990484Y29929302D01*
X28994307Y29924478D01*
X28994310Y29924474D01*
X29086206Y29808531D01*
X29113723Y29773814D01*
X29118417Y29769819D01*
X29256661Y29652164D01*
X29264815Y29645224D01*
X29438007Y29548430D01*
X29626701Y29487120D01*
X29823710Y29463628D01*
X29829845Y29464100D01*
X29829847Y29464100D01*
X30015388Y29478376D01*
X30015392Y29478377D01*
X30021530Y29478849D01*
X30027462Y29480505D01*
X30027466Y29480506D01*
X30117078Y29505526D01*
X30212626Y29532204D01*
X30389719Y29621660D01*
X30419880Y29645224D01*
X30481980Y29693743D01*
X30546064Y29743811D01*
X30568514Y29769819D01*
X30599118Y29805275D01*
X30658771Y29843772D01*
X30729768Y29843908D01*
X30789567Y29805638D01*
X30819183Y29741113D01*
X30820500Y29722944D01*
X30820500Y29675504D01*
X30800498Y29607383D01*
X30783595Y29586409D01*
X30166243Y28969057D01*
X30103931Y28935031D01*
X30052966Y28934732D01*
X30049415Y28935831D01*
X29950756Y28946201D01*
X29858225Y28955926D01*
X29858224Y28955926D01*
X29852097Y28956570D01*
X29769572Y28949060D01*
X29660648Y28939147D01*
X29660645Y28939146D01*
X29654509Y28938588D01*
X29648603Y28936850D01*
X29648599Y28936849D01*
X29577996Y28916069D01*
X29464177Y28882570D01*
X29288350Y28790650D01*
X29133726Y28666329D01*
X29006194Y28514343D01*
X29003227Y28508945D01*
X29003223Y28508940D01*
X28941919Y28397426D01*
X28910612Y28340479D01*
X28908751Y28334612D01*
X28908750Y28334610D01*
X28895240Y28292022D01*
X28850620Y28151362D01*
X28828504Y27954194D01*
X28830571Y27929580D01*
X28842791Y27784058D01*
X28845106Y27756485D01*
X28857039Y27714871D01*
X28897217Y27574754D01*
X28899794Y27565766D01*
X28902610Y27560287D01*
X28982223Y27405377D01*
X28990484Y27389302D01*
X28994307Y27384478D01*
X28994310Y27384474D01*
X29085287Y27269691D01*
X29113723Y27233814D01*
X29118417Y27229819D01*
X29256661Y27112164D01*
X29264815Y27105224D01*
X29438007Y27008430D01*
X29626701Y26947120D01*
X29823710Y26923628D01*
X29829845Y26924100D01*
X29829847Y26924100D01*
X30015388Y26938376D01*
X30015392Y26938377D01*
X30021530Y26938849D01*
X30027462Y26940505D01*
X30027466Y26940506D01*
X30117078Y26965527D01*
X30212626Y26992204D01*
X30389719Y27081660D01*
X30407658Y27095675D01*
X30539257Y27198493D01*
X30546064Y27203811D01*
X30568514Y27229819D01*
X30671681Y27349340D01*
X30671682Y27349341D01*
X30675705Y27354002D01*
X30681905Y27364915D01*
X30728563Y27447049D01*
X30773706Y27526514D01*
X30836332Y27714775D01*
X30844300Y27777848D01*
X30860757Y27908112D01*
X30860758Y27908122D01*
X30861199Y27911615D01*
X30861595Y27940000D01*
X30860203Y27954194D01*
X31368504Y27954194D01*
X31370571Y27929580D01*
X31382791Y27784058D01*
X31385106Y27756485D01*
X31397039Y27714871D01*
X31437217Y27574754D01*
X31439794Y27565766D01*
X31442610Y27560287D01*
X31522223Y27405377D01*
X31530484Y27389302D01*
X31534307Y27384478D01*
X31534310Y27384474D01*
X31625287Y27269691D01*
X31653723Y27233814D01*
X31658417Y27229819D01*
X31796661Y27112164D01*
X31804815Y27105224D01*
X31978007Y27008430D01*
X32166701Y26947120D01*
X32363710Y26923628D01*
X32369845Y26924100D01*
X32369847Y26924100D01*
X32555388Y26938376D01*
X32555392Y26938377D01*
X32561530Y26938849D01*
X32567462Y26940505D01*
X32567466Y26940506D01*
X32657078Y26965527D01*
X32752626Y26992204D01*
X32929719Y27081660D01*
X32947658Y27095675D01*
X33079257Y27198493D01*
X33086064Y27203811D01*
X33108514Y27229819D01*
X33211681Y27349340D01*
X33211682Y27349341D01*
X33215705Y27354002D01*
X33221905Y27364915D01*
X33268563Y27447049D01*
X33313706Y27526514D01*
X33376332Y27714775D01*
X33384300Y27777848D01*
X33400757Y27908112D01*
X33400758Y27908122D01*
X33401199Y27911615D01*
X33401595Y27940000D01*
X33382234Y28137458D01*
X33324889Y28327394D01*
X33315063Y28345874D01*
X33234638Y28497133D01*
X33234636Y28497136D01*
X33231744Y28502575D01*
X33227854Y28507345D01*
X33227851Y28507349D01*
X33110241Y28651553D01*
X33110238Y28651556D01*
X33106346Y28656328D01*
X33097716Y28663468D01*
X33003906Y28741073D01*
X32953473Y28782795D01*
X32948054Y28785725D01*
X32948051Y28785727D01*
X32784366Y28874231D01*
X32784361Y28874233D01*
X32778946Y28877161D01*
X32589415Y28935831D01*
X32583290Y28936475D01*
X32583289Y28936475D01*
X32398225Y28955926D01*
X32398224Y28955926D01*
X32392097Y28956570D01*
X32309572Y28949060D01*
X32200648Y28939147D01*
X32200645Y28939146D01*
X32194509Y28938588D01*
X32188603Y28936850D01*
X32188599Y28936849D01*
X32117996Y28916069D01*
X32004177Y28882570D01*
X31828350Y28790650D01*
X31673726Y28666329D01*
X31546194Y28514343D01*
X31543227Y28508945D01*
X31543223Y28508940D01*
X31481919Y28397426D01*
X31450612Y28340479D01*
X31448751Y28334612D01*
X31448750Y28334610D01*
X31435240Y28292022D01*
X31390620Y28151362D01*
X31368504Y27954194D01*
X30860203Y27954194D01*
X30844941Y28109848D01*
X30842835Y28131332D01*
X30842834Y28131335D01*
X30842234Y28137458D01*
X30840455Y28143350D01*
X30839591Y28147714D01*
X30845980Y28218422D01*
X30874096Y28261282D01*
X31625280Y29012466D01*
X31634624Y29019932D01*
X31634292Y29020322D01*
X31641128Y29026140D01*
X31648720Y29030930D01*
X31683756Y29070601D01*
X31689102Y29076288D01*
X31700320Y29087506D01*
X31703010Y29091095D01*
X31706450Y29095684D01*
X31712832Y29103523D01*
X31737682Y29131661D01*
X31743623Y29138388D01*
X31747437Y29146511D01*
X31749508Y29149664D01*
X31757327Y29162676D01*
X31759143Y29165994D01*
X31764526Y29173176D01*
X31780858Y29216741D01*
X31784783Y29226056D01*
X31786237Y29229152D01*
X31804553Y29268163D01*
X31805935Y29277036D01*
X31807042Y29280658D01*
X31810891Y29295328D01*
X31811702Y29299017D01*
X31814852Y29307419D01*
X31815517Y29316364D01*
X31815519Y29316374D01*
X31818302Y29353828D01*
X31819452Y29363855D01*
X31821500Y29377009D01*
X31821500Y29392203D01*
X31821846Y29401540D01*
X31824288Y29434402D01*
X31849284Y29500854D01*
X31906237Y29543242D01*
X31977067Y29548111D01*
X31988875Y29544899D01*
X32166701Y29487120D01*
X32363710Y29463628D01*
X32369845Y29464100D01*
X32369847Y29464100D01*
X32555388Y29478376D01*
X32555392Y29478377D01*
X32561530Y29478849D01*
X32567462Y29480505D01*
X32567466Y29480506D01*
X32657078Y29505526D01*
X32752626Y29532204D01*
X32929719Y29621660D01*
X32959880Y29645224D01*
X33021980Y29693743D01*
X33086064Y29743811D01*
X33108514Y29769819D01*
X33211681Y29889340D01*
X33211682Y29889341D01*
X33215705Y29894002D01*
X33313706Y30066514D01*
X33376332Y30254775D01*
X33384300Y30317848D01*
X33400757Y30448112D01*
X33400758Y30448122D01*
X33401199Y30451615D01*
X33401595Y30480000D01*
X33382234Y30677458D01*
X33324889Y30867394D01*
X33290012Y30932988D01*
X33234638Y31037133D01*
X33234636Y31037136D01*
X33231744Y31042575D01*
X33227854Y31047345D01*
X33227851Y31047349D01*
X33110241Y31191553D01*
X33110238Y31191556D01*
X33106346Y31196328D01*
X32953473Y31322795D01*
X32948054Y31325725D01*
X32948051Y31325727D01*
X32784366Y31414231D01*
X32784361Y31414233D01*
X32778946Y31417161D01*
X32589415Y31475831D01*
X32583290Y31476475D01*
X32583289Y31476475D01*
X32398225Y31495926D01*
X32398224Y31495926D01*
X32392097Y31496570D01*
X32309572Y31489060D01*
X32200648Y31479147D01*
X32200645Y31479146D01*
X32194509Y31478588D01*
X32188603Y31476850D01*
X32188599Y31476849D01*
X32084701Y31446270D01*
X32004177Y31422570D01*
X31998713Y31419714D01*
X31994702Y31418093D01*
X31924048Y31411120D01*
X31860841Y31443451D01*
X31825147Y31504823D01*
X31821500Y31534918D01*
X31821500Y31965858D01*
X31841502Y32033979D01*
X31895158Y32080472D01*
X31965432Y32090576D01*
X31986436Y32085691D01*
X32067869Y32059232D01*
X32166701Y32027120D01*
X32363710Y32003628D01*
X32369845Y32004100D01*
X32369847Y32004100D01*
X32555388Y32018376D01*
X32555392Y32018377D01*
X32561530Y32018849D01*
X32567462Y32020505D01*
X32567466Y32020506D01*
X32657078Y32045526D01*
X32752626Y32072204D01*
X32929719Y32161660D01*
X32959880Y32185224D01*
X33034987Y32243905D01*
X33086064Y32283811D01*
X33108514Y32309819D01*
X33211681Y32429340D01*
X33211682Y32429341D01*
X33215705Y32434002D01*
X33313706Y32606514D01*
X33376332Y32794775D01*
X33384300Y32857848D01*
X33400757Y32988112D01*
X33400758Y32988122D01*
X33401199Y32991615D01*
X33401595Y33020000D01*
X33382234Y33217458D01*
X33324889Y33407394D01*
X33321052Y33414610D01*
X33234638Y33577133D01*
X33234636Y33577136D01*
X33231744Y33582575D01*
X33227854Y33587345D01*
X33227851Y33587349D01*
X33110241Y33731553D01*
X33110238Y33731556D01*
X33106346Y33736328D01*
X32953473Y33862795D01*
X32948054Y33865725D01*
X32948051Y33865727D01*
X32784366Y33954231D01*
X32784361Y33954233D01*
X32778946Y33957161D01*
X32589415Y34015831D01*
X32583290Y34016475D01*
X32583289Y34016475D01*
X32398225Y34035926D01*
X32398224Y34035926D01*
X32392097Y34036570D01*
X32309572Y34029060D01*
X32200648Y34019147D01*
X32200645Y34019146D01*
X32194509Y34018588D01*
X32188603Y34016850D01*
X32188599Y34016849D01*
X32084701Y33986270D01*
X32004177Y33962570D01*
X31998713Y33959714D01*
X31994702Y33958093D01*
X31924048Y33951120D01*
X31860841Y33983451D01*
X31825147Y34044823D01*
X31821500Y34074918D01*
X31821500Y34505858D01*
X31841502Y34573979D01*
X31895158Y34620472D01*
X31965432Y34630576D01*
X31986436Y34625691D01*
X32067869Y34599232D01*
X32166701Y34567120D01*
X32363710Y34543628D01*
X32369845Y34544100D01*
X32369847Y34544100D01*
X32555388Y34558376D01*
X32555392Y34558377D01*
X32561530Y34558849D01*
X32567462Y34560505D01*
X32567466Y34560506D01*
X32657078Y34585526D01*
X32752626Y34612204D01*
X32929719Y34701660D01*
X32959880Y34725224D01*
X33034987Y34783905D01*
X33086064Y34823811D01*
X33108514Y34849819D01*
X33211681Y34969340D01*
X33211682Y34969341D01*
X33215705Y34974002D01*
X33228743Y34996952D01*
X33260675Y35053163D01*
X33313706Y35146514D01*
X33376332Y35334775D01*
X33385989Y35411220D01*
X33400757Y35528112D01*
X33400758Y35528122D01*
X33401199Y35531615D01*
X33401595Y35560000D01*
X33382234Y35757458D01*
X33324889Y35947394D01*
X33290752Y36011597D01*
X33234638Y36117133D01*
X33234636Y36117136D01*
X33231744Y36122575D01*
X33227854Y36127345D01*
X33227851Y36127349D01*
X33110241Y36271553D01*
X33110238Y36271556D01*
X33106346Y36276328D01*
X33070119Y36306298D01*
X32958222Y36398866D01*
X32953473Y36402795D01*
X32948054Y36405725D01*
X32948051Y36405727D01*
X32784366Y36494231D01*
X32784361Y36494233D01*
X32778946Y36497161D01*
X32589415Y36555831D01*
X32583290Y36556475D01*
X32583289Y36556475D01*
X32398225Y36575926D01*
X32398224Y36575926D01*
X32392097Y36576570D01*
X32309572Y36569060D01*
X32200648Y36559147D01*
X32200645Y36559146D01*
X32194509Y36558588D01*
X32188603Y36556850D01*
X32188599Y36556849D01*
X32136459Y36541503D01*
X32004177Y36502570D01*
X31998713Y36499714D01*
X31994702Y36498093D01*
X31924048Y36491120D01*
X31860841Y36523451D01*
X31825147Y36584823D01*
X31821500Y36614918D01*
X31821500Y38458819D01*
X31822828Y38470704D01*
X31822318Y38470745D01*
X31823038Y38479691D01*
X31825019Y38488447D01*
X31821742Y38541264D01*
X31821500Y38549067D01*
X31821500Y38564940D01*
X31820052Y38575052D01*
X31819022Y38585106D01*
X31816697Y38622575D01*
X31816141Y38631538D01*
X31813093Y38639982D01*
X31812324Y38643694D01*
X31808657Y38658399D01*
X31807596Y38662027D01*
X31806323Y38670918D01*
X31787061Y38713282D01*
X31783254Y38722637D01*
X31770509Y38757943D01*
X31770507Y38757947D01*
X31767460Y38766387D01*
X31762165Y38773635D01*
X31760389Y38776975D01*
X31752726Y38790089D01*
X31750697Y38793261D01*
X31746984Y38801428D01*
X31741129Y38808223D01*
X31741127Y38808226D01*
X31716613Y38836675D01*
X31710324Y38844596D01*
X31705352Y38851402D01*
X31702478Y38855336D01*
X31691735Y38866079D01*
X31685377Y38872926D01*
X31659259Y38903237D01*
X31653400Y38910037D01*
X31645866Y38914920D01*
X31639104Y38920819D01*
X31639108Y38920824D01*
X31628014Y38929800D01*
X29613534Y40944280D01*
X29606068Y40953624D01*
X29605678Y40953292D01*
X29599860Y40960128D01*
X29595070Y40967720D01*
X29555399Y41002756D01*
X29549712Y41008102D01*
X29538494Y41019320D01*
X29534905Y41022010D01*
X29530316Y41025450D01*
X29522477Y41031832D01*
X29494339Y41056682D01*
X29487612Y41062623D01*
X29479489Y41066437D01*
X29476336Y41068508D01*
X29463324Y41076327D01*
X29460005Y41078144D01*
X29452824Y41083526D01*
X29409261Y41099857D01*
X29399947Y41103783D01*
X29365966Y41119737D01*
X29365963Y41119738D01*
X29357837Y41123553D01*
X29348963Y41124935D01*
X29345350Y41126039D01*
X29330693Y41129885D01*
X29326990Y41130699D01*
X29318580Y41133852D01*
X29272157Y41137302D01*
X29262144Y41138452D01*
X29248991Y41140500D01*
X29233796Y41140500D01*
X29224459Y41140846D01*
X29209036Y41141992D01*
X29175608Y41144476D01*
X29166832Y41142603D01*
X29157875Y41141992D01*
X29157875Y41141998D01*
X29143682Y41140500D01*
X27137760Y41140500D01*
X27069639Y41160502D01*
X27023146Y41214158D01*
X27013042Y41284432D01*
X27027824Y41328063D01*
X27090537Y41440045D01*
X27092393Y41445512D01*
X27092395Y41445517D01*
X27156647Y41634800D01*
X27158504Y41640270D01*
X27188846Y41849530D01*
X27190429Y41910000D01*
X27171081Y42120560D01*
X27113686Y42324069D01*
X27102553Y42346646D01*
X27022719Y42508531D01*
X27020165Y42513710D01*
X26893651Y42683133D01*
X26767768Y42799498D01*
X26742622Y42822743D01*
X26742620Y42822745D01*
X26738381Y42826663D01*
X26659956Y42876146D01*
X26564434Y42936416D01*
X26564433Y42936416D01*
X26559554Y42939495D01*
X26363160Y43017848D01*
X26357503Y43018973D01*
X26357497Y43018975D01*
X26160234Y43058212D01*
X26097324Y43091119D01*
X26062192Y43152814D01*
X26065992Y43223709D01*
X26107517Y43281295D01*
X26166734Y43306487D01*
X26299015Y43325667D01*
X26299019Y43325668D01*
X26304730Y43326496D01*
X26405934Y43360850D01*
X26499483Y43392605D01*
X26499488Y43392607D01*
X26504955Y43394463D01*
X26530661Y43408859D01*
X26684395Y43494954D01*
X26684399Y43494957D01*
X26689442Y43497781D01*
X26852012Y43632988D01*
X26987219Y43795558D01*
X26990043Y43800601D01*
X26990046Y43800605D01*
X27087713Y43975002D01*
X27087714Y43975004D01*
X27090537Y43980045D01*
X27092393Y43985512D01*
X27092395Y43985517D01*
X27156647Y44174800D01*
X27158504Y44180270D01*
X27188846Y44389530D01*
X27190429Y44450000D01*
X27171081Y44660560D01*
X27113686Y44864069D01*
X27102553Y44886646D01*
X27022719Y45048531D01*
X27020165Y45053710D01*
X26893651Y45223133D01*
X26738381Y45366663D01*
X26559554Y45479495D01*
X26363160Y45557848D01*
X26357503Y45558973D01*
X26357497Y45558975D01*
X26160234Y45598212D01*
X26097324Y45631119D01*
X26062192Y45692814D01*
X26065992Y45763709D01*
X26107517Y45821295D01*
X26166734Y45846487D01*
X26299015Y45865667D01*
X26299019Y45865668D01*
X26304730Y45866496D01*
X26383987Y45893400D01*
X26499483Y45932605D01*
X26499488Y45932607D01*
X26504955Y45934463D01*
X26509998Y45937287D01*
X26684395Y46034954D01*
X26684399Y46034957D01*
X26689442Y46037781D01*
X26852012Y46172988D01*
X26987219Y46335558D01*
X26990043Y46340601D01*
X26990046Y46340605D01*
X27087713Y46515002D01*
X27087714Y46515004D01*
X27090537Y46520045D01*
X27092393Y46525512D01*
X27092395Y46525517D01*
X27156647Y46714800D01*
X27158504Y46720270D01*
X27188846Y46929530D01*
X27190429Y46990000D01*
X27171081Y47200560D01*
X27113686Y47404069D01*
X27102553Y47426646D01*
X27022719Y47588531D01*
X27020165Y47593710D01*
X26893651Y47763133D01*
X26738381Y47906663D01*
X26559554Y48019495D01*
X26363160Y48097848D01*
X26357503Y48098973D01*
X26357497Y48098975D01*
X26160234Y48138212D01*
X26097324Y48171119D01*
X26062192Y48232814D01*
X26065992Y48303709D01*
X26107517Y48361295D01*
X26166734Y48386487D01*
X26299015Y48405667D01*
X26299019Y48405668D01*
X26304730Y48406496D01*
X26383987Y48433400D01*
X26499483Y48472605D01*
X26499488Y48472607D01*
X26504955Y48474463D01*
X26509998Y48477287D01*
X26684395Y48574954D01*
X26684399Y48574957D01*
X26689442Y48577781D01*
X26852012Y48712988D01*
X26987219Y48875558D01*
X26990043Y48880601D01*
X26990046Y48880605D01*
X27087713Y49055002D01*
X27087714Y49055004D01*
X27090537Y49060045D01*
X27092393Y49065512D01*
X27092395Y49065517D01*
X27156647Y49254800D01*
X27158504Y49260270D01*
X27188846Y49469530D01*
X27190429Y49530000D01*
X27171081Y49740560D01*
X27113686Y49944069D01*
X27102553Y49966646D01*
X27022719Y50128531D01*
X27020165Y50133710D01*
X26893651Y50303133D01*
X26738381Y50446663D01*
X26559554Y50559495D01*
X26363160Y50637848D01*
X26357503Y50638973D01*
X26357497Y50638975D01*
X26201916Y50669921D01*
X26139006Y50702828D01*
X26103874Y50764523D01*
X26107674Y50835418D01*
X26149199Y50893004D01*
X26215266Y50918998D01*
X26226497Y50919500D01*
X26929646Y50919500D01*
X26933350Y50919941D01*
X26933353Y50919941D01*
X26940746Y50920821D01*
X26955846Y50922618D01*
X27058153Y50968061D01*
X27137241Y51047287D01*
X27182506Y51149673D01*
X27185500Y51175354D01*
X27185500Y52964646D01*
X27182382Y52990846D01*
X27136939Y53093153D01*
X27057713Y53172241D01*
X27047076Y53176944D01*
X27047074Y53176945D01*
X26987538Y53203265D01*
X26955327Y53217506D01*
X26929646Y53220500D01*
X25140354Y53220500D01*
X25136650Y53220059D01*
X25136647Y53220059D01*
X25129254Y53219179D01*
X25114154Y53217382D01*
X25011847Y53171939D01*
X24932759Y53092713D01*
X24887494Y52990327D01*
X24884500Y52964646D01*
X24884500Y51175354D01*
X24887618Y51149154D01*
X24933061Y51046847D01*
X25012287Y50967759D01*
X25022924Y50963056D01*
X25022926Y50963055D01*
X25082462Y50936735D01*
X25114673Y50922494D01*
X25140354Y50919500D01*
X25849988Y50919500D01*
X25918109Y50899498D01*
X25964602Y50845842D01*
X25974706Y50775568D01*
X25945212Y50710988D01*
X25885486Y50672604D01*
X25871326Y50669320D01*
X25741650Y50647038D01*
X25741649Y50647038D01*
X25735953Y50646059D01*
X25537575Y50572873D01*
X25532614Y50569921D01*
X25532613Y50569921D01*
X25515089Y50559495D01*
X25355856Y50464762D01*
X25196881Y50325345D01*
X25065976Y50159292D01*
X25063287Y50154181D01*
X25063285Y50154178D01*
X25049792Y50128531D01*
X24967523Y49972164D01*
X24904820Y49770227D01*
X24879967Y49560246D01*
X24893796Y49349251D01*
X24895217Y49343655D01*
X24895218Y49343650D01*
X24917784Y49254800D01*
X24945845Y49144310D01*
X25034369Y48952286D01*
X25156405Y48779609D01*
X25307865Y48632063D01*
X25312661Y48628858D01*
X25312664Y48628856D01*
X25455936Y48533125D01*
X25483677Y48514589D01*
X25488985Y48512308D01*
X25488986Y48512308D01*
X25672650Y48433400D01*
X25672653Y48433399D01*
X25677953Y48431122D01*
X25683582Y48429848D01*
X25683583Y48429848D01*
X25878550Y48385731D01*
X25878553Y48385731D01*
X25884186Y48384456D01*
X25889958Y48384229D01*
X25895687Y48383475D01*
X25895327Y48380743D01*
X25951604Y48361784D01*
X25995950Y48306341D01*
X26003282Y48235724D01*
X25971271Y48172353D01*
X25910081Y48136349D01*
X25900704Y48134368D01*
X25741650Y48107038D01*
X25741649Y48107038D01*
X25735953Y48106059D01*
X25537575Y48032873D01*
X25532614Y48029921D01*
X25532613Y48029921D01*
X25515089Y48019495D01*
X25355856Y47924762D01*
X25196881Y47785345D01*
X25065976Y47619292D01*
X25063287Y47614181D01*
X25063285Y47614178D01*
X25049792Y47588531D01*
X24967523Y47432164D01*
X24904820Y47230227D01*
X24879967Y47020246D01*
X24893796Y46809251D01*
X24895217Y46803655D01*
X24895218Y46803650D01*
X24917784Y46714800D01*
X24945845Y46604310D01*
X25034369Y46412286D01*
X25156405Y46239609D01*
X25307865Y46092063D01*
X25312661Y46088858D01*
X25312664Y46088856D01*
X25455936Y45993125D01*
X25483677Y45974589D01*
X25488985Y45972308D01*
X25488986Y45972308D01*
X25672650Y45893400D01*
X25672653Y45893399D01*
X25677953Y45891122D01*
X25683582Y45889848D01*
X25683583Y45889848D01*
X25878550Y45845731D01*
X25878553Y45845731D01*
X25884186Y45844456D01*
X25889958Y45844229D01*
X25895687Y45843475D01*
X25895327Y45840743D01*
X25951604Y45821784D01*
X25995950Y45766341D01*
X26003282Y45695724D01*
X25971271Y45632353D01*
X25910081Y45596349D01*
X25900704Y45594368D01*
X25741650Y45567038D01*
X25741649Y45567038D01*
X25735953Y45566059D01*
X25537575Y45492873D01*
X25532614Y45489921D01*
X25532613Y45489921D01*
X25515089Y45479495D01*
X25355856Y45384762D01*
X25196881Y45245345D01*
X25065976Y45079292D01*
X25063287Y45074181D01*
X25063285Y45074178D01*
X25049792Y45048531D01*
X24967523Y44892164D01*
X24904820Y44690227D01*
X24879967Y44480246D01*
X24893796Y44269251D01*
X24895217Y44263655D01*
X24895218Y44263650D01*
X24917784Y44174800D01*
X24945845Y44064310D01*
X25034369Y43872286D01*
X25156405Y43699609D01*
X25307865Y43552063D01*
X25312661Y43548858D01*
X25312664Y43548856D01*
X25403986Y43487837D01*
X25483677Y43434589D01*
X25488985Y43432308D01*
X25488986Y43432308D01*
X25672650Y43353400D01*
X25672653Y43353399D01*
X25677953Y43351122D01*
X25683582Y43349848D01*
X25683583Y43349848D01*
X25878550Y43305731D01*
X25878553Y43305731D01*
X25884186Y43304456D01*
X25889958Y43304229D01*
X25895687Y43303475D01*
X25895327Y43300743D01*
X25951604Y43281784D01*
X25995950Y43226341D01*
X26003282Y43155724D01*
X25971271Y43092353D01*
X25910081Y43056349D01*
X25900705Y43054368D01*
X25860076Y43047387D01*
X25741650Y43027038D01*
X25741649Y43027038D01*
X25735953Y43026059D01*
X25537575Y42952873D01*
X25532614Y42949921D01*
X25532613Y42949921D01*
X25515089Y42939495D01*
X25355856Y42844762D01*
X25196881Y42705345D01*
X25065976Y42539292D01*
X25063287Y42534181D01*
X25063285Y42534178D01*
X25049792Y42508531D01*
X24967523Y42352164D01*
X24904820Y42150227D01*
X24879967Y41940246D01*
X24893796Y41729251D01*
X24895217Y41723655D01*
X24895218Y41723650D01*
X24917784Y41634800D01*
X24945845Y41524310D01*
X25034369Y41332286D01*
X25036718Y41328962D01*
X25053326Y41260506D01*
X25030107Y41193414D01*
X24974300Y41149526D01*
X24927469Y41140500D01*
X12135175Y41140500D01*
X12123295Y41141828D01*
X12123254Y41141317D01*
X12114309Y41142037D01*
X12105552Y41144018D01*
X12054422Y41140846D01*
X12052746Y41140742D01*
X12044944Y41140500D01*
X12029060Y41140500D01*
X12024612Y41139863D01*
X12024610Y41139863D01*
X12018942Y41139052D01*
X12008891Y41138022D01*
X11971419Y41135697D01*
X11971417Y41135697D01*
X11962462Y41135141D01*
X11954025Y41132095D01*
X11950325Y41131329D01*
X11935577Y41127652D01*
X11931960Y41126594D01*
X11923082Y41125323D01*
X11918605Y41123287D01*
X11849646Y41123365D01*
X11789964Y41161817D01*
X11760544Y41226431D01*
X11770728Y41296694D01*
X11775336Y41305764D01*
X11850537Y41440045D01*
X11852393Y41445512D01*
X11852395Y41445517D01*
X11916647Y41634800D01*
X11918504Y41640270D01*
X11948846Y41849530D01*
X11950429Y41910000D01*
X11931081Y42120560D01*
X11873686Y42324069D01*
X11862553Y42346646D01*
X11782719Y42508531D01*
X11780165Y42513710D01*
X11653651Y42683133D01*
X11527768Y42799498D01*
X11502622Y42822743D01*
X11502620Y42822745D01*
X11498381Y42826663D01*
X11419956Y42876146D01*
X11324434Y42936416D01*
X11324433Y42936416D01*
X11319554Y42939495D01*
X11123160Y43017848D01*
X11117503Y43018973D01*
X11117497Y43018975D01*
X10920234Y43058212D01*
X10857324Y43091119D01*
X10822192Y43152814D01*
X10825992Y43223709D01*
X10867517Y43281295D01*
X10926734Y43306487D01*
X11059015Y43325667D01*
X11059019Y43325668D01*
X11064730Y43326496D01*
X11165934Y43360850D01*
X11259483Y43392605D01*
X11259488Y43392607D01*
X11264955Y43394463D01*
X11290661Y43408859D01*
X11444395Y43494954D01*
X11444399Y43494957D01*
X11449442Y43497781D01*
X11612012Y43632988D01*
X11747219Y43795558D01*
X11750043Y43800601D01*
X11750046Y43800605D01*
X11847713Y43975002D01*
X11847714Y43975004D01*
X11850537Y43980045D01*
X11852393Y43985512D01*
X11852395Y43985517D01*
X11916647Y44174800D01*
X11918504Y44180270D01*
X11948846Y44389530D01*
X11950429Y44450000D01*
X11931081Y44660560D01*
X11873686Y44864069D01*
X11862553Y44886646D01*
X11782719Y45048531D01*
X11780165Y45053710D01*
X11653651Y45223133D01*
X11498381Y45366663D01*
X11319554Y45479495D01*
X11123160Y45557848D01*
X11117503Y45558973D01*
X11117497Y45558975D01*
X10920234Y45598212D01*
X10857324Y45631119D01*
X10822192Y45692814D01*
X10825992Y45763709D01*
X10867517Y45821295D01*
X10926734Y45846487D01*
X11059015Y45865667D01*
X11059019Y45865668D01*
X11064730Y45866496D01*
X11143987Y45893400D01*
X11259483Y45932605D01*
X11259488Y45932607D01*
X11264955Y45934463D01*
X11269998Y45937287D01*
X11444395Y46034954D01*
X11444399Y46034957D01*
X11449442Y46037781D01*
X11612012Y46172988D01*
X11747219Y46335558D01*
X11750043Y46340601D01*
X11750046Y46340605D01*
X11847713Y46515002D01*
X11847714Y46515004D01*
X11850537Y46520045D01*
X11852393Y46525512D01*
X11852395Y46525517D01*
X11916647Y46714800D01*
X11918504Y46720270D01*
X11948846Y46929530D01*
X11950429Y46990000D01*
X11931081Y47200560D01*
X11873686Y47404069D01*
X11862553Y47426646D01*
X11782719Y47588531D01*
X11780165Y47593710D01*
X11653651Y47763133D01*
X11498381Y47906663D01*
X11319554Y48019495D01*
X11123160Y48097848D01*
X11117503Y48098973D01*
X11117497Y48098975D01*
X10920234Y48138212D01*
X10857324Y48171119D01*
X10822192Y48232814D01*
X10825992Y48303709D01*
X10867517Y48361295D01*
X10926734Y48386487D01*
X11059015Y48405667D01*
X11059019Y48405668D01*
X11064730Y48406496D01*
X11143987Y48433400D01*
X11259483Y48472605D01*
X11259488Y48472607D01*
X11264955Y48474463D01*
X11269998Y48477287D01*
X11444395Y48574954D01*
X11444399Y48574957D01*
X11449442Y48577781D01*
X11612012Y48712988D01*
X11747219Y48875558D01*
X11750043Y48880601D01*
X11750046Y48880605D01*
X11847713Y49055002D01*
X11847714Y49055004D01*
X11850537Y49060045D01*
X11852393Y49065512D01*
X11852395Y49065517D01*
X11916647Y49254800D01*
X11918504Y49260270D01*
X11948846Y49469530D01*
X11950429Y49530000D01*
X11931081Y49740560D01*
X11873686Y49944069D01*
X11862553Y49966646D01*
X11782719Y50128531D01*
X11780165Y50133710D01*
X11653651Y50303133D01*
X11498381Y50446663D01*
X11319554Y50559495D01*
X11123160Y50637848D01*
X11117503Y50638973D01*
X11117497Y50638975D01*
X10961916Y50669921D01*
X10899006Y50702828D01*
X10863874Y50764523D01*
X10867674Y50835418D01*
X10909199Y50893004D01*
X10975266Y50918998D01*
X10986497Y50919500D01*
X11689646Y50919500D01*
X11693350Y50919941D01*
X11693353Y50919941D01*
X11700746Y50920821D01*
X11715846Y50922618D01*
X11818153Y50968061D01*
X11897241Y51047287D01*
X11942506Y51149673D01*
X11945500Y51175354D01*
X11945500Y52964646D01*
X11942382Y52990846D01*
X11896939Y53093153D01*
X11817713Y53172241D01*
X11807076Y53176944D01*
X11807074Y53176945D01*
X11747538Y53203265D01*
X11715327Y53217506D01*
X11689646Y53220500D01*
X9900354Y53220500D01*
X9896650Y53220059D01*
X9896647Y53220059D01*
X9889254Y53219179D01*
X9874154Y53217382D01*
X9771847Y53171939D01*
X9692759Y53092713D01*
X9647494Y52990327D01*
X9644500Y52964646D01*
X9644500Y51175354D01*
X9647618Y51149154D01*
X9693061Y51046847D01*
X9772287Y50967759D01*
X9782924Y50963056D01*
X9782926Y50963055D01*
X9842462Y50936735D01*
X9874673Y50922494D01*
X9900354Y50919500D01*
X10609988Y50919500D01*
X10678109Y50899498D01*
X10724602Y50845842D01*
X10734706Y50775568D01*
X10705212Y50710988D01*
X10645486Y50672604D01*
X10631326Y50669320D01*
X10501650Y50647038D01*
X10501649Y50647038D01*
X10495953Y50646059D01*
X10297575Y50572873D01*
X10292614Y50569921D01*
X10292613Y50569921D01*
X10275089Y50559495D01*
X10115856Y50464762D01*
X9956881Y50325345D01*
X9825976Y50159292D01*
X9823287Y50154181D01*
X9823285Y50154178D01*
X9809792Y50128531D01*
X9727523Y49972164D01*
X9664820Y49770227D01*
X9639967Y49560246D01*
X9653796Y49349251D01*
X9655217Y49343655D01*
X9655218Y49343650D01*
X9677784Y49254800D01*
X9705845Y49144310D01*
X9794369Y48952286D01*
X9916405Y48779609D01*
X10067865Y48632063D01*
X10072661Y48628858D01*
X10072664Y48628856D01*
X10215936Y48533125D01*
X10243677Y48514589D01*
X10248985Y48512308D01*
X10248986Y48512308D01*
X10432650Y48433400D01*
X10432653Y48433399D01*
X10437953Y48431122D01*
X10443582Y48429848D01*
X10443583Y48429848D01*
X10638550Y48385731D01*
X10638553Y48385731D01*
X10644186Y48384456D01*
X10649958Y48384229D01*
X10655687Y48383475D01*
X10655327Y48380743D01*
X10711604Y48361784D01*
X10755950Y48306341D01*
X10763282Y48235724D01*
X10731271Y48172353D01*
X10670081Y48136349D01*
X10660704Y48134368D01*
X10501650Y48107038D01*
X10501649Y48107038D01*
X10495953Y48106059D01*
X10297575Y48032873D01*
X10292614Y48029921D01*
X10292613Y48029921D01*
X10275089Y48019495D01*
X10115856Y47924762D01*
X9956881Y47785345D01*
X9825976Y47619292D01*
X9823287Y47614181D01*
X9823285Y47614178D01*
X9809792Y47588531D01*
X9727523Y47432164D01*
X9664820Y47230227D01*
X9639967Y47020246D01*
X9653796Y46809251D01*
X9655217Y46803655D01*
X9655218Y46803650D01*
X9677784Y46714800D01*
X9705845Y46604310D01*
X9794369Y46412286D01*
X9916405Y46239609D01*
X10067865Y46092063D01*
X10072661Y46088858D01*
X10072664Y46088856D01*
X10215936Y45993125D01*
X10243677Y45974589D01*
X10248985Y45972308D01*
X10248986Y45972308D01*
X10432650Y45893400D01*
X10432653Y45893399D01*
X10437953Y45891122D01*
X10443582Y45889848D01*
X10443583Y45889848D01*
X10638550Y45845731D01*
X10638553Y45845731D01*
X10644186Y45844456D01*
X10649958Y45844229D01*
X10655687Y45843475D01*
X10655327Y45840743D01*
X10711604Y45821784D01*
X10755950Y45766341D01*
X10763282Y45695724D01*
X10731271Y45632353D01*
X10670081Y45596349D01*
X10660704Y45594368D01*
X10501650Y45567038D01*
X10501649Y45567038D01*
X10495953Y45566059D01*
X10297575Y45492873D01*
X10292614Y45489921D01*
X10292613Y45489921D01*
X10275089Y45479495D01*
X10115856Y45384762D01*
X9956881Y45245345D01*
X9825976Y45079292D01*
X9823287Y45074181D01*
X9823285Y45074178D01*
X9809792Y45048531D01*
X9727523Y44892164D01*
X9664820Y44690227D01*
X9639967Y44480246D01*
X9653796Y44269251D01*
X9655217Y44263655D01*
X9655218Y44263650D01*
X9677784Y44174800D01*
X9705845Y44064310D01*
X9708262Y44059067D01*
X9722952Y44027202D01*
X9733307Y43956965D01*
X9704044Y43892279D01*
X9697621Y43885356D01*
X9487953Y43675688D01*
X9469563Y43660834D01*
X9468123Y43659524D01*
X9459370Y43653872D01*
X9452923Y43645694D01*
X9452921Y43645692D01*
X9438767Y43627737D01*
X9434861Y43623342D01*
X9434938Y43623277D01*
X9431585Y43619320D01*
X9427903Y43615638D01*
X9424880Y43611407D01*
X9416777Y43600067D01*
X9413208Y43595314D01*
X9388179Y43563566D01*
X9388177Y43563563D01*
X9381731Y43555386D01*
X9378720Y43546813D01*
X9373435Y43539417D01*
X9360138Y43494954D01*
X9358861Y43490685D01*
X9357026Y43485038D01*
X9342805Y43444544D01*
X9342804Y43444538D01*
X9340178Y43437061D01*
X9339700Y43431542D01*
X9339700Y43428827D01*
X9339588Y43426241D01*
X9339546Y43426102D01*
X9339395Y43426108D01*
X9339354Y43425459D01*
X9337502Y43419265D01*
X9337911Y43408859D01*
X9339603Y43365797D01*
X9339700Y43360850D01*
X9339700Y40503576D01*
X9319698Y40435455D01*
X9302795Y40414481D01*
X8504057Y39615744D01*
X7713653Y38825340D01*
X7695263Y38810486D01*
X7693823Y38809176D01*
X7685070Y38803524D01*
X7678623Y38795346D01*
X7678621Y38795344D01*
X7664467Y38777389D01*
X7660561Y38772994D01*
X7660638Y38772929D01*
X7657285Y38768972D01*
X7653603Y38765290D01*
X7643619Y38751317D01*
X7642477Y38749719D01*
X7638908Y38744966D01*
X7613879Y38713218D01*
X7613877Y38713215D01*
X7607431Y38705038D01*
X7604420Y38696465D01*
X7599135Y38689069D01*
X7591212Y38662575D01*
X7584561Y38640337D01*
X7582726Y38634690D01*
X7568505Y38594196D01*
X7568504Y38594190D01*
X7565878Y38586713D01*
X7565400Y38581194D01*
X7565400Y38578479D01*
X7565288Y38575893D01*
X7565246Y38575754D01*
X7565095Y38575760D01*
X7565054Y38575111D01*
X7563202Y38568917D01*
X7563611Y38558511D01*
X7565303Y38515449D01*
X7565400Y38510502D01*
X7565400Y36607713D01*
X7545398Y36539592D01*
X7491742Y36493099D01*
X7421468Y36482995D01*
X7390612Y36493184D01*
X7390048Y36491842D01*
X7384367Y36494230D01*
X7378946Y36497161D01*
X7189415Y36555831D01*
X7183290Y36556475D01*
X7183289Y36556475D01*
X6998225Y36575926D01*
X6998224Y36575926D01*
X6992097Y36576570D01*
X6909572Y36569060D01*
X6800648Y36559147D01*
X6800645Y36559146D01*
X6794509Y36558588D01*
X6788603Y36556850D01*
X6788599Y36556849D01*
X6692520Y36528571D01*
X6604177Y36502570D01*
X6428350Y36410650D01*
X6423550Y36406790D01*
X6423549Y36406790D01*
X6305659Y36312004D01*
X6273726Y36286329D01*
X6146194Y36134343D01*
X6143227Y36128945D01*
X6143223Y36128940D01*
X6074289Y36003547D01*
X6050612Y35960479D01*
X6048751Y35954612D01*
X6048750Y35954610D01*
X6029912Y35895225D01*
X5990620Y35771362D01*
X5968504Y35574194D01*
X5985106Y35376485D01*
X5997066Y35334775D01*
X6035469Y35200850D01*
X6039794Y35185766D01*
X6066245Y35134298D01*
X6107943Y35053163D01*
X6130484Y35009302D01*
X6134307Y35004478D01*
X6134310Y35004474D01*
X6216868Y34900313D01*
X6253723Y34853814D01*
X6404815Y34725224D01*
X6578007Y34628430D01*
X6766701Y34567120D01*
X6963710Y34543628D01*
X6969845Y34544100D01*
X6969847Y34544100D01*
X7155388Y34558376D01*
X7155392Y34558377D01*
X7161530Y34558849D01*
X7167462Y34560505D01*
X7167466Y34560506D01*
X7257078Y34585526D01*
X7352626Y34612204D01*
X7358124Y34614981D01*
X7358132Y34614984D01*
X7382591Y34627339D01*
X7452413Y34640199D01*
X7518104Y34613269D01*
X7558806Y34555098D01*
X7565400Y34514873D01*
X7565400Y34185324D01*
X7545398Y34117203D01*
X7528495Y34096229D01*
X7440696Y34008430D01*
X7378384Y33974404D01*
X7314342Y33977160D01*
X7195302Y34014009D01*
X7195299Y34014010D01*
X7189415Y34015831D01*
X7183290Y34016475D01*
X7183289Y34016475D01*
X6998225Y34035926D01*
X6998224Y34035926D01*
X6992097Y34036570D01*
X6909572Y34029060D01*
X6800648Y34019147D01*
X6800645Y34019146D01*
X6794509Y34018588D01*
X6788603Y34016850D01*
X6788599Y34016849D01*
X6675124Y33983451D01*
X6604177Y33962570D01*
X6428350Y33870650D01*
X6273726Y33746329D01*
X6146194Y33594343D01*
X6143227Y33588945D01*
X6143223Y33588940D01*
X6081919Y33477426D01*
X6050612Y33420479D01*
X5990620Y33231362D01*
X5968504Y33034194D01*
X5969020Y33028050D01*
X5979923Y32898212D01*
X5985106Y32836485D01*
X6039794Y32645766D01*
X6130484Y32469302D01*
X6134307Y32464478D01*
X6134310Y32464474D01*
X6226206Y32348531D01*
X6253723Y32313814D01*
X6258417Y32309819D01*
X6396661Y32192164D01*
X6404815Y32185224D01*
X6578007Y32088430D01*
X6766701Y32027120D01*
X6963710Y32003628D01*
X6969845Y32004100D01*
X6969847Y32004100D01*
X7155388Y32018376D01*
X7155392Y32018377D01*
X7161530Y32018849D01*
X7167462Y32020505D01*
X7167466Y32020506D01*
X7257078Y32045526D01*
X7352626Y32072204D01*
X7529719Y32161660D01*
X7559880Y32185224D01*
X7634987Y32243905D01*
X7686064Y32283811D01*
X7690089Y32288474D01*
X7727218Y32331488D01*
X7786871Y32369986D01*
X7857867Y32370122D01*
X7917667Y32331852D01*
X7947283Y32267328D01*
X7948600Y32249158D01*
X7948600Y31253145D01*
X7928598Y31185024D01*
X7874942Y31138531D01*
X7804668Y31128427D01*
X7740088Y31157921D01*
X7724958Y31173509D01*
X7710247Y31191547D01*
X7710237Y31191557D01*
X7706346Y31196328D01*
X7553473Y31322795D01*
X7548054Y31325725D01*
X7548051Y31325727D01*
X7384366Y31414231D01*
X7384361Y31414233D01*
X7378946Y31417161D01*
X7189415Y31475831D01*
X7183290Y31476475D01*
X7183289Y31476475D01*
X6998225Y31495926D01*
X6998224Y31495926D01*
X6992097Y31496570D01*
X6909572Y31489060D01*
X6800648Y31479147D01*
X6800645Y31479146D01*
X6794509Y31478588D01*
X6788603Y31476850D01*
X6788599Y31476849D01*
X6675124Y31443451D01*
X6604177Y31422570D01*
X6428350Y31330650D01*
X6273726Y31206329D01*
X6146194Y31054343D01*
X6143227Y31048945D01*
X6143223Y31048940D01*
X6113890Y30995582D01*
X6050612Y30880479D01*
X6048751Y30874612D01*
X6048750Y30874610D01*
X6036047Y30834564D01*
X5990620Y30691362D01*
X5968504Y30494194D01*
X5969020Y30488050D01*
X5982791Y30324058D01*
X5985106Y30296485D01*
X5997039Y30254871D01*
X6029705Y30140952D01*
X6039794Y30105766D01*
X6130484Y29929302D01*
X6134307Y29924478D01*
X6134310Y29924474D01*
X6226206Y29808531D01*
X6253723Y29773814D01*
X6258417Y29769819D01*
X6258418Y29769818D01*
X6296804Y29737148D01*
X6335716Y29677764D01*
X6336346Y29606771D01*
X6304235Y29552100D01*
X5475653Y28723518D01*
X5457263Y28708664D01*
X5455823Y28707354D01*
X5447070Y28701702D01*
X5440623Y28693524D01*
X5440621Y28693522D01*
X5426467Y28675567D01*
X5422561Y28671172D01*
X5422638Y28671107D01*
X5419285Y28667150D01*
X5415603Y28663468D01*
X5412580Y28659237D01*
X5404477Y28647897D01*
X5400908Y28643144D01*
X5375879Y28611396D01*
X5375877Y28611393D01*
X5369431Y28603216D01*
X5366420Y28594643D01*
X5361135Y28587247D01*
X5356070Y28570309D01*
X5346561Y28538515D01*
X5344726Y28532868D01*
X5330505Y28492374D01*
X5330504Y28492368D01*
X5327878Y28484891D01*
X5327400Y28479372D01*
X5327400Y28476657D01*
X5327288Y28474071D01*
X5327246Y28473932D01*
X5327095Y28473938D01*
X5327054Y28473289D01*
X5325202Y28467095D01*
X5325611Y28456689D01*
X5327303Y28413627D01*
X5327400Y28408680D01*
X5327400Y22431276D01*
X5324899Y22407776D01*
X5324807Y22405823D01*
X5322614Y22395638D01*
X5324369Y22380815D01*
X5326526Y22362591D01*
X5326872Y22356724D01*
X5326972Y22356732D01*
X5327400Y22351555D01*
X5327400Y22346352D01*
X5330543Y22327469D01*
X5331378Y22321598D01*
X5337356Y22271099D01*
X5341288Y22262910D01*
X5342781Y22253941D01*
X5347724Y22244781D01*
X5366939Y22209170D01*
X5369635Y22203878D01*
X5388211Y22165192D01*
X5388213Y22165188D01*
X5391642Y22158048D01*
X5395206Y22153808D01*
X5397137Y22151877D01*
X5398875Y22149983D01*
X5398942Y22149859D01*
X5398828Y22149755D01*
X5399265Y22149260D01*
X5402333Y22143573D01*
X5427810Y22120022D01*
X5441639Y22107239D01*
X5445205Y22103809D01*
X6245356Y21303658D01*
X6260212Y21285265D01*
X6261525Y21283823D01*
X6267176Y21275070D01*
X6286653Y21259716D01*
X6289848Y21257197D01*
X6330961Y21199316D01*
X6334253Y21128395D01*
X6298681Y21066953D01*
X6290792Y21060051D01*
X6278537Y21050198D01*
X6278533Y21050194D01*
X6273726Y21046329D01*
X6146194Y20894343D01*
X6143227Y20888945D01*
X6143223Y20888940D01*
X6074809Y20764493D01*
X6050612Y20720479D01*
X6048751Y20714612D01*
X6048750Y20714610D01*
X6037506Y20679163D01*
X5990620Y20531362D01*
X5968504Y20334194D01*
X5969020Y20328050D01*
X5982791Y20164058D01*
X5985106Y20136485D01*
X5997039Y20094871D01*
X6029705Y19980952D01*
X6039794Y19945766D01*
X6130484Y19769302D01*
X6134307Y19764478D01*
X6134310Y19764474D01*
X6187137Y19697824D01*
X6253723Y19613814D01*
X6258417Y19609819D01*
X6396661Y19492164D01*
X6404815Y19485224D01*
X6410193Y19482218D01*
X6410195Y19482217D01*
X6445180Y19462665D01*
X6578007Y19388430D01*
X6766701Y19327120D01*
X6963710Y19303628D01*
X6969845Y19304100D01*
X6969847Y19304100D01*
X7155388Y19318376D01*
X7155392Y19318377D01*
X7161530Y19318849D01*
X7167462Y19320505D01*
X7167466Y19320506D01*
X7257078Y19345527D01*
X7352626Y19372204D01*
X7390689Y19391431D01*
X7460512Y19404291D01*
X7526203Y19377362D01*
X7566906Y19319192D01*
X7573500Y19278965D01*
X7573500Y18953424D01*
X7553498Y18885303D01*
X7536595Y18864329D01*
X7440696Y18768430D01*
X7378384Y18734404D01*
X7314342Y18737160D01*
X7195302Y18774009D01*
X7195299Y18774010D01*
X7189415Y18775831D01*
X7183290Y18776475D01*
X7183289Y18776475D01*
X6998225Y18795926D01*
X6998224Y18795926D01*
X6992097Y18796570D01*
X6912631Y18789338D01*
X6800648Y18779147D01*
X6800645Y18779146D01*
X6794509Y18778588D01*
X6788603Y18776850D01*
X6788599Y18776849D01*
X6655047Y18737542D01*
X6604177Y18722570D01*
X6428350Y18630650D01*
X6423550Y18626790D01*
X6423549Y18626790D01*
X6289252Y18518812D01*
X6273726Y18506329D01*
X6146194Y18354343D01*
X6143227Y18348945D01*
X6143223Y18348940D01*
X6081919Y18237426D01*
X6050612Y18180479D01*
X6048751Y18174612D01*
X6048750Y18174610D01*
X6028389Y18110425D01*
X5990620Y17991362D01*
X5968504Y17794194D01*
X5969020Y17788050D01*
X5982821Y17623701D01*
X5985106Y17596485D01*
X5997066Y17554775D01*
X6027858Y17447393D01*
X6039794Y17405766D01*
X6130484Y17229302D01*
X6134307Y17224478D01*
X6134310Y17224474D01*
X6245422Y17084287D01*
X6253723Y17073814D01*
X6258417Y17069819D01*
X6332067Y17007138D01*
X6404815Y16945224D01*
X6410193Y16942218D01*
X6410195Y16942217D01*
X6440193Y16925452D01*
X6578007Y16848430D01*
X6766701Y16787120D01*
X6963710Y16763628D01*
X6969845Y16764100D01*
X6969847Y16764100D01*
X7155388Y16778376D01*
X7155392Y16778377D01*
X7161530Y16778849D01*
X7167462Y16780505D01*
X7167466Y16780506D01*
X7291957Y16815265D01*
X7352626Y16832204D01*
X7529719Y16921660D01*
X7547644Y16935664D01*
X7674726Y17034953D01*
X7740720Y17061131D01*
X7810391Y17047474D01*
X7861618Y16998318D01*
X7878300Y16935664D01*
X7878300Y16718225D01*
X7858298Y16650104D01*
X7841395Y16629129D01*
X7440694Y16228429D01*
X7378382Y16194404D01*
X7314340Y16197160D01*
X7195301Y16234009D01*
X7189415Y16235831D01*
X7183290Y16236475D01*
X7183289Y16236475D01*
X6998225Y16255926D01*
X6998224Y16255926D01*
X6992097Y16256570D01*
X6909572Y16249060D01*
X6800648Y16239147D01*
X6800645Y16239146D01*
X6794509Y16238588D01*
X6788603Y16236850D01*
X6788599Y16236849D01*
X6653749Y16197160D01*
X6604177Y16182570D01*
X6428350Y16090650D01*
X6273726Y15966329D01*
X6146194Y15814343D01*
X6143227Y15808945D01*
X6143223Y15808940D01*
X6077297Y15689020D01*
X6050612Y15640479D01*
X6048751Y15634612D01*
X6048750Y15634610D01*
X6046461Y15627394D01*
X5990620Y15451362D01*
X5968504Y15254194D01*
X5985106Y15056485D01*
X6039794Y14865766D01*
X6042610Y14860287D01*
X6127665Y14694788D01*
X6130484Y14689302D01*
X6134307Y14684478D01*
X6134310Y14684474D01*
X6187115Y14617852D01*
X6253723Y14533814D01*
X6258417Y14529819D01*
X6393149Y14415153D01*
X6404815Y14405224D01*
X6578007Y14308430D01*
X6766701Y14247120D01*
X6963710Y14223628D01*
X6969845Y14224100D01*
X6969847Y14224100D01*
X7155388Y14238376D01*
X7155392Y14238377D01*
X7161530Y14238849D01*
X7167462Y14240505D01*
X7167466Y14240506D01*
X7257078Y14265526D01*
X7352626Y14292204D01*
X7529719Y14381660D01*
X7547658Y14395675D01*
X7681214Y14500022D01*
X7686064Y14503811D01*
X7708514Y14529819D01*
X7811681Y14649340D01*
X7811682Y14649341D01*
X7815705Y14654002D01*
X7913706Y14826514D01*
X7976332Y15014775D01*
X7986119Y15092243D01*
X8000757Y15208112D01*
X8000758Y15208122D01*
X8001199Y15211615D01*
X8001595Y15240000D01*
X7982234Y15437458D01*
X7942102Y15570382D01*
X7941561Y15641375D01*
X7973629Y15695895D01*
X8210901Y15933166D01*
X8483450Y16205715D01*
X8501827Y16220557D01*
X8503277Y16221876D01*
X8512030Y16227528D01*
X8518576Y16235831D01*
X8532633Y16253663D01*
X8536539Y16258058D01*
X8536462Y16258123D01*
X8539815Y16262080D01*
X8543497Y16265762D01*
X8554633Y16281346D01*
X8558192Y16286086D01*
X8583221Y16317834D01*
X8583223Y16317837D01*
X8589669Y16326014D01*
X8592680Y16334587D01*
X8597965Y16341983D01*
X8612546Y16390738D01*
X8614368Y16396344D01*
X8628595Y16436856D01*
X8628596Y16436862D01*
X8631222Y16444339D01*
X8631700Y16449858D01*
X8631700Y16452572D01*
X8631812Y16455163D01*
X8631853Y16455299D01*
X8632004Y16455292D01*
X8632045Y16455941D01*
X8633897Y16462134D01*
X8631797Y16515588D01*
X8631700Y16520534D01*
X8631700Y16939017D01*
X8651702Y17007138D01*
X8705358Y17053631D01*
X8775632Y17063735D01*
X8839363Y17034971D01*
X8872067Y17007138D01*
X8944815Y16945224D01*
X8950193Y16942218D01*
X8950195Y16942217D01*
X8980193Y16925452D01*
X9118007Y16848430D01*
X9306701Y16787120D01*
X9503710Y16763628D01*
X9509845Y16764100D01*
X9509847Y16764100D01*
X9515095Y16764504D01*
X9584549Y16749787D01*
X9635021Y16699856D01*
X9649888Y16624066D01*
X9639967Y16540246D01*
X9649716Y16391510D01*
X9649797Y16390268D01*
X9634293Y16320985D01*
X9583793Y16271082D01*
X9531948Y16258208D01*
X9532097Y16256570D01*
X9340648Y16239147D01*
X9340645Y16239146D01*
X9334509Y16238588D01*
X9328603Y16236850D01*
X9328599Y16236849D01*
X9193749Y16197160D01*
X9144177Y16182570D01*
X8968350Y16090650D01*
X8813726Y15966329D01*
X8686194Y15814343D01*
X8683227Y15808945D01*
X8683223Y15808940D01*
X8617297Y15689020D01*
X8590612Y15640479D01*
X8588751Y15634612D01*
X8588750Y15634610D01*
X8586461Y15627394D01*
X8530620Y15451362D01*
X8508504Y15254194D01*
X8525106Y15056485D01*
X8579794Y14865766D01*
X8582610Y14860287D01*
X8667665Y14694788D01*
X8670484Y14689302D01*
X8674307Y14684478D01*
X8674310Y14684474D01*
X8727115Y14617852D01*
X8793723Y14533814D01*
X8798417Y14529819D01*
X8933149Y14415153D01*
X8944815Y14405224D01*
X9118007Y14308430D01*
X9306701Y14247120D01*
X9503710Y14223628D01*
X9509845Y14224100D01*
X9509847Y14224100D01*
X9515095Y14224504D01*
X9584549Y14209787D01*
X9635021Y14159856D01*
X9649888Y14084066D01*
X9639967Y14000246D01*
X9648297Y13873160D01*
X9649797Y13850268D01*
X9634293Y13780985D01*
X9583793Y13731082D01*
X9531948Y13718208D01*
X9532097Y13716570D01*
X9340648Y13699147D01*
X9340645Y13699146D01*
X9334509Y13698588D01*
X9328603Y13696850D01*
X9328599Y13696849D01*
X9237131Y13669928D01*
X9144177Y13642570D01*
X8968350Y13550650D01*
X8963550Y13546790D01*
X8963549Y13546790D01*
X8863104Y13466030D01*
X8813726Y13426329D01*
X8686194Y13274343D01*
X8683227Y13268945D01*
X8683223Y13268940D01*
X8633528Y13178544D01*
X8590612Y13100479D01*
X8588751Y13094612D01*
X8588750Y13094610D01*
X8576621Y13056374D01*
X8530620Y12911362D01*
X8508504Y12714194D01*
X8509020Y12708050D01*
X8524042Y12529161D01*
X8525106Y12516485D01*
X8579794Y12325766D01*
X8613621Y12259946D01*
X8651502Y12186238D01*
X8670484Y12149302D01*
X8674307Y12144478D01*
X8674310Y12144474D01*
X8759907Y12036479D01*
X8793723Y11993814D01*
X8944815Y11865224D01*
X9118007Y11768430D01*
X9306701Y11707120D01*
X9503710Y11683628D01*
X9509845Y11684100D01*
X9509847Y11684100D01*
X9515095Y11684504D01*
X9584549Y11669787D01*
X9635021Y11619856D01*
X9649888Y11544066D01*
X9639967Y11460246D01*
X9653796Y11249251D01*
X9655217Y11243655D01*
X9655218Y11243650D01*
X9704424Y11049905D01*
X9705845Y11044310D01*
X9767167Y10911293D01*
X9778158Y10887451D01*
X9788513Y10817214D01*
X9759250Y10752528D01*
X9699662Y10713931D01*
X9663732Y10708700D01*
X3211225Y10708700D01*
X3143104Y10728702D01*
X3122130Y10745605D01*
X2963124Y10904611D01*
X2929098Y10966923D01*
X2932906Y11034208D01*
X2977820Y11166519D01*
X2977820Y11166521D01*
X2979678Y11171993D01*
X2980507Y11177709D01*
X2980508Y11177714D01*
X3008167Y11368484D01*
X3008700Y11372158D01*
X3010215Y11430000D01*
X2991708Y11631409D01*
X2936807Y11826074D01*
X2847351Y12007473D01*
X2829079Y12031943D01*
X2729788Y12164909D01*
X2729787Y12164910D01*
X2726335Y12169533D01*
X2703350Y12190780D01*
X2582053Y12302906D01*
X2582051Y12302908D01*
X2577812Y12306826D01*
X2547794Y12325766D01*
X2411637Y12411675D01*
X2406757Y12414754D01*
X2218898Y12489702D01*
X2020526Y12529161D01*
X2014752Y12529237D01*
X2014748Y12529237D01*
X1912257Y12530578D01*
X1818286Y12531808D01*
X1812589Y12530829D01*
X1812588Y12530829D01*
X1624646Y12498535D01*
X1624645Y12498535D01*
X1618949Y12497556D01*
X1429193Y12427551D01*
X1255371Y12324138D01*
X1103305Y12190780D01*
X978089Y12031943D01*
X883914Y11852947D01*
X823937Y11659787D01*
X800164Y11458931D01*
X500000Y11458931D01*
X500000Y21618931D01*
X800164Y21618931D01*
X813392Y21417106D01*
X829065Y21355395D01*
X860719Y21230756D01*
X863178Y21221072D01*
X947856Y21037393D01*
X951189Y21032677D01*
X1052772Y20888940D01*
X1064588Y20872220D01*
X1209466Y20731087D01*
X1214270Y20727877D01*
X1261842Y20696090D01*
X1377637Y20618718D01*
X1382940Y20616440D01*
X1382943Y20616438D01*
X1532546Y20552164D01*
X1563470Y20538878D01*
X1760740Y20494240D01*
X1766509Y20494013D01*
X1766512Y20494013D01*
X1840104Y20491122D01*
X1962842Y20486300D01*
X2049132Y20498811D01*
X2157286Y20514492D01*
X2157291Y20514493D01*
X2163007Y20515322D01*
X2168479Y20517180D01*
X2168481Y20517180D01*
X2349067Y20578481D01*
X2349069Y20578482D01*
X2354531Y20580336D01*
X2531001Y20679163D01*
X2546512Y20692063D01*
X2643813Y20772988D01*
X2686505Y20808495D01*
X2815837Y20963999D01*
X2914664Y21140469D01*
X2934556Y21199067D01*
X2977820Y21326519D01*
X2977820Y21326521D01*
X2979678Y21331993D01*
X2980507Y21337709D01*
X2980508Y21337714D01*
X2999681Y21469953D01*
X3008700Y21532158D01*
X3010215Y21590000D01*
X2991708Y21791409D01*
X2936807Y21986074D01*
X2847351Y22167473D01*
X2829079Y22191943D01*
X2729788Y22324909D01*
X2729787Y22324910D01*
X2726335Y22329533D01*
X2708264Y22346238D01*
X2582053Y22462906D01*
X2582051Y22462908D01*
X2577812Y22466826D01*
X2572929Y22469907D01*
X2411637Y22571675D01*
X2406757Y22574754D01*
X2218898Y22649702D01*
X2020526Y22689161D01*
X2014752Y22689237D01*
X2014748Y22689237D01*
X1912257Y22690578D01*
X1818286Y22691808D01*
X1812589Y22690829D01*
X1812588Y22690829D01*
X1624646Y22658535D01*
X1624645Y22658535D01*
X1618949Y22657556D01*
X1429193Y22587551D01*
X1424232Y22584599D01*
X1424231Y22584599D01*
X1285178Y22501871D01*
X1255371Y22484138D01*
X1103305Y22350780D01*
X978089Y22191943D01*
X883914Y22012947D01*
X823937Y21819787D01*
X800164Y21618931D01*
X500000Y21618931D01*
X500000Y25448931D01*
X800164Y25448931D01*
X813392Y25247106D01*
X814815Y25241504D01*
X839070Y25146000D01*
X863178Y25051072D01*
X947856Y24867393D01*
X951189Y24862677D01*
X1038607Y24738983D01*
X1064588Y24702220D01*
X1209466Y24561087D01*
X1377637Y24448718D01*
X1382940Y24446440D01*
X1382943Y24446438D01*
X1558163Y24371158D01*
X1563470Y24368878D01*
X1760740Y24324240D01*
X1766509Y24324013D01*
X1766512Y24324013D01*
X1842683Y24321021D01*
X1962842Y24316300D01*
X2049132Y24328811D01*
X2157286Y24344492D01*
X2157291Y24344493D01*
X2163007Y24345322D01*
X2168479Y24347180D01*
X2168481Y24347180D01*
X2349067Y24408481D01*
X2349069Y24408482D01*
X2354531Y24410336D01*
X2477017Y24478931D01*
X2525964Y24506342D01*
X2525965Y24506343D01*
X2531001Y24509163D01*
X2541123Y24517581D01*
X2682073Y24634809D01*
X2686505Y24638495D01*
X2815837Y24793999D01*
X2823315Y24807351D01*
X2878135Y24905241D01*
X2914664Y24970469D01*
X2919011Y24983273D01*
X2977820Y25156519D01*
X2977820Y25156521D01*
X2979678Y25161993D01*
X2980507Y25167709D01*
X2980508Y25167714D01*
X3001269Y25310905D01*
X3008700Y25362158D01*
X3010215Y25420000D01*
X2991708Y25621409D01*
X2982517Y25654000D01*
X2949219Y25772063D01*
X2936807Y25816074D01*
X2864561Y25962575D01*
X2849906Y25992292D01*
X2847351Y25997473D01*
X2829079Y26021943D01*
X2729788Y26154909D01*
X2729787Y26154910D01*
X2726335Y26159533D01*
X2703350Y26180780D01*
X2582053Y26292906D01*
X2582051Y26292908D01*
X2577812Y26296826D01*
X2550374Y26314138D01*
X2411637Y26401675D01*
X2406757Y26404754D01*
X2401397Y26406892D01*
X2401394Y26406894D01*
X2315911Y26440998D01*
X2260051Y26484819D01*
X2236751Y26551883D01*
X2253407Y26620898D01*
X2304731Y26669953D01*
X2329992Y26679735D01*
X2348757Y26684763D01*
X2359053Y26688510D01*
X2556511Y26780586D01*
X2566006Y26786069D01*
X2618048Y26822509D01*
X2626424Y26832988D01*
X2619356Y26846434D01*
X1917812Y27547978D01*
X1903868Y27555592D01*
X1902035Y27555461D01*
X1895420Y27551210D01*
X1189923Y26845713D01*
X1183493Y26833938D01*
X1192789Y26821923D01*
X1243994Y26786069D01*
X1253489Y26780586D01*
X1450947Y26688510D01*
X1461244Y26684762D01*
X1479162Y26679961D01*
X1539784Y26643009D01*
X1570805Y26579148D01*
X1562375Y26508654D01*
X1517172Y26453907D01*
X1490160Y26440043D01*
X1429193Y26417551D01*
X1424232Y26414599D01*
X1424231Y26414599D01*
X1284188Y26331282D01*
X1255371Y26314138D01*
X1103305Y26180780D01*
X978089Y26021943D01*
X883914Y25842947D01*
X823937Y25649787D01*
X800164Y25448931D01*
X500000Y25448931D01*
X500000Y27269691D01*
X520002Y27337812D01*
X573658Y27384305D01*
X643932Y27394409D01*
X708512Y27364915D01*
X740195Y27322941D01*
X765586Y27268489D01*
X771069Y27258994D01*
X807509Y27206952D01*
X817988Y27198576D01*
X831434Y27205644D01*
X1532978Y27907188D01*
X1539356Y27918868D01*
X2269408Y27918868D01*
X2269539Y27917035D01*
X2273790Y27910420D01*
X2979287Y27204923D01*
X2991062Y27198493D01*
X3003077Y27207789D01*
X3038931Y27258994D01*
X3044414Y27268489D01*
X3136490Y27465947D01*
X3140236Y27476239D01*
X3196625Y27686688D01*
X3198528Y27697481D01*
X3217517Y27914525D01*
X3217517Y27925475D01*
X3198528Y28142519D01*
X3196625Y28153312D01*
X3140236Y28363761D01*
X3136490Y28374053D01*
X3044414Y28571511D01*
X3038931Y28581006D01*
X3002491Y28633048D01*
X2992012Y28641424D01*
X2978566Y28634356D01*
X2277022Y27932812D01*
X2269408Y27918868D01*
X1539356Y27918868D01*
X1540592Y27921132D01*
X1540461Y27922965D01*
X1536210Y27929580D01*
X830713Y28635077D01*
X818938Y28641507D01*
X806923Y28632211D01*
X771069Y28581006D01*
X765586Y28571511D01*
X740195Y28517059D01*
X693277Y28463774D01*
X625000Y28444313D01*
X557040Y28464855D01*
X510975Y28518878D01*
X500000Y28570309D01*
X500000Y29007012D01*
X1183576Y29007012D01*
X1190644Y28993566D01*
X1892188Y28292022D01*
X1906132Y28284408D01*
X1907965Y28284539D01*
X1914580Y28288790D01*
X2620077Y28994287D01*
X2626507Y29006062D01*
X2617211Y29018077D01*
X2566006Y29053931D01*
X2556511Y29059414D01*
X2359053Y29151490D01*
X2348761Y29155236D01*
X2138312Y29211625D01*
X2127519Y29213528D01*
X1910475Y29232517D01*
X1899525Y29232517D01*
X1682481Y29213528D01*
X1671688Y29211625D01*
X1461239Y29155236D01*
X1450947Y29151490D01*
X1253489Y29059414D01*
X1243994Y29053931D01*
X1191952Y29017491D01*
X1183576Y29007012D01*
X500000Y29007012D01*
X500000Y41447810D01*
X520002Y41515931D01*
X536905Y41536905D01*
X963095Y41963095D01*
X1025407Y41997121D01*
X1052190Y42000000D01*
X7500000Y42000000D01*
X8000000Y42500000D01*
X8000000Y54447810D01*
X8020002Y54515931D01*
X8036905Y54536905D01*
X8463095Y54963095D01*
X8525407Y54997121D01*
X8552190Y55000000D01*
X28447810Y55000000D01*
X28515931Y54979998D01*
G37*
G04 #@! TD.AperFunction*
G04 #@! TA.AperFunction,Conductor*
G36*
X21249044Y15808498D02*
G01*
X21295537Y15754842D01*
X21305641Y15684568D01*
X21294771Y15652074D01*
X21296008Y15651544D01*
X21293578Y15645874D01*
X21290612Y15640479D01*
X21288751Y15634612D01*
X21288750Y15634610D01*
X21286461Y15627394D01*
X21230620Y15451362D01*
X21208504Y15254194D01*
X21225106Y15056485D01*
X21279794Y14865766D01*
X21282610Y14860287D01*
X21367665Y14694788D01*
X21370484Y14689302D01*
X21374307Y14684478D01*
X21374310Y14684474D01*
X21427115Y14617852D01*
X21493723Y14533814D01*
X21498417Y14529819D01*
X21633149Y14415153D01*
X21644815Y14405224D01*
X21818007Y14308430D01*
X22006701Y14247120D01*
X22203710Y14223628D01*
X22209845Y14224100D01*
X22209847Y14224100D01*
X22395388Y14238376D01*
X22395392Y14238377D01*
X22401530Y14238849D01*
X22407462Y14240505D01*
X22407466Y14240506D01*
X22497078Y14265526D01*
X22592626Y14292204D01*
X22769719Y14381660D01*
X22787658Y14395675D01*
X22921214Y14500022D01*
X22926064Y14503811D01*
X22948514Y14529819D01*
X23051681Y14649340D01*
X23051682Y14649341D01*
X23055705Y14654002D01*
X23153706Y14826514D01*
X23202942Y14974523D01*
X23243423Y15032847D01*
X23309011Y15060027D01*
X23378882Y15047432D01*
X23430852Y14999062D01*
X23448500Y14934751D01*
X23448500Y13693428D01*
X23445999Y13669928D01*
X23445907Y13667975D01*
X23443714Y13657790D01*
X23446156Y13637161D01*
X23447626Y13624743D01*
X23447972Y13618876D01*
X23448072Y13618884D01*
X23448500Y13613707D01*
X23448500Y13608504D01*
X23451643Y13589621D01*
X23452478Y13583750D01*
X23458456Y13533251D01*
X23462388Y13525062D01*
X23463881Y13516093D01*
X23468824Y13506933D01*
X23488039Y13471322D01*
X23490735Y13466030D01*
X23509311Y13427344D01*
X23509313Y13427340D01*
X23512742Y13420200D01*
X23516306Y13415960D01*
X23518237Y13414029D01*
X23519975Y13412135D01*
X23520042Y13412011D01*
X23519928Y13411907D01*
X23520365Y13411412D01*
X23523433Y13405725D01*
X23531076Y13398660D01*
X23562739Y13369391D01*
X23566305Y13365961D01*
X23776724Y13155542D01*
X23810750Y13093230D01*
X23807731Y13028350D01*
X23770620Y12911362D01*
X23748504Y12714194D01*
X23749020Y12708050D01*
X23764042Y12529161D01*
X23765106Y12516485D01*
X23819794Y12325766D01*
X23853621Y12259946D01*
X23891502Y12186238D01*
X23910484Y12149302D01*
X23914307Y12144478D01*
X23914310Y12144474D01*
X23999907Y12036479D01*
X24033723Y11993814D01*
X24184815Y11865224D01*
X24358007Y11768430D01*
X24546701Y11707120D01*
X24743710Y11683628D01*
X24749845Y11684100D01*
X24749847Y11684100D01*
X24755095Y11684504D01*
X24824549Y11669787D01*
X24875021Y11619856D01*
X24889888Y11544066D01*
X24879967Y11460246D01*
X24893796Y11249251D01*
X24895217Y11243655D01*
X24895218Y11243650D01*
X24944424Y11049905D01*
X24945845Y11044310D01*
X24948262Y11039067D01*
X25022795Y10877393D01*
X25034369Y10852286D01*
X25037702Y10847570D01*
X25040591Y10842566D01*
X25039134Y10841725D01*
X25059587Y10781959D01*
X25042610Y10713022D01*
X24991058Y10664207D01*
X24933710Y10650400D01*
X14722724Y10650400D01*
X14654603Y10670402D01*
X14608110Y10724058D01*
X14598006Y10794332D01*
X14627500Y10858912D01*
X14633629Y10865495D01*
X16041666Y12273532D01*
X16103978Y12307558D01*
X16174793Y12302493D01*
X16231629Y12259946D01*
X16242828Y12242031D01*
X16271502Y12186238D01*
X16290484Y12149302D01*
X16294307Y12144478D01*
X16294310Y12144474D01*
X16379907Y12036479D01*
X16413723Y11993814D01*
X16564815Y11865224D01*
X16738007Y11768430D01*
X16926701Y11707120D01*
X17123710Y11683628D01*
X17129845Y11684100D01*
X17129847Y11684100D01*
X17315388Y11698376D01*
X17315392Y11698377D01*
X17321530Y11698849D01*
X17327462Y11700505D01*
X17327466Y11700506D01*
X17417078Y11725526D01*
X17512626Y11752204D01*
X17689719Y11841660D01*
X17719880Y11865224D01*
X17841214Y11960022D01*
X17846064Y11963811D01*
X17868514Y11989819D01*
X17971681Y12109340D01*
X17971682Y12109341D01*
X17975705Y12114002D01*
X18073706Y12286514D01*
X18136332Y12474775D01*
X18145989Y12551220D01*
X18160757Y12668112D01*
X18160758Y12668122D01*
X18161199Y12671615D01*
X18161595Y12700000D01*
X18160203Y12714194D01*
X18668504Y12714194D01*
X18669020Y12708050D01*
X18684042Y12529161D01*
X18685106Y12516485D01*
X18739794Y12325766D01*
X18773621Y12259946D01*
X18811502Y12186238D01*
X18830484Y12149302D01*
X18834307Y12144478D01*
X18834310Y12144474D01*
X18919907Y12036479D01*
X18953723Y11993814D01*
X19104815Y11865224D01*
X19278007Y11768430D01*
X19466701Y11707120D01*
X19663710Y11683628D01*
X19669845Y11684100D01*
X19669847Y11684100D01*
X19855388Y11698376D01*
X19855392Y11698377D01*
X19861530Y11698849D01*
X19867462Y11700505D01*
X19867466Y11700506D01*
X19957078Y11725526D01*
X20052626Y11752204D01*
X20229719Y11841660D01*
X20259880Y11865224D01*
X20381214Y11960022D01*
X20386064Y11963811D01*
X20408514Y11989819D01*
X20511681Y12109340D01*
X20511682Y12109341D01*
X20515705Y12114002D01*
X20613706Y12286514D01*
X20676332Y12474775D01*
X20685989Y12551220D01*
X20700757Y12668112D01*
X20700758Y12668122D01*
X20701199Y12671615D01*
X20701595Y12700000D01*
X20700203Y12714194D01*
X21208504Y12714194D01*
X21209020Y12708050D01*
X21224042Y12529161D01*
X21225106Y12516485D01*
X21279794Y12325766D01*
X21313621Y12259946D01*
X21351502Y12186238D01*
X21370484Y12149302D01*
X21374307Y12144478D01*
X21374310Y12144474D01*
X21459907Y12036479D01*
X21493723Y11993814D01*
X21644815Y11865224D01*
X21818007Y11768430D01*
X22006701Y11707120D01*
X22203710Y11683628D01*
X22209845Y11684100D01*
X22209847Y11684100D01*
X22395388Y11698376D01*
X22395392Y11698377D01*
X22401530Y11698849D01*
X22407462Y11700505D01*
X22407466Y11700506D01*
X22497078Y11725526D01*
X22592626Y11752204D01*
X22769719Y11841660D01*
X22799880Y11865224D01*
X22921214Y11960022D01*
X22926064Y11963811D01*
X22948514Y11989819D01*
X23051681Y12109340D01*
X23051682Y12109341D01*
X23055705Y12114002D01*
X23153706Y12286514D01*
X23216332Y12474775D01*
X23225989Y12551220D01*
X23240757Y12668112D01*
X23240758Y12668122D01*
X23241199Y12671615D01*
X23241595Y12700000D01*
X23222234Y12897458D01*
X23164889Y13087394D01*
X23157529Y13101237D01*
X23074638Y13257133D01*
X23074636Y13257136D01*
X23071744Y13262575D01*
X23067854Y13267345D01*
X23067851Y13267349D01*
X22950241Y13411553D01*
X22950238Y13411556D01*
X22946346Y13416328D01*
X22793473Y13542795D01*
X22788052Y13545726D01*
X22788051Y13545727D01*
X22624366Y13634231D01*
X22624361Y13634233D01*
X22618946Y13637161D01*
X22429415Y13695831D01*
X22423290Y13696475D01*
X22423289Y13696475D01*
X22238225Y13715926D01*
X22238224Y13715926D01*
X22232097Y13716570D01*
X22149572Y13709060D01*
X22040648Y13699147D01*
X22040645Y13699146D01*
X22034509Y13698588D01*
X22028603Y13696850D01*
X22028599Y13696849D01*
X21937131Y13669928D01*
X21844177Y13642570D01*
X21668350Y13550650D01*
X21663550Y13546790D01*
X21663549Y13546790D01*
X21563104Y13466030D01*
X21513726Y13426329D01*
X21386194Y13274343D01*
X21383227Y13268945D01*
X21383223Y13268940D01*
X21333528Y13178544D01*
X21290612Y13100479D01*
X21288751Y13094612D01*
X21288750Y13094610D01*
X21276621Y13056374D01*
X21230620Y12911362D01*
X21208504Y12714194D01*
X20700203Y12714194D01*
X20682234Y12897458D01*
X20624889Y13087394D01*
X20617529Y13101237D01*
X20534638Y13257133D01*
X20534636Y13257136D01*
X20531744Y13262575D01*
X20527854Y13267345D01*
X20527851Y13267349D01*
X20410241Y13411553D01*
X20410238Y13411556D01*
X20406346Y13416328D01*
X20253473Y13542795D01*
X20248052Y13545726D01*
X20248051Y13545727D01*
X20084366Y13634231D01*
X20084361Y13634233D01*
X20078946Y13637161D01*
X19889415Y13695831D01*
X19883290Y13696475D01*
X19883289Y13696475D01*
X19698225Y13715926D01*
X19698224Y13715926D01*
X19692097Y13716570D01*
X19609572Y13709060D01*
X19500648Y13699147D01*
X19500645Y13699146D01*
X19494509Y13698588D01*
X19488603Y13696850D01*
X19488599Y13696849D01*
X19397131Y13669928D01*
X19304177Y13642570D01*
X19128350Y13550650D01*
X19123550Y13546790D01*
X19123549Y13546790D01*
X19023104Y13466030D01*
X18973726Y13426329D01*
X18846194Y13274343D01*
X18843227Y13268945D01*
X18843223Y13268940D01*
X18793528Y13178544D01*
X18750612Y13100479D01*
X18748751Y13094612D01*
X18748750Y13094610D01*
X18736621Y13056374D01*
X18690620Y12911362D01*
X18668504Y12714194D01*
X18160203Y12714194D01*
X18142234Y12897458D01*
X18084889Y13087394D01*
X18077529Y13101237D01*
X17994638Y13257133D01*
X17994636Y13257136D01*
X17991744Y13262575D01*
X17987854Y13267345D01*
X17987851Y13267349D01*
X17870241Y13411553D01*
X17870238Y13411556D01*
X17866346Y13416328D01*
X17713473Y13542795D01*
X17638150Y13583522D01*
X17587743Y13633514D01*
X17572365Y13702825D01*
X17596900Y13769447D01*
X17608985Y13783451D01*
X18601151Y14775617D01*
X18663463Y14809643D01*
X18734278Y14804578D01*
X18791114Y14762031D01*
X18802312Y14744117D01*
X18827666Y14694783D01*
X18827669Y14694779D01*
X18830484Y14689302D01*
X18834307Y14684478D01*
X18834310Y14684474D01*
X18887115Y14617852D01*
X18953723Y14533814D01*
X18958417Y14529819D01*
X19093149Y14415153D01*
X19104815Y14405224D01*
X19278007Y14308430D01*
X19466701Y14247120D01*
X19663710Y14223628D01*
X19669845Y14224100D01*
X19669847Y14224100D01*
X19855388Y14238376D01*
X19855392Y14238377D01*
X19861530Y14238849D01*
X19867462Y14240505D01*
X19867466Y14240506D01*
X19957078Y14265526D01*
X20052626Y14292204D01*
X20229719Y14381660D01*
X20247658Y14395675D01*
X20381214Y14500022D01*
X20386064Y14503811D01*
X20408514Y14529819D01*
X20511681Y14649340D01*
X20511682Y14649341D01*
X20515705Y14654002D01*
X20613706Y14826514D01*
X20676332Y15014775D01*
X20686119Y15092243D01*
X20700757Y15208112D01*
X20700758Y15208122D01*
X20701199Y15211615D01*
X20701595Y15240000D01*
X20682234Y15437458D01*
X20642102Y15570382D01*
X20641561Y15641377D01*
X20673629Y15695895D01*
X20769329Y15791595D01*
X20831641Y15825621D01*
X20858424Y15828500D01*
X21180923Y15828500D01*
X21249044Y15808498D01*
G37*
G04 #@! TD.AperFunction*
G04 #@! TA.AperFunction,Conductor*
G36*
X8751745Y28813298D02*
G01*
X8798238Y28759642D01*
X8808342Y28689368D01*
X8780145Y28626309D01*
X8686194Y28514343D01*
X8683227Y28508945D01*
X8683223Y28508940D01*
X8621919Y28397426D01*
X8590612Y28340479D01*
X8588751Y28334612D01*
X8588750Y28334610D01*
X8575240Y28292022D01*
X8530620Y28151362D01*
X8508504Y27954194D01*
X8510571Y27929580D01*
X8522791Y27784058D01*
X8525106Y27756485D01*
X8537039Y27714871D01*
X8577217Y27574754D01*
X8579794Y27565766D01*
X8582610Y27560287D01*
X8662223Y27405377D01*
X8670484Y27389302D01*
X8674307Y27384478D01*
X8674310Y27384474D01*
X8765287Y27269691D01*
X8793723Y27233814D01*
X8798417Y27229819D01*
X8936661Y27112164D01*
X8944815Y27105224D01*
X9118007Y27008430D01*
X9306701Y26947120D01*
X9503710Y26923628D01*
X9509845Y26924100D01*
X9509847Y26924100D01*
X9515095Y26924504D01*
X9584549Y26909787D01*
X9635021Y26859856D01*
X9649887Y26784064D01*
X9644028Y26734567D01*
X9616157Y26669269D01*
X9557409Y26629406D01*
X9524959Y26624326D01*
X9525000Y26623857D01*
X9317957Y26605743D01*
X9307168Y26603841D01*
X9111727Y26551472D01*
X9101431Y26547724D01*
X8918059Y26462217D01*
X8908564Y26456734D01*
X8875712Y26433731D01*
X8867336Y26423252D01*
X8874404Y26409806D01*
X9795115Y25489095D01*
X9829141Y25426783D01*
X9824076Y25355968D01*
X9795115Y25310905D01*
X8873682Y24389472D01*
X8867252Y24377698D01*
X8876548Y24365683D01*
X8908566Y24343263D01*
X8918056Y24337785D01*
X9101431Y24252276D01*
X9111727Y24248528D01*
X9307168Y24196159D01*
X9317957Y24194257D01*
X9519525Y24176622D01*
X9520882Y24176622D01*
X9521458Y24176453D01*
X9525000Y24176143D01*
X9524938Y24175431D01*
X9589003Y24156620D01*
X9635496Y24102964D01*
X9646612Y24058863D01*
X9649797Y24010268D01*
X9634293Y23940985D01*
X9583793Y23891082D01*
X9531948Y23878208D01*
X9532097Y23876570D01*
X9340648Y23859147D01*
X9340645Y23859146D01*
X9334509Y23858588D01*
X9328603Y23856850D01*
X9328599Y23856849D01*
X9261465Y23837090D01*
X9144177Y23802570D01*
X8968350Y23710650D01*
X8963550Y23706790D01*
X8963549Y23706790D01*
X8905410Y23660045D01*
X8813726Y23586329D01*
X8686194Y23434343D01*
X8683227Y23428945D01*
X8683223Y23428940D01*
X8628618Y23329612D01*
X8590612Y23260479D01*
X8588751Y23254612D01*
X8588750Y23254610D01*
X8585127Y23243188D01*
X8530620Y23071362D01*
X8508504Y22874194D01*
X8509020Y22868050D01*
X8524042Y22689161D01*
X8525106Y22676485D01*
X8538713Y22629033D01*
X8569705Y22520952D01*
X8579794Y22485766D01*
X8593212Y22459657D01*
X8662649Y22324548D01*
X8670484Y22309302D01*
X8674307Y22304478D01*
X8674310Y22304474D01*
X8763502Y22191943D01*
X8793723Y22153814D01*
X8798417Y22149819D01*
X8936661Y22032164D01*
X8944815Y22025224D01*
X9118007Y21928430D01*
X9306701Y21867120D01*
X9503710Y21843628D01*
X9509845Y21844100D01*
X9509847Y21844100D01*
X9515095Y21844504D01*
X9584549Y21829787D01*
X9635021Y21779856D01*
X9649888Y21704066D01*
X9639967Y21620246D01*
X9649646Y21472577D01*
X9649797Y21470268D01*
X9634293Y21400985D01*
X9583793Y21351082D01*
X9531948Y21338208D01*
X9532097Y21336570D01*
X9340648Y21319147D01*
X9340645Y21319146D01*
X9334509Y21318588D01*
X9328603Y21316850D01*
X9328599Y21316849D01*
X9212015Y21282536D01*
X9144177Y21262570D01*
X9138714Y21259714D01*
X9136479Y21258546D01*
X9135187Y21258289D01*
X9133003Y21257407D01*
X9132835Y21257822D01*
X9066843Y21244711D01*
X9000783Y21270721D01*
X8959270Y21328316D01*
X8952977Y21355395D01*
X8952870Y21356301D01*
X8952868Y21356308D01*
X8951644Y21366649D01*
X8947712Y21374838D01*
X8946219Y21383807D01*
X8922061Y21428579D01*
X8919365Y21433870D01*
X8900786Y21472560D01*
X8897358Y21479700D01*
X8893794Y21483941D01*
X8891867Y21485868D01*
X8890124Y21487769D01*
X8890054Y21487898D01*
X8890165Y21488001D01*
X8889735Y21488488D01*
X8886667Y21494175D01*
X8847373Y21530498D01*
X8843808Y21533927D01*
X7973104Y22404631D01*
X7939078Y22466943D01*
X7942641Y22533497D01*
X7976332Y22634775D01*
X7985337Y22706059D01*
X8000757Y22828112D01*
X8000758Y22828122D01*
X8001199Y22831615D01*
X8001595Y22860000D01*
X7982234Y23057458D01*
X7924889Y23247394D01*
X7885592Y23321301D01*
X7834638Y23417133D01*
X7834636Y23417136D01*
X7831744Y23422575D01*
X7827854Y23427345D01*
X7827851Y23427349D01*
X7710241Y23571553D01*
X7710238Y23571556D01*
X7706346Y23576328D01*
X7553473Y23702795D01*
X7548054Y23705725D01*
X7548051Y23705727D01*
X7384366Y23794231D01*
X7384361Y23794233D01*
X7378946Y23797161D01*
X7189415Y23855831D01*
X7183290Y23856475D01*
X7183289Y23856475D01*
X6998225Y23875926D01*
X6998224Y23875926D01*
X6992097Y23876570D01*
X6909572Y23869060D01*
X6800648Y23859147D01*
X6800645Y23859146D01*
X6794509Y23858588D01*
X6788603Y23856850D01*
X6788599Y23856849D01*
X6610081Y23804308D01*
X6610078Y23804307D01*
X6604177Y23802570D01*
X6598724Y23799719D01*
X6595100Y23798255D01*
X6524446Y23791282D01*
X6461239Y23823615D01*
X6425546Y23884987D01*
X6421900Y23915080D01*
X6421900Y24345728D01*
X6441902Y24413849D01*
X6495558Y24460342D01*
X6565832Y24470446D01*
X6586836Y24465561D01*
X6645692Y24446438D01*
X6766701Y24407120D01*
X6963710Y24383628D01*
X6969845Y24384100D01*
X6969847Y24384100D01*
X7155388Y24398376D01*
X7155392Y24398377D01*
X7161530Y24398849D01*
X7167462Y24400505D01*
X7167466Y24400506D01*
X7291549Y24435151D01*
X7352626Y24452204D01*
X7529719Y24541660D01*
X7547658Y24555675D01*
X7648943Y24634809D01*
X7686064Y24663811D01*
X7754605Y24743216D01*
X7811681Y24809340D01*
X7811682Y24809341D01*
X7815705Y24814002D01*
X7819113Y24820000D01*
X7878957Y24925345D01*
X7913706Y24986514D01*
X7976332Y25174775D01*
X7990315Y25285458D01*
X8000757Y25368112D01*
X8000758Y25368122D01*
X8001199Y25371615D01*
X8001519Y25394525D01*
X8301622Y25394525D01*
X8319257Y25192957D01*
X8321159Y25182168D01*
X8373528Y24986727D01*
X8377276Y24976431D01*
X8462783Y24793059D01*
X8468266Y24783564D01*
X8491269Y24750712D01*
X8501748Y24742336D01*
X8515194Y24749404D01*
X9152978Y25387188D01*
X9160592Y25401132D01*
X9160461Y25402965D01*
X9156210Y25409580D01*
X8514473Y26051317D01*
X8502698Y26057747D01*
X8490683Y26048451D01*
X8468266Y26016436D01*
X8462783Y26006941D01*
X8377276Y25823569D01*
X8373528Y25813273D01*
X8321159Y25617832D01*
X8319257Y25607043D01*
X8301622Y25405475D01*
X8301622Y25394525D01*
X8001519Y25394525D01*
X8001595Y25400000D01*
X7982234Y25597458D01*
X7924889Y25787394D01*
X7906884Y25821257D01*
X7834638Y25957133D01*
X7834636Y25957136D01*
X7831744Y25962575D01*
X7827854Y25967345D01*
X7827851Y25967349D01*
X7710241Y26111553D01*
X7710238Y26111556D01*
X7706346Y26116328D01*
X7659710Y26154909D01*
X7605149Y26200045D01*
X7553473Y26242795D01*
X7548054Y26245725D01*
X7548051Y26245727D01*
X7384366Y26334231D01*
X7384361Y26334233D01*
X7378946Y26337161D01*
X7189415Y26395831D01*
X7183290Y26396475D01*
X7183289Y26396475D01*
X6998225Y26415926D01*
X6998224Y26415926D01*
X6992097Y26416570D01*
X6909572Y26409060D01*
X6800648Y26399147D01*
X6800645Y26399146D01*
X6794509Y26398588D01*
X6788603Y26396850D01*
X6788599Y26396849D01*
X6610081Y26344308D01*
X6610078Y26344307D01*
X6604177Y26342570D01*
X6598724Y26339719D01*
X6595100Y26338255D01*
X6524446Y26331282D01*
X6461239Y26363615D01*
X6425546Y26424987D01*
X6421900Y26455080D01*
X6421900Y26885728D01*
X6441902Y26953849D01*
X6495558Y27000342D01*
X6565832Y27010446D01*
X6586836Y27005561D01*
X6673091Y26977535D01*
X6766701Y26947120D01*
X6963710Y26923628D01*
X6969845Y26924100D01*
X6969847Y26924100D01*
X7155388Y26938376D01*
X7155392Y26938377D01*
X7161530Y26938849D01*
X7167462Y26940505D01*
X7167466Y26940506D01*
X7257078Y26965527D01*
X7352626Y26992204D01*
X7529719Y27081660D01*
X7547658Y27095675D01*
X7679257Y27198493D01*
X7686064Y27203811D01*
X7708514Y27229819D01*
X7811681Y27349340D01*
X7811682Y27349341D01*
X7815705Y27354002D01*
X7821905Y27364915D01*
X7868563Y27447049D01*
X7913706Y27526514D01*
X7976332Y27714775D01*
X7984300Y27777848D01*
X8000757Y27908112D01*
X8000758Y27908122D01*
X8001199Y27911615D01*
X8001595Y27940000D01*
X7982234Y28137458D01*
X7924889Y28327394D01*
X7915063Y28345874D01*
X7834638Y28497133D01*
X7834636Y28497136D01*
X7831744Y28502575D01*
X7827854Y28507345D01*
X7827851Y28507349D01*
X7729724Y28627664D01*
X7702170Y28693096D01*
X7714365Y28763037D01*
X7762438Y28815283D01*
X7827367Y28833300D01*
X8683624Y28833300D01*
X8751745Y28813298D01*
G37*
G04 #@! TD.AperFunction*
M02*
