G04 #@! TF.GenerationSoftware,KiCad,Pcbnew,(6.0.10-0)*
G04 #@! TF.CreationDate,2022-12-24T01:35:34+09:00*
G04 #@! TF.ProjectId,MEZZ180,4d455a5a-3138-4302-9e6b-696361645f70,A*
G04 #@! TF.SameCoordinates,PX5f5e100PY8f0d180*
G04 #@! TF.FileFunction,Copper,L1,Top*
G04 #@! TF.FilePolarity,Positive*
%FSLAX46Y46*%
G04 Gerber Fmt 4.6, Leading zero omitted, Abs format (unit mm)*
G04 Created by KiCad (PCBNEW (6.0.10-0)) date 2022-12-24 01:35:34*
%MOMM*%
%LPD*%
G01*
G04 APERTURE LIST*
G04 #@! TA.AperFunction,ComponentPad*
%ADD10C,1.600000*%
G04 #@! TD*
G04 #@! TA.AperFunction,ComponentPad*
%ADD11O,1.600000X1.600000*%
G04 #@! TD*
G04 #@! TA.AperFunction,ComponentPad*
%ADD12R,1.700000X1.700000*%
G04 #@! TD*
G04 #@! TA.AperFunction,ComponentPad*
%ADD13O,1.700000X1.700000*%
G04 #@! TD*
G04 #@! TA.AperFunction,ComponentPad*
%ADD14C,1.422400*%
G04 #@! TD*
G04 #@! TA.AperFunction,ComponentPad*
%ADD15R,1.422400X1.422400*%
G04 #@! TD*
G04 #@! TA.AperFunction,ViaPad*
%ADD16C,0.605000*%
G04 #@! TD*
G04 #@! TA.AperFunction,Conductor*
%ADD17C,0.152400*%
G04 #@! TD*
G04 #@! TA.AperFunction,Conductor*
%ADD18C,0.800000*%
G04 #@! TD*
G04 APERTURE END LIST*
D10*
X1905000Y11430000D03*
D11*
X1905000Y21590000D03*
D12*
X10795000Y52070000D03*
D13*
X10795000Y49530000D03*
X10795000Y46990000D03*
X10795000Y44450000D03*
X10795000Y41910000D03*
X10795000Y39370000D03*
X10795000Y36830000D03*
X10795000Y34290000D03*
X10795000Y31750000D03*
X10795000Y29210000D03*
X10795000Y26670000D03*
X10795000Y24130000D03*
X10795000Y21590000D03*
X10795000Y19050000D03*
X10795000Y16510000D03*
X10795000Y13970000D03*
X10795000Y11430000D03*
X10795000Y8890000D03*
X10795000Y6350000D03*
X10795000Y3810000D03*
D14*
X29845000Y22860000D03*
X32385000Y22860000D03*
X29845000Y20320000D03*
X32385000Y20320000D03*
X29845000Y17780000D03*
X32385000Y17780000D03*
X29845000Y15240000D03*
X32385000Y15240000D03*
X29845000Y12700000D03*
X27305000Y15240000D03*
X27305000Y12700000D03*
X24765000Y15240000D03*
X24765000Y12700000D03*
X22225000Y15240000D03*
X22225000Y12700000D03*
X19685000Y15240000D03*
X19685000Y12700000D03*
X17145000Y15240000D03*
X17145000Y12700000D03*
X14605000Y15240000D03*
X14605000Y12700000D03*
X12065000Y15240000D03*
X12065000Y12700000D03*
X9525000Y15240000D03*
X9525000Y12700000D03*
X6985000Y15240000D03*
X9525000Y17780000D03*
X6985000Y17780000D03*
X9525000Y20320000D03*
X6985000Y20320000D03*
X9525000Y22860000D03*
X6985000Y22860000D03*
X9525000Y25400000D03*
X6985000Y25400000D03*
X9525000Y27940000D03*
X6985000Y27940000D03*
X9525000Y30480000D03*
X6985000Y30480000D03*
X9525000Y33020000D03*
X6985000Y33020000D03*
X9525000Y35560000D03*
X6985000Y35560000D03*
X9525000Y38100000D03*
X12065000Y35560000D03*
X12065000Y38100000D03*
X14605000Y35560000D03*
X14605000Y38100000D03*
X17145000Y35560000D03*
X17145000Y38100000D03*
X19685000Y35560000D03*
X19685000Y38100000D03*
X22225000Y35560000D03*
X22225000Y38100000D03*
X24765000Y35560000D03*
X24765000Y38100000D03*
X27305000Y35560000D03*
X27305000Y38100000D03*
X29845000Y35560000D03*
X29845000Y38100000D03*
X32385000Y35560000D03*
X29845000Y33020000D03*
X32385000Y33020000D03*
X29845000Y30480000D03*
X32385000Y30480000D03*
X29845000Y27940000D03*
X32385000Y27940000D03*
X29845000Y25400000D03*
D15*
X32385000Y25400000D03*
D10*
X1905000Y27920000D03*
X1905000Y25420000D03*
D13*
X26035000Y3810000D03*
X26035000Y6350000D03*
X26035000Y8890000D03*
X26035000Y11430000D03*
X26035000Y13970000D03*
X26035000Y16510000D03*
X26035000Y19050000D03*
X26035000Y21590000D03*
X26035000Y24130000D03*
X26035000Y26670000D03*
X26035000Y29210000D03*
X26035000Y31750000D03*
X26035000Y34290000D03*
X26035000Y36830000D03*
X26035000Y39370000D03*
X26035000Y41910000D03*
X26035000Y44450000D03*
X26035000Y46990000D03*
X26035000Y49530000D03*
D12*
X26035000Y52070000D03*
D16*
X23622000Y39751000D03*
X20955000Y13970000D03*
X13335000Y13970000D03*
X27940000Y34290000D03*
X22225000Y24130000D03*
X13335000Y33655000D03*
X22225000Y33655000D03*
X13335000Y17145000D03*
X8890000Y1905000D03*
X27940000Y1905000D03*
X1270000Y41275000D03*
X35560000Y41275000D03*
X8890000Y53975000D03*
X27940000Y53975000D03*
X12427900Y27133200D03*
X8479700Y36826200D03*
D17*
X12844870Y38100000D02*
X12065000Y38100000D01*
X14470470Y39725600D02*
X12844870Y38100000D01*
X20448496Y39725600D02*
X14470470Y39725600D01*
X24651600Y48146600D02*
X24651600Y43928704D01*
X24651600Y43928704D02*
X20448496Y39725600D01*
X26035000Y49530000D02*
X24651600Y48146600D01*
X18110200Y36525200D02*
X17145000Y35560000D01*
X26035000Y41910000D02*
X24357104Y41910000D01*
X21132800Y37642800D02*
X20015200Y36525200D01*
X21132800Y38685696D02*
X21132800Y37642800D01*
X24357104Y41910000D02*
X21132800Y38685696D01*
X20015200Y36525200D02*
X18110200Y36525200D01*
X15875000Y36830000D02*
X14605000Y35560000D01*
X20828000Y37769052D02*
X19888948Y36830000D01*
X26035000Y46046000D02*
X27127300Y44953700D01*
X27127300Y43948700D02*
X26358600Y43180000D01*
X25196052Y43180000D02*
X20828000Y38811948D01*
X27127300Y44953700D02*
X27127300Y43948700D01*
X20828000Y38811948D02*
X20828000Y37769052D01*
X26358600Y43180000D02*
X25196052Y43180000D01*
X19888948Y36830000D02*
X15875000Y36830000D01*
X26035000Y46990000D02*
X26035000Y46046000D01*
X15621000Y39116000D02*
X14605000Y38100000D01*
X20701000Y39116000D02*
X15621000Y39116000D01*
X26035000Y44450000D02*
X20701000Y39116000D01*
X26035000Y51054000D02*
X26035000Y52070000D01*
X26290371Y50800000D02*
X26289000Y50800000D01*
X27113600Y49976771D02*
X26290371Y50800000D01*
X27113600Y49083229D02*
X27113600Y49976771D01*
X25971029Y48451400D02*
X26481771Y48451400D01*
X24956400Y47436771D02*
X25971029Y48451400D01*
X26289000Y50800000D02*
X26035000Y51054000D01*
X13005100Y36500100D02*
X13005100Y37829178D01*
X24956400Y43802452D02*
X24956400Y47436771D01*
X20574748Y39420800D02*
X24956400Y43802452D01*
X26481771Y48451400D02*
X27113600Y49083229D01*
X14596722Y39420800D02*
X20574748Y39420800D01*
X13005100Y37829178D02*
X14596722Y39420800D01*
X12065000Y35560000D02*
X13005100Y36500100D01*
X12130500Y13970000D02*
X10795000Y13970000D01*
X23483300Y20054300D02*
X19913600Y16484600D01*
X23483300Y37249352D02*
X23483300Y20054300D01*
X13005300Y15016300D02*
X13005300Y14844800D01*
X23825200Y38685571D02*
X23825200Y37591252D01*
X14473600Y16484600D02*
X13005300Y15016300D01*
X23825200Y37591252D02*
X23483300Y37249352D01*
X29845000Y38100000D02*
X27480200Y40464800D01*
X13005300Y14844800D02*
X12130500Y13970000D01*
X19913600Y16484600D02*
X14473600Y16484600D01*
X25604429Y40464800D02*
X23825200Y38685571D01*
X27480200Y40464800D02*
X25604429Y40464800D01*
X24460200Y34467800D02*
X24460200Y31297748D01*
X23825200Y37160200D02*
X23825200Y35102800D01*
X23825200Y35102800D02*
X24460200Y34467800D01*
X24765000Y38100000D02*
X23825200Y37160200D01*
X24460200Y31297748D02*
X24892000Y30865948D01*
X24892000Y30865948D02*
X24892000Y28827629D01*
X24892000Y28827629D02*
X26035000Y27684629D01*
X26035000Y27684629D02*
X26035000Y26670000D01*
X27401700Y11430000D02*
X28321000Y12349300D01*
X28321000Y12349300D02*
X28321000Y14489548D01*
X26035000Y11430000D02*
X27401700Y11430000D01*
X28321000Y14489548D02*
X28549600Y14718148D01*
X28549600Y14718148D02*
X28549600Y18162496D01*
X28549600Y18162496D02*
X28905200Y18518096D01*
X28905200Y18518096D02*
X28905200Y25789278D01*
X28905200Y25789278D02*
X29455722Y26339800D01*
X29455722Y26339800D02*
X29895800Y26339800D01*
X29895800Y26339800D02*
X31445200Y27889200D01*
X31445200Y27889200D02*
X31445200Y28397200D01*
X31445200Y28397200D02*
X32385000Y29337000D01*
X32385000Y29337000D02*
X32385000Y30480000D01*
X28604200Y25981892D02*
X28604200Y28257626D01*
X28244800Y14844400D02*
X28244800Y18288748D01*
X31089600Y29964470D02*
X31089600Y31724600D01*
X31089600Y31724600D02*
X32385000Y33020000D01*
X28244800Y18288748D02*
X28600400Y18644348D01*
X26035000Y13970000D02*
X27370400Y13970000D01*
X28600400Y18644348D02*
X28600400Y25978092D01*
X28600400Y25978092D02*
X28604200Y25981892D01*
X28604200Y28257626D02*
X29581974Y29235400D01*
X27370400Y13970000D02*
X28244800Y14844400D01*
X29581974Y29235400D02*
X30360530Y29235400D01*
X30360530Y29235400D02*
X31089600Y29964470D01*
X32385000Y35560000D02*
X31013100Y34188100D01*
X31013100Y34188100D02*
X29684022Y34188100D01*
X29684022Y34188100D02*
X28905200Y33409278D01*
X28905200Y33409278D02*
X28905200Y29971252D01*
X28905200Y29971252D02*
X27689800Y28755852D01*
X27689800Y28755852D02*
X27689800Y26360648D01*
X27689800Y26360648D02*
X27686000Y26356848D01*
X27686000Y26356848D02*
X27686000Y19023104D01*
X27686000Y19023104D02*
X26556296Y17893400D01*
X26556296Y17893400D02*
X25336348Y17893400D01*
X25336348Y17893400D02*
X23495000Y16052052D01*
X23495000Y16052052D02*
X23495000Y12640922D01*
X23495000Y12640922D02*
X22284078Y11430000D01*
X22284078Y11430000D02*
X10795000Y11430000D01*
X14605000Y15240000D02*
X15544800Y16179800D01*
X15544800Y16179800D02*
X18745200Y16179800D01*
X18745200Y16179800D02*
X19685000Y15240000D01*
X29845000Y35560000D02*
X29845000Y34780130D01*
X29845000Y34780130D02*
X28600400Y33535530D01*
X28600400Y33535530D02*
X28600400Y30097504D01*
X28600400Y30097504D02*
X27385000Y28882104D01*
X27385000Y28882104D02*
X27385000Y26486900D01*
X27385000Y26486900D02*
X27381200Y26483100D01*
X27381200Y26483100D02*
X27381200Y20904200D01*
X27381200Y20904200D02*
X26670000Y20193000D01*
X26670000Y20193000D02*
X25652629Y20193000D01*
X25652629Y20193000D02*
X24956400Y19496771D01*
X24956400Y19496771D02*
X24956400Y18098400D01*
X24956400Y18098400D02*
X23037800Y16179800D01*
X23037800Y16179800D02*
X20624800Y16179800D01*
X20624800Y16179800D02*
X19685000Y15240000D01*
D18*
X1905000Y25420000D02*
X3155000Y26670000D01*
X3155000Y26670000D02*
X8255000Y26670000D01*
X8255000Y26670000D02*
X9525000Y27940000D01*
D17*
X6985000Y35560000D02*
X7874000Y36449000D01*
X7874000Y36449000D02*
X7874000Y38227000D01*
X7874000Y38227000D02*
X7930730Y38283730D01*
X7930730Y38283730D02*
X7948600Y38283730D01*
X7948600Y38283730D02*
X8915400Y39250530D01*
X8915400Y39250530D02*
X8915400Y42448004D01*
X8915400Y42448004D02*
X9347200Y42879804D01*
X9347200Y42879804D02*
X9347200Y48082200D01*
X9347200Y48082200D02*
X10795000Y49530000D01*
X9525000Y35560000D02*
X9525000Y36536600D01*
X9220200Y39124278D02*
X9220200Y42321752D01*
X9220200Y42321752D02*
X9652000Y42753552D01*
X9525000Y36536600D02*
X8585200Y37476400D01*
X8585200Y37476400D02*
X8585200Y38489278D01*
X8585200Y38489278D02*
X9220200Y39124278D01*
X9652000Y42753552D02*
X9652000Y45847000D01*
X9652000Y45847000D02*
X10795000Y46990000D01*
X25462600Y17588600D02*
X26682548Y17588600D01*
X26035000Y9834000D02*
X23819700Y12049300D01*
X27994600Y26234396D02*
X27994600Y28629600D01*
X23819700Y12049300D02*
X23819700Y15945700D01*
X26035000Y8890000D02*
X26035000Y9834000D01*
X23819700Y15945700D02*
X25462600Y17588600D01*
X26682548Y17588600D02*
X27990800Y18896852D01*
X27994600Y28629600D02*
X29845000Y30480000D01*
X27990800Y18896852D02*
X27990800Y26230596D01*
X27990800Y26230596D02*
X27994600Y26234396D01*
X26035000Y16510000D02*
X28295600Y18770600D01*
X30234278Y29540200D02*
X30784800Y30090722D01*
X30784800Y32080200D02*
X29845000Y33020000D01*
X28295600Y26104344D02*
X28299400Y26108144D01*
X28295600Y18770600D02*
X28295600Y26104344D01*
X28299400Y26108144D02*
X28299400Y28383878D01*
X28299400Y28383878D02*
X29455722Y29540200D01*
X29455722Y29540200D02*
X30234278Y29540200D01*
X30784800Y30090722D02*
X30784800Y32080200D01*
X9525000Y17780000D02*
X11131500Y17780000D01*
X11131500Y17780000D02*
X12192000Y18840500D01*
X12192000Y18840500D02*
X12192000Y26897300D01*
X12192000Y26897300D02*
X12427900Y27133200D01*
X26035000Y29210000D02*
X26035000Y30154000D01*
X26035000Y30154000D02*
X24765000Y31424000D01*
X24765000Y31424000D02*
X24765000Y35560000D01*
X9525000Y20320000D02*
X11066600Y20320000D01*
X11066600Y20320000D02*
X11873900Y21127300D01*
X11873900Y21127300D02*
X11873900Y32244000D01*
X11873900Y32244000D02*
X10795000Y33322900D01*
X10795000Y33322900D02*
X10795000Y34290000D01*
X9402300Y21590000D02*
X10795000Y21590000D01*
X8573700Y20761400D02*
X9402300Y21590000D01*
X8573700Y13651300D02*
X8573700Y20761400D01*
X9525000Y12700000D02*
X8573700Y13651300D01*
X9459600Y24130000D02*
X10795000Y24130000D01*
X8584900Y23255300D02*
X9459600Y24130000D01*
X8584900Y21919900D02*
X8584900Y23255300D01*
X6985000Y20320000D02*
X8584900Y21919900D01*
X8479700Y34065300D02*
X8479700Y36826200D01*
X9525000Y33020000D02*
X8479700Y34065300D01*
X10930000Y50991100D02*
X10795000Y50991100D01*
X11873900Y50047200D02*
X10930000Y50991100D01*
X11873900Y43976600D02*
X11873900Y50047200D01*
X11224900Y43327600D02*
X11873900Y43976600D01*
X10657100Y43327600D02*
X11224900Y43327600D01*
X9525000Y42195500D02*
X10657100Y43327600D01*
X9525000Y38100000D02*
X9525000Y42195500D01*
X10795000Y52070000D02*
X10795000Y50991100D01*
X1905000Y25420000D02*
X1905000Y21590000D01*
D18*
X9525000Y27940000D02*
X10795000Y26670000D01*
D17*
X29845000Y35560000D02*
X27305000Y38100000D01*
G04 #@! TA.AperFunction,Conductor*
G36*
X28515931Y54979998D02*
G01*
X28536905Y54963095D01*
X28963095Y54536905D01*
X28997121Y54474593D01*
X29000000Y54447810D01*
X29000000Y42500000D01*
X29500000Y42000000D01*
X35947810Y42000000D01*
X36015931Y41979998D01*
X36036905Y41963095D01*
X36463095Y41536905D01*
X36497121Y41474593D01*
X36500000Y41447810D01*
X36500000Y9052190D01*
X36479998Y8984069D01*
X36463095Y8963095D01*
X36036905Y8536905D01*
X35974593Y8502879D01*
X35947810Y8500000D01*
X29500000Y8500000D01*
X29000000Y8000000D01*
X29000000Y1552190D01*
X28979998Y1484069D01*
X28963095Y1463095D01*
X28536905Y1036905D01*
X28474593Y1002879D01*
X28447810Y1000000D01*
X8552190Y1000000D01*
X8484069Y1020002D01*
X8463095Y1036905D01*
X8036905Y1463095D01*
X8002879Y1525407D01*
X8000000Y1552190D01*
X8000000Y7932432D01*
X7500000Y8500000D01*
X1052190Y8500000D01*
X984069Y8520002D01*
X963095Y8536905D01*
X536905Y8963095D01*
X502879Y9025407D01*
X500000Y9052190D01*
X500000Y11458931D01*
X800164Y11458931D01*
X813392Y11257106D01*
X833555Y11177714D01*
X861625Y11067188D01*
X863178Y11061072D01*
X947856Y10877393D01*
X951189Y10872677D01*
X1022968Y10771112D01*
X1064588Y10712220D01*
X1209466Y10571087D01*
X1377637Y10458718D01*
X1382940Y10456440D01*
X1382943Y10456438D01*
X1480350Y10414589D01*
X1563470Y10378878D01*
X1760740Y10334240D01*
X1766509Y10334013D01*
X1766512Y10334013D01*
X1840104Y10331122D01*
X1962842Y10326300D01*
X2049132Y10338811D01*
X2157286Y10354492D01*
X2157291Y10354493D01*
X2163007Y10355322D01*
X2168479Y10357180D01*
X2168481Y10357180D01*
X2349067Y10418481D01*
X2349069Y10418482D01*
X2354531Y10420336D01*
X2531001Y10519163D01*
X2546512Y10532063D01*
X2682073Y10644809D01*
X2686505Y10648495D01*
X2815837Y10803999D01*
X2914664Y10980469D01*
X2934556Y11039067D01*
X2977820Y11166519D01*
X2977820Y11166521D01*
X2979678Y11171993D01*
X2980507Y11177709D01*
X2980508Y11177714D01*
X3008167Y11368484D01*
X3008700Y11372158D01*
X3010215Y11430000D01*
X2991708Y11631409D01*
X2936807Y11826074D01*
X2847351Y12007473D01*
X2829079Y12031943D01*
X2729788Y12164909D01*
X2729787Y12164910D01*
X2726335Y12169533D01*
X2718687Y12176603D01*
X2582053Y12302906D01*
X2582051Y12302908D01*
X2577812Y12306826D01*
X2547794Y12325766D01*
X2411637Y12411675D01*
X2406757Y12414754D01*
X2218898Y12489702D01*
X2020526Y12529161D01*
X2014752Y12529237D01*
X2014748Y12529237D01*
X1912257Y12530578D01*
X1818286Y12531808D01*
X1812589Y12530829D01*
X1812588Y12530829D01*
X1624646Y12498535D01*
X1624645Y12498535D01*
X1618949Y12497556D01*
X1429193Y12427551D01*
X1255371Y12324138D01*
X1103305Y12190780D01*
X978089Y12031943D01*
X883914Y11852947D01*
X823937Y11659787D01*
X800164Y11458931D01*
X500000Y11458931D01*
X500000Y21618931D01*
X800164Y21618931D01*
X813392Y21417106D01*
X824065Y21375080D01*
X855506Y21251282D01*
X863178Y21221072D01*
X947856Y21037393D01*
X951189Y21032677D01*
X1052772Y20888940D01*
X1064588Y20872220D01*
X1068730Y20868185D01*
X1152932Y20786160D01*
X1209466Y20731087D01*
X1377637Y20618718D01*
X1382940Y20616440D01*
X1382943Y20616438D01*
X1471291Y20578481D01*
X1563470Y20538878D01*
X1760740Y20494240D01*
X1766509Y20494013D01*
X1766512Y20494013D01*
X1842683Y20491021D01*
X1962842Y20486300D01*
X2049132Y20498811D01*
X2157286Y20514492D01*
X2157291Y20514493D01*
X2163007Y20515322D01*
X2168479Y20517180D01*
X2168481Y20517180D01*
X2349067Y20578481D01*
X2349069Y20578482D01*
X2354531Y20580336D01*
X2531001Y20679163D01*
X2546512Y20692063D01*
X2682073Y20804809D01*
X2686505Y20808495D01*
X2815837Y20963999D01*
X2914664Y21140469D01*
X2934556Y21199067D01*
X2977820Y21326519D01*
X2977820Y21326521D01*
X2979678Y21331993D01*
X2980507Y21337709D01*
X2980508Y21337714D01*
X3000894Y21478320D01*
X3008700Y21532158D01*
X3010215Y21590000D01*
X2991708Y21791409D01*
X2968970Y21872034D01*
X2938376Y21980510D01*
X2936807Y21986074D01*
X2847351Y22167473D01*
X2829079Y22191943D01*
X2729788Y22324909D01*
X2729787Y22324910D01*
X2726335Y22329533D01*
X2703350Y22350780D01*
X2582053Y22462906D01*
X2582051Y22462908D01*
X2577812Y22466826D01*
X2572929Y22469907D01*
X2411637Y22571675D01*
X2406757Y22574754D01*
X2361009Y22593006D01*
X2305151Y22636825D01*
X2281700Y22710035D01*
X2281700Y24296663D01*
X2301702Y24364784D01*
X2354613Y24410190D01*
X2354531Y24410336D01*
X2355258Y24410743D01*
X2508827Y24496745D01*
X2525964Y24506342D01*
X2525965Y24506343D01*
X2531001Y24509163D01*
X2593433Y24561087D01*
X2682073Y24634809D01*
X2686505Y24638495D01*
X2815837Y24793999D01*
X2823315Y24807351D01*
X2878135Y24905241D01*
X2914664Y24970469D01*
X2919011Y24983273D01*
X2977820Y25156519D01*
X2977820Y25156521D01*
X2979678Y25161993D01*
X2980507Y25167709D01*
X2980508Y25167714D01*
X3001300Y25311119D01*
X3008700Y25362158D01*
X3010215Y25420000D01*
X3008087Y25443165D01*
X3005981Y25466075D01*
X3019665Y25535740D01*
X3042357Y25566701D01*
X3408253Y25932596D01*
X3470565Y25966621D01*
X3497348Y25969500D01*
X5932620Y25969500D01*
X6000741Y25949498D01*
X6047234Y25895842D01*
X6057338Y25825568D01*
X6050315Y25800573D01*
X6050612Y25800479D01*
X5990620Y25611362D01*
X5968504Y25414194D01*
X5969020Y25408050D01*
X5983106Y25240306D01*
X5985106Y25216485D01*
X6006142Y25143124D01*
X6032538Y25051072D01*
X6039794Y25025766D01*
X6042610Y25020287D01*
X6125486Y24859028D01*
X6130484Y24849302D01*
X6134307Y24844478D01*
X6134310Y24844474D01*
X6217054Y24740078D01*
X6253723Y24693814D01*
X6258417Y24689819D01*
X6396661Y24572164D01*
X6404815Y24565224D01*
X6578007Y24468430D01*
X6766701Y24407120D01*
X6963710Y24383628D01*
X6969845Y24384100D01*
X6969847Y24384100D01*
X7155388Y24398376D01*
X7155392Y24398377D01*
X7161530Y24398849D01*
X7167462Y24400505D01*
X7167466Y24400506D01*
X7292473Y24435409D01*
X7352626Y24452204D01*
X7529719Y24541660D01*
X7554585Y24561087D01*
X7648943Y24634809D01*
X7686064Y24663811D01*
X7708514Y24689819D01*
X7811681Y24809340D01*
X7811682Y24809341D01*
X7815705Y24814002D01*
X7819113Y24820000D01*
X7910659Y24981151D01*
X7913706Y24986514D01*
X7976332Y25174775D01*
X7984300Y25237848D01*
X8000757Y25368112D01*
X8000758Y25368122D01*
X8001199Y25371615D01*
X8001595Y25400000D01*
X7982234Y25597458D01*
X7924889Y25787394D01*
X7921995Y25792836D01*
X7920904Y25795484D01*
X7913437Y25866087D01*
X7945327Y25929519D01*
X8006447Y25965640D01*
X8037396Y25969500D01*
X8226359Y25969500D01*
X8234929Y25969208D01*
X8259307Y25967546D01*
X8325910Y25942957D01*
X8368645Y25886263D01*
X8372443Y25809226D01*
X8321161Y25617843D01*
X8319257Y25607043D01*
X8301622Y25405475D01*
X8301622Y25394525D01*
X8319257Y25192957D01*
X8321159Y25182168D01*
X8373528Y24986727D01*
X8377276Y24976431D01*
X8462783Y24793059D01*
X8468266Y24783564D01*
X8491269Y24750712D01*
X8501748Y24742336D01*
X8515194Y24749404D01*
X9435905Y25670115D01*
X9498217Y25704141D01*
X9569032Y25699076D01*
X9614095Y25670115D01*
X9795115Y25489095D01*
X9829141Y25426783D01*
X9824076Y25355968D01*
X9795115Y25310905D01*
X8873682Y24389472D01*
X8867252Y24377698D01*
X8876548Y24365683D01*
X8908570Y24343261D01*
X8913166Y24340607D01*
X8962159Y24289223D01*
X8975593Y24219509D01*
X8949205Y24153599D01*
X8939261Y24142396D01*
X8356450Y23559585D01*
X8338073Y23544743D01*
X8336623Y23543424D01*
X8327870Y23537772D01*
X8321423Y23529594D01*
X8321421Y23529592D01*
X8307267Y23511637D01*
X8303361Y23507242D01*
X8303438Y23507177D01*
X8300085Y23503220D01*
X8296403Y23499538D01*
X8293380Y23495307D01*
X8285277Y23483967D01*
X8281708Y23479214D01*
X8256679Y23447466D01*
X8256677Y23447463D01*
X8250231Y23439286D01*
X8247220Y23430713D01*
X8241935Y23423317D01*
X8238951Y23413339D01*
X8227361Y23374585D01*
X8225526Y23368938D01*
X8211305Y23328444D01*
X8211304Y23328438D01*
X8208678Y23320961D01*
X8208200Y23315442D01*
X8208200Y23312727D01*
X8208088Y23310141D01*
X8208046Y23310002D01*
X8207895Y23310008D01*
X8207854Y23309359D01*
X8206002Y23303165D01*
X8206411Y23292759D01*
X8208103Y23249697D01*
X8208200Y23244750D01*
X8208200Y23162292D01*
X8188198Y23094171D01*
X8134542Y23047678D01*
X8064268Y23037574D01*
X7999688Y23067068D01*
X7961578Y23125874D01*
X7926670Y23241495D01*
X7924889Y23247394D01*
X7889291Y23314344D01*
X7834638Y23417133D01*
X7834636Y23417136D01*
X7831744Y23422575D01*
X7827854Y23427345D01*
X7827851Y23427349D01*
X7710241Y23571553D01*
X7710238Y23571556D01*
X7706346Y23576328D01*
X7553473Y23702795D01*
X7548054Y23705725D01*
X7548051Y23705727D01*
X7384366Y23794231D01*
X7384361Y23794233D01*
X7378946Y23797161D01*
X7189415Y23855831D01*
X7183290Y23856475D01*
X7183289Y23856475D01*
X6998225Y23875926D01*
X6998224Y23875926D01*
X6992097Y23876570D01*
X6909572Y23869060D01*
X6800648Y23859147D01*
X6800645Y23859146D01*
X6794509Y23858588D01*
X6788603Y23856850D01*
X6788599Y23856849D01*
X6675681Y23823615D01*
X6604177Y23802570D01*
X6428350Y23710650D01*
X6273726Y23586329D01*
X6146194Y23434343D01*
X6143227Y23428945D01*
X6143223Y23428940D01*
X6068358Y23292759D01*
X6050612Y23260479D01*
X6048751Y23254612D01*
X6048750Y23254610D01*
X6045622Y23244750D01*
X5990620Y23071362D01*
X5968504Y22874194D01*
X5969020Y22868050D01*
X5982623Y22706059D01*
X5985106Y22676485D01*
X6002331Y22616416D01*
X6029705Y22520952D01*
X6039794Y22485766D01*
X6071533Y22424008D01*
X6111502Y22346238D01*
X6130484Y22309302D01*
X6134307Y22304478D01*
X6134310Y22304474D01*
X6205879Y22214178D01*
X6253723Y22153814D01*
X6258417Y22149819D01*
X6396661Y22032164D01*
X6404815Y22025224D01*
X6578007Y21928430D01*
X6766701Y21867120D01*
X6963710Y21843628D01*
X6969845Y21844100D01*
X6969847Y21844100D01*
X7155388Y21858376D01*
X7155392Y21858377D01*
X7161530Y21858849D01*
X7167462Y21860505D01*
X7167466Y21860506D01*
X7279429Y21891767D01*
X7352626Y21912204D01*
X7529719Y22001660D01*
X7547658Y22015675D01*
X7681214Y22120022D01*
X7686064Y22123811D01*
X7708514Y22149819D01*
X7811681Y22269340D01*
X7811682Y22269341D01*
X7815705Y22274002D01*
X7913706Y22446514D01*
X7949412Y22553849D01*
X7962642Y22593621D01*
X8003123Y22651945D01*
X8068711Y22679125D01*
X8138582Y22666530D01*
X8190552Y22618160D01*
X8208200Y22553849D01*
X8208200Y22128125D01*
X8188198Y22060004D01*
X8171295Y22039030D01*
X7440695Y21308430D01*
X7378383Y21274404D01*
X7314341Y21277160D01*
X7195302Y21314009D01*
X7195299Y21314010D01*
X7189415Y21315831D01*
X7183290Y21316475D01*
X7183289Y21316475D01*
X6998225Y21335926D01*
X6998224Y21335926D01*
X6992097Y21336570D01*
X6909572Y21329060D01*
X6800648Y21319147D01*
X6800645Y21319146D01*
X6794509Y21318588D01*
X6788603Y21316850D01*
X6788599Y21316849D01*
X6675681Y21283615D01*
X6604177Y21262570D01*
X6428350Y21170650D01*
X6273726Y21046329D01*
X6146194Y20894343D01*
X6143227Y20888945D01*
X6143223Y20888940D01*
X6086720Y20786160D01*
X6050612Y20720479D01*
X6048751Y20714612D01*
X6048750Y20714610D01*
X6037506Y20679163D01*
X5990620Y20531362D01*
X5968504Y20334194D01*
X5969020Y20328050D01*
X5983145Y20159842D01*
X5985106Y20136485D01*
X5996538Y20096617D01*
X6035206Y19961767D01*
X6039794Y19945766D01*
X6042610Y19940287D01*
X6113496Y19802358D01*
X6130484Y19769302D01*
X6134307Y19764478D01*
X6134310Y19764474D01*
X6226206Y19648531D01*
X6253723Y19613814D01*
X6258417Y19609819D01*
X6339829Y19540532D01*
X6404815Y19485224D01*
X6410193Y19482218D01*
X6410195Y19482217D01*
X6440193Y19465452D01*
X6578007Y19388430D01*
X6766701Y19327120D01*
X6963710Y19303628D01*
X6969845Y19304100D01*
X6969847Y19304100D01*
X7155388Y19318376D01*
X7155392Y19318377D01*
X7161530Y19318849D01*
X7167462Y19320505D01*
X7167466Y19320506D01*
X7257078Y19345527D01*
X7352626Y19372204D01*
X7529719Y19461660D01*
X7544091Y19472888D01*
X7645330Y19551986D01*
X7686064Y19583811D01*
X7706761Y19607788D01*
X7811681Y19729340D01*
X7811682Y19729341D01*
X7815705Y19734002D01*
X7824979Y19750326D01*
X7879984Y19847153D01*
X7913706Y19906514D01*
X7951442Y20019953D01*
X7991923Y20078277D01*
X8057511Y20105457D01*
X8127382Y20092862D01*
X8179352Y20044492D01*
X8197000Y19980181D01*
X8197000Y18119388D01*
X8176998Y18051267D01*
X8123342Y18004774D01*
X8053068Y17994670D01*
X7988488Y18024164D01*
X7950378Y18082970D01*
X7926670Y18161495D01*
X7924889Y18167394D01*
X7879386Y18252973D01*
X7834638Y18337133D01*
X7834636Y18337136D01*
X7831744Y18342575D01*
X7827854Y18347345D01*
X7827851Y18347349D01*
X7710241Y18491553D01*
X7710238Y18491556D01*
X7706346Y18496328D01*
X7680882Y18517394D01*
X7594856Y18588560D01*
X7553473Y18622795D01*
X7548054Y18625725D01*
X7548051Y18625727D01*
X7384366Y18714231D01*
X7384361Y18714233D01*
X7378946Y18717161D01*
X7189415Y18775831D01*
X7183290Y18776475D01*
X7183289Y18776475D01*
X6998225Y18795926D01*
X6998224Y18795926D01*
X6992097Y18796570D01*
X6909572Y18789060D01*
X6800648Y18779147D01*
X6800645Y18779146D01*
X6794509Y18778588D01*
X6788603Y18776850D01*
X6788599Y18776849D01*
X6650345Y18736158D01*
X6604177Y18722570D01*
X6428350Y18630650D01*
X6423550Y18626790D01*
X6423549Y18626790D01*
X6289252Y18518812D01*
X6273726Y18506329D01*
X6146194Y18354343D01*
X6143227Y18348945D01*
X6143223Y18348940D01*
X6082511Y18238503D01*
X6050612Y18180479D01*
X6048751Y18174612D01*
X6048750Y18174610D01*
X6031233Y18119388D01*
X5990620Y17991362D01*
X5968504Y17794194D01*
X5985106Y17596485D01*
X5997066Y17554775D01*
X6029926Y17440181D01*
X6039794Y17405766D01*
X6130484Y17229302D01*
X6134307Y17224478D01*
X6134310Y17224474D01*
X6226206Y17108531D01*
X6253723Y17073814D01*
X6404815Y16945224D01*
X6410193Y16942218D01*
X6410195Y16942217D01*
X6440193Y16925452D01*
X6578007Y16848430D01*
X6766701Y16787120D01*
X6963710Y16763628D01*
X6969845Y16764100D01*
X6969847Y16764100D01*
X7155388Y16778376D01*
X7155392Y16778377D01*
X7161530Y16778849D01*
X7167462Y16780505D01*
X7167466Y16780506D01*
X7257078Y16805527D01*
X7352626Y16832204D01*
X7529719Y16921660D01*
X7539432Y16929248D01*
X7681214Y17040022D01*
X7686064Y17043811D01*
X7708514Y17069819D01*
X7811681Y17189340D01*
X7811682Y17189341D01*
X7815705Y17194002D01*
X7913706Y17366514D01*
X7951442Y17479953D01*
X7991923Y17538277D01*
X8057511Y17565457D01*
X8127382Y17552862D01*
X8179352Y17504492D01*
X8197000Y17440181D01*
X8197000Y15579388D01*
X8176998Y15511267D01*
X8123342Y15464774D01*
X8053068Y15454670D01*
X7988488Y15484164D01*
X7950378Y15542970D01*
X7926670Y15621495D01*
X7924889Y15627394D01*
X7921052Y15634610D01*
X7834638Y15797133D01*
X7834636Y15797136D01*
X7831744Y15802575D01*
X7827854Y15807345D01*
X7827851Y15807349D01*
X7710241Y15951553D01*
X7710238Y15951556D01*
X7706346Y15956328D01*
X7553473Y16082795D01*
X7548054Y16085725D01*
X7548051Y16085727D01*
X7384366Y16174231D01*
X7384361Y16174233D01*
X7378946Y16177161D01*
X7189415Y16235831D01*
X7183290Y16236475D01*
X7183289Y16236475D01*
X6998225Y16255926D01*
X6998224Y16255926D01*
X6992097Y16256570D01*
X6909572Y16249060D01*
X6800648Y16239147D01*
X6800645Y16239146D01*
X6794509Y16238588D01*
X6788603Y16236850D01*
X6788599Y16236849D01*
X6650345Y16196158D01*
X6604177Y16182570D01*
X6428350Y16090650D01*
X6273726Y15966329D01*
X6146194Y15814343D01*
X6143227Y15808945D01*
X6143223Y15808940D01*
X6097800Y15726315D01*
X6050612Y15640479D01*
X6048751Y15634612D01*
X6048750Y15634610D01*
X6046461Y15627394D01*
X5990620Y15451362D01*
X5968504Y15254194D01*
X5985106Y15056485D01*
X5997066Y15014775D01*
X6030277Y14898957D01*
X6039794Y14865766D01*
X6042610Y14860287D01*
X6110414Y14728355D01*
X6130484Y14689302D01*
X6134307Y14684478D01*
X6134310Y14684474D01*
X6231123Y14562328D01*
X6253723Y14533814D01*
X6258417Y14529819D01*
X6324110Y14473910D01*
X6404815Y14405224D01*
X6410193Y14402218D01*
X6410195Y14402217D01*
X6440193Y14385452D01*
X6578007Y14308430D01*
X6766701Y14247120D01*
X6963710Y14223628D01*
X6969845Y14224100D01*
X6969847Y14224100D01*
X7155388Y14238376D01*
X7155392Y14238377D01*
X7161530Y14238849D01*
X7167462Y14240505D01*
X7167466Y14240506D01*
X7257078Y14265526D01*
X7352626Y14292204D01*
X7529719Y14381660D01*
X7547644Y14395664D01*
X7653208Y14478141D01*
X7686064Y14503811D01*
X7705202Y14525982D01*
X7811681Y14649340D01*
X7811682Y14649341D01*
X7815705Y14654002D01*
X7824954Y14670282D01*
X7890552Y14785756D01*
X7913706Y14826514D01*
X7951442Y14939953D01*
X7991923Y14998277D01*
X8057511Y15025457D01*
X8127382Y15012862D01*
X8179352Y14964492D01*
X8197000Y14900181D01*
X8197000Y13704928D01*
X8194499Y13681428D01*
X8194407Y13679475D01*
X8192214Y13669290D01*
X8195988Y13637407D01*
X8196126Y13636243D01*
X8196472Y13630376D01*
X8196572Y13630384D01*
X8197000Y13625207D01*
X8197000Y13620004D01*
X8200018Y13601874D01*
X8200143Y13601121D01*
X8200978Y13595250D01*
X8206956Y13544751D01*
X8210888Y13536562D01*
X8212381Y13527593D01*
X8217324Y13518433D01*
X8236539Y13482822D01*
X8239235Y13477530D01*
X8257811Y13438844D01*
X8257813Y13438840D01*
X8261242Y13431700D01*
X8264806Y13427460D01*
X8266737Y13425529D01*
X8268475Y13423635D01*
X8268542Y13423511D01*
X8268428Y13423407D01*
X8268865Y13422912D01*
X8271933Y13417225D01*
X8279576Y13410160D01*
X8311239Y13380891D01*
X8314805Y13377461D01*
X8536724Y13155542D01*
X8570750Y13093230D01*
X8567731Y13028350D01*
X8530620Y12911362D01*
X8508504Y12714194D01*
X8509020Y12708050D01*
X8524042Y12529161D01*
X8525106Y12516485D01*
X8537066Y12474775D01*
X8572793Y12350183D01*
X8579794Y12325766D01*
X8596076Y12294085D01*
X8659161Y12171335D01*
X8670484Y12149302D01*
X8674307Y12144478D01*
X8674310Y12144474D01*
X8779230Y12012100D01*
X8793723Y11993814D01*
X8798417Y11989819D01*
X8927033Y11880358D01*
X8944815Y11865224D01*
X9118007Y11768430D01*
X9306701Y11707120D01*
X9503710Y11683628D01*
X9509845Y11684100D01*
X9509847Y11684100D01*
X9515095Y11684504D01*
X9584549Y11669787D01*
X9635021Y11619856D01*
X9649888Y11544066D01*
X9639967Y11460246D01*
X9653796Y11249251D01*
X9655217Y11243655D01*
X9655218Y11243650D01*
X9703696Y11052772D01*
X9705845Y11044310D01*
X9708262Y11039067D01*
X9782795Y10877393D01*
X9794369Y10852286D01*
X9916405Y10679609D01*
X10067865Y10532063D01*
X10072661Y10528858D01*
X10072664Y10528856D01*
X10215936Y10433125D01*
X10243677Y10414589D01*
X10248985Y10412308D01*
X10248986Y10412308D01*
X10432650Y10333400D01*
X10432653Y10333399D01*
X10437953Y10331122D01*
X10443582Y10329848D01*
X10443583Y10329848D01*
X10638550Y10285731D01*
X10638553Y10285731D01*
X10644186Y10284456D01*
X10649958Y10284229D01*
X10655687Y10283475D01*
X10655327Y10280743D01*
X10711604Y10261784D01*
X10755950Y10206341D01*
X10763282Y10135724D01*
X10731271Y10072353D01*
X10670081Y10036349D01*
X10660704Y10034368D01*
X10501650Y10007038D01*
X10501649Y10007038D01*
X10495953Y10006059D01*
X10297575Y9932873D01*
X10292614Y9929921D01*
X10292613Y9929921D01*
X10275089Y9919495D01*
X10115856Y9824762D01*
X9956881Y9685345D01*
X9825976Y9519292D01*
X9823287Y9514181D01*
X9823285Y9514178D01*
X9809792Y9488531D01*
X9727523Y9332164D01*
X9664820Y9130227D01*
X9639967Y8920246D01*
X9653796Y8709251D01*
X9655217Y8703655D01*
X9655218Y8703650D01*
X9677784Y8614800D01*
X9705845Y8504310D01*
X9794369Y8312286D01*
X9916405Y8139609D01*
X10067865Y7992063D01*
X10072661Y7988858D01*
X10072664Y7988856D01*
X10157109Y7932432D01*
X10243677Y7874589D01*
X10248985Y7872308D01*
X10248986Y7872308D01*
X10432650Y7793400D01*
X10432653Y7793399D01*
X10437953Y7791122D01*
X10443582Y7789848D01*
X10443583Y7789848D01*
X10638550Y7745731D01*
X10638553Y7745731D01*
X10644186Y7744456D01*
X10649958Y7744229D01*
X10655687Y7743475D01*
X10655327Y7740743D01*
X10711604Y7721784D01*
X10755950Y7666341D01*
X10763282Y7595724D01*
X10731271Y7532353D01*
X10670081Y7496349D01*
X10660704Y7494368D01*
X10501650Y7467038D01*
X10501649Y7467038D01*
X10495953Y7466059D01*
X10297575Y7392873D01*
X10292614Y7389921D01*
X10292613Y7389921D01*
X10275089Y7379495D01*
X10115856Y7284762D01*
X9956881Y7145345D01*
X9825976Y6979292D01*
X9823287Y6974181D01*
X9823285Y6974178D01*
X9809792Y6948531D01*
X9727523Y6792164D01*
X9664820Y6590227D01*
X9639967Y6380246D01*
X9653796Y6169251D01*
X9655217Y6163655D01*
X9655218Y6163650D01*
X9677784Y6074800D01*
X9705845Y5964310D01*
X9794369Y5772286D01*
X9916405Y5599609D01*
X10067865Y5452063D01*
X10072661Y5448858D01*
X10072664Y5448856D01*
X10215936Y5353125D01*
X10243677Y5334589D01*
X10248985Y5332308D01*
X10248986Y5332308D01*
X10432650Y5253400D01*
X10432653Y5253399D01*
X10437953Y5251122D01*
X10443582Y5249848D01*
X10443583Y5249848D01*
X10638550Y5205731D01*
X10638553Y5205731D01*
X10644186Y5204456D01*
X10649958Y5204229D01*
X10655687Y5203475D01*
X10655327Y5200743D01*
X10711604Y5181784D01*
X10755950Y5126341D01*
X10763282Y5055724D01*
X10731271Y4992353D01*
X10670081Y4956349D01*
X10660704Y4954368D01*
X10501650Y4927038D01*
X10501649Y4927038D01*
X10495953Y4926059D01*
X10297575Y4852873D01*
X10292614Y4849921D01*
X10292613Y4849921D01*
X10275089Y4839495D01*
X10115856Y4744762D01*
X9956881Y4605345D01*
X9825976Y4439292D01*
X9823287Y4434181D01*
X9823285Y4434178D01*
X9809792Y4408531D01*
X9727523Y4252164D01*
X9664820Y4050227D01*
X9639967Y3840246D01*
X9653796Y3629251D01*
X9655217Y3623655D01*
X9655218Y3623650D01*
X9677784Y3534800D01*
X9705845Y3424310D01*
X9794369Y3232286D01*
X9916405Y3059609D01*
X10067865Y2912063D01*
X10072661Y2908858D01*
X10072664Y2908856D01*
X10215936Y2813125D01*
X10243677Y2794589D01*
X10248985Y2792308D01*
X10248986Y2792308D01*
X10432650Y2713400D01*
X10432653Y2713399D01*
X10437953Y2711122D01*
X10443582Y2709848D01*
X10443583Y2709848D01*
X10638550Y2665731D01*
X10638553Y2665731D01*
X10644186Y2664456D01*
X10649957Y2664229D01*
X10649959Y2664229D01*
X10711989Y2661792D01*
X10855470Y2656154D01*
X10861179Y2656982D01*
X10861183Y2656982D01*
X11059015Y2685667D01*
X11059019Y2685668D01*
X11064730Y2686496D01*
X11143987Y2713400D01*
X11259483Y2752605D01*
X11259488Y2752607D01*
X11264955Y2754463D01*
X11269998Y2757287D01*
X11444395Y2854954D01*
X11444399Y2854957D01*
X11449442Y2857781D01*
X11612012Y2992988D01*
X11747219Y3155558D01*
X11750043Y3160601D01*
X11750046Y3160605D01*
X11847713Y3335002D01*
X11847714Y3335004D01*
X11850537Y3340045D01*
X11852393Y3345512D01*
X11852395Y3345517D01*
X11916647Y3534800D01*
X11918504Y3540270D01*
X11948846Y3749530D01*
X11950429Y3810000D01*
X11931081Y4020560D01*
X11873686Y4224069D01*
X11862553Y4246646D01*
X11782719Y4408531D01*
X11780165Y4413710D01*
X11653651Y4583133D01*
X11498381Y4726663D01*
X11319554Y4839495D01*
X11123160Y4917848D01*
X11117503Y4918973D01*
X11117497Y4918975D01*
X10920234Y4958212D01*
X10857324Y4991119D01*
X10822192Y5052814D01*
X10825992Y5123709D01*
X10867517Y5181295D01*
X10926734Y5206487D01*
X11059015Y5225667D01*
X11059019Y5225668D01*
X11064730Y5226496D01*
X11143987Y5253400D01*
X11259483Y5292605D01*
X11259488Y5292607D01*
X11264955Y5294463D01*
X11269998Y5297287D01*
X11444395Y5394954D01*
X11444399Y5394957D01*
X11449442Y5397781D01*
X11612012Y5532988D01*
X11747219Y5695558D01*
X11750043Y5700601D01*
X11750046Y5700605D01*
X11847713Y5875002D01*
X11847714Y5875004D01*
X11850537Y5880045D01*
X11852393Y5885512D01*
X11852395Y5885517D01*
X11916647Y6074800D01*
X11918504Y6080270D01*
X11948846Y6289530D01*
X11950429Y6350000D01*
X11931081Y6560560D01*
X11873686Y6764069D01*
X11862553Y6786646D01*
X11782719Y6948531D01*
X11780165Y6953710D01*
X11653651Y7123133D01*
X11498381Y7266663D01*
X11319554Y7379495D01*
X11123160Y7457848D01*
X11117503Y7458973D01*
X11117497Y7458975D01*
X10920234Y7498212D01*
X10857324Y7531119D01*
X10822192Y7592814D01*
X10825992Y7663709D01*
X10867517Y7721295D01*
X10926734Y7746487D01*
X11059015Y7765667D01*
X11059019Y7765668D01*
X11064730Y7766496D01*
X11143987Y7793400D01*
X11259483Y7832605D01*
X11259488Y7832607D01*
X11264955Y7834463D01*
X11282083Y7844055D01*
X11444395Y7934954D01*
X11444399Y7934957D01*
X11449442Y7937781D01*
X11612012Y8072988D01*
X11747219Y8235558D01*
X11750043Y8240601D01*
X11750046Y8240605D01*
X11847713Y8415002D01*
X11847714Y8415004D01*
X11850537Y8420045D01*
X11852393Y8425512D01*
X11852395Y8425517D01*
X11916647Y8614800D01*
X11918504Y8620270D01*
X11948846Y8829530D01*
X11950429Y8890000D01*
X11931081Y9100560D01*
X11873686Y9304069D01*
X11862553Y9326646D01*
X11782719Y9488531D01*
X11780165Y9493710D01*
X11653651Y9663133D01*
X11498381Y9806663D01*
X11414667Y9859483D01*
X11324434Y9916416D01*
X11324433Y9916416D01*
X11319554Y9919495D01*
X11123160Y9997848D01*
X11117503Y9998973D01*
X11117497Y9998975D01*
X10920234Y10038212D01*
X10857324Y10071119D01*
X10822192Y10132814D01*
X10825992Y10203709D01*
X10867517Y10261295D01*
X10926734Y10286487D01*
X11059015Y10305667D01*
X11059019Y10305668D01*
X11064730Y10306496D01*
X11145793Y10334013D01*
X11259483Y10372605D01*
X11259488Y10372607D01*
X11264955Y10374463D01*
X11276910Y10381158D01*
X11444395Y10474954D01*
X11444399Y10474957D01*
X11449442Y10477781D01*
X11612012Y10612988D01*
X11747219Y10775558D01*
X11750043Y10780601D01*
X11750046Y10780605D01*
X11847714Y10955004D01*
X11847714Y10955005D01*
X11850537Y10960045D01*
X11853169Y10967799D01*
X11853829Y10968737D01*
X11854745Y10970795D01*
X11855149Y10970615D01*
X11894005Y11025876D01*
X11959758Y11052656D01*
X11972483Y11053300D01*
X22230450Y11053300D01*
X22253950Y11050799D01*
X22255903Y11050707D01*
X22266088Y11048514D01*
X22299138Y11052426D01*
X22305002Y11052772D01*
X22304994Y11052872D01*
X22310171Y11053300D01*
X22315374Y11053300D01*
X22334264Y11056444D01*
X22340128Y11057278D01*
X22380287Y11062032D01*
X22390627Y11063256D01*
X22398816Y11067188D01*
X22407785Y11068681D01*
X22452557Y11092839D01*
X22457848Y11095535D01*
X22496534Y11114111D01*
X22496538Y11114113D01*
X22503678Y11117542D01*
X22507918Y11121106D01*
X22509849Y11123037D01*
X22511743Y11124775D01*
X22511867Y11124842D01*
X22511971Y11124728D01*
X22512466Y11125165D01*
X22518153Y11128233D01*
X22554475Y11167526D01*
X22557905Y11171093D01*
X23287209Y11900396D01*
X23349521Y11934421D01*
X23420337Y11929356D01*
X23477172Y11886809D01*
X23489888Y11865840D01*
X23503810Y11836846D01*
X23503813Y11836842D01*
X23507242Y11829700D01*
X23510806Y11825460D01*
X23512737Y11823529D01*
X23514475Y11821635D01*
X23514542Y11821511D01*
X23514428Y11821407D01*
X23514865Y11820912D01*
X23517933Y11815225D01*
X23525576Y11808160D01*
X23557239Y11778891D01*
X23560805Y11775461D01*
X25343654Y9992611D01*
X25377680Y9930299D01*
X25372615Y9859483D01*
X25337638Y9808785D01*
X25196881Y9685345D01*
X25065976Y9519292D01*
X25063287Y9514181D01*
X25063285Y9514178D01*
X25049792Y9488531D01*
X24967523Y9332164D01*
X24904820Y9130227D01*
X24879967Y8920246D01*
X24893796Y8709251D01*
X24895217Y8703655D01*
X24895218Y8703650D01*
X24917784Y8614800D01*
X24945845Y8504310D01*
X25034369Y8312286D01*
X25156405Y8139609D01*
X25307865Y7992063D01*
X25312661Y7988858D01*
X25312664Y7988856D01*
X25397109Y7932432D01*
X25483677Y7874589D01*
X25488985Y7872308D01*
X25488986Y7872308D01*
X25672650Y7793400D01*
X25672653Y7793399D01*
X25677953Y7791122D01*
X25683582Y7789848D01*
X25683583Y7789848D01*
X25878550Y7745731D01*
X25878553Y7745731D01*
X25884186Y7744456D01*
X25889958Y7744229D01*
X25895687Y7743475D01*
X25895327Y7740743D01*
X25951604Y7721784D01*
X25995950Y7666341D01*
X26003282Y7595724D01*
X25971271Y7532353D01*
X25910081Y7496349D01*
X25900704Y7494368D01*
X25741650Y7467038D01*
X25741649Y7467038D01*
X25735953Y7466059D01*
X25537575Y7392873D01*
X25532614Y7389921D01*
X25532613Y7389921D01*
X25515089Y7379495D01*
X25355856Y7284762D01*
X25196881Y7145345D01*
X25065976Y6979292D01*
X25063287Y6974181D01*
X25063285Y6974178D01*
X25049792Y6948531D01*
X24967523Y6792164D01*
X24904820Y6590227D01*
X24879967Y6380246D01*
X24893796Y6169251D01*
X24895217Y6163655D01*
X24895218Y6163650D01*
X24917784Y6074800D01*
X24945845Y5964310D01*
X25034369Y5772286D01*
X25156405Y5599609D01*
X25307865Y5452063D01*
X25312661Y5448858D01*
X25312664Y5448856D01*
X25455936Y5353125D01*
X25483677Y5334589D01*
X25488985Y5332308D01*
X25488986Y5332308D01*
X25672650Y5253400D01*
X25672653Y5253399D01*
X25677953Y5251122D01*
X25683582Y5249848D01*
X25683583Y5249848D01*
X25878550Y5205731D01*
X25878553Y5205731D01*
X25884186Y5204456D01*
X25889958Y5204229D01*
X25895687Y5203475D01*
X25895327Y5200743D01*
X25951604Y5181784D01*
X25995950Y5126341D01*
X26003282Y5055724D01*
X25971271Y4992353D01*
X25910081Y4956349D01*
X25900704Y4954368D01*
X25741650Y4927038D01*
X25741649Y4927038D01*
X25735953Y4926059D01*
X25537575Y4852873D01*
X25532614Y4849921D01*
X25532613Y4849921D01*
X25515089Y4839495D01*
X25355856Y4744762D01*
X25196881Y4605345D01*
X25065976Y4439292D01*
X25063287Y4434181D01*
X25063285Y4434178D01*
X25049792Y4408531D01*
X24967523Y4252164D01*
X24904820Y4050227D01*
X24879967Y3840246D01*
X24893796Y3629251D01*
X24895217Y3623655D01*
X24895218Y3623650D01*
X24917784Y3534800D01*
X24945845Y3424310D01*
X25034369Y3232286D01*
X25156405Y3059609D01*
X25307865Y2912063D01*
X25312661Y2908858D01*
X25312664Y2908856D01*
X25455936Y2813125D01*
X25483677Y2794589D01*
X25488985Y2792308D01*
X25488986Y2792308D01*
X25672650Y2713400D01*
X25672653Y2713399D01*
X25677953Y2711122D01*
X25683582Y2709848D01*
X25683583Y2709848D01*
X25878550Y2665731D01*
X25878553Y2665731D01*
X25884186Y2664456D01*
X25889957Y2664229D01*
X25889959Y2664229D01*
X25951989Y2661792D01*
X26095470Y2656154D01*
X26101179Y2656982D01*
X26101183Y2656982D01*
X26299015Y2685667D01*
X26299019Y2685668D01*
X26304730Y2686496D01*
X26383987Y2713400D01*
X26499483Y2752605D01*
X26499488Y2752607D01*
X26504955Y2754463D01*
X26509998Y2757287D01*
X26684395Y2854954D01*
X26684399Y2854957D01*
X26689442Y2857781D01*
X26852012Y2992988D01*
X26987219Y3155558D01*
X26990043Y3160601D01*
X26990046Y3160605D01*
X27087713Y3335002D01*
X27087714Y3335004D01*
X27090537Y3340045D01*
X27092393Y3345512D01*
X27092395Y3345517D01*
X27156647Y3534800D01*
X27158504Y3540270D01*
X27188846Y3749530D01*
X27190429Y3810000D01*
X27171081Y4020560D01*
X27113686Y4224069D01*
X27102553Y4246646D01*
X27022719Y4408531D01*
X27020165Y4413710D01*
X26893651Y4583133D01*
X26738381Y4726663D01*
X26559554Y4839495D01*
X26363160Y4917848D01*
X26357503Y4918973D01*
X26357497Y4918975D01*
X26160234Y4958212D01*
X26097324Y4991119D01*
X26062192Y5052814D01*
X26065992Y5123709D01*
X26107517Y5181295D01*
X26166734Y5206487D01*
X26299015Y5225667D01*
X26299019Y5225668D01*
X26304730Y5226496D01*
X26383987Y5253400D01*
X26499483Y5292605D01*
X26499488Y5292607D01*
X26504955Y5294463D01*
X26509998Y5297287D01*
X26684395Y5394954D01*
X26684399Y5394957D01*
X26689442Y5397781D01*
X26852012Y5532988D01*
X26987219Y5695558D01*
X26990043Y5700601D01*
X26990046Y5700605D01*
X27087713Y5875002D01*
X27087714Y5875004D01*
X27090537Y5880045D01*
X27092393Y5885512D01*
X27092395Y5885517D01*
X27156647Y6074800D01*
X27158504Y6080270D01*
X27188846Y6289530D01*
X27190429Y6350000D01*
X27171081Y6560560D01*
X27113686Y6764069D01*
X27102553Y6786646D01*
X27022719Y6948531D01*
X27020165Y6953710D01*
X26893651Y7123133D01*
X26738381Y7266663D01*
X26559554Y7379495D01*
X26363160Y7457848D01*
X26357503Y7458973D01*
X26357497Y7458975D01*
X26160234Y7498212D01*
X26097324Y7531119D01*
X26062192Y7592814D01*
X26065992Y7663709D01*
X26107517Y7721295D01*
X26166734Y7746487D01*
X26299015Y7765667D01*
X26299019Y7765668D01*
X26304730Y7766496D01*
X26383987Y7793400D01*
X26499483Y7832605D01*
X26499488Y7832607D01*
X26504955Y7834463D01*
X26522083Y7844055D01*
X26684395Y7934954D01*
X26684399Y7934957D01*
X26689442Y7937781D01*
X26852012Y8072988D01*
X26987219Y8235558D01*
X26990043Y8240601D01*
X26990046Y8240605D01*
X27087713Y8415002D01*
X27087714Y8415004D01*
X27090537Y8420045D01*
X27092393Y8425512D01*
X27092395Y8425517D01*
X27156647Y8614800D01*
X27158504Y8620270D01*
X27188846Y8829530D01*
X27190429Y8890000D01*
X27171081Y9100560D01*
X27113686Y9304069D01*
X27102553Y9326646D01*
X27022719Y9488531D01*
X27020165Y9493710D01*
X26893651Y9663133D01*
X26738381Y9806663D01*
X26654667Y9859483D01*
X26564434Y9916416D01*
X26564433Y9916416D01*
X26559554Y9919495D01*
X26422480Y9974181D01*
X26366622Y10018001D01*
X26355586Y10036673D01*
X26350887Y10046459D01*
X26347458Y10053600D01*
X26343894Y10057841D01*
X26341967Y10059768D01*
X26340224Y10061669D01*
X26340154Y10061798D01*
X26340265Y10061901D01*
X26339835Y10062388D01*
X26336767Y10068075D01*
X26297473Y10104398D01*
X26293908Y10107827D01*
X26291606Y10110129D01*
X26257580Y10172441D01*
X26262645Y10243256D01*
X26305192Y10300092D01*
X26340197Y10318535D01*
X26504955Y10374463D01*
X26516910Y10381158D01*
X26684395Y10474954D01*
X26684399Y10474957D01*
X26689442Y10477781D01*
X26852012Y10612988D01*
X26987219Y10775558D01*
X26990043Y10780601D01*
X26990046Y10780605D01*
X27087714Y10955004D01*
X27087714Y10955005D01*
X27090537Y10960045D01*
X27093169Y10967799D01*
X27093829Y10968737D01*
X27094745Y10970795D01*
X27095149Y10970615D01*
X27134005Y11025876D01*
X27199758Y11052656D01*
X27212483Y11053300D01*
X27348072Y11053300D01*
X27371572Y11050799D01*
X27373525Y11050707D01*
X27383710Y11048514D01*
X27416760Y11052426D01*
X27422624Y11052772D01*
X27422616Y11052872D01*
X27427793Y11053300D01*
X27432996Y11053300D01*
X27451886Y11056444D01*
X27457750Y11057278D01*
X27497909Y11062032D01*
X27508249Y11063256D01*
X27516438Y11067188D01*
X27525407Y11068681D01*
X27570179Y11092839D01*
X27575470Y11095535D01*
X27614156Y11114111D01*
X27614160Y11114113D01*
X27621300Y11117542D01*
X27625540Y11121106D01*
X27627471Y11123037D01*
X27629365Y11124775D01*
X27629489Y11124842D01*
X27629593Y11124728D01*
X27630088Y11125165D01*
X27635775Y11128233D01*
X27672110Y11167540D01*
X27675539Y11171105D01*
X28549442Y12045008D01*
X28567835Y12059864D01*
X28569278Y12061177D01*
X28578030Y12066828D01*
X28598643Y12092976D01*
X28602539Y12097360D01*
X28602463Y12097424D01*
X28605820Y12101386D01*
X28609497Y12105063D01*
X28620626Y12120636D01*
X28624179Y12125367D01*
X28649224Y12157137D01*
X28649227Y12157142D01*
X28655669Y12165314D01*
X28658679Y12173884D01*
X28663966Y12181283D01*
X28678542Y12230021D01*
X28680375Y12235662D01*
X28691184Y12266445D01*
X28732625Y12324092D01*
X28798654Y12350183D01*
X28868306Y12336434D01*
X28922135Y12282295D01*
X28979161Y12171335D01*
X28990484Y12149302D01*
X28994307Y12144478D01*
X28994310Y12144474D01*
X29099230Y12012100D01*
X29113723Y11993814D01*
X29118417Y11989819D01*
X29247033Y11880358D01*
X29264815Y11865224D01*
X29438007Y11768430D01*
X29626701Y11707120D01*
X29823710Y11683628D01*
X29829845Y11684100D01*
X29829847Y11684100D01*
X30015388Y11698376D01*
X30015392Y11698377D01*
X30021530Y11698849D01*
X30027462Y11700505D01*
X30027466Y11700506D01*
X30117078Y11725526D01*
X30212626Y11752204D01*
X30389719Y11841660D01*
X30419880Y11865224D01*
X30481980Y11913743D01*
X30546064Y11963811D01*
X30568514Y11989819D01*
X30671681Y12109340D01*
X30671682Y12109341D01*
X30675705Y12114002D01*
X30680844Y12123047D01*
X30770659Y12281151D01*
X30773706Y12286514D01*
X30836332Y12474775D01*
X30845989Y12551220D01*
X30860757Y12668112D01*
X30860758Y12668122D01*
X30861199Y12671615D01*
X30861595Y12700000D01*
X30842234Y12897458D01*
X30784889Y13087394D01*
X30691744Y13262575D01*
X30687854Y13267345D01*
X30687851Y13267349D01*
X30570241Y13411553D01*
X30570238Y13411556D01*
X30566346Y13416328D01*
X30557636Y13423534D01*
X30484300Y13484202D01*
X30413473Y13542795D01*
X30408052Y13545726D01*
X30408051Y13545727D01*
X30244366Y13634231D01*
X30244361Y13634233D01*
X30238946Y13637161D01*
X30049415Y13695831D01*
X30043290Y13696475D01*
X30043289Y13696475D01*
X29858225Y13715926D01*
X29858224Y13715926D01*
X29852097Y13716570D01*
X29785949Y13710550D01*
X29660648Y13699147D01*
X29660645Y13699146D01*
X29654509Y13698588D01*
X29648603Y13696850D01*
X29648599Y13696849D01*
X29554963Y13669290D01*
X29464177Y13642570D01*
X29288350Y13550650D01*
X29283550Y13546790D01*
X29283549Y13546790D01*
X29140406Y13431700D01*
X29133726Y13426329D01*
X29006194Y13274343D01*
X29003227Y13268945D01*
X29003223Y13268940D01*
X28934115Y13143231D01*
X28883770Y13093173D01*
X28814353Y13078279D01*
X28747903Y13103280D01*
X28705519Y13160237D01*
X28697700Y13203932D01*
X28697700Y14281323D01*
X28717702Y14349444D01*
X28734605Y14370418D01*
X28778047Y14413860D01*
X28796437Y14428714D01*
X28797877Y14430024D01*
X28806630Y14435676D01*
X28827233Y14461811D01*
X28831139Y14466206D01*
X28831062Y14466271D01*
X28834415Y14470228D01*
X28838097Y14473910D01*
X28849233Y14489494D01*
X28852792Y14494234D01*
X28877821Y14525982D01*
X28877823Y14525985D01*
X28884269Y14534162D01*
X28886790Y14541341D01*
X28890522Y14547272D01*
X28892565Y14550131D01*
X28895396Y14548108D01*
X28931008Y14587019D01*
X28999647Y14605164D01*
X29067200Y14583319D01*
X29094971Y14557473D01*
X29109891Y14538648D01*
X29109894Y14538645D01*
X29113723Y14533814D01*
X29118417Y14529819D01*
X29184110Y14473910D01*
X29264815Y14405224D01*
X29270193Y14402218D01*
X29270195Y14402217D01*
X29300193Y14385452D01*
X29438007Y14308430D01*
X29626701Y14247120D01*
X29823710Y14223628D01*
X29829845Y14224100D01*
X29829847Y14224100D01*
X30015388Y14238376D01*
X30015392Y14238377D01*
X30021530Y14238849D01*
X30027462Y14240505D01*
X30027466Y14240506D01*
X30117078Y14265526D01*
X30212626Y14292204D01*
X30389719Y14381660D01*
X30407644Y14395664D01*
X30513208Y14478141D01*
X30546064Y14503811D01*
X30565202Y14525982D01*
X30671681Y14649340D01*
X30671682Y14649341D01*
X30675705Y14654002D01*
X30684954Y14670282D01*
X30750552Y14785756D01*
X30773706Y14826514D01*
X30836332Y15014775D01*
X30845989Y15091220D01*
X30860757Y15208112D01*
X30860758Y15208122D01*
X30861199Y15211615D01*
X30861595Y15240000D01*
X30860203Y15254194D01*
X31368504Y15254194D01*
X31385106Y15056485D01*
X31397066Y15014775D01*
X31430277Y14898957D01*
X31439794Y14865766D01*
X31442610Y14860287D01*
X31510414Y14728355D01*
X31530484Y14689302D01*
X31534307Y14684478D01*
X31534310Y14684474D01*
X31631123Y14562328D01*
X31653723Y14533814D01*
X31658417Y14529819D01*
X31724110Y14473910D01*
X31804815Y14405224D01*
X31810193Y14402218D01*
X31810195Y14402217D01*
X31840193Y14385452D01*
X31978007Y14308430D01*
X32166701Y14247120D01*
X32363710Y14223628D01*
X32369845Y14224100D01*
X32369847Y14224100D01*
X32555388Y14238376D01*
X32555392Y14238377D01*
X32561530Y14238849D01*
X32567462Y14240505D01*
X32567466Y14240506D01*
X32657078Y14265526D01*
X32752626Y14292204D01*
X32929719Y14381660D01*
X32947644Y14395664D01*
X33053208Y14478141D01*
X33086064Y14503811D01*
X33105202Y14525982D01*
X33211681Y14649340D01*
X33211682Y14649341D01*
X33215705Y14654002D01*
X33224954Y14670282D01*
X33290552Y14785756D01*
X33313706Y14826514D01*
X33376332Y15014775D01*
X33385989Y15091220D01*
X33400757Y15208112D01*
X33400758Y15208122D01*
X33401199Y15211615D01*
X33401595Y15240000D01*
X33382234Y15437458D01*
X33324889Y15627394D01*
X33321052Y15634610D01*
X33234638Y15797133D01*
X33234636Y15797136D01*
X33231744Y15802575D01*
X33227854Y15807345D01*
X33227851Y15807349D01*
X33110241Y15951553D01*
X33110238Y15951556D01*
X33106346Y15956328D01*
X32953473Y16082795D01*
X32948054Y16085725D01*
X32948051Y16085727D01*
X32784366Y16174231D01*
X32784361Y16174233D01*
X32778946Y16177161D01*
X32589415Y16235831D01*
X32583290Y16236475D01*
X32583289Y16236475D01*
X32398225Y16255926D01*
X32398224Y16255926D01*
X32392097Y16256570D01*
X32309572Y16249060D01*
X32200648Y16239147D01*
X32200645Y16239146D01*
X32194509Y16238588D01*
X32188603Y16236850D01*
X32188599Y16236849D01*
X32050345Y16196158D01*
X32004177Y16182570D01*
X31828350Y16090650D01*
X31673726Y15966329D01*
X31546194Y15814343D01*
X31543227Y15808945D01*
X31543223Y15808940D01*
X31497800Y15726315D01*
X31450612Y15640479D01*
X31448751Y15634612D01*
X31448750Y15634610D01*
X31446461Y15627394D01*
X31390620Y15451362D01*
X31368504Y15254194D01*
X30860203Y15254194D01*
X30842234Y15437458D01*
X30784889Y15627394D01*
X30781052Y15634610D01*
X30694638Y15797133D01*
X30694636Y15797136D01*
X30691744Y15802575D01*
X30687854Y15807345D01*
X30687851Y15807349D01*
X30570241Y15951553D01*
X30570238Y15951556D01*
X30566346Y15956328D01*
X30413473Y16082795D01*
X30408054Y16085725D01*
X30408051Y16085727D01*
X30244366Y16174231D01*
X30244361Y16174233D01*
X30238946Y16177161D01*
X30049415Y16235831D01*
X30043290Y16236475D01*
X30043289Y16236475D01*
X29858225Y16255926D01*
X29858224Y16255926D01*
X29852097Y16256570D01*
X29769572Y16249060D01*
X29660648Y16239147D01*
X29660645Y16239146D01*
X29654509Y16238588D01*
X29648603Y16236850D01*
X29648599Y16236849D01*
X29510345Y16196158D01*
X29464177Y16182570D01*
X29288350Y16090650D01*
X29133726Y15966329D01*
X29132506Y15967847D01*
X29077800Y15938710D01*
X29007040Y15944512D01*
X28950651Y15987649D01*
X28926534Y16054424D01*
X28926300Y16062103D01*
X28926300Y16960634D01*
X28946302Y17028755D01*
X28999958Y17075248D01*
X29070232Y17085352D01*
X29133963Y17056588D01*
X29246708Y16960634D01*
X29264815Y16945224D01*
X29270193Y16942218D01*
X29270195Y16942217D01*
X29300193Y16925452D01*
X29438007Y16848430D01*
X29626701Y16787120D01*
X29823710Y16763628D01*
X29829845Y16764100D01*
X29829847Y16764100D01*
X30015388Y16778376D01*
X30015392Y16778377D01*
X30021530Y16778849D01*
X30027462Y16780505D01*
X30027466Y16780506D01*
X30117078Y16805527D01*
X30212626Y16832204D01*
X30389719Y16921660D01*
X30399432Y16929248D01*
X30541214Y17040022D01*
X30546064Y17043811D01*
X30568514Y17069819D01*
X30671681Y17189340D01*
X30671682Y17189341D01*
X30675705Y17194002D01*
X30773706Y17366514D01*
X30836332Y17554775D01*
X30843218Y17609281D01*
X30860757Y17748112D01*
X30860758Y17748122D01*
X30861199Y17751615D01*
X30861595Y17780000D01*
X30860203Y17794194D01*
X31368504Y17794194D01*
X31385106Y17596485D01*
X31397066Y17554775D01*
X31429926Y17440181D01*
X31439794Y17405766D01*
X31530484Y17229302D01*
X31534307Y17224478D01*
X31534310Y17224474D01*
X31626206Y17108531D01*
X31653723Y17073814D01*
X31804815Y16945224D01*
X31810193Y16942218D01*
X31810195Y16942217D01*
X31840193Y16925452D01*
X31978007Y16848430D01*
X32166701Y16787120D01*
X32363710Y16763628D01*
X32369845Y16764100D01*
X32369847Y16764100D01*
X32555388Y16778376D01*
X32555392Y16778377D01*
X32561530Y16778849D01*
X32567462Y16780505D01*
X32567466Y16780506D01*
X32657078Y16805527D01*
X32752626Y16832204D01*
X32929719Y16921660D01*
X32939432Y16929248D01*
X33081214Y17040022D01*
X33086064Y17043811D01*
X33108514Y17069819D01*
X33211681Y17189340D01*
X33211682Y17189341D01*
X33215705Y17194002D01*
X33313706Y17366514D01*
X33376332Y17554775D01*
X33383218Y17609281D01*
X33400757Y17748112D01*
X33400758Y17748122D01*
X33401199Y17751615D01*
X33401595Y17780000D01*
X33382234Y17977458D01*
X33324889Y18167394D01*
X33279386Y18252973D01*
X33234638Y18337133D01*
X33234636Y18337136D01*
X33231744Y18342575D01*
X33227854Y18347345D01*
X33227851Y18347349D01*
X33110241Y18491553D01*
X33110238Y18491556D01*
X33106346Y18496328D01*
X33080882Y18517394D01*
X32994856Y18588560D01*
X32953473Y18622795D01*
X32948054Y18625725D01*
X32948051Y18625727D01*
X32784366Y18714231D01*
X32784361Y18714233D01*
X32778946Y18717161D01*
X32589415Y18775831D01*
X32583290Y18776475D01*
X32583289Y18776475D01*
X32398225Y18795926D01*
X32398224Y18795926D01*
X32392097Y18796570D01*
X32309572Y18789060D01*
X32200648Y18779147D01*
X32200645Y18779146D01*
X32194509Y18778588D01*
X32188603Y18776850D01*
X32188599Y18776849D01*
X32050345Y18736158D01*
X32004177Y18722570D01*
X31828350Y18630650D01*
X31823550Y18626790D01*
X31823549Y18626790D01*
X31689252Y18518812D01*
X31673726Y18506329D01*
X31546194Y18354343D01*
X31543227Y18348945D01*
X31543223Y18348940D01*
X31482511Y18238503D01*
X31450612Y18180479D01*
X31448751Y18174612D01*
X31448750Y18174610D01*
X31431233Y18119388D01*
X31390620Y17991362D01*
X31368504Y17794194D01*
X30860203Y17794194D01*
X30842234Y17977458D01*
X30784889Y18167394D01*
X30739386Y18252973D01*
X30694638Y18337133D01*
X30694636Y18337136D01*
X30691744Y18342575D01*
X30687854Y18347345D01*
X30687851Y18347349D01*
X30570241Y18491553D01*
X30570238Y18491556D01*
X30566346Y18496328D01*
X30540882Y18517394D01*
X30454856Y18588560D01*
X30413473Y18622795D01*
X30408054Y18625725D01*
X30408051Y18625727D01*
X30244366Y18714231D01*
X30244361Y18714233D01*
X30238946Y18717161D01*
X30049415Y18775831D01*
X30043290Y18776475D01*
X30043289Y18776475D01*
X29858225Y18795926D01*
X29858224Y18795926D01*
X29852097Y18796570D01*
X29769572Y18789060D01*
X29660648Y18779147D01*
X29660645Y18779146D01*
X29654509Y18778588D01*
X29648603Y18776850D01*
X29648599Y18776849D01*
X29470081Y18724308D01*
X29470078Y18724307D01*
X29464177Y18722570D01*
X29458724Y18719719D01*
X29455100Y18718255D01*
X29384446Y18711282D01*
X29321239Y18743615D01*
X29285546Y18804987D01*
X29281900Y18835080D01*
X29281900Y19265728D01*
X29301902Y19333849D01*
X29355558Y19380342D01*
X29425832Y19390446D01*
X29446836Y19385561D01*
X29533091Y19357535D01*
X29626701Y19327120D01*
X29823710Y19303628D01*
X29829845Y19304100D01*
X29829847Y19304100D01*
X30015388Y19318376D01*
X30015392Y19318377D01*
X30021530Y19318849D01*
X30027462Y19320505D01*
X30027466Y19320506D01*
X30117078Y19345527D01*
X30212626Y19372204D01*
X30389719Y19461660D01*
X30404091Y19472888D01*
X30505330Y19551986D01*
X30546064Y19583811D01*
X30566761Y19607788D01*
X30671681Y19729340D01*
X30671682Y19729341D01*
X30675705Y19734002D01*
X30684979Y19750326D01*
X30739984Y19847153D01*
X30773706Y19906514D01*
X30836332Y20094775D01*
X30845637Y20168430D01*
X30860757Y20288112D01*
X30860758Y20288122D01*
X30861199Y20291615D01*
X30861595Y20320000D01*
X30860203Y20334194D01*
X31368504Y20334194D01*
X31369020Y20328050D01*
X31383145Y20159842D01*
X31385106Y20136485D01*
X31396538Y20096617D01*
X31435206Y19961767D01*
X31439794Y19945766D01*
X31442610Y19940287D01*
X31513496Y19802358D01*
X31530484Y19769302D01*
X31534307Y19764478D01*
X31534310Y19764474D01*
X31626206Y19648531D01*
X31653723Y19613814D01*
X31658417Y19609819D01*
X31739829Y19540532D01*
X31804815Y19485224D01*
X31810193Y19482218D01*
X31810195Y19482217D01*
X31840193Y19465452D01*
X31978007Y19388430D01*
X32166701Y19327120D01*
X32363710Y19303628D01*
X32369845Y19304100D01*
X32369847Y19304100D01*
X32555388Y19318376D01*
X32555392Y19318377D01*
X32561530Y19318849D01*
X32567462Y19320505D01*
X32567466Y19320506D01*
X32657078Y19345527D01*
X32752626Y19372204D01*
X32929719Y19461660D01*
X32944091Y19472888D01*
X33045330Y19551986D01*
X33086064Y19583811D01*
X33106761Y19607788D01*
X33211681Y19729340D01*
X33211682Y19729341D01*
X33215705Y19734002D01*
X33224979Y19750326D01*
X33279984Y19847153D01*
X33313706Y19906514D01*
X33376332Y20094775D01*
X33385637Y20168430D01*
X33400757Y20288112D01*
X33400758Y20288122D01*
X33401199Y20291615D01*
X33401595Y20320000D01*
X33382234Y20517458D01*
X33324889Y20707394D01*
X33321052Y20714610D01*
X33234638Y20877133D01*
X33234636Y20877136D01*
X33231744Y20882575D01*
X33227854Y20887345D01*
X33227851Y20887349D01*
X33110241Y21031553D01*
X33110238Y21031556D01*
X33106346Y21036328D01*
X32953473Y21162795D01*
X32948054Y21165725D01*
X32948051Y21165727D01*
X32784366Y21254231D01*
X32784361Y21254233D01*
X32778946Y21257161D01*
X32589415Y21315831D01*
X32583290Y21316475D01*
X32583289Y21316475D01*
X32398225Y21335926D01*
X32398224Y21335926D01*
X32392097Y21336570D01*
X32309572Y21329060D01*
X32200648Y21319147D01*
X32200645Y21319146D01*
X32194509Y21318588D01*
X32188603Y21316850D01*
X32188599Y21316849D01*
X32075681Y21283615D01*
X32004177Y21262570D01*
X31828350Y21170650D01*
X31673726Y21046329D01*
X31546194Y20894343D01*
X31543227Y20888945D01*
X31543223Y20888940D01*
X31486720Y20786160D01*
X31450612Y20720479D01*
X31448751Y20714612D01*
X31448750Y20714610D01*
X31437506Y20679163D01*
X31390620Y20531362D01*
X31368504Y20334194D01*
X30860203Y20334194D01*
X30842234Y20517458D01*
X30784889Y20707394D01*
X30781052Y20714610D01*
X30694638Y20877133D01*
X30694636Y20877136D01*
X30691744Y20882575D01*
X30687854Y20887345D01*
X30687851Y20887349D01*
X30570241Y21031553D01*
X30570238Y21031556D01*
X30566346Y21036328D01*
X30413473Y21162795D01*
X30408054Y21165725D01*
X30408051Y21165727D01*
X30244366Y21254231D01*
X30244361Y21254233D01*
X30238946Y21257161D01*
X30049415Y21315831D01*
X30043290Y21316475D01*
X30043289Y21316475D01*
X29858225Y21335926D01*
X29858224Y21335926D01*
X29852097Y21336570D01*
X29769572Y21329060D01*
X29660648Y21319147D01*
X29660645Y21319146D01*
X29654509Y21318588D01*
X29648603Y21316850D01*
X29648599Y21316849D01*
X29470081Y21264308D01*
X29470078Y21264307D01*
X29464177Y21262570D01*
X29458724Y21259719D01*
X29455100Y21258255D01*
X29384446Y21251282D01*
X29321239Y21283615D01*
X29285546Y21344987D01*
X29281900Y21375080D01*
X29281900Y21805728D01*
X29301902Y21873849D01*
X29355558Y21920342D01*
X29425832Y21930446D01*
X29446836Y21925561D01*
X29517941Y21902458D01*
X29626701Y21867120D01*
X29823710Y21843628D01*
X29829845Y21844100D01*
X29829847Y21844100D01*
X30015388Y21858376D01*
X30015392Y21858377D01*
X30021530Y21858849D01*
X30027462Y21860505D01*
X30027466Y21860506D01*
X30139429Y21891767D01*
X30212626Y21912204D01*
X30389719Y22001660D01*
X30407658Y22015675D01*
X30541214Y22120022D01*
X30546064Y22123811D01*
X30568514Y22149819D01*
X30671681Y22269340D01*
X30671682Y22269341D01*
X30675705Y22274002D01*
X30773706Y22446514D01*
X30836332Y22634775D01*
X30844300Y22697848D01*
X30860757Y22828112D01*
X30860758Y22828122D01*
X30861199Y22831615D01*
X30861595Y22860000D01*
X30860203Y22874194D01*
X31368504Y22874194D01*
X31369020Y22868050D01*
X31382623Y22706059D01*
X31385106Y22676485D01*
X31402331Y22616416D01*
X31429705Y22520952D01*
X31439794Y22485766D01*
X31471533Y22424008D01*
X31511502Y22346238D01*
X31530484Y22309302D01*
X31534307Y22304478D01*
X31534310Y22304474D01*
X31605879Y22214178D01*
X31653723Y22153814D01*
X31658417Y22149819D01*
X31796661Y22032164D01*
X31804815Y22025224D01*
X31978007Y21928430D01*
X32166701Y21867120D01*
X32363710Y21843628D01*
X32369845Y21844100D01*
X32369847Y21844100D01*
X32555388Y21858376D01*
X32555392Y21858377D01*
X32561530Y21858849D01*
X32567462Y21860505D01*
X32567466Y21860506D01*
X32679429Y21891767D01*
X32752626Y21912204D01*
X32929719Y22001660D01*
X32947658Y22015675D01*
X33081214Y22120022D01*
X33086064Y22123811D01*
X33108514Y22149819D01*
X33211681Y22269340D01*
X33211682Y22269341D01*
X33215705Y22274002D01*
X33313706Y22446514D01*
X33376332Y22634775D01*
X33384300Y22697848D01*
X33400757Y22828112D01*
X33400758Y22828122D01*
X33401199Y22831615D01*
X33401595Y22860000D01*
X33382234Y23057458D01*
X33324889Y23247394D01*
X33289291Y23314344D01*
X33234638Y23417133D01*
X33234636Y23417136D01*
X33231744Y23422575D01*
X33227854Y23427345D01*
X33227851Y23427349D01*
X33110241Y23571553D01*
X33110238Y23571556D01*
X33106346Y23576328D01*
X32953473Y23702795D01*
X32948054Y23705725D01*
X32948051Y23705727D01*
X32784366Y23794231D01*
X32784361Y23794233D01*
X32778946Y23797161D01*
X32589415Y23855831D01*
X32583290Y23856475D01*
X32583289Y23856475D01*
X32398225Y23875926D01*
X32398224Y23875926D01*
X32392097Y23876570D01*
X32309572Y23869060D01*
X32200648Y23859147D01*
X32200645Y23859146D01*
X32194509Y23858588D01*
X32188603Y23856850D01*
X32188599Y23856849D01*
X32075681Y23823615D01*
X32004177Y23802570D01*
X31828350Y23710650D01*
X31673726Y23586329D01*
X31546194Y23434343D01*
X31543227Y23428945D01*
X31543223Y23428940D01*
X31468358Y23292759D01*
X31450612Y23260479D01*
X31448751Y23254612D01*
X31448750Y23254610D01*
X31445622Y23244750D01*
X31390620Y23071362D01*
X31368504Y22874194D01*
X30860203Y22874194D01*
X30842234Y23057458D01*
X30784889Y23247394D01*
X30749291Y23314344D01*
X30694638Y23417133D01*
X30694636Y23417136D01*
X30691744Y23422575D01*
X30687854Y23427345D01*
X30687851Y23427349D01*
X30570241Y23571553D01*
X30570238Y23571556D01*
X30566346Y23576328D01*
X30413473Y23702795D01*
X30408054Y23705725D01*
X30408051Y23705727D01*
X30244366Y23794231D01*
X30244361Y23794233D01*
X30238946Y23797161D01*
X30049415Y23855831D01*
X30043290Y23856475D01*
X30043289Y23856475D01*
X29858225Y23875926D01*
X29858224Y23875926D01*
X29852097Y23876570D01*
X29769572Y23869060D01*
X29660648Y23859147D01*
X29660645Y23859146D01*
X29654509Y23858588D01*
X29648603Y23856850D01*
X29648599Y23856849D01*
X29470081Y23804308D01*
X29470078Y23804307D01*
X29464177Y23802570D01*
X29458724Y23799719D01*
X29455100Y23798255D01*
X29384446Y23791282D01*
X29321239Y23823615D01*
X29285546Y23884987D01*
X29281900Y23915080D01*
X29281900Y24124467D01*
X29301902Y24192588D01*
X29355558Y24239081D01*
X29425832Y24249185D01*
X29440512Y24246174D01*
X29627168Y24196159D01*
X29637957Y24194257D01*
X29839525Y24176622D01*
X29850475Y24176622D01*
X30052043Y24194257D01*
X30062832Y24196159D01*
X30258273Y24248528D01*
X30268569Y24252276D01*
X30451944Y24337785D01*
X30461434Y24343263D01*
X30494291Y24366270D01*
X30502665Y24376746D01*
X30495596Y24390194D01*
X29574885Y25310905D01*
X29540859Y25373217D01*
X29542694Y25398868D01*
X30209408Y25398868D01*
X30209539Y25397035D01*
X30213790Y25390420D01*
X30855527Y24748683D01*
X30867302Y24742253D01*
X30879317Y24751549D01*
X30901734Y24783564D01*
X30907217Y24793059D01*
X30925606Y24832495D01*
X30972524Y24885780D01*
X31040801Y24905241D01*
X31108761Y24884699D01*
X31154826Y24830676D01*
X31165801Y24779245D01*
X31165801Y24644131D01*
X31166171Y24637310D01*
X31171695Y24586448D01*
X31175321Y24571196D01*
X31220476Y24450746D01*
X31229014Y24435151D01*
X31305515Y24333076D01*
X31318076Y24320515D01*
X31420151Y24244014D01*
X31435746Y24235476D01*
X31556194Y24190322D01*
X31571449Y24186695D01*
X31622314Y24181169D01*
X31629128Y24180800D01*
X32112885Y24180800D01*
X32128124Y24185275D01*
X32129329Y24186665D01*
X32131000Y24194348D01*
X32131000Y24198916D01*
X32639000Y24198916D01*
X32643475Y24183677D01*
X32644865Y24182472D01*
X32652548Y24180801D01*
X33140869Y24180801D01*
X33147690Y24181171D01*
X33198552Y24186695D01*
X33213804Y24190321D01*
X33334254Y24235476D01*
X33349849Y24244014D01*
X33451924Y24320515D01*
X33464485Y24333076D01*
X33540986Y24435151D01*
X33549524Y24450746D01*
X33594678Y24571194D01*
X33598305Y24586449D01*
X33603831Y24637314D01*
X33604200Y24644128D01*
X33604200Y25127885D01*
X33599725Y25143124D01*
X33598335Y25144329D01*
X33590652Y25146000D01*
X32657115Y25146000D01*
X32641876Y25141525D01*
X32640671Y25140135D01*
X32639000Y25132452D01*
X32639000Y24198916D01*
X32131000Y24198916D01*
X32131000Y25672115D01*
X32639000Y25672115D01*
X32643475Y25656876D01*
X32644865Y25655671D01*
X32652548Y25654000D01*
X33586084Y25654000D01*
X33601323Y25658475D01*
X33602528Y25659865D01*
X33604199Y25667548D01*
X33604199Y26155869D01*
X33603829Y26162690D01*
X33598305Y26213552D01*
X33594679Y26228804D01*
X33549524Y26349254D01*
X33540986Y26364849D01*
X33464485Y26466924D01*
X33451924Y26479485D01*
X33349849Y26555986D01*
X33334254Y26564524D01*
X33213806Y26609678D01*
X33198551Y26613305D01*
X33147686Y26618831D01*
X33140872Y26619200D01*
X32657115Y26619200D01*
X32641876Y26614725D01*
X32640671Y26613335D01*
X32639000Y26605652D01*
X32639000Y25672115D01*
X32131000Y25672115D01*
X32131000Y26601084D01*
X32126525Y26616323D01*
X32125135Y26617528D01*
X32117452Y26619199D01*
X31629131Y26619199D01*
X31622310Y26618829D01*
X31571448Y26613305D01*
X31556196Y26609679D01*
X31435746Y26564524D01*
X31420151Y26555986D01*
X31318076Y26479485D01*
X31305515Y26466924D01*
X31229014Y26364849D01*
X31220476Y26349254D01*
X31175322Y26228806D01*
X31171695Y26213551D01*
X31166169Y26162686D01*
X31165800Y26155872D01*
X31165800Y26020757D01*
X31145798Y25952636D01*
X31092142Y25906143D01*
X31021868Y25896039D01*
X30957288Y25925533D01*
X30925605Y25967507D01*
X30907217Y26006941D01*
X30901734Y26016436D01*
X30878731Y26049288D01*
X30868252Y26057664D01*
X30854806Y26050596D01*
X30217022Y25412812D01*
X30209408Y25398868D01*
X29542694Y25398868D01*
X29545924Y25444032D01*
X29574885Y25489095D01*
X30102852Y26017062D01*
X30115473Y26027255D01*
X30115400Y26027342D01*
X30117553Y26029151D01*
X30117563Y26029160D01*
X30119640Y26030906D01*
X30121570Y26032836D01*
X30123465Y26034575D01*
X30123589Y26034642D01*
X30123693Y26034528D01*
X30124188Y26034965D01*
X30129875Y26038033D01*
X30166210Y26077340D01*
X30169639Y26080905D01*
X31407296Y27318562D01*
X31469608Y27352588D01*
X31540423Y27347523D01*
X31595136Y27307732D01*
X31653723Y27233814D01*
X31658417Y27229819D01*
X31796661Y27112164D01*
X31804815Y27105224D01*
X31978007Y27008430D01*
X32166701Y26947120D01*
X32363710Y26923628D01*
X32369845Y26924100D01*
X32369847Y26924100D01*
X32555388Y26938376D01*
X32555392Y26938377D01*
X32561530Y26938849D01*
X32567462Y26940505D01*
X32567466Y26940506D01*
X32657078Y26965527D01*
X32752626Y26992204D01*
X32929719Y27081660D01*
X32959880Y27105224D01*
X33066825Y27188780D01*
X33086064Y27203811D01*
X33108514Y27229819D01*
X33211681Y27349340D01*
X33211682Y27349341D01*
X33215705Y27354002D01*
X33221905Y27364915D01*
X33266921Y27444158D01*
X33313706Y27526514D01*
X33376332Y27714775D01*
X33384300Y27777848D01*
X33400757Y27908112D01*
X33400758Y27908122D01*
X33401199Y27911615D01*
X33401595Y27940000D01*
X33382234Y28137458D01*
X33324889Y28327394D01*
X33312247Y28351170D01*
X33234638Y28497133D01*
X33234636Y28497136D01*
X33231744Y28502575D01*
X33227854Y28507345D01*
X33227851Y28507349D01*
X33110241Y28651553D01*
X33110238Y28651556D01*
X33106346Y28656328D01*
X33069702Y28686643D01*
X32958222Y28778866D01*
X32953473Y28782795D01*
X32948054Y28785725D01*
X32948051Y28785727D01*
X32784366Y28874231D01*
X32784361Y28874233D01*
X32778946Y28877161D01*
X32732350Y28891585D01*
X32673191Y28930837D01*
X32644644Y28995842D01*
X32655773Y29065961D01*
X32672282Y29091548D01*
X32673497Y29092763D01*
X32684624Y29108333D01*
X32688173Y29113060D01*
X32719669Y29153014D01*
X32722680Y29161587D01*
X32727965Y29168983D01*
X32742542Y29217725D01*
X32744374Y29223362D01*
X32758595Y29263856D01*
X32758596Y29263862D01*
X32761222Y29271339D01*
X32761700Y29276858D01*
X32761700Y29279573D01*
X32761812Y29282159D01*
X32761854Y29282298D01*
X32762005Y29282292D01*
X32762046Y29282941D01*
X32763898Y29289135D01*
X32761797Y29342604D01*
X32761700Y29347550D01*
X32761700Y29459272D01*
X32781702Y29527393D01*
X32830890Y29571738D01*
X32924218Y29618881D01*
X32924223Y29618884D01*
X32929719Y29621660D01*
X33086064Y29743811D01*
X33108514Y29769819D01*
X33211681Y29889340D01*
X33211682Y29889341D01*
X33215705Y29894002D01*
X33228546Y29916605D01*
X33268563Y29987049D01*
X33313706Y30066514D01*
X33376332Y30254775D01*
X33384300Y30317848D01*
X33400757Y30448112D01*
X33400758Y30448122D01*
X33401199Y30451615D01*
X33401595Y30480000D01*
X33382234Y30677458D01*
X33324889Y30867394D01*
X33290012Y30932988D01*
X33234638Y31037133D01*
X33234636Y31037136D01*
X33231744Y31042575D01*
X33227854Y31047345D01*
X33227851Y31047349D01*
X33110241Y31191553D01*
X33110238Y31191556D01*
X33106346Y31196328D01*
X32953473Y31322795D01*
X32948054Y31325725D01*
X32948051Y31325727D01*
X32784366Y31414231D01*
X32784361Y31414233D01*
X32778946Y31417161D01*
X32589415Y31475831D01*
X32583290Y31476475D01*
X32583289Y31476475D01*
X32398225Y31495926D01*
X32398224Y31495926D01*
X32392097Y31496570D01*
X32309572Y31489060D01*
X32200648Y31479147D01*
X32200645Y31479146D01*
X32194509Y31478588D01*
X32188603Y31476850D01*
X32188599Y31476849D01*
X32075681Y31443615D01*
X32004177Y31422570D01*
X31828350Y31330650D01*
X31673726Y31206329D01*
X31672506Y31207847D01*
X31617800Y31178710D01*
X31547040Y31184512D01*
X31490651Y31227649D01*
X31466534Y31294424D01*
X31466300Y31302103D01*
X31466300Y31516375D01*
X31486302Y31584496D01*
X31503205Y31605471D01*
X31929567Y32031832D01*
X31991879Y32065857D01*
X32057597Y32062569D01*
X32145991Y32033849D01*
X32166701Y32027120D01*
X32363710Y32003628D01*
X32369845Y32004100D01*
X32369847Y32004100D01*
X32555388Y32018376D01*
X32555392Y32018377D01*
X32561530Y32018849D01*
X32567462Y32020505D01*
X32567466Y32020506D01*
X32657078Y32045526D01*
X32752626Y32072204D01*
X32929719Y32161660D01*
X32947658Y32175675D01*
X33025322Y32236354D01*
X33086064Y32283811D01*
X33095014Y32294179D01*
X33211681Y32429340D01*
X33211682Y32429341D01*
X33215705Y32434002D01*
X33313706Y32606514D01*
X33376332Y32794775D01*
X33384300Y32857848D01*
X33400757Y32988112D01*
X33400758Y32988122D01*
X33401199Y32991615D01*
X33401595Y33020000D01*
X33382234Y33217458D01*
X33324889Y33407394D01*
X33288654Y33475542D01*
X33234638Y33577133D01*
X33234636Y33577136D01*
X33231744Y33582575D01*
X33227854Y33587345D01*
X33227851Y33587349D01*
X33110241Y33731553D01*
X33110238Y33731556D01*
X33106346Y33736328D01*
X33078404Y33759444D01*
X33016237Y33810872D01*
X32953473Y33862795D01*
X32948054Y33865725D01*
X32948051Y33865727D01*
X32784366Y33954231D01*
X32784361Y33954233D01*
X32778946Y33957161D01*
X32589415Y34015831D01*
X32583290Y34016475D01*
X32583289Y34016475D01*
X32398225Y34035926D01*
X32398224Y34035926D01*
X32392097Y34036570D01*
X32309572Y34029060D01*
X32200648Y34019147D01*
X32200645Y34019146D01*
X32194509Y34018588D01*
X32188603Y34016850D01*
X32188599Y34016849D01*
X32053532Y33977096D01*
X32004177Y33962570D01*
X31828350Y33870650D01*
X31823550Y33866790D01*
X31823549Y33866790D01*
X31724817Y33787407D01*
X31673726Y33746329D01*
X31546194Y33594343D01*
X31543227Y33588945D01*
X31543223Y33588940D01*
X31481919Y33477426D01*
X31450612Y33420479D01*
X31390620Y33231362D01*
X31368504Y33034194D01*
X31369020Y33028050D01*
X31382791Y32864058D01*
X31385106Y32836485D01*
X31386805Y32830561D01*
X31427857Y32687394D01*
X31427406Y32616399D01*
X31395833Y32563569D01*
X31204094Y32371830D01*
X31141782Y32337804D01*
X31070967Y32342869D01*
X31025904Y32371830D01*
X30833104Y32564630D01*
X30799078Y32626942D01*
X30802641Y32693497D01*
X30806898Y32706292D01*
X30836332Y32794775D01*
X30844300Y32857848D01*
X30860757Y32988112D01*
X30860758Y32988122D01*
X30861199Y32991615D01*
X30861595Y33020000D01*
X30842234Y33217458D01*
X30784889Y33407394D01*
X30748654Y33475542D01*
X30694638Y33577133D01*
X30694636Y33577136D01*
X30691744Y33582575D01*
X30672832Y33605764D01*
X30645277Y33671194D01*
X30657472Y33741136D01*
X30705543Y33793382D01*
X30770474Y33811400D01*
X30959472Y33811400D01*
X30982972Y33808899D01*
X30984925Y33808807D01*
X30995110Y33806614D01*
X31028160Y33810526D01*
X31034024Y33810872D01*
X31034016Y33810972D01*
X31039193Y33811400D01*
X31044396Y33811400D01*
X31063286Y33814544D01*
X31069150Y33815378D01*
X31109309Y33820132D01*
X31119649Y33821356D01*
X31127838Y33825288D01*
X31136807Y33826781D01*
X31181579Y33850939D01*
X31186870Y33853635D01*
X31225556Y33872211D01*
X31225560Y33872213D01*
X31232700Y33875642D01*
X31236940Y33879206D01*
X31238871Y33881137D01*
X31240765Y33882875D01*
X31240889Y33882942D01*
X31240993Y33882828D01*
X31241488Y33883265D01*
X31247175Y33886333D01*
X31283510Y33925640D01*
X31286939Y33929205D01*
X31929566Y34571832D01*
X31991878Y34605858D01*
X32057597Y34602570D01*
X32087418Y34592881D01*
X32166701Y34567120D01*
X32363710Y34543628D01*
X32369845Y34544100D01*
X32369847Y34544100D01*
X32555388Y34558376D01*
X32555392Y34558377D01*
X32561530Y34558849D01*
X32567462Y34560505D01*
X32567466Y34560506D01*
X32657078Y34585526D01*
X32752626Y34612204D01*
X32929719Y34701660D01*
X32935944Y34706523D01*
X33056190Y34800471D01*
X33086064Y34823811D01*
X33108514Y34849819D01*
X33211681Y34969340D01*
X33211682Y34969341D01*
X33215705Y34974002D01*
X33232089Y35002842D01*
X33310659Y35141151D01*
X33313706Y35146514D01*
X33376332Y35334775D01*
X33385989Y35411220D01*
X33400757Y35528112D01*
X33400758Y35528122D01*
X33401199Y35531615D01*
X33401595Y35560000D01*
X33382234Y35757458D01*
X33324889Y35947394D01*
X33321052Y35954610D01*
X33234638Y36117133D01*
X33234636Y36117136D01*
X33231744Y36122575D01*
X33227854Y36127345D01*
X33227851Y36127349D01*
X33110241Y36271553D01*
X33110238Y36271556D01*
X33106346Y36276328D01*
X33093688Y36286800D01*
X32977927Y36382565D01*
X32953473Y36402795D01*
X32948054Y36405725D01*
X32948051Y36405727D01*
X32784366Y36494231D01*
X32784361Y36494233D01*
X32778946Y36497161D01*
X32589415Y36555831D01*
X32583290Y36556475D01*
X32583289Y36556475D01*
X32398225Y36575926D01*
X32398224Y36575926D01*
X32392097Y36576570D01*
X32309572Y36569060D01*
X32200648Y36559147D01*
X32200645Y36559146D01*
X32194509Y36558588D01*
X32188603Y36556850D01*
X32188599Y36556849D01*
X32053749Y36517160D01*
X32004177Y36502570D01*
X31828350Y36410650D01*
X31823550Y36406790D01*
X31823549Y36406790D01*
X31730632Y36332083D01*
X31673726Y36286329D01*
X31546194Y36134343D01*
X31543227Y36128945D01*
X31543223Y36128940D01*
X31481077Y36015895D01*
X31450612Y35960479D01*
X31390620Y35771362D01*
X31368504Y35574194D01*
X31385106Y35376485D01*
X31386805Y35370561D01*
X31427857Y35227393D01*
X31427406Y35156398D01*
X31395833Y35103568D01*
X30893970Y34601705D01*
X30831658Y34567679D01*
X30804875Y34564800D01*
X30580476Y34564800D01*
X30512355Y34584802D01*
X30465862Y34638458D01*
X30455758Y34708732D01*
X30485252Y34773312D01*
X30502902Y34790089D01*
X30516190Y34800471D01*
X30546064Y34823811D01*
X30568514Y34849819D01*
X30671681Y34969340D01*
X30671682Y34969341D01*
X30675705Y34974002D01*
X30692089Y35002842D01*
X30770659Y35141151D01*
X30773706Y35146514D01*
X30836332Y35334775D01*
X30845989Y35411220D01*
X30860757Y35528112D01*
X30860758Y35528122D01*
X30861199Y35531615D01*
X30861595Y35560000D01*
X30842234Y35757458D01*
X30784889Y35947394D01*
X30781052Y35954610D01*
X30694638Y36117133D01*
X30694636Y36117136D01*
X30691744Y36122575D01*
X30687854Y36127345D01*
X30687851Y36127349D01*
X30570241Y36271553D01*
X30570238Y36271556D01*
X30566346Y36276328D01*
X30553688Y36286800D01*
X30437927Y36382565D01*
X30413473Y36402795D01*
X30408054Y36405725D01*
X30408051Y36405727D01*
X30244366Y36494231D01*
X30244361Y36494233D01*
X30238946Y36497161D01*
X30049415Y36555831D01*
X30043290Y36556475D01*
X30043289Y36556475D01*
X29858225Y36575926D01*
X29858224Y36575926D01*
X29852097Y36576570D01*
X29769572Y36569060D01*
X29660648Y36559147D01*
X29660645Y36559146D01*
X29654509Y36558588D01*
X29648603Y36556850D01*
X29648599Y36556849D01*
X29513530Y36517096D01*
X29442533Y36517051D01*
X29388860Y36548875D01*
X28293104Y37644631D01*
X28259078Y37706943D01*
X28262641Y37773496D01*
X28296332Y37874775D01*
X28305989Y37951220D01*
X28320757Y38068112D01*
X28320758Y38068122D01*
X28321199Y38071615D01*
X28321595Y38100000D01*
X28302234Y38297458D01*
X28244889Y38487394D01*
X28241052Y38494610D01*
X28154638Y38657133D01*
X28154636Y38657136D01*
X28151744Y38662575D01*
X28147854Y38667345D01*
X28147851Y38667349D01*
X28030241Y38811553D01*
X28030238Y38811556D01*
X28026346Y38816328D01*
X27873473Y38942795D01*
X27868054Y38945725D01*
X27868051Y38945727D01*
X27704366Y39034231D01*
X27704361Y39034233D01*
X27698946Y39037161D01*
X27509415Y39095831D01*
X27503290Y39096475D01*
X27503289Y39096475D01*
X27318227Y39115926D01*
X27318224Y39115926D01*
X27312097Y39116570D01*
X27305953Y39116011D01*
X27305500Y39116014D01*
X27237520Y39136488D01*
X27191400Y39190465D01*
X27181678Y39260091D01*
X27188314Y39305857D01*
X27188315Y39305867D01*
X27188846Y39309530D01*
X27190429Y39370000D01*
X27171081Y39580560D01*
X27113686Y39784069D01*
X27053373Y39906371D01*
X27041183Y39976314D01*
X27068742Y40041743D01*
X27127300Y40081887D01*
X27166379Y40088100D01*
X27271976Y40088100D01*
X27340097Y40068098D01*
X27361071Y40051195D01*
X28856724Y38555542D01*
X28890750Y38493230D01*
X28887731Y38428350D01*
X28850620Y38311362D01*
X28828504Y38114194D01*
X28829020Y38108050D01*
X28844384Y37925086D01*
X28845106Y37916485D01*
X28899794Y37725766D01*
X28990484Y37549302D01*
X28994307Y37544478D01*
X28994310Y37544474D01*
X29100129Y37410965D01*
X29113723Y37393814D01*
X29118417Y37389819D01*
X29247033Y37280358D01*
X29264815Y37265224D01*
X29438007Y37168430D01*
X29626701Y37107120D01*
X29823710Y37083628D01*
X29829845Y37084100D01*
X29829847Y37084100D01*
X30015388Y37098376D01*
X30015392Y37098377D01*
X30021530Y37098849D01*
X30027462Y37100505D01*
X30027466Y37100506D01*
X30139429Y37131767D01*
X30212626Y37152204D01*
X30389719Y37241660D01*
X30401974Y37251234D01*
X30483606Y37315013D01*
X30546064Y37363811D01*
X30552926Y37371760D01*
X30671681Y37509340D01*
X30671682Y37509341D01*
X30675705Y37514002D01*
X30685830Y37531824D01*
X30712284Y37578393D01*
X30773706Y37686514D01*
X30836332Y37874775D01*
X30845989Y37951220D01*
X30860757Y38068112D01*
X30860758Y38068122D01*
X30861199Y38071615D01*
X30861595Y38100000D01*
X30842234Y38297458D01*
X30784889Y38487394D01*
X30781052Y38494610D01*
X30694638Y38657133D01*
X30694636Y38657136D01*
X30691744Y38662575D01*
X30687854Y38667345D01*
X30687851Y38667349D01*
X30570241Y38811553D01*
X30570238Y38811556D01*
X30566346Y38816328D01*
X30413473Y38942795D01*
X30408054Y38945725D01*
X30408051Y38945727D01*
X30244366Y39034231D01*
X30244361Y39034233D01*
X30238946Y39037161D01*
X30049415Y39095831D01*
X30043290Y39096475D01*
X30043289Y39096475D01*
X29858225Y39115926D01*
X29858224Y39115926D01*
X29852097Y39116570D01*
X29769572Y39109060D01*
X29660648Y39099147D01*
X29660645Y39099146D01*
X29654509Y39098588D01*
X29648603Y39096850D01*
X29648599Y39096849D01*
X29513530Y39057096D01*
X29442533Y39057051D01*
X29388860Y39088875D01*
X27784488Y40693247D01*
X27769634Y40711637D01*
X27768324Y40713077D01*
X27762672Y40721830D01*
X27754494Y40728277D01*
X27754492Y40728279D01*
X27736537Y40742433D01*
X27732142Y40746339D01*
X27732077Y40746262D01*
X27728120Y40749615D01*
X27724438Y40753297D01*
X27708854Y40764433D01*
X27704114Y40767992D01*
X27672366Y40793021D01*
X27672363Y40793023D01*
X27664186Y40799469D01*
X27655613Y40802480D01*
X27648217Y40807765D01*
X27599475Y40822342D01*
X27593838Y40824174D01*
X27553344Y40838395D01*
X27553338Y40838396D01*
X27545861Y40841022D01*
X27540342Y40841500D01*
X27537627Y40841500D01*
X27535041Y40841612D01*
X27534902Y40841654D01*
X27534908Y40841805D01*
X27534259Y40841846D01*
X27528065Y40843698D01*
X27475131Y40841618D01*
X27474597Y40841597D01*
X27469650Y40841500D01*
X26898176Y40841500D01*
X26830055Y40861502D01*
X26783562Y40915158D01*
X26773458Y40985432D01*
X26802952Y41050012D01*
X26817599Y41064368D01*
X26852012Y41092988D01*
X26987219Y41255558D01*
X26990043Y41260601D01*
X26990046Y41260605D01*
X27087713Y41435002D01*
X27087714Y41435004D01*
X27090537Y41440045D01*
X27092393Y41445512D01*
X27092395Y41445517D01*
X27156647Y41634800D01*
X27158504Y41640270D01*
X27188846Y41849530D01*
X27190429Y41910000D01*
X27171081Y42120560D01*
X27113686Y42324069D01*
X27057771Y42437454D01*
X27022719Y42508531D01*
X27020165Y42513710D01*
X26893651Y42683133D01*
X26759353Y42807277D01*
X26742625Y42822740D01*
X26742624Y42822741D01*
X26738381Y42826663D01*
X26737667Y42827114D01*
X26696742Y42883153D01*
X26692515Y42954023D01*
X26726215Y43014881D01*
X27355742Y43644408D01*
X27374135Y43659264D01*
X27375578Y43660577D01*
X27384330Y43666228D01*
X27404943Y43692376D01*
X27408839Y43696760D01*
X27408763Y43696824D01*
X27412121Y43700787D01*
X27415797Y43704463D01*
X27426924Y43720033D01*
X27430473Y43724760D01*
X27461969Y43764714D01*
X27464980Y43773287D01*
X27470265Y43780683D01*
X27484842Y43829425D01*
X27486674Y43835062D01*
X27500895Y43875556D01*
X27500896Y43875562D01*
X27503522Y43883039D01*
X27504000Y43888558D01*
X27504000Y43891273D01*
X27504112Y43893859D01*
X27504154Y43893998D01*
X27504305Y43893992D01*
X27504346Y43894641D01*
X27506198Y43900835D01*
X27504097Y43954304D01*
X27504000Y43959250D01*
X27504000Y44900077D01*
X27506501Y44923577D01*
X27506593Y44925529D01*
X27508785Y44935710D01*
X27504873Y44968761D01*
X27504527Y44974625D01*
X27504428Y44974617D01*
X27504000Y44979796D01*
X27504000Y44984996D01*
X27503147Y44990123D01*
X27503146Y44990130D01*
X27500858Y45003876D01*
X27500021Y45009752D01*
X27495268Y45049907D01*
X27494044Y45060249D01*
X27490112Y45068438D01*
X27488619Y45077407D01*
X27464461Y45122179D01*
X27461765Y45127470D01*
X27443186Y45166160D01*
X27439758Y45173300D01*
X27436194Y45177541D01*
X27434267Y45179468D01*
X27432524Y45181369D01*
X27432454Y45181498D01*
X27432565Y45181601D01*
X27432135Y45182088D01*
X27429067Y45187775D01*
X27389773Y45224098D01*
X27386208Y45227527D01*
X26725141Y45888594D01*
X26691115Y45950906D01*
X26696180Y46021721D01*
X26733664Y46074560D01*
X26852012Y46172988D01*
X26987219Y46335558D01*
X26990043Y46340601D01*
X26990046Y46340605D01*
X27087713Y46515002D01*
X27087714Y46515004D01*
X27090537Y46520045D01*
X27092393Y46525512D01*
X27092395Y46525517D01*
X27156647Y46714800D01*
X27158504Y46720270D01*
X27188846Y46929530D01*
X27190429Y46990000D01*
X27171081Y47200560D01*
X27113686Y47404069D01*
X27105586Y47420496D01*
X27022719Y47588531D01*
X27020165Y47593710D01*
X26893651Y47763133D01*
X26738381Y47906663D01*
X26733498Y47909744D01*
X26733494Y47909747D01*
X26703739Y47928521D01*
X26656800Y47981788D01*
X26646111Y48051975D01*
X26675065Y48116799D01*
X26699111Y48137857D01*
X26701371Y48138942D01*
X26705611Y48142506D01*
X26707542Y48144437D01*
X26709436Y48146175D01*
X26709560Y48146242D01*
X26709664Y48146128D01*
X26710159Y48146565D01*
X26715846Y48149633D01*
X26752167Y48188925D01*
X26755597Y48192492D01*
X27342050Y48778944D01*
X27360427Y48793786D01*
X27361877Y48795105D01*
X27370630Y48800757D01*
X27391233Y48826892D01*
X27395139Y48831287D01*
X27395062Y48831352D01*
X27398415Y48835309D01*
X27402097Y48838991D01*
X27413233Y48854575D01*
X27416792Y48859315D01*
X27441821Y48891063D01*
X27441823Y48891066D01*
X27448269Y48899243D01*
X27451280Y48907816D01*
X27456565Y48915212D01*
X27471146Y48963967D01*
X27472968Y48969573D01*
X27487195Y49010085D01*
X27487196Y49010091D01*
X27489822Y49017568D01*
X27490300Y49023087D01*
X27490300Y49025801D01*
X27490412Y49028392D01*
X27490453Y49028528D01*
X27490604Y49028521D01*
X27490645Y49029170D01*
X27492497Y49035363D01*
X27490397Y49088817D01*
X27490300Y49093763D01*
X27490300Y49923143D01*
X27492801Y49946644D01*
X27492893Y49948596D01*
X27495086Y49958781D01*
X27493502Y49972164D01*
X27491173Y49991841D01*
X27490828Y49997695D01*
X27490728Y49997687D01*
X27490300Y50002864D01*
X27490300Y50008067D01*
X27487156Y50026957D01*
X27486324Y50032809D01*
X27485526Y50039551D01*
X27480345Y50083320D01*
X27476411Y50091512D01*
X27474919Y50100478D01*
X27450759Y50145253D01*
X27448078Y50150516D01*
X27429491Y50189225D01*
X27429489Y50189229D01*
X27426059Y50196371D01*
X27422494Y50200611D01*
X27420568Y50202537D01*
X27418825Y50204436D01*
X27418766Y50204546D01*
X27418882Y50204652D01*
X27418436Y50205158D01*
X27415367Y50210846D01*
X27376074Y50247168D01*
X27372507Y50250598D01*
X26907572Y50715534D01*
X26873547Y50777846D01*
X26878612Y50848662D01*
X26921159Y50905497D01*
X26955894Y50922509D01*
X26955846Y50922618D01*
X26958762Y50923913D01*
X26958767Y50923916D01*
X27058153Y50968061D01*
X27137241Y51047287D01*
X27182506Y51149673D01*
X27185500Y51175354D01*
X27185500Y52964646D01*
X27182382Y52990846D01*
X27136939Y53093153D01*
X27057713Y53172241D01*
X27047076Y53176944D01*
X27047074Y53176945D01*
X26987538Y53203265D01*
X26955327Y53217506D01*
X26929646Y53220500D01*
X25140354Y53220500D01*
X25136650Y53220059D01*
X25136647Y53220059D01*
X25129254Y53219179D01*
X25114154Y53217382D01*
X25011847Y53171939D01*
X24932759Y53092713D01*
X24887494Y52990327D01*
X24884500Y52964646D01*
X24884500Y51175354D01*
X24887618Y51149154D01*
X24933061Y51046847D01*
X25012287Y50967759D01*
X25022924Y50963056D01*
X25022926Y50963055D01*
X25074345Y50940323D01*
X25114673Y50922494D01*
X25140354Y50919500D01*
X25602408Y50919500D01*
X25670529Y50899498D01*
X25715992Y50848040D01*
X25719110Y50841546D01*
X25719113Y50841542D01*
X25722542Y50834400D01*
X25726106Y50830160D01*
X25727959Y50828307D01*
X25728915Y50826361D01*
X25731942Y50821673D01*
X25731393Y50821318D01*
X25759258Y50764602D01*
X25751144Y50694070D01*
X25706187Y50639122D01*
X25678708Y50624940D01*
X25537575Y50572873D01*
X25355856Y50464762D01*
X25196881Y50325345D01*
X25065976Y50159292D01*
X25063287Y50154181D01*
X25063285Y50154178D01*
X25059955Y50147848D01*
X24967523Y49972164D01*
X24904820Y49770227D01*
X24879967Y49560246D01*
X24893796Y49349251D01*
X24945845Y49144310D01*
X24948262Y49139067D01*
X24962952Y49107202D01*
X24973307Y49036965D01*
X24944044Y48972279D01*
X24937621Y48965356D01*
X24423153Y48450888D01*
X24404763Y48436034D01*
X24403323Y48434724D01*
X24394570Y48429072D01*
X24388123Y48420894D01*
X24388121Y48420892D01*
X24373967Y48402937D01*
X24370061Y48398542D01*
X24370138Y48398477D01*
X24366785Y48394520D01*
X24363103Y48390838D01*
X24352611Y48376154D01*
X24351977Y48375267D01*
X24348408Y48370514D01*
X24323379Y48338766D01*
X24323377Y48338763D01*
X24316931Y48330586D01*
X24313920Y48322013D01*
X24308635Y48314617D01*
X24305651Y48304639D01*
X24294061Y48265885D01*
X24292226Y48260238D01*
X24278005Y48219744D01*
X24278004Y48219738D01*
X24275378Y48212261D01*
X24274900Y48206742D01*
X24274900Y48204027D01*
X24274788Y48201441D01*
X24274746Y48201302D01*
X24274595Y48201308D01*
X24274554Y48200659D01*
X24272702Y48194465D01*
X24273111Y48184059D01*
X24274803Y48140997D01*
X24274900Y48136050D01*
X24274900Y44136928D01*
X24254898Y44068807D01*
X24237995Y44047833D01*
X20329366Y40139205D01*
X20267054Y40105179D01*
X20240271Y40102300D01*
X14524099Y40102300D01*
X14500597Y40104802D01*
X14498641Y40104894D01*
X14488461Y40107086D01*
X14469165Y40104802D01*
X14455402Y40103173D01*
X14449541Y40102828D01*
X14449549Y40102728D01*
X14444370Y40102300D01*
X14439174Y40102300D01*
X14434049Y40101447D01*
X14434048Y40101447D01*
X14420285Y40099157D01*
X14414414Y40098322D01*
X14408832Y40097661D01*
X14363921Y40092345D01*
X14355729Y40088411D01*
X14346763Y40086919D01*
X14337596Y40081973D01*
X14337594Y40081972D01*
X14301986Y40062759D01*
X14296696Y40060064D01*
X14258543Y40041743D01*
X14250871Y40038059D01*
X14246630Y40034494D01*
X14244692Y40032556D01*
X14242805Y40030826D01*
X14242679Y40030758D01*
X14242576Y40030871D01*
X14242082Y40030435D01*
X14236395Y40027367D01*
X14229330Y40019724D01*
X14200061Y39988061D01*
X14196631Y39984495D01*
X12993712Y38781577D01*
X12931400Y38747551D01*
X12860584Y38752616D01*
X12806975Y38791036D01*
X12790247Y38811547D01*
X12790237Y38811557D01*
X12786346Y38816328D01*
X12633473Y38942795D01*
X12628054Y38945725D01*
X12628051Y38945727D01*
X12464366Y39034231D01*
X12464361Y39034233D01*
X12458946Y39037161D01*
X12269415Y39095831D01*
X12263290Y39096475D01*
X12263289Y39096475D01*
X12078227Y39115926D01*
X12078224Y39115926D01*
X12072097Y39116570D01*
X12065953Y39116011D01*
X12065500Y39116014D01*
X11997520Y39136488D01*
X11951400Y39190465D01*
X11941678Y39260091D01*
X11948314Y39305857D01*
X11948315Y39305867D01*
X11948846Y39309530D01*
X11950429Y39370000D01*
X11931081Y39580560D01*
X11873686Y39784069D01*
X11780165Y39973710D01*
X11653651Y40143133D01*
X11515941Y40270431D01*
X11502622Y40282743D01*
X11502620Y40282745D01*
X11498381Y40286663D01*
X11319554Y40399495D01*
X11123160Y40477848D01*
X11117503Y40478973D01*
X11117497Y40478975D01*
X10920234Y40518212D01*
X10857324Y40551119D01*
X10822192Y40612814D01*
X10825992Y40683709D01*
X10867517Y40741295D01*
X10926734Y40766487D01*
X11059015Y40785667D01*
X11059019Y40785668D01*
X11064730Y40786496D01*
X11143987Y40813400D01*
X11259483Y40852605D01*
X11259488Y40852607D01*
X11264955Y40854463D01*
X11277524Y40861502D01*
X11444395Y40954954D01*
X11444399Y40954957D01*
X11449442Y40957781D01*
X11612012Y41092988D01*
X11747219Y41255558D01*
X11750043Y41260601D01*
X11750046Y41260605D01*
X11847713Y41435002D01*
X11847714Y41435004D01*
X11850537Y41440045D01*
X11852393Y41445512D01*
X11852395Y41445517D01*
X11916647Y41634800D01*
X11918504Y41640270D01*
X11948846Y41849530D01*
X11950429Y41910000D01*
X11931081Y42120560D01*
X11873686Y42324069D01*
X11817771Y42437454D01*
X11782719Y42508531D01*
X11780165Y42513710D01*
X11653651Y42683133D01*
X11527768Y42799498D01*
X11502622Y42822743D01*
X11502620Y42822745D01*
X11498381Y42826663D01*
X11493503Y42829741D01*
X11493491Y42829750D01*
X11485331Y42834898D01*
X11438393Y42888164D01*
X11427705Y42958352D01*
X11460042Y43026988D01*
X11495310Y43065140D01*
X11498739Y43068705D01*
X12102342Y43672308D01*
X12120735Y43687164D01*
X12122178Y43688477D01*
X12130930Y43694128D01*
X12151543Y43720276D01*
X12155439Y43724660D01*
X12155363Y43724724D01*
X12158721Y43728687D01*
X12162397Y43732363D01*
X12173524Y43747933D01*
X12177073Y43752660D01*
X12208569Y43792614D01*
X12211580Y43801187D01*
X12216865Y43808583D01*
X12231442Y43857325D01*
X12233274Y43862962D01*
X12247495Y43903456D01*
X12247496Y43903462D01*
X12250122Y43910939D01*
X12250600Y43916458D01*
X12250600Y43919173D01*
X12250712Y43921759D01*
X12250754Y43921898D01*
X12250905Y43921892D01*
X12250946Y43922541D01*
X12252798Y43928735D01*
X12250697Y43982204D01*
X12250600Y43987150D01*
X12250600Y49993577D01*
X12253101Y50017077D01*
X12253193Y50019029D01*
X12255385Y50029210D01*
X12251473Y50062261D01*
X12251127Y50068125D01*
X12251028Y50068117D01*
X12250600Y50073296D01*
X12250600Y50078496D01*
X12249747Y50083623D01*
X12249746Y50083630D01*
X12247458Y50097376D01*
X12246621Y50103252D01*
X12241868Y50143407D01*
X12240644Y50153749D01*
X12236712Y50161938D01*
X12235219Y50170907D01*
X12211061Y50215679D01*
X12208365Y50220970D01*
X12189789Y50259656D01*
X12189787Y50259660D01*
X12186358Y50266800D01*
X12182794Y50271040D01*
X12180863Y50272971D01*
X12179125Y50274865D01*
X12179058Y50274989D01*
X12179172Y50275093D01*
X12178735Y50275588D01*
X12175667Y50281275D01*
X12136374Y50317597D01*
X12132807Y50321027D01*
X11717758Y50736077D01*
X11683733Y50798389D01*
X11688798Y50869205D01*
X11731345Y50926040D01*
X11755706Y50940323D01*
X11807518Y50963337D01*
X11818153Y50968061D01*
X11897241Y51047287D01*
X11942506Y51149673D01*
X11945500Y51175354D01*
X11945500Y52964646D01*
X11942382Y52990846D01*
X11896939Y53093153D01*
X11817713Y53172241D01*
X11807076Y53176944D01*
X11807074Y53176945D01*
X11747538Y53203265D01*
X11715327Y53217506D01*
X11689646Y53220500D01*
X9900354Y53220500D01*
X9896650Y53220059D01*
X9896647Y53220059D01*
X9889254Y53219179D01*
X9874154Y53217382D01*
X9771847Y53171939D01*
X9692759Y53092713D01*
X9647494Y52990327D01*
X9644500Y52964646D01*
X9644500Y51175354D01*
X9647618Y51149154D01*
X9693061Y51046847D01*
X9772287Y50967759D01*
X9782924Y50963056D01*
X9782926Y50963055D01*
X9834345Y50940323D01*
X9874673Y50922494D01*
X9900354Y50919500D01*
X10328947Y50919500D01*
X10397068Y50899498D01*
X10443022Y50845379D01*
X10444501Y50839426D01*
X10450152Y50830674D01*
X10467796Y50803348D01*
X10472827Y50794843D01*
X10474663Y50791441D01*
X10489413Y50721993D01*
X10464276Y50655596D01*
X10407391Y50613387D01*
X10318492Y50580590D01*
X10297575Y50572873D01*
X10115856Y50464762D01*
X9956881Y50325345D01*
X9825976Y50159292D01*
X9823287Y50154181D01*
X9823285Y50154178D01*
X9819955Y50147848D01*
X9727523Y49972164D01*
X9664820Y49770227D01*
X9639967Y49560246D01*
X9653796Y49349251D01*
X9705845Y49144310D01*
X9708262Y49139067D01*
X9722952Y49107202D01*
X9733307Y49036965D01*
X9704044Y48972279D01*
X9697621Y48965356D01*
X9118753Y48386488D01*
X9100363Y48371634D01*
X9098923Y48370324D01*
X9090170Y48364672D01*
X9083723Y48356494D01*
X9083721Y48356492D01*
X9069567Y48338537D01*
X9065661Y48334142D01*
X9065738Y48334077D01*
X9062385Y48330120D01*
X9058703Y48326438D01*
X9050257Y48314617D01*
X9047577Y48310867D01*
X9044008Y48306114D01*
X9018979Y48274366D01*
X9018977Y48274363D01*
X9012531Y48266186D01*
X9009520Y48257613D01*
X9004235Y48250217D01*
X8989760Y48201815D01*
X8989661Y48201485D01*
X8987826Y48195838D01*
X8973605Y48155344D01*
X8973604Y48155338D01*
X8970978Y48147861D01*
X8970500Y48142342D01*
X8970500Y48139627D01*
X8970388Y48137041D01*
X8970346Y48136902D01*
X8970195Y48136908D01*
X8970154Y48136259D01*
X8968302Y48130065D01*
X8969207Y48107038D01*
X8970403Y48076597D01*
X8970500Y48071650D01*
X8970500Y43088029D01*
X8950498Y43019908D01*
X8933595Y42998934D01*
X8686953Y42752292D01*
X8668563Y42737438D01*
X8667123Y42736128D01*
X8658370Y42730476D01*
X8651923Y42722298D01*
X8651921Y42722296D01*
X8637767Y42704341D01*
X8633861Y42699946D01*
X8633938Y42699881D01*
X8630585Y42695924D01*
X8626903Y42692242D01*
X8615971Y42676942D01*
X8615777Y42676671D01*
X8612208Y42671918D01*
X8587179Y42640170D01*
X8587177Y42640167D01*
X8580731Y42631990D01*
X8577720Y42623417D01*
X8572435Y42616021D01*
X8569451Y42606043D01*
X8557861Y42567289D01*
X8556026Y42561642D01*
X8541805Y42521148D01*
X8541804Y42521142D01*
X8539178Y42513665D01*
X8538700Y42508146D01*
X8538700Y42505431D01*
X8538588Y42502845D01*
X8538546Y42502706D01*
X8538395Y42502712D01*
X8538354Y42502063D01*
X8536502Y42495869D01*
X8536911Y42485463D01*
X8538603Y42442401D01*
X8538700Y42437454D01*
X8538700Y39458755D01*
X8518698Y39390634D01*
X8501795Y39369659D01*
X7759394Y38627259D01*
X7724841Y38602772D01*
X7718274Y38599619D01*
X7718271Y38599617D01*
X7711130Y38596188D01*
X7706889Y38592624D01*
X7704954Y38590689D01*
X7703062Y38588954D01*
X7702932Y38588884D01*
X7702829Y38588995D01*
X7702342Y38588565D01*
X7696655Y38585497D01*
X7689587Y38577851D01*
X7689586Y38577850D01*
X7660333Y38546204D01*
X7656903Y38542638D01*
X7645553Y38531288D01*
X7627163Y38516434D01*
X7625723Y38515124D01*
X7616970Y38509472D01*
X7610523Y38501294D01*
X7610521Y38501292D01*
X7596367Y38483337D01*
X7592461Y38478942D01*
X7592538Y38478877D01*
X7589185Y38474920D01*
X7585503Y38471238D01*
X7582480Y38467007D01*
X7574377Y38455667D01*
X7570808Y38450914D01*
X7545779Y38419166D01*
X7545777Y38419163D01*
X7539331Y38410986D01*
X7536320Y38402413D01*
X7531035Y38395017D01*
X7528051Y38385039D01*
X7516461Y38346285D01*
X7514626Y38340638D01*
X7500405Y38300144D01*
X7500404Y38300138D01*
X7497778Y38292661D01*
X7497300Y38287142D01*
X7497300Y38284427D01*
X7497188Y38281841D01*
X7497146Y38281702D01*
X7496995Y38281708D01*
X7496954Y38281059D01*
X7495102Y38274865D01*
X7495511Y38264459D01*
X7497203Y38221397D01*
X7497300Y38216450D01*
X7497300Y36657224D01*
X7477298Y36589103D01*
X7460395Y36568129D01*
X7440696Y36548430D01*
X7378384Y36514404D01*
X7314342Y36517160D01*
X7195302Y36554009D01*
X7195299Y36554010D01*
X7189415Y36555831D01*
X7183290Y36556475D01*
X7183289Y36556475D01*
X6998225Y36575926D01*
X6998224Y36575926D01*
X6992097Y36576570D01*
X6909572Y36569060D01*
X6800648Y36559147D01*
X6800645Y36559146D01*
X6794509Y36558588D01*
X6788603Y36556850D01*
X6788599Y36556849D01*
X6653749Y36517160D01*
X6604177Y36502570D01*
X6428350Y36410650D01*
X6423550Y36406790D01*
X6423549Y36406790D01*
X6330632Y36332083D01*
X6273726Y36286329D01*
X6146194Y36134343D01*
X6143227Y36128945D01*
X6143223Y36128940D01*
X6081077Y36015895D01*
X6050612Y35960479D01*
X5990620Y35771362D01*
X5968504Y35574194D01*
X5985106Y35376485D01*
X5997066Y35334775D01*
X6027858Y35227393D01*
X6039794Y35185766D01*
X6042610Y35180287D01*
X6101819Y35065079D01*
X6130484Y35009302D01*
X6134307Y35004478D01*
X6134310Y35004474D01*
X6245422Y34864287D01*
X6253723Y34853814D01*
X6258417Y34849819D01*
X6353171Y34769177D01*
X6404815Y34725224D01*
X6578007Y34628430D01*
X6766701Y34567120D01*
X6963710Y34543628D01*
X6969845Y34544100D01*
X6969847Y34544100D01*
X7155388Y34558376D01*
X7155392Y34558377D01*
X7161530Y34558849D01*
X7167462Y34560505D01*
X7167466Y34560506D01*
X7257078Y34585526D01*
X7352626Y34612204D01*
X7529719Y34701660D01*
X7535944Y34706523D01*
X7656190Y34800471D01*
X7686064Y34823811D01*
X7708514Y34849819D01*
X7811681Y34969340D01*
X7811682Y34969341D01*
X7815705Y34974002D01*
X7832089Y35002842D01*
X7867444Y35065079D01*
X7918483Y35114429D01*
X7988101Y35128352D01*
X8054195Y35102426D01*
X8095780Y35044883D01*
X8103000Y35002842D01*
X8103000Y34118928D01*
X8100499Y34095428D01*
X8100407Y34093475D01*
X8098214Y34083290D01*
X8102027Y34051082D01*
X8102126Y34050243D01*
X8102472Y34044376D01*
X8102572Y34044384D01*
X8103000Y34039207D01*
X8103000Y34034004D01*
X8106025Y34015831D01*
X8106143Y34015121D01*
X8106978Y34009250D01*
X8110784Y33977096D01*
X8112956Y33958751D01*
X8116888Y33950562D01*
X8118381Y33941593D01*
X8126019Y33927438D01*
X8142539Y33896822D01*
X8145235Y33891530D01*
X8163811Y33852844D01*
X8163813Y33852840D01*
X8167242Y33845700D01*
X8170806Y33841460D01*
X8172737Y33839529D01*
X8174475Y33837635D01*
X8174542Y33837511D01*
X8174428Y33837407D01*
X8174865Y33836912D01*
X8177933Y33831225D01*
X8192238Y33818002D01*
X8217239Y33794891D01*
X8220805Y33791461D01*
X8536724Y33475542D01*
X8570750Y33413230D01*
X8567731Y33348350D01*
X8530620Y33231362D01*
X8508504Y33034194D01*
X8509020Y33028050D01*
X8522791Y32864058D01*
X8525106Y32836485D01*
X8537039Y32794871D01*
X8575679Y32660118D01*
X8579794Y32645766D01*
X8582610Y32640287D01*
X8646448Y32516072D01*
X8670484Y32469302D01*
X8674307Y32464478D01*
X8674310Y32464474D01*
X8763241Y32352272D01*
X8793723Y32313814D01*
X8798417Y32309819D01*
X8923011Y32203781D01*
X8944815Y32185224D01*
X9118007Y32088430D01*
X9306701Y32027120D01*
X9503710Y32003628D01*
X9509845Y32004100D01*
X9509847Y32004100D01*
X9515095Y32004504D01*
X9584549Y31989787D01*
X9635021Y31939856D01*
X9649888Y31864066D01*
X9639967Y31780246D01*
X9640345Y31774480D01*
X9649797Y31630268D01*
X9634293Y31560985D01*
X9583793Y31511082D01*
X9531948Y31498208D01*
X9532097Y31496570D01*
X9340648Y31479147D01*
X9340645Y31479146D01*
X9334509Y31478588D01*
X9328603Y31476850D01*
X9328599Y31476849D01*
X9215681Y31443615D01*
X9144177Y31422570D01*
X8968350Y31330650D01*
X8813726Y31206329D01*
X8686194Y31054343D01*
X8683227Y31048945D01*
X8683223Y31048940D01*
X8621919Y30937426D01*
X8590612Y30880479D01*
X8530620Y30691362D01*
X8508504Y30494194D01*
X8509020Y30488050D01*
X8522704Y30325093D01*
X8525106Y30296485D01*
X8579794Y30105766D01*
X8670484Y29929302D01*
X8674307Y29924478D01*
X8674310Y29924474D01*
X8778067Y29793567D01*
X8793723Y29773814D01*
X8798417Y29769819D01*
X8909789Y29675034D01*
X8944815Y29645224D01*
X9118007Y29548430D01*
X9306701Y29487120D01*
X9503710Y29463628D01*
X9509845Y29464100D01*
X9509847Y29464100D01*
X9515095Y29464504D01*
X9584549Y29449787D01*
X9635021Y29399856D01*
X9649888Y29324066D01*
X9639967Y29240246D01*
X9649357Y29096988D01*
X9649797Y29090268D01*
X9634293Y29020985D01*
X9583793Y28971082D01*
X9531948Y28958208D01*
X9532097Y28956570D01*
X9340648Y28939147D01*
X9340645Y28939146D01*
X9334509Y28938588D01*
X9328603Y28936850D01*
X9328599Y28936849D01*
X9190345Y28896158D01*
X9144177Y28882570D01*
X8968350Y28790650D01*
X8963550Y28786790D01*
X8963549Y28786790D01*
X8944630Y28771579D01*
X8813726Y28666329D01*
X8686194Y28514343D01*
X8683227Y28508945D01*
X8683223Y28508940D01*
X8611982Y28379351D01*
X8590612Y28340479D01*
X8530620Y28151362D01*
X8508504Y27954194D01*
X8505910Y27954485D01*
X8488286Y27897491D01*
X8472368Y27878025D01*
X8186377Y27592034D01*
X8124065Y27558008D01*
X8053250Y27563073D01*
X7996414Y27605620D01*
X7971603Y27672140D01*
X7974409Y27708996D01*
X7976332Y27714775D01*
X7990545Y27827280D01*
X8000757Y27908112D01*
X8000758Y27908122D01*
X8001199Y27911615D01*
X8001595Y27940000D01*
X7982234Y28137458D01*
X7924889Y28327394D01*
X7912247Y28351170D01*
X7834638Y28497133D01*
X7834636Y28497136D01*
X7831744Y28502575D01*
X7827854Y28507345D01*
X7827851Y28507349D01*
X7710241Y28651553D01*
X7710238Y28651556D01*
X7706346Y28656328D01*
X7669702Y28686643D01*
X7558222Y28778866D01*
X7553473Y28782795D01*
X7548054Y28785725D01*
X7548051Y28785727D01*
X7384366Y28874231D01*
X7384361Y28874233D01*
X7378946Y28877161D01*
X7189415Y28935831D01*
X7183290Y28936475D01*
X7183289Y28936475D01*
X6998225Y28955926D01*
X6998224Y28955926D01*
X6992097Y28956570D01*
X6909572Y28949060D01*
X6800648Y28939147D01*
X6800645Y28939146D01*
X6794509Y28938588D01*
X6788603Y28936850D01*
X6788599Y28936849D01*
X6650345Y28896158D01*
X6604177Y28882570D01*
X6428350Y28790650D01*
X6423550Y28786790D01*
X6423549Y28786790D01*
X6404630Y28771579D01*
X6273726Y28666329D01*
X6146194Y28514343D01*
X6143227Y28508945D01*
X6143223Y28508940D01*
X6071982Y28379351D01*
X6050612Y28340479D01*
X5990620Y28151362D01*
X5968504Y27954194D01*
X5969020Y27948050D01*
X5982193Y27791178D01*
X5985106Y27756485D01*
X6039794Y27565766D01*
X6042610Y27560287D01*
X6042611Y27560284D01*
X6045791Y27554097D01*
X6059140Y27484367D01*
X6032672Y27418489D01*
X5974789Y27377379D01*
X5933726Y27370500D01*
X3276110Y27370500D01*
X3207989Y27390502D01*
X3161496Y27444158D01*
X3151392Y27514432D01*
X3154403Y27529111D01*
X3196625Y27686688D01*
X3198528Y27697481D01*
X3217517Y27914525D01*
X3217517Y27925475D01*
X3198528Y28142519D01*
X3196625Y28153312D01*
X3140236Y28363761D01*
X3136490Y28374053D01*
X3044414Y28571511D01*
X3038931Y28581006D01*
X3002491Y28633048D01*
X2992012Y28641424D01*
X2978566Y28634356D01*
X1189923Y26845713D01*
X1183493Y26833938D01*
X1192789Y26821923D01*
X1243994Y26786069D01*
X1253489Y26780586D01*
X1450947Y26688510D01*
X1461244Y26684762D01*
X1479162Y26679961D01*
X1539784Y26643009D01*
X1570805Y26579148D01*
X1562375Y26508654D01*
X1517172Y26453907D01*
X1490160Y26440043D01*
X1429193Y26417551D01*
X1424232Y26414599D01*
X1424231Y26414599D01*
X1395847Y26397712D01*
X1255371Y26314138D01*
X1103305Y26180780D01*
X978089Y26021943D01*
X883914Y25842947D01*
X823937Y25649787D01*
X800164Y25448931D01*
X813392Y25247106D01*
X814815Y25241504D01*
X839070Y25146000D01*
X863178Y25051072D01*
X947856Y24867393D01*
X951189Y24862677D01*
X1038607Y24738983D01*
X1064588Y24702220D01*
X1209466Y24561087D01*
X1377637Y24448718D01*
X1382941Y24446439D01*
X1382947Y24446436D01*
X1452037Y24416753D01*
X1506731Y24371485D01*
X1528300Y24300985D01*
X1528300Y22711931D01*
X1508298Y22643810D01*
X1454642Y22597317D01*
X1445913Y22593720D01*
X1434612Y22589551D01*
X1434605Y22589547D01*
X1429193Y22587551D01*
X1424232Y22584599D01*
X1424231Y22584599D01*
X1285178Y22501871D01*
X1255371Y22484138D01*
X1103305Y22350780D01*
X978089Y22191943D01*
X883914Y22012947D01*
X823937Y21819787D01*
X800164Y21618931D01*
X500000Y21618931D01*
X500000Y27269691D01*
X520002Y27337812D01*
X573658Y27384305D01*
X643932Y27394409D01*
X708512Y27364915D01*
X740195Y27322941D01*
X765586Y27268489D01*
X771069Y27258994D01*
X807509Y27206952D01*
X817988Y27198576D01*
X831434Y27205644D01*
X1532978Y27907188D01*
X1540592Y27921132D01*
X1540461Y27922965D01*
X1536210Y27929580D01*
X830713Y28635077D01*
X818938Y28641507D01*
X806923Y28632211D01*
X771069Y28581006D01*
X765586Y28571511D01*
X740195Y28517059D01*
X693277Y28463774D01*
X625000Y28444313D01*
X557040Y28464855D01*
X510975Y28518878D01*
X500000Y28570309D01*
X500000Y29007012D01*
X1183576Y29007012D01*
X1190644Y28993566D01*
X1892188Y28292022D01*
X1906132Y28284408D01*
X1907965Y28284539D01*
X1914580Y28288790D01*
X2620077Y28994287D01*
X2626507Y29006062D01*
X2617211Y29018077D01*
X2566006Y29053931D01*
X2556511Y29059414D01*
X2359053Y29151490D01*
X2348761Y29155236D01*
X2138312Y29211625D01*
X2127519Y29213528D01*
X1910475Y29232517D01*
X1899525Y29232517D01*
X1682481Y29213528D01*
X1671688Y29211625D01*
X1461239Y29155236D01*
X1450947Y29151490D01*
X1253489Y29059414D01*
X1243994Y29053931D01*
X1191952Y29017491D01*
X1183576Y29007012D01*
X500000Y29007012D01*
X500000Y30494194D01*
X5968504Y30494194D01*
X5969020Y30488050D01*
X5982704Y30325093D01*
X5985106Y30296485D01*
X6039794Y30105766D01*
X6130484Y29929302D01*
X6134307Y29924478D01*
X6134310Y29924474D01*
X6238067Y29793567D01*
X6253723Y29773814D01*
X6258417Y29769819D01*
X6369789Y29675034D01*
X6404815Y29645224D01*
X6578007Y29548430D01*
X6766701Y29487120D01*
X6963710Y29463628D01*
X6969845Y29464100D01*
X6969847Y29464100D01*
X7155388Y29478376D01*
X7155392Y29478377D01*
X7161530Y29478849D01*
X7167462Y29480505D01*
X7167466Y29480506D01*
X7257078Y29505526D01*
X7352626Y29532204D01*
X7529719Y29621660D01*
X7559880Y29645224D01*
X7681214Y29740022D01*
X7686064Y29743811D01*
X7708514Y29769819D01*
X7811681Y29889340D01*
X7811682Y29889341D01*
X7815705Y29894002D01*
X7828546Y29916605D01*
X7868563Y29987049D01*
X7913706Y30066514D01*
X7976332Y30254775D01*
X7984300Y30317848D01*
X8000757Y30448112D01*
X8000758Y30448122D01*
X8001199Y30451615D01*
X8001595Y30480000D01*
X7982234Y30677458D01*
X7924889Y30867394D01*
X7890012Y30932988D01*
X7834638Y31037133D01*
X7834636Y31037136D01*
X7831744Y31042575D01*
X7827854Y31047345D01*
X7827851Y31047349D01*
X7710241Y31191553D01*
X7710238Y31191556D01*
X7706346Y31196328D01*
X7553473Y31322795D01*
X7548054Y31325725D01*
X7548051Y31325727D01*
X7384366Y31414231D01*
X7384361Y31414233D01*
X7378946Y31417161D01*
X7189415Y31475831D01*
X7183290Y31476475D01*
X7183289Y31476475D01*
X6998225Y31495926D01*
X6998224Y31495926D01*
X6992097Y31496570D01*
X6909572Y31489060D01*
X6800648Y31479147D01*
X6800645Y31479146D01*
X6794509Y31478588D01*
X6788603Y31476850D01*
X6788599Y31476849D01*
X6675681Y31443615D01*
X6604177Y31422570D01*
X6428350Y31330650D01*
X6273726Y31206329D01*
X6146194Y31054343D01*
X6143227Y31048945D01*
X6143223Y31048940D01*
X6081919Y30937426D01*
X6050612Y30880479D01*
X5990620Y30691362D01*
X5968504Y30494194D01*
X500000Y30494194D01*
X500000Y33034194D01*
X5968504Y33034194D01*
X5969020Y33028050D01*
X5982791Y32864058D01*
X5985106Y32836485D01*
X5997039Y32794871D01*
X6035679Y32660118D01*
X6039794Y32645766D01*
X6042610Y32640287D01*
X6106448Y32516072D01*
X6130484Y32469302D01*
X6134307Y32464478D01*
X6134310Y32464474D01*
X6223241Y32352272D01*
X6253723Y32313814D01*
X6258417Y32309819D01*
X6383011Y32203781D01*
X6404815Y32185224D01*
X6578007Y32088430D01*
X6766701Y32027120D01*
X6963710Y32003628D01*
X6969845Y32004100D01*
X6969847Y32004100D01*
X7155388Y32018376D01*
X7155392Y32018377D01*
X7161530Y32018849D01*
X7167462Y32020505D01*
X7167466Y32020506D01*
X7257078Y32045526D01*
X7352626Y32072204D01*
X7529719Y32161660D01*
X7547658Y32175675D01*
X7625322Y32236354D01*
X7686064Y32283811D01*
X7695014Y32294179D01*
X7811681Y32429340D01*
X7811682Y32429341D01*
X7815705Y32434002D01*
X7913706Y32606514D01*
X7976332Y32794775D01*
X7984300Y32857848D01*
X8000757Y32988112D01*
X8000758Y32988122D01*
X8001199Y32991615D01*
X8001595Y33020000D01*
X7982234Y33217458D01*
X7924889Y33407394D01*
X7888654Y33475542D01*
X7834638Y33577133D01*
X7834636Y33577136D01*
X7831744Y33582575D01*
X7827854Y33587345D01*
X7827851Y33587349D01*
X7710241Y33731553D01*
X7710238Y33731556D01*
X7706346Y33736328D01*
X7678404Y33759444D01*
X7616237Y33810872D01*
X7553473Y33862795D01*
X7548054Y33865725D01*
X7548051Y33865727D01*
X7384366Y33954231D01*
X7384361Y33954233D01*
X7378946Y33957161D01*
X7189415Y34015831D01*
X7183290Y34016475D01*
X7183289Y34016475D01*
X6998225Y34035926D01*
X6998224Y34035926D01*
X6992097Y34036570D01*
X6909572Y34029060D01*
X6800648Y34019147D01*
X6800645Y34019146D01*
X6794509Y34018588D01*
X6788603Y34016850D01*
X6788599Y34016849D01*
X6653532Y33977096D01*
X6604177Y33962570D01*
X6428350Y33870650D01*
X6423550Y33866790D01*
X6423549Y33866790D01*
X6324817Y33787407D01*
X6273726Y33746329D01*
X6146194Y33594343D01*
X6143227Y33588945D01*
X6143223Y33588940D01*
X6081919Y33477426D01*
X6050612Y33420479D01*
X5990620Y33231362D01*
X5968504Y33034194D01*
X500000Y33034194D01*
X500000Y41447810D01*
X520002Y41515931D01*
X536905Y41536905D01*
X963095Y41963095D01*
X1025407Y41997121D01*
X1052190Y42000000D01*
X7500000Y42000000D01*
X8000000Y42500000D01*
X8000000Y54447810D01*
X8020002Y54515931D01*
X8036905Y54536905D01*
X8463095Y54963095D01*
X8525407Y54997121D01*
X8552190Y55000000D01*
X28447810Y55000000D01*
X28515931Y54979998D01*
G37*
G04 #@! TD.AperFunction*
G04 #@! TA.AperFunction,Conductor*
G36*
X16158162Y15783098D02*
G01*
X16204655Y15729442D01*
X16214759Y15659168D01*
X16210143Y15639001D01*
X16206461Y15627394D01*
X16150620Y15451362D01*
X16128504Y15254194D01*
X16145106Y15056485D01*
X16157066Y15014775D01*
X16190277Y14898957D01*
X16199794Y14865766D01*
X16202610Y14860287D01*
X16270414Y14728355D01*
X16290484Y14689302D01*
X16294307Y14684478D01*
X16294310Y14684474D01*
X16391123Y14562328D01*
X16413723Y14533814D01*
X16418417Y14529819D01*
X16484110Y14473910D01*
X16564815Y14405224D01*
X16570193Y14402218D01*
X16570195Y14402217D01*
X16600193Y14385452D01*
X16738007Y14308430D01*
X16926701Y14247120D01*
X17123710Y14223628D01*
X17129845Y14224100D01*
X17129847Y14224100D01*
X17315388Y14238376D01*
X17315392Y14238377D01*
X17321530Y14238849D01*
X17327462Y14240505D01*
X17327466Y14240506D01*
X17417078Y14265526D01*
X17512626Y14292204D01*
X17689719Y14381660D01*
X17707644Y14395664D01*
X17813208Y14478141D01*
X17846064Y14503811D01*
X17865202Y14525982D01*
X17971681Y14649340D01*
X17971682Y14649341D01*
X17975705Y14654002D01*
X17984954Y14670282D01*
X18050552Y14785756D01*
X18073706Y14826514D01*
X18136332Y15014775D01*
X18145989Y15091220D01*
X18160757Y15208112D01*
X18160758Y15208122D01*
X18161199Y15211615D01*
X18161595Y15240000D01*
X18142234Y15437458D01*
X18084889Y15627394D01*
X18083430Y15630139D01*
X18076075Y15699687D01*
X18107965Y15763119D01*
X18169086Y15799240D01*
X18200034Y15803100D01*
X18536976Y15803100D01*
X18605097Y15783098D01*
X18626071Y15766195D01*
X18696724Y15695542D01*
X18730750Y15633230D01*
X18727731Y15568350D01*
X18690620Y15451362D01*
X18668504Y15254194D01*
X18685106Y15056485D01*
X18697066Y15014775D01*
X18730277Y14898957D01*
X18739794Y14865766D01*
X18742610Y14860287D01*
X18810414Y14728355D01*
X18830484Y14689302D01*
X18834307Y14684478D01*
X18834310Y14684474D01*
X18931123Y14562328D01*
X18953723Y14533814D01*
X18958417Y14529819D01*
X19024110Y14473910D01*
X19104815Y14405224D01*
X19110193Y14402218D01*
X19110195Y14402217D01*
X19140193Y14385452D01*
X19278007Y14308430D01*
X19466701Y14247120D01*
X19663710Y14223628D01*
X19669845Y14224100D01*
X19669847Y14224100D01*
X19855388Y14238376D01*
X19855392Y14238377D01*
X19861530Y14238849D01*
X19867462Y14240505D01*
X19867466Y14240506D01*
X19957078Y14265526D01*
X20052626Y14292204D01*
X20229719Y14381660D01*
X20247644Y14395664D01*
X20353208Y14478141D01*
X20386064Y14503811D01*
X20405202Y14525982D01*
X20511681Y14649340D01*
X20511682Y14649341D01*
X20515705Y14654002D01*
X20524954Y14670282D01*
X20590552Y14785756D01*
X20613706Y14826514D01*
X20676332Y15014775D01*
X20685989Y15091220D01*
X20700757Y15208112D01*
X20700758Y15208122D01*
X20701199Y15211615D01*
X20701595Y15240000D01*
X20682234Y15437458D01*
X20642102Y15570382D01*
X20641561Y15641377D01*
X20673629Y15695895D01*
X20743929Y15766195D01*
X20806241Y15800221D01*
X20833024Y15803100D01*
X21170041Y15803100D01*
X21238162Y15783098D01*
X21284655Y15729442D01*
X21294759Y15659168D01*
X21290143Y15639001D01*
X21286461Y15627394D01*
X21230620Y15451362D01*
X21208504Y15254194D01*
X21225106Y15056485D01*
X21237066Y15014775D01*
X21270277Y14898957D01*
X21279794Y14865766D01*
X21282610Y14860287D01*
X21350414Y14728355D01*
X21370484Y14689302D01*
X21374307Y14684478D01*
X21374310Y14684474D01*
X21471123Y14562328D01*
X21493723Y14533814D01*
X21498417Y14529819D01*
X21564110Y14473910D01*
X21644815Y14405224D01*
X21650193Y14402218D01*
X21650195Y14402217D01*
X21680193Y14385452D01*
X21818007Y14308430D01*
X22006701Y14247120D01*
X22203710Y14223628D01*
X22209845Y14224100D01*
X22209847Y14224100D01*
X22395388Y14238376D01*
X22395392Y14238377D01*
X22401530Y14238849D01*
X22407462Y14240505D01*
X22407466Y14240506D01*
X22497078Y14265526D01*
X22592626Y14292204D01*
X22769719Y14381660D01*
X22787644Y14395664D01*
X22893208Y14478141D01*
X22914727Y14494953D01*
X22980720Y14521131D01*
X23050391Y14507474D01*
X23101618Y14458318D01*
X23118300Y14395664D01*
X23118300Y13541839D01*
X23098298Y13473718D01*
X23044642Y13427225D01*
X22974368Y13417121D01*
X22911985Y13444754D01*
X22811512Y13527872D01*
X22793473Y13542795D01*
X22788052Y13545726D01*
X22788051Y13545727D01*
X22624366Y13634231D01*
X22624361Y13634233D01*
X22618946Y13637161D01*
X22429415Y13695831D01*
X22423290Y13696475D01*
X22423289Y13696475D01*
X22238225Y13715926D01*
X22238224Y13715926D01*
X22232097Y13716570D01*
X22165949Y13710550D01*
X22040648Y13699147D01*
X22040645Y13699146D01*
X22034509Y13698588D01*
X22028603Y13696850D01*
X22028599Y13696849D01*
X21934963Y13669290D01*
X21844177Y13642570D01*
X21668350Y13550650D01*
X21663550Y13546790D01*
X21663549Y13546790D01*
X21520406Y13431700D01*
X21513726Y13426329D01*
X21386194Y13274343D01*
X21383227Y13268945D01*
X21383223Y13268940D01*
X21347485Y13203932D01*
X21290612Y13100479D01*
X21288751Y13094612D01*
X21288750Y13094610D01*
X21267730Y13028348D01*
X21230620Y12911362D01*
X21208504Y12714194D01*
X21209020Y12708050D01*
X21224042Y12529161D01*
X21225106Y12516485D01*
X21237066Y12474775D01*
X21272793Y12350183D01*
X21279794Y12325766D01*
X21296076Y12294085D01*
X21359161Y12171335D01*
X21370484Y12149302D01*
X21374307Y12144478D01*
X21374310Y12144474D01*
X21480129Y12010965D01*
X21506767Y11945155D01*
X21493596Y11875391D01*
X21444799Y11823822D01*
X21381384Y11806700D01*
X20525658Y11806700D01*
X20457537Y11826702D01*
X20411044Y11880358D01*
X20400940Y11950632D01*
X20430276Y12015031D01*
X20511681Y12109340D01*
X20511682Y12109341D01*
X20515705Y12114002D01*
X20520844Y12123047D01*
X20610659Y12281151D01*
X20613706Y12286514D01*
X20676332Y12474775D01*
X20685989Y12551220D01*
X20700757Y12668112D01*
X20700758Y12668122D01*
X20701199Y12671615D01*
X20701595Y12700000D01*
X20682234Y12897458D01*
X20624889Y13087394D01*
X20531744Y13262575D01*
X20527854Y13267345D01*
X20527851Y13267349D01*
X20410241Y13411553D01*
X20410238Y13411556D01*
X20406346Y13416328D01*
X20397636Y13423534D01*
X20324300Y13484202D01*
X20253473Y13542795D01*
X20248052Y13545726D01*
X20248051Y13545727D01*
X20084366Y13634231D01*
X20084361Y13634233D01*
X20078946Y13637161D01*
X19889415Y13695831D01*
X19883290Y13696475D01*
X19883289Y13696475D01*
X19698225Y13715926D01*
X19698224Y13715926D01*
X19692097Y13716570D01*
X19625949Y13710550D01*
X19500648Y13699147D01*
X19500645Y13699146D01*
X19494509Y13698588D01*
X19488603Y13696850D01*
X19488599Y13696849D01*
X19394963Y13669290D01*
X19304177Y13642570D01*
X19128350Y13550650D01*
X19123550Y13546790D01*
X19123549Y13546790D01*
X18980406Y13431700D01*
X18973726Y13426329D01*
X18846194Y13274343D01*
X18843227Y13268945D01*
X18843223Y13268940D01*
X18807485Y13203932D01*
X18750612Y13100479D01*
X18748751Y13094612D01*
X18748750Y13094610D01*
X18727730Y13028348D01*
X18690620Y12911362D01*
X18668504Y12714194D01*
X18669020Y12708050D01*
X18684042Y12529161D01*
X18685106Y12516485D01*
X18697066Y12474775D01*
X18732793Y12350183D01*
X18739794Y12325766D01*
X18756076Y12294085D01*
X18819161Y12171335D01*
X18830484Y12149302D01*
X18834307Y12144478D01*
X18834310Y12144474D01*
X18940129Y12010965D01*
X18966767Y11945155D01*
X18953596Y11875391D01*
X18904799Y11823822D01*
X18841384Y11806700D01*
X17985658Y11806700D01*
X17917537Y11826702D01*
X17871044Y11880358D01*
X17860940Y11950632D01*
X17890276Y12015031D01*
X17971681Y12109340D01*
X17971682Y12109341D01*
X17975705Y12114002D01*
X17980844Y12123047D01*
X18070659Y12281151D01*
X18073706Y12286514D01*
X18136332Y12474775D01*
X18145989Y12551220D01*
X18160757Y12668112D01*
X18160758Y12668122D01*
X18161199Y12671615D01*
X18161595Y12700000D01*
X18142234Y12897458D01*
X18084889Y13087394D01*
X17991744Y13262575D01*
X17987854Y13267345D01*
X17987851Y13267349D01*
X17870241Y13411553D01*
X17870238Y13411556D01*
X17866346Y13416328D01*
X17857636Y13423534D01*
X17784300Y13484202D01*
X17713473Y13542795D01*
X17708052Y13545726D01*
X17708051Y13545727D01*
X17544366Y13634231D01*
X17544361Y13634233D01*
X17538946Y13637161D01*
X17349415Y13695831D01*
X17343290Y13696475D01*
X17343289Y13696475D01*
X17158225Y13715926D01*
X17158224Y13715926D01*
X17152097Y13716570D01*
X17085949Y13710550D01*
X16960648Y13699147D01*
X16960645Y13699146D01*
X16954509Y13698588D01*
X16948603Y13696850D01*
X16948599Y13696849D01*
X16854963Y13669290D01*
X16764177Y13642570D01*
X16588350Y13550650D01*
X16583550Y13546790D01*
X16583549Y13546790D01*
X16440406Y13431700D01*
X16433726Y13426329D01*
X16306194Y13274343D01*
X16303227Y13268945D01*
X16303223Y13268940D01*
X16267485Y13203932D01*
X16210612Y13100479D01*
X16208751Y13094612D01*
X16208750Y13094610D01*
X16187730Y13028348D01*
X16150620Y12911362D01*
X16128504Y12714194D01*
X16129020Y12708050D01*
X16144042Y12529161D01*
X16145106Y12516485D01*
X16157066Y12474775D01*
X16192793Y12350183D01*
X16199794Y12325766D01*
X16216076Y12294085D01*
X16279161Y12171335D01*
X16290484Y12149302D01*
X16294307Y12144478D01*
X16294310Y12144474D01*
X16400129Y12010965D01*
X16426767Y11945155D01*
X16413596Y11875391D01*
X16364799Y11823822D01*
X16301384Y11806700D01*
X15445658Y11806700D01*
X15377537Y11826702D01*
X15331044Y11880358D01*
X15320940Y11950632D01*
X15350276Y12015031D01*
X15431681Y12109340D01*
X15431682Y12109341D01*
X15435705Y12114002D01*
X15440844Y12123047D01*
X15530659Y12281151D01*
X15533706Y12286514D01*
X15596332Y12474775D01*
X15605989Y12551220D01*
X15620757Y12668112D01*
X15620758Y12668122D01*
X15621199Y12671615D01*
X15621595Y12700000D01*
X15602234Y12897458D01*
X15544889Y13087394D01*
X15451744Y13262575D01*
X15447854Y13267345D01*
X15447851Y13267349D01*
X15330241Y13411553D01*
X15330238Y13411556D01*
X15326346Y13416328D01*
X15317636Y13423534D01*
X15244300Y13484202D01*
X15173473Y13542795D01*
X15168052Y13545726D01*
X15168051Y13545727D01*
X15004366Y13634231D01*
X15004361Y13634233D01*
X14998946Y13637161D01*
X14809415Y13695831D01*
X14803290Y13696475D01*
X14803289Y13696475D01*
X14618225Y13715926D01*
X14618224Y13715926D01*
X14612097Y13716570D01*
X14545949Y13710550D01*
X14420648Y13699147D01*
X14420645Y13699146D01*
X14414509Y13698588D01*
X14408603Y13696850D01*
X14408599Y13696849D01*
X14314963Y13669290D01*
X14224177Y13642570D01*
X14048350Y13550650D01*
X14043550Y13546790D01*
X14043549Y13546790D01*
X13900406Y13431700D01*
X13893726Y13426329D01*
X13766194Y13274343D01*
X13763227Y13268945D01*
X13763223Y13268940D01*
X13727485Y13203932D01*
X13670612Y13100479D01*
X13668751Y13094612D01*
X13668750Y13094610D01*
X13647730Y13028348D01*
X13610620Y12911362D01*
X13588504Y12714194D01*
X13589020Y12708050D01*
X13604042Y12529161D01*
X13605106Y12516485D01*
X13617066Y12474775D01*
X13652793Y12350183D01*
X13659794Y12325766D01*
X13676076Y12294085D01*
X13739161Y12171335D01*
X13750484Y12149302D01*
X13754307Y12144478D01*
X13754310Y12144474D01*
X13860129Y12010965D01*
X13886767Y11945155D01*
X13873596Y11875391D01*
X13824799Y11823822D01*
X13761384Y11806700D01*
X12905658Y11806700D01*
X12837537Y11826702D01*
X12791044Y11880358D01*
X12780940Y11950632D01*
X12810276Y12015031D01*
X12891681Y12109340D01*
X12891682Y12109341D01*
X12895705Y12114002D01*
X12900844Y12123047D01*
X12990659Y12281151D01*
X12993706Y12286514D01*
X13056332Y12474775D01*
X13065989Y12551220D01*
X13080757Y12668112D01*
X13080758Y12668122D01*
X13081199Y12671615D01*
X13081595Y12700000D01*
X13062234Y12897458D01*
X13004889Y13087394D01*
X12911744Y13262575D01*
X12907854Y13267345D01*
X12907851Y13267349D01*
X12790241Y13411553D01*
X12790238Y13411556D01*
X12786346Y13416328D01*
X12777636Y13423534D01*
X12704300Y13484202D01*
X12633473Y13542795D01*
X12524206Y13601875D01*
X12473798Y13651868D01*
X12458420Y13721179D01*
X12482956Y13787802D01*
X12495040Y13801806D01*
X12853091Y14159856D01*
X13233750Y14540515D01*
X13252127Y14555357D01*
X13253577Y14556676D01*
X13262330Y14562328D01*
X13282933Y14588463D01*
X13286839Y14592858D01*
X13286762Y14592923D01*
X13290115Y14596880D01*
X13293797Y14600562D01*
X13304933Y14616146D01*
X13308492Y14620886D01*
X13333521Y14652634D01*
X13333523Y14652637D01*
X13339969Y14660814D01*
X13342980Y14669387D01*
X13348265Y14676783D01*
X13362833Y14725496D01*
X13364667Y14731142D01*
X13378896Y14771660D01*
X13378897Y14771663D01*
X13381522Y14779139D01*
X13382000Y14784658D01*
X13382000Y14787373D01*
X13382112Y14789964D01*
X13382152Y14790099D01*
X13382304Y14790092D01*
X13382345Y14790742D01*
X13384197Y14796935D01*
X13383788Y14807339D01*
X13385094Y14817674D01*
X13387030Y14817429D01*
X13401192Y14873763D01*
X13420691Y14898957D01*
X13447861Y14926127D01*
X13510173Y14960153D01*
X13580988Y14955088D01*
X13637824Y14912541D01*
X13655358Y14877231D01*
X13655828Y14877417D01*
X13658039Y14871833D01*
X13658076Y14871759D01*
X13659794Y14865766D01*
X13662610Y14860287D01*
X13730414Y14728355D01*
X13750484Y14689302D01*
X13754307Y14684478D01*
X13754310Y14684474D01*
X13851123Y14562328D01*
X13873723Y14533814D01*
X13878417Y14529819D01*
X13944110Y14473910D01*
X14024815Y14405224D01*
X14030193Y14402218D01*
X14030195Y14402217D01*
X14060193Y14385452D01*
X14198007Y14308430D01*
X14386701Y14247120D01*
X14583710Y14223628D01*
X14589845Y14224100D01*
X14589847Y14224100D01*
X14775388Y14238376D01*
X14775392Y14238377D01*
X14781530Y14238849D01*
X14787462Y14240505D01*
X14787466Y14240506D01*
X14877078Y14265526D01*
X14972626Y14292204D01*
X15149719Y14381660D01*
X15167644Y14395664D01*
X15273208Y14478141D01*
X15306064Y14503811D01*
X15325202Y14525982D01*
X15431681Y14649340D01*
X15431682Y14649341D01*
X15435705Y14654002D01*
X15444954Y14670282D01*
X15510552Y14785756D01*
X15533706Y14826514D01*
X15596332Y15014775D01*
X15605989Y15091220D01*
X15620757Y15208112D01*
X15620758Y15208122D01*
X15621199Y15211615D01*
X15621595Y15240000D01*
X15602234Y15437458D01*
X15562102Y15570382D01*
X15561561Y15641377D01*
X15593629Y15695895D01*
X15663929Y15766195D01*
X15726241Y15800221D01*
X15753024Y15803100D01*
X16090041Y15803100D01*
X16158162Y15783098D01*
G37*
G04 #@! TD.AperFunction*
G04 #@! TA.AperFunction,Conductor*
G36*
X16196971Y38719298D02*
G01*
X16243464Y38665642D01*
X16253568Y38595368D01*
X16239265Y38552599D01*
X16210612Y38500479D01*
X16208751Y38494612D01*
X16208750Y38494610D01*
X16201336Y38471238D01*
X16150620Y38311362D01*
X16128504Y38114194D01*
X16129020Y38108050D01*
X16144384Y37925086D01*
X16145106Y37916485D01*
X16199794Y37725766D01*
X16290484Y37549302D01*
X16294307Y37544478D01*
X16294310Y37544474D01*
X16400129Y37410965D01*
X16426767Y37345155D01*
X16413596Y37275391D01*
X16364799Y37223822D01*
X16301384Y37206700D01*
X15928623Y37206700D01*
X15905123Y37209201D01*
X15903171Y37209293D01*
X15892990Y37211485D01*
X15882649Y37210261D01*
X15859940Y37207573D01*
X15854075Y37207227D01*
X15854083Y37207128D01*
X15848904Y37206700D01*
X15843704Y37206700D01*
X15838577Y37205847D01*
X15838570Y37205846D01*
X15824824Y37203558D01*
X15818948Y37202721D01*
X15784007Y37198585D01*
X15768451Y37196744D01*
X15760262Y37192812D01*
X15751293Y37191319D01*
X15708874Y37168430D01*
X15706522Y37167161D01*
X15701230Y37164465D01*
X15662544Y37145889D01*
X15662540Y37145887D01*
X15655400Y37142458D01*
X15651160Y37138894D01*
X15649229Y37136963D01*
X15647335Y37135225D01*
X15647211Y37135158D01*
X15647107Y37135272D01*
X15646612Y37134835D01*
X15640925Y37131767D01*
X15633860Y37124124D01*
X15604603Y37092474D01*
X15601173Y37088907D01*
X15060694Y36548429D01*
X14998382Y36514404D01*
X14934340Y36517160D01*
X14815301Y36554009D01*
X14809415Y36555831D01*
X14803290Y36556475D01*
X14803289Y36556475D01*
X14618225Y36575926D01*
X14618224Y36575926D01*
X14612097Y36576570D01*
X14529572Y36569060D01*
X14420648Y36559147D01*
X14420645Y36559146D01*
X14414509Y36558588D01*
X14408603Y36556850D01*
X14408599Y36556849D01*
X14273749Y36517160D01*
X14224177Y36502570D01*
X14048350Y36410650D01*
X14043550Y36406790D01*
X14043549Y36406790D01*
X13950632Y36332083D01*
X13893726Y36286329D01*
X13766194Y36134343D01*
X13763227Y36128945D01*
X13763223Y36128940D01*
X13701077Y36015895D01*
X13670612Y35960479D01*
X13610620Y35771362D01*
X13588504Y35574194D01*
X13605106Y35376485D01*
X13617066Y35334775D01*
X13647858Y35227393D01*
X13659794Y35185766D01*
X13662610Y35180287D01*
X13721819Y35065079D01*
X13750484Y35009302D01*
X13754307Y35004478D01*
X13754310Y35004474D01*
X13865422Y34864287D01*
X13873723Y34853814D01*
X13878417Y34849819D01*
X13973171Y34769177D01*
X14024815Y34725224D01*
X14198007Y34628430D01*
X14386701Y34567120D01*
X14583710Y34543628D01*
X14589845Y34544100D01*
X14589847Y34544100D01*
X14775388Y34558376D01*
X14775392Y34558377D01*
X14781530Y34558849D01*
X14787462Y34560505D01*
X14787466Y34560506D01*
X14877078Y34585526D01*
X14972626Y34612204D01*
X15149719Y34701660D01*
X15155944Y34706523D01*
X15276190Y34800471D01*
X15306064Y34823811D01*
X15328514Y34849819D01*
X15431681Y34969340D01*
X15431682Y34969341D01*
X15435705Y34974002D01*
X15452089Y35002842D01*
X15530659Y35141151D01*
X15533706Y35146514D01*
X15596332Y35334775D01*
X15605989Y35411220D01*
X15620757Y35528112D01*
X15620758Y35528122D01*
X15621199Y35531615D01*
X15621595Y35560000D01*
X15602234Y35757458D01*
X15562102Y35890382D01*
X15561561Y35961375D01*
X15593629Y36015895D01*
X15788401Y36210666D01*
X15994131Y36416396D01*
X16056443Y36450421D01*
X16083226Y36453300D01*
X16303624Y36453300D01*
X16371745Y36433298D01*
X16418238Y36379642D01*
X16428342Y36309368D01*
X16400145Y36246309D01*
X16306194Y36134343D01*
X16303227Y36128945D01*
X16303223Y36128940D01*
X16241077Y36015895D01*
X16210612Y35960479D01*
X16150620Y35771362D01*
X16128504Y35574194D01*
X16145106Y35376485D01*
X16157066Y35334775D01*
X16187858Y35227393D01*
X16199794Y35185766D01*
X16202610Y35180287D01*
X16261819Y35065079D01*
X16290484Y35009302D01*
X16294307Y35004478D01*
X16294310Y35004474D01*
X16405422Y34864287D01*
X16413723Y34853814D01*
X16418417Y34849819D01*
X16513171Y34769177D01*
X16564815Y34725224D01*
X16738007Y34628430D01*
X16926701Y34567120D01*
X17123710Y34543628D01*
X17129845Y34544100D01*
X17129847Y34544100D01*
X17315388Y34558376D01*
X17315392Y34558377D01*
X17321530Y34558849D01*
X17327462Y34560505D01*
X17327466Y34560506D01*
X17417078Y34585526D01*
X17512626Y34612204D01*
X17689719Y34701660D01*
X17695944Y34706523D01*
X17816190Y34800471D01*
X17846064Y34823811D01*
X17868514Y34849819D01*
X17971681Y34969340D01*
X17971682Y34969341D01*
X17975705Y34974002D01*
X17992089Y35002842D01*
X18070659Y35141151D01*
X18073706Y35146514D01*
X18136332Y35334775D01*
X18145989Y35411220D01*
X18160757Y35528112D01*
X18160758Y35528122D01*
X18161199Y35531615D01*
X18161595Y35560000D01*
X18142234Y35757458D01*
X18102102Y35890382D01*
X18101561Y35961377D01*
X18133629Y36015895D01*
X18229329Y36111595D01*
X18291641Y36145621D01*
X18318424Y36148500D01*
X18640923Y36148500D01*
X18709044Y36128498D01*
X18755537Y36074842D01*
X18765641Y36004568D01*
X18754771Y35972074D01*
X18756008Y35971544D01*
X18753578Y35965874D01*
X18750612Y35960479D01*
X18690620Y35771362D01*
X18668504Y35574194D01*
X18685106Y35376485D01*
X18697066Y35334775D01*
X18727858Y35227393D01*
X18739794Y35185766D01*
X18742610Y35180287D01*
X18801819Y35065079D01*
X18830484Y35009302D01*
X18834307Y35004478D01*
X18834310Y35004474D01*
X18945422Y34864287D01*
X18953723Y34853814D01*
X18958417Y34849819D01*
X19053171Y34769177D01*
X19104815Y34725224D01*
X19278007Y34628430D01*
X19466701Y34567120D01*
X19663710Y34543628D01*
X19669845Y34544100D01*
X19669847Y34544100D01*
X19855388Y34558376D01*
X19855392Y34558377D01*
X19861530Y34558849D01*
X19867462Y34560505D01*
X19867466Y34560506D01*
X19957078Y34585526D01*
X20052626Y34612204D01*
X20229719Y34701660D01*
X20235944Y34706523D01*
X20356190Y34800471D01*
X20386064Y34823811D01*
X20408514Y34849819D01*
X20511681Y34969340D01*
X20511682Y34969341D01*
X20515705Y34974002D01*
X20532089Y35002842D01*
X20610659Y35141151D01*
X20613706Y35146514D01*
X20676332Y35334775D01*
X20685989Y35411220D01*
X20700757Y35528112D01*
X20700758Y35528122D01*
X20701199Y35531615D01*
X20701595Y35560000D01*
X20682234Y35757458D01*
X20624889Y35947394D01*
X20621052Y35954610D01*
X20534638Y36117133D01*
X20534636Y36117136D01*
X20531744Y36122575D01*
X20527854Y36127345D01*
X20527851Y36127349D01*
X20430109Y36247192D01*
X20402555Y36312624D01*
X20414750Y36382565D01*
X20438654Y36415920D01*
X21361252Y37338517D01*
X21381990Y37355266D01*
X21389829Y37360328D01*
X21391630Y37357539D01*
X21439557Y37380856D01*
X21510057Y37372469D01*
X21542187Y37352567D01*
X21547559Y37347996D01*
X21627033Y37280358D01*
X21644815Y37265224D01*
X21818007Y37168430D01*
X22006701Y37107120D01*
X22203710Y37083628D01*
X22209845Y37084100D01*
X22209847Y37084100D01*
X22395388Y37098376D01*
X22395392Y37098377D01*
X22401530Y37098849D01*
X22407462Y37100505D01*
X22407466Y37100506D01*
X22519429Y37131767D01*
X22592626Y37152204D01*
X22769719Y37241660D01*
X22781974Y37251234D01*
X22893684Y37338513D01*
X22902732Y37345582D01*
X22968727Y37371760D01*
X23038397Y37358103D01*
X23089624Y37308947D01*
X23106209Y37251234D01*
X23106503Y37243743D01*
X23106600Y37238802D01*
X23106600Y36411518D01*
X23086598Y36343397D01*
X23032942Y36296904D01*
X22962668Y36286800D01*
X22900285Y36314433D01*
X22798222Y36398866D01*
X22793473Y36402795D01*
X22788054Y36405725D01*
X22788051Y36405727D01*
X22624366Y36494231D01*
X22624361Y36494233D01*
X22618946Y36497161D01*
X22429415Y36555831D01*
X22423290Y36556475D01*
X22423289Y36556475D01*
X22238225Y36575926D01*
X22238224Y36575926D01*
X22232097Y36576570D01*
X22149572Y36569060D01*
X22040648Y36559147D01*
X22040645Y36559146D01*
X22034509Y36558588D01*
X22028603Y36556850D01*
X22028599Y36556849D01*
X21893749Y36517160D01*
X21844177Y36502570D01*
X21668350Y36410650D01*
X21663550Y36406790D01*
X21663549Y36406790D01*
X21570632Y36332083D01*
X21513726Y36286329D01*
X21386194Y36134343D01*
X21383227Y36128945D01*
X21383223Y36128940D01*
X21321077Y36015895D01*
X21290612Y35960479D01*
X21230620Y35771362D01*
X21208504Y35574194D01*
X21225106Y35376485D01*
X21237066Y35334775D01*
X21267858Y35227393D01*
X21279794Y35185766D01*
X21282610Y35180287D01*
X21341819Y35065079D01*
X21370484Y35009302D01*
X21374307Y35004478D01*
X21374310Y35004474D01*
X21485422Y34864287D01*
X21493723Y34853814D01*
X21498417Y34849819D01*
X21593171Y34769177D01*
X21644815Y34725224D01*
X21818007Y34628430D01*
X22006701Y34567120D01*
X22203710Y34543628D01*
X22209845Y34544100D01*
X22209847Y34544100D01*
X22395388Y34558376D01*
X22395392Y34558377D01*
X22401530Y34558849D01*
X22407462Y34560505D01*
X22407466Y34560506D01*
X22497078Y34585526D01*
X22592626Y34612204D01*
X22769719Y34701660D01*
X22775944Y34706523D01*
X22896190Y34800471D01*
X22903027Y34805812D01*
X22969020Y34831990D01*
X23038691Y34818333D01*
X23089918Y34769177D01*
X23106600Y34706523D01*
X23106600Y20262524D01*
X23086598Y20194403D01*
X23069695Y20173429D01*
X19794470Y16898205D01*
X19732158Y16864179D01*
X19705375Y16861300D01*
X14527228Y16861300D01*
X14503727Y16863801D01*
X14501775Y16863893D01*
X14491590Y16866086D01*
X14481249Y16864862D01*
X14481248Y16864862D01*
X14458530Y16862173D01*
X14452676Y16861828D01*
X14452684Y16861728D01*
X14447507Y16861300D01*
X14442304Y16861300D01*
X14423414Y16858156D01*
X14417562Y16857324D01*
X14412856Y16856767D01*
X14367051Y16851345D01*
X14358859Y16847411D01*
X14349893Y16845919D01*
X14305118Y16821759D01*
X14299855Y16819078D01*
X14261146Y16800491D01*
X14261142Y16800489D01*
X14254000Y16797059D01*
X14249760Y16793494D01*
X14247834Y16791568D01*
X14245935Y16789825D01*
X14245825Y16789766D01*
X14245719Y16789882D01*
X14245213Y16789436D01*
X14239525Y16786367D01*
X14232460Y16778724D01*
X14203191Y16747061D01*
X14199761Y16743495D01*
X13152638Y15696373D01*
X13090326Y15662347D01*
X13019510Y15667412D01*
X12962675Y15709959D01*
X12952292Y15726315D01*
X12914638Y15797133D01*
X12914636Y15797136D01*
X12911744Y15802575D01*
X12907854Y15807345D01*
X12907851Y15807349D01*
X12790241Y15951553D01*
X12790238Y15951556D01*
X12786346Y15956328D01*
X12633473Y16082795D01*
X12628054Y16085725D01*
X12628051Y16085727D01*
X12464366Y16174231D01*
X12464361Y16174233D01*
X12458946Y16177161D01*
X12269415Y16235831D01*
X12263290Y16236475D01*
X12263289Y16236475D01*
X12078227Y16255926D01*
X12078224Y16255926D01*
X12072097Y16256570D01*
X12065953Y16256011D01*
X12065500Y16256014D01*
X11997520Y16276488D01*
X11951400Y16330465D01*
X11941678Y16400091D01*
X11948314Y16445857D01*
X11948315Y16445867D01*
X11948846Y16449530D01*
X11950429Y16510000D01*
X11931081Y16720560D01*
X11924115Y16745262D01*
X11911530Y16789882D01*
X11873686Y16924069D01*
X11870063Y16931417D01*
X11782719Y17108531D01*
X11780165Y17113710D01*
X11653651Y17283133D01*
X11498381Y17426663D01*
X11499954Y17428365D01*
X11464029Y17477589D01*
X11459823Y17548461D01*
X11493515Y17609281D01*
X12420442Y18536208D01*
X12438835Y18551064D01*
X12440278Y18552377D01*
X12449030Y18558028D01*
X12469643Y18584176D01*
X12473540Y18588560D01*
X12473463Y18588625D01*
X12476817Y18592583D01*
X12480496Y18596262D01*
X12491628Y18611839D01*
X12495191Y18616584D01*
X12506280Y18630650D01*
X12526669Y18656514D01*
X12529680Y18665087D01*
X12534965Y18672483D01*
X12549546Y18721238D01*
X12551368Y18726844D01*
X12565595Y18767356D01*
X12565596Y18767362D01*
X12568222Y18774839D01*
X12568700Y18780358D01*
X12568700Y18783072D01*
X12568812Y18785663D01*
X12568853Y18785799D01*
X12569004Y18785792D01*
X12569045Y18786441D01*
X12570897Y18792634D01*
X12568797Y18846088D01*
X12568700Y18851034D01*
X12568700Y20064618D01*
X12588702Y20132739D01*
X12642358Y20179232D01*
X12712632Y20189336D01*
X12777212Y20159842D01*
X12811933Y20110797D01*
X12816331Y20099632D01*
X12831452Y20070830D01*
X12983876Y19780504D01*
X12983881Y19780496D01*
X12985460Y19777488D01*
X13188391Y19475495D01*
X13422750Y19197184D01*
X13685796Y18945812D01*
X13974452Y18724319D01*
X13982023Y18719716D01*
X14282425Y18537068D01*
X14282430Y18537065D01*
X14285340Y18535296D01*
X14614824Y18380954D01*
X14959050Y18263100D01*
X14962373Y18262351D01*
X14962377Y18262350D01*
X15062779Y18239723D01*
X15313990Y18183110D01*
X15363957Y18177417D01*
X15672110Y18142307D01*
X15672118Y18142307D01*
X15675493Y18141922D01*
X15678897Y18141904D01*
X15678900Y18141904D01*
X15876645Y18140869D01*
X16039331Y18140017D01*
X16042717Y18140367D01*
X16042719Y18140367D01*
X16397853Y18177066D01*
X16397862Y18177067D01*
X16401245Y18177417D01*
X16404578Y18178132D01*
X16404581Y18178132D01*
X16686186Y18238503D01*
X16757004Y18253685D01*
X17102445Y18367929D01*
X17433527Y18518812D01*
X17598194Y18616584D01*
X17743433Y18702820D01*
X17743438Y18702823D01*
X17746378Y18704569D01*
X17772670Y18724309D01*
X18034604Y18920975D01*
X18037337Y18923027D01*
X18303001Y19171631D01*
X18540262Y19447472D01*
X18566893Y19486221D01*
X18744414Y19744515D01*
X18744419Y19744522D01*
X18746344Y19747324D01*
X18747956Y19750318D01*
X18747961Y19750326D01*
X18917221Y20064678D01*
X18918837Y20067679D01*
X18920113Y20070822D01*
X18920117Y20070830D01*
X19054446Y20401641D01*
X19054448Y20401645D01*
X19055724Y20404789D01*
X19155401Y20754711D01*
X19161280Y20789104D01*
X19216133Y21110005D01*
X19216133Y21110007D01*
X19216705Y21113352D01*
X19219893Y21165464D01*
X19238807Y21474718D01*
X19238917Y21476515D01*
X19238999Y21500000D01*
X19219323Y21863310D01*
X19160525Y22222369D01*
X19063292Y22572979D01*
X19061735Y22576893D01*
X18930022Y22907872D01*
X18928763Y22911036D01*
X18758510Y23232588D01*
X18748486Y23247394D01*
X18556432Y23531057D01*
X18556425Y23531066D01*
X18554526Y23533871D01*
X18552330Y23536461D01*
X18552325Y23536467D01*
X18461061Y23644080D01*
X18319196Y23811362D01*
X18055275Y24061814D01*
X18052568Y24063876D01*
X18052560Y24063883D01*
X17848270Y24219509D01*
X17765848Y24282298D01*
X17681673Y24333076D01*
X17457224Y24468473D01*
X17457215Y24468478D01*
X17454302Y24470235D01*
X17451212Y24471669D01*
X17451207Y24471672D01*
X17127377Y24621988D01*
X17127375Y24621989D01*
X17124281Y24623425D01*
X17121046Y24624520D01*
X17121041Y24624522D01*
X16782881Y24738983D01*
X16779646Y24740078D01*
X16769836Y24742253D01*
X16692977Y24759292D01*
X16424428Y24818828D01*
X16297043Y24832891D01*
X16066164Y24858381D01*
X16066159Y24858381D01*
X16062783Y24858754D01*
X16059384Y24858760D01*
X16059383Y24858760D01*
X15887663Y24859060D01*
X15698942Y24859389D01*
X15528335Y24841156D01*
X15340544Y24821087D01*
X15340538Y24821086D01*
X15337160Y24820725D01*
X15333837Y24820001D01*
X15333834Y24820000D01*
X15234662Y24798377D01*
X14981669Y24743216D01*
X14636629Y24627767D01*
X14633536Y24626344D01*
X14633535Y24626344D01*
X14513630Y24571194D01*
X14306076Y24475730D01*
X14303142Y24473974D01*
X14303140Y24473973D01*
X14238273Y24435151D01*
X13993876Y24288882D01*
X13703681Y24069409D01*
X13701199Y24067070D01*
X13701193Y24067065D01*
X13441372Y23822221D01*
X13438887Y23819879D01*
X13436675Y23817289D01*
X13436673Y23817287D01*
X13421666Y23799716D01*
X13202590Y23543212D01*
X13200671Y23540400D01*
X13200668Y23540395D01*
X13000797Y23247394D01*
X12997555Y23242642D01*
X12995948Y23239632D01*
X12995946Y23239629D01*
X12827787Y22924694D01*
X12827783Y22924685D01*
X12826182Y22921687D01*
X12824911Y22918525D01*
X12811607Y22885431D01*
X12767640Y22829687D01*
X12700515Y22806562D01*
X12631544Y22823399D01*
X12582624Y22874852D01*
X12568700Y22932428D01*
X12568700Y26454648D01*
X12588702Y26522769D01*
X12646481Y26571057D01*
X12732002Y26606481D01*
X12740896Y26613305D01*
X12851414Y26698110D01*
X12857964Y26703136D01*
X12954619Y26829099D01*
X13015379Y26975785D01*
X13017323Y26990547D01*
X13035025Y27125012D01*
X13036103Y27133200D01*
X13026566Y27205644D01*
X13016457Y27282429D01*
X13016456Y27282431D01*
X13015379Y27290615D01*
X12954619Y27437301D01*
X12857964Y27563264D01*
X12802765Y27605620D01*
X12738555Y27654891D01*
X12738553Y27654892D01*
X12732002Y27659919D01*
X12605201Y27712442D01*
X12592944Y27717519D01*
X12585315Y27720679D01*
X12427900Y27741403D01*
X12393046Y27736814D01*
X12322899Y27747753D01*
X12269800Y27794880D01*
X12250600Y27861736D01*
X12250600Y32190372D01*
X12253101Y32213872D01*
X12253193Y32215825D01*
X12255386Y32226010D01*
X12251474Y32259060D01*
X12251128Y32264924D01*
X12251028Y32264916D01*
X12250600Y32270093D01*
X12250600Y32275296D01*
X12247456Y32294186D01*
X12246622Y32300050D01*
X12241868Y32340209D01*
X12240644Y32350549D01*
X12236712Y32358738D01*
X12235219Y32367707D01*
X12211061Y32412479D01*
X12208365Y32417770D01*
X12189789Y32456456D01*
X12189787Y32456460D01*
X12186358Y32463600D01*
X12182794Y32467840D01*
X12180863Y32469771D01*
X12179125Y32471665D01*
X12179058Y32471789D01*
X12179172Y32471893D01*
X12178735Y32472388D01*
X12175667Y32478075D01*
X12136374Y32514397D01*
X12132807Y32517827D01*
X11472530Y33178105D01*
X11438505Y33240417D01*
X11443570Y33311233D01*
X11481057Y33364074D01*
X11607574Y33469297D01*
X11612012Y33472988D01*
X11747219Y33635558D01*
X11750043Y33640601D01*
X11750046Y33640605D01*
X11847713Y33815002D01*
X11847714Y33815004D01*
X11850537Y33820045D01*
X11852393Y33825512D01*
X11852395Y33825517D01*
X11914763Y34009250D01*
X11918504Y34020270D01*
X11920496Y34034004D01*
X11948314Y34225860D01*
X11948314Y34225862D01*
X11948846Y34229530D01*
X11950429Y34290000D01*
X11939644Y34407373D01*
X11953329Y34477038D01*
X12002505Y34528245D01*
X12055449Y34544531D01*
X12235388Y34558376D01*
X12235392Y34558377D01*
X12241530Y34558849D01*
X12247462Y34560505D01*
X12247466Y34560506D01*
X12337078Y34585526D01*
X12432626Y34612204D01*
X12609719Y34701660D01*
X12615944Y34706523D01*
X12736190Y34800471D01*
X12766064Y34823811D01*
X12788514Y34849819D01*
X12891681Y34969340D01*
X12891682Y34969341D01*
X12895705Y34974002D01*
X12912089Y35002842D01*
X12990659Y35141151D01*
X12993706Y35146514D01*
X13056332Y35334775D01*
X13065989Y35411220D01*
X13080757Y35528112D01*
X13080758Y35528122D01*
X13081199Y35531615D01*
X13081595Y35560000D01*
X13062234Y35757458D01*
X13022102Y35890382D01*
X13021561Y35961375D01*
X13053629Y36015894D01*
X13233547Y36195812D01*
X13251937Y36210666D01*
X13253377Y36211976D01*
X13262130Y36217628D01*
X13282733Y36243763D01*
X13286639Y36248158D01*
X13286562Y36248223D01*
X13289915Y36252180D01*
X13293597Y36255862D01*
X13304733Y36271446D01*
X13308292Y36276186D01*
X13333321Y36307934D01*
X13333323Y36307937D01*
X13339769Y36316114D01*
X13342780Y36324687D01*
X13348065Y36332083D01*
X13362646Y36380838D01*
X13364468Y36386444D01*
X13378695Y36426956D01*
X13378696Y36426962D01*
X13381322Y36434439D01*
X13381800Y36439958D01*
X13381800Y36442672D01*
X13381912Y36445263D01*
X13381953Y36445399D01*
X13382104Y36445392D01*
X13382145Y36446041D01*
X13383997Y36452234D01*
X13381897Y36505688D01*
X13381800Y36510634D01*
X13381800Y37620954D01*
X13401802Y37689075D01*
X13418705Y37710049D01*
X13461107Y37752451D01*
X13523419Y37786477D01*
X13594234Y37781412D01*
X13651070Y37738865D01*
X13662268Y37720950D01*
X13747664Y37554787D01*
X13747669Y37554779D01*
X13750484Y37549302D01*
X13754307Y37544478D01*
X13754310Y37544474D01*
X13860129Y37410965D01*
X13873723Y37393814D01*
X13878417Y37389819D01*
X14007033Y37280358D01*
X14024815Y37265224D01*
X14198007Y37168430D01*
X14386701Y37107120D01*
X14583710Y37083628D01*
X14589845Y37084100D01*
X14589847Y37084100D01*
X14775388Y37098376D01*
X14775392Y37098377D01*
X14781530Y37098849D01*
X14787462Y37100505D01*
X14787466Y37100506D01*
X14899429Y37131767D01*
X14972626Y37152204D01*
X15149719Y37241660D01*
X15161974Y37251234D01*
X15243606Y37315013D01*
X15306064Y37363811D01*
X15312926Y37371760D01*
X15431681Y37509340D01*
X15431682Y37509341D01*
X15435705Y37514002D01*
X15445830Y37531824D01*
X15472284Y37578393D01*
X15533706Y37686514D01*
X15596332Y37874775D01*
X15605989Y37951220D01*
X15620757Y38068112D01*
X15620758Y38068122D01*
X15621199Y38071615D01*
X15621595Y38100000D01*
X15602234Y38297458D01*
X15562102Y38430382D01*
X15561561Y38501377D01*
X15593629Y38555895D01*
X15740129Y38702395D01*
X15802441Y38736421D01*
X15829224Y38739300D01*
X16128850Y38739300D01*
X16196971Y38719298D01*
G37*
G04 #@! TD.AperFunction*
G04 #@! TA.AperFunction,Conductor*
G36*
X24068512Y31215255D02*
G01*
X24096995Y31173022D01*
X24098882Y31174040D01*
X24123039Y31129270D01*
X24125735Y31123978D01*
X24144311Y31085292D01*
X24144313Y31085288D01*
X24147742Y31078148D01*
X24151306Y31073908D01*
X24153237Y31071977D01*
X24154975Y31070083D01*
X24155042Y31069959D01*
X24154928Y31069855D01*
X24155365Y31069360D01*
X24158433Y31063673D01*
X24166076Y31056608D01*
X24197739Y31027339D01*
X24201305Y31023909D01*
X24478395Y30746819D01*
X24512421Y30684507D01*
X24515300Y30657724D01*
X24515300Y28881257D01*
X24512799Y28857757D01*
X24512707Y28855804D01*
X24510514Y28845619D01*
X24514426Y28812572D01*
X24514772Y28806705D01*
X24514872Y28806713D01*
X24515300Y28801536D01*
X24515300Y28796333D01*
X24518207Y28778866D01*
X24518443Y28777450D01*
X24519278Y28771579D01*
X24525256Y28721080D01*
X24529188Y28712891D01*
X24530681Y28703922D01*
X24535624Y28694762D01*
X24554839Y28659151D01*
X24557535Y28653859D01*
X24576111Y28615173D01*
X24576113Y28615169D01*
X24579542Y28608029D01*
X24583106Y28603789D01*
X24585037Y28601858D01*
X24586775Y28599964D01*
X24586842Y28599840D01*
X24586728Y28599736D01*
X24587165Y28599241D01*
X24590233Y28593554D01*
X24597876Y28586489D01*
X24629525Y28557233D01*
X24633091Y28553803D01*
X25383176Y27803718D01*
X25417202Y27741406D01*
X25412137Y27670591D01*
X25369590Y27613755D01*
X25363799Y27609880D01*
X25360818Y27607714D01*
X25355856Y27604762D01*
X25196881Y27465345D01*
X25065976Y27299292D01*
X25063287Y27294181D01*
X25063285Y27294178D01*
X25044774Y27258994D01*
X24967523Y27112164D01*
X24904820Y26910227D01*
X24879967Y26700246D01*
X24893796Y26489251D01*
X24895217Y26483655D01*
X24895218Y26483650D01*
X24939237Y26310328D01*
X24945845Y26284310D01*
X24948262Y26279067D01*
X24978465Y26213552D01*
X25034369Y26092286D01*
X25156405Y25919609D01*
X25307865Y25772063D01*
X25312661Y25768858D01*
X25312664Y25768856D01*
X25455936Y25673125D01*
X25483677Y25654589D01*
X25488980Y25652310D01*
X25488985Y25652308D01*
X25508207Y25644050D01*
X25541768Y25629631D01*
X25596460Y25584364D01*
X25617998Y25516713D01*
X25599541Y25448158D01*
X25546951Y25400463D01*
X25531175Y25394099D01*
X25511868Y25387788D01*
X25502359Y25383791D01*
X25313463Y25285458D01*
X25304738Y25279964D01*
X25134433Y25152095D01*
X25126726Y25145252D01*
X24979590Y24991283D01*
X24973104Y24983273D01*
X24853098Y24807351D01*
X24848000Y24798377D01*
X24758338Y24605217D01*
X24754775Y24595530D01*
X24699389Y24395817D01*
X24700912Y24387393D01*
X24713292Y24384000D01*
X26163000Y24384000D01*
X26231121Y24363998D01*
X26277614Y24310342D01*
X26289000Y24258000D01*
X26289000Y24002000D01*
X26268998Y23933879D01*
X26215342Y23887386D01*
X26163000Y23876000D01*
X24718225Y23876000D01*
X24704694Y23872027D01*
X24703257Y23862034D01*
X24733565Y23727554D01*
X24736645Y23717725D01*
X24816770Y23520397D01*
X24821413Y23511206D01*
X24932694Y23329612D01*
X24938777Y23321301D01*
X25078213Y23160333D01*
X25085580Y23153117D01*
X25249434Y23017084D01*
X25257881Y23011169D01*
X25441756Y22903721D01*
X25451046Y22899270D01*
X25535328Y22867086D01*
X25591832Y22824099D01*
X25616125Y22757388D01*
X25600495Y22688133D01*
X25544628Y22635652D01*
X25542990Y22634871D01*
X25537575Y22632873D01*
X25532613Y22629921D01*
X25532611Y22629920D01*
X25434710Y22571675D01*
X25355856Y22524762D01*
X25196881Y22385345D01*
X25065976Y22219292D01*
X25063287Y22214181D01*
X25063285Y22214178D01*
X25035987Y22162292D01*
X24967523Y22032164D01*
X24904820Y21830227D01*
X24879967Y21620246D01*
X24893796Y21409251D01*
X24895217Y21403655D01*
X24895218Y21403650D01*
X24944424Y21209905D01*
X24945845Y21204310D01*
X24948262Y21199067D01*
X25024969Y21032677D01*
X25034369Y21012286D01*
X25156405Y20839609D01*
X25307865Y20692063D01*
X25366369Y20652972D01*
X25411896Y20598494D01*
X25420743Y20528051D01*
X25388893Y20462680D01*
X25382234Y20455476D01*
X25378802Y20451908D01*
X24727953Y19801059D01*
X24709563Y19786205D01*
X24708123Y19784895D01*
X24699370Y19779243D01*
X24692923Y19771065D01*
X24692921Y19771063D01*
X24678767Y19753108D01*
X24674861Y19748713D01*
X24674938Y19748648D01*
X24671585Y19744691D01*
X24667903Y19741009D01*
X24664880Y19736778D01*
X24656777Y19725438D01*
X24653208Y19720685D01*
X24628179Y19688937D01*
X24628177Y19688934D01*
X24621731Y19680757D01*
X24618720Y19672184D01*
X24613435Y19664788D01*
X24610451Y19654810D01*
X24598861Y19616056D01*
X24597026Y19610409D01*
X24582805Y19569915D01*
X24582804Y19569909D01*
X24580178Y19562432D01*
X24579700Y19556913D01*
X24579700Y19554198D01*
X24579588Y19551612D01*
X24579546Y19551473D01*
X24579395Y19551479D01*
X24579354Y19550830D01*
X24577502Y19544636D01*
X24577911Y19534230D01*
X24579603Y19491168D01*
X24579700Y19486221D01*
X24579700Y18306624D01*
X24559698Y18238503D01*
X24542795Y18217529D01*
X22918670Y16593405D01*
X22856358Y16559379D01*
X22829575Y16556500D01*
X20822425Y16556500D01*
X20754304Y16576502D01*
X20707811Y16630158D01*
X20697707Y16700432D01*
X20727201Y16765012D01*
X20733330Y16771595D01*
X23711747Y19750012D01*
X23730137Y19764866D01*
X23731577Y19766176D01*
X23740330Y19771828D01*
X23760933Y19797963D01*
X23764839Y19802358D01*
X23764762Y19802423D01*
X23768115Y19806380D01*
X23771797Y19810062D01*
X23782933Y19825646D01*
X23786492Y19830386D01*
X23811521Y19862134D01*
X23811523Y19862137D01*
X23817969Y19870314D01*
X23820980Y19878887D01*
X23826265Y19886283D01*
X23840847Y19935041D01*
X23842668Y19940644D01*
X23856895Y19981156D01*
X23856896Y19981162D01*
X23859522Y19988639D01*
X23860000Y19994158D01*
X23860000Y19996872D01*
X23860112Y19999463D01*
X23860153Y19999599D01*
X23860304Y19999592D01*
X23860345Y20000241D01*
X23862197Y20006434D01*
X23860097Y20059888D01*
X23860000Y20064834D01*
X23860000Y31120031D01*
X23880002Y31188152D01*
X23933658Y31234645D01*
X24003932Y31244749D01*
X24068512Y31215255D01*
G37*
G04 #@! TD.AperFunction*
G04 #@! TA.AperFunction,Conductor*
G36*
X27709782Y37141812D02*
G01*
X27761771Y37110495D01*
X28856724Y36015542D01*
X28890750Y35953230D01*
X28887731Y35888350D01*
X28850620Y35771362D01*
X28828504Y35574194D01*
X28845106Y35376485D01*
X28857066Y35334775D01*
X28887858Y35227393D01*
X28899794Y35185766D01*
X28902610Y35180287D01*
X28961819Y35065079D01*
X28990484Y35009302D01*
X28994307Y35004478D01*
X28994310Y35004474D01*
X29105422Y34864287D01*
X29113723Y34853814D01*
X29118417Y34849819D01*
X29118418Y34849818D01*
X29156804Y34817148D01*
X29195716Y34757764D01*
X29196346Y34686771D01*
X29164235Y34632100D01*
X28371953Y33839818D01*
X28353563Y33824964D01*
X28352123Y33823654D01*
X28343370Y33818002D01*
X28336923Y33809824D01*
X28336921Y33809822D01*
X28322767Y33791867D01*
X28318861Y33787472D01*
X28318938Y33787407D01*
X28315585Y33783450D01*
X28311903Y33779768D01*
X28308880Y33775537D01*
X28300777Y33764197D01*
X28297208Y33759444D01*
X28272179Y33727696D01*
X28272177Y33727693D01*
X28265731Y33719516D01*
X28262720Y33710943D01*
X28257435Y33703547D01*
X28254451Y33693569D01*
X28242861Y33654815D01*
X28241026Y33649168D01*
X28226805Y33608674D01*
X28226804Y33608668D01*
X28224178Y33601191D01*
X28223700Y33595672D01*
X28223700Y33592957D01*
X28223588Y33590371D01*
X28223546Y33590232D01*
X28223395Y33590238D01*
X28223354Y33589589D01*
X28221502Y33583395D01*
X28221911Y33572989D01*
X28223603Y33529927D01*
X28223700Y33524980D01*
X28223700Y30305728D01*
X28203698Y30237607D01*
X28186799Y30216637D01*
X27371408Y29401247D01*
X27309098Y29367223D01*
X27238282Y29372288D01*
X27181447Y29414835D01*
X27161046Y29456143D01*
X27115256Y29618504D01*
X27115254Y29618509D01*
X27113686Y29624069D01*
X27104737Y29642217D01*
X27022719Y29808531D01*
X27020165Y29813710D01*
X26893651Y29983133D01*
X26793286Y30075910D01*
X26742622Y30122743D01*
X26742620Y30122745D01*
X26738381Y30126663D01*
X26709696Y30144762D01*
X26564434Y30236416D01*
X26564433Y30236416D01*
X26559554Y30239495D01*
X26422480Y30294181D01*
X26366622Y30338001D01*
X26355586Y30356673D01*
X26350889Y30366455D01*
X26350889Y30366456D01*
X26347458Y30373600D01*
X26343894Y30377840D01*
X26341963Y30379771D01*
X26340225Y30381665D01*
X26340158Y30381789D01*
X26340272Y30381893D01*
X26339835Y30382388D01*
X26336767Y30388075D01*
X26297460Y30424410D01*
X26293895Y30427839D01*
X26291606Y30430128D01*
X26257580Y30492440D01*
X26262645Y30563255D01*
X26305192Y30620091D01*
X26340199Y30638536D01*
X26358939Y30644897D01*
X26504955Y30694463D01*
X26532545Y30709914D01*
X26684395Y30794954D01*
X26684399Y30794957D01*
X26689442Y30797781D01*
X26852012Y30932988D01*
X26987219Y31095558D01*
X26990043Y31100601D01*
X26990046Y31100605D01*
X27087713Y31275002D01*
X27087714Y31275004D01*
X27090537Y31280045D01*
X27092393Y31285512D01*
X27092395Y31285517D01*
X27153975Y31466927D01*
X27158504Y31480270D01*
X27160787Y31496011D01*
X27188314Y31685860D01*
X27188314Y31685862D01*
X27188846Y31689530D01*
X27190429Y31750000D01*
X27171081Y31960560D01*
X27113686Y32164069D01*
X27104737Y32182217D01*
X27022719Y32348531D01*
X27020165Y32353710D01*
X26922022Y32485140D01*
X26897104Y32518509D01*
X26897103Y32518510D01*
X26893651Y32523133D01*
X26781351Y32626942D01*
X26742622Y32662743D01*
X26742620Y32662745D01*
X26738381Y32666663D01*
X26559554Y32779495D01*
X26363160Y32857848D01*
X26357503Y32858973D01*
X26357497Y32858975D01*
X26160234Y32898212D01*
X26097324Y32931119D01*
X26062192Y32992814D01*
X26065992Y33063709D01*
X26107517Y33121295D01*
X26166734Y33146487D01*
X26299015Y33165667D01*
X26299019Y33165668D01*
X26304730Y33166496D01*
X26383987Y33193400D01*
X26499483Y33232605D01*
X26499488Y33232607D01*
X26504955Y33234463D01*
X26515587Y33240417D01*
X26684395Y33334954D01*
X26684399Y33334957D01*
X26689442Y33337781D01*
X26852012Y33472988D01*
X26987219Y33635558D01*
X26990043Y33640601D01*
X26990046Y33640605D01*
X27087713Y33815002D01*
X27087714Y33815004D01*
X27090537Y33820045D01*
X27092393Y33825512D01*
X27092395Y33825517D01*
X27154763Y34009250D01*
X27158504Y34020270D01*
X27160496Y34034004D01*
X27188314Y34225860D01*
X27188314Y34225862D01*
X27188846Y34229530D01*
X27190429Y34290000D01*
X27179644Y34407373D01*
X27193329Y34477038D01*
X27242505Y34528245D01*
X27295449Y34544531D01*
X27475388Y34558376D01*
X27475392Y34558377D01*
X27481530Y34558849D01*
X27487462Y34560505D01*
X27487466Y34560506D01*
X27577078Y34585526D01*
X27672626Y34612204D01*
X27849719Y34701660D01*
X27855944Y34706523D01*
X27976190Y34800471D01*
X28006064Y34823811D01*
X28028514Y34849819D01*
X28131681Y34969340D01*
X28131682Y34969341D01*
X28135705Y34974002D01*
X28152089Y35002842D01*
X28230659Y35141151D01*
X28233706Y35146514D01*
X28296332Y35334775D01*
X28305989Y35411220D01*
X28320757Y35528112D01*
X28320758Y35528122D01*
X28321199Y35531615D01*
X28321595Y35560000D01*
X28302234Y35757458D01*
X28244889Y35947394D01*
X28241052Y35954610D01*
X28154638Y36117133D01*
X28154636Y36117136D01*
X28151744Y36122575D01*
X28147854Y36127345D01*
X28147851Y36127349D01*
X28030241Y36271553D01*
X28030238Y36271556D01*
X28026346Y36276328D01*
X28013688Y36286800D01*
X27897927Y36382565D01*
X27873473Y36402795D01*
X27868054Y36405725D01*
X27868051Y36405727D01*
X27704366Y36494231D01*
X27704361Y36494233D01*
X27698946Y36497161D01*
X27509415Y36555831D01*
X27503290Y36556475D01*
X27503289Y36556475D01*
X27318227Y36575926D01*
X27318224Y36575926D01*
X27312097Y36576570D01*
X27305953Y36576011D01*
X27305500Y36576014D01*
X27237520Y36596488D01*
X27191400Y36650465D01*
X27181678Y36720091D01*
X27188314Y36765857D01*
X27188315Y36765867D01*
X27188846Y36769530D01*
X27190429Y36830000D01*
X27179948Y36944065D01*
X27179644Y36947373D01*
X27193329Y37017038D01*
X27242505Y37068245D01*
X27295449Y37084531D01*
X27475388Y37098376D01*
X27475392Y37098377D01*
X27481530Y37098849D01*
X27487462Y37100505D01*
X27487466Y37100506D01*
X27542743Y37115940D01*
X27638794Y37142758D01*
X27709782Y37141812D01*
G37*
G04 #@! TD.AperFunction*
G04 #@! TA.AperFunction,Conductor*
G36*
X24929164Y41513298D02*
G01*
X24975468Y41460052D01*
X25034369Y41332286D01*
X25156405Y41159609D01*
X25307865Y41012063D01*
X25312661Y41008858D01*
X25312664Y41008856D01*
X25366966Y40972573D01*
X25412494Y40918096D01*
X25421342Y40847653D01*
X25390701Y40783609D01*
X25382383Y40775202D01*
X25380589Y40773694D01*
X25378657Y40771762D01*
X25376765Y40770026D01*
X25376660Y40769970D01*
X25376553Y40770086D01*
X25376043Y40769637D01*
X25370354Y40766567D01*
X25351584Y40746262D01*
X25334020Y40727261D01*
X25330590Y40723695D01*
X23596753Y38989859D01*
X23578363Y38975005D01*
X23576923Y38973695D01*
X23568170Y38968043D01*
X23561723Y38959865D01*
X23561721Y38959863D01*
X23547567Y38941908D01*
X23543661Y38937513D01*
X23543738Y38937448D01*
X23540385Y38933491D01*
X23536703Y38929809D01*
X23533680Y38925578D01*
X23525577Y38914238D01*
X23522008Y38909485D01*
X23496979Y38877737D01*
X23496977Y38877734D01*
X23490531Y38869557D01*
X23487520Y38860984D01*
X23482235Y38853588D01*
X23479251Y38843610D01*
X23467661Y38804856D01*
X23465826Y38799209D01*
X23451605Y38758715D01*
X23451604Y38758709D01*
X23448978Y38751232D01*
X23448500Y38745713D01*
X23448500Y38742998D01*
X23448388Y38740412D01*
X23448346Y38740273D01*
X23448195Y38740279D01*
X23448154Y38739630D01*
X23446302Y38733436D01*
X23446711Y38723030D01*
X23448403Y38679968D01*
X23448500Y38675021D01*
X23448500Y38401298D01*
X23428498Y38333177D01*
X23374842Y38286684D01*
X23304568Y38276580D01*
X23239988Y38306074D01*
X23201878Y38364880D01*
X23193087Y38393999D01*
X23164889Y38487394D01*
X23161052Y38494610D01*
X23074638Y38657133D01*
X23074636Y38657136D01*
X23071744Y38662575D01*
X23067854Y38667345D01*
X23067851Y38667349D01*
X22950241Y38811553D01*
X22950238Y38811556D01*
X22946346Y38816328D01*
X22793473Y38942795D01*
X22788054Y38945725D01*
X22788051Y38945727D01*
X22624366Y39034231D01*
X22624361Y39034233D01*
X22618946Y39037161D01*
X22429415Y39095831D01*
X22372030Y39101862D01*
X22306373Y39128875D01*
X22265743Y39187096D01*
X22263040Y39258041D01*
X22296105Y39316267D01*
X24476233Y41496395D01*
X24538545Y41530421D01*
X24565328Y41533300D01*
X24861043Y41533300D01*
X24929164Y41513298D01*
G37*
G04 #@! TD.AperFunction*
M02*
