M48
; DRILL file {KiCad (6.0.10-0)} date 
; FORMAT={-:-/ absolute / metric / decimal}
; #@! TF.CreationDate,2022-12-24T01:35:37+09:00
; #@! TF.GenerationSoftware,Kicad,Pcbnew,(6.0.10-0)
; #@! TF.FileFunction,MixedPlating,1,2
FMAT,2
METRIC
; #@! TA.AperFunction,Plated,PTH,ViaDrill
T1C0.300
; #@! TA.AperFunction,Plated,PTH,ComponentDrill
T2C0.800
; #@! TA.AperFunction,Plated,PTH,ComponentDrill
T3C1.000
%
G90
G05
T1
X1.27Y41.275
X8.48Y36.826
X8.89Y53.975
X8.89Y1.905
X12.428Y27.133
X13.335Y33.655
X13.335Y17.145
X13.335Y13.97
X20.955Y13.97
X22.225Y33.655
X22.225Y24.13
X23.622Y39.751
X27.94Y53.975
X27.94Y34.29
X27.94Y1.905
X35.56Y41.275
T2
X1.905Y27.92
X1.905Y25.42
X1.905Y21.59
X1.905Y11.43
X6.985Y35.56
X6.985Y33.02
X6.985Y30.48
X6.985Y27.94
X6.985Y25.4
X6.985Y22.86
X6.985Y20.32
X6.985Y17.78
X6.985Y15.24
X9.525Y38.1
X9.525Y35.56
X9.525Y33.02
X9.525Y30.48
X9.525Y27.94
X9.525Y25.4
X9.525Y22.86
X9.525Y20.32
X9.525Y17.78
X9.525Y15.24
X9.525Y12.7
X12.065Y38.1
X12.065Y35.56
X12.065Y15.24
X12.065Y12.7
X14.605Y38.1
X14.605Y35.56
X14.605Y15.24
X14.605Y12.7
X17.145Y38.1
X17.145Y35.56
X17.145Y15.24
X17.145Y12.7
X19.685Y38.1
X19.685Y35.56
X19.685Y15.24
X19.685Y12.7
X22.225Y38.1
X22.225Y35.56
X22.225Y15.24
X22.225Y12.7
X24.765Y38.1
X24.765Y35.56
X24.765Y15.24
X24.765Y12.7
X27.305Y38.1
X27.305Y35.56
X27.305Y15.24
X27.305Y12.7
X29.845Y38.1
X29.845Y35.56
X29.845Y33.02
X29.845Y30.48
X29.845Y27.94
X29.845Y25.4
X29.845Y22.86
X29.845Y20.32
X29.845Y17.78
X29.845Y15.24
X29.845Y12.7
X32.385Y35.56
X32.385Y33.02
X32.385Y30.48
X32.385Y27.94
X32.385Y25.4
X32.385Y22.86
X32.385Y20.32
X32.385Y17.78
X32.385Y15.24
T3
X10.795Y52.07
X10.795Y49.53
X10.795Y46.99
X10.795Y44.45
X10.795Y41.91
X10.795Y39.37
X10.795Y36.83
X10.795Y34.29
X10.795Y31.75
X10.795Y29.21
X10.795Y26.67
X10.795Y24.13
X10.795Y21.59
X10.795Y19.05
X10.795Y16.51
X10.795Y13.97
X10.795Y11.43
X10.795Y8.89
X10.795Y6.35
X10.795Y3.81
X26.035Y52.07
X26.035Y49.53
X26.035Y46.99
X26.035Y44.45
X26.035Y41.91
X26.035Y39.37
X26.035Y36.83
X26.035Y34.29
X26.035Y31.75
X26.035Y29.21
X26.035Y26.67
X26.035Y24.13
X26.035Y21.59
X26.035Y19.05
X26.035Y16.51
X26.035Y13.97
X26.035Y11.43
X26.035Y8.89
X26.035Y6.35
X26.035Y3.81
T0
M30
